<svg width="191" height="134" viewBox="0 0 191 134" fill="none" xmlns="http://www.w3.org/2000/svg">
<g clip-path="url(#clip0)">
<path opacity="0.1" d="M80.0057 21.2008C92.2461 20.7732 103.904 16.7962 115.038 12.4463C126.171 8.09626 137.198 3.27617 149.147 0.97173C156.83 -0.511765 165.619 -0.72126 171.811 3.42435C177.77 7.41327 179.694 14.2993 180.73 20.6898C181.509 25.4979 181.966 30.5565 179.833 35.0581C178.352 38.1817 175.722 40.8081 173.909 43.8006C167.579 54.2158 172.047 67.0563 178.912 77.2261C182.129 81.9951 185.863 86.5461 188.344 91.6234C190.826 96.7006 191.97 102.519 189.788 107.707C187.635 112.84 182.51 116.696 176.945 119.41C165.665 124.909 152.361 126.486 139.39 127.379C110.674 129.355 81.8034 128.5 53.0111 127.643C42.3569 127.324 31.6535 127.004 21.1719 125.345C15.3504 124.425 9.34113 122.961 5.11429 119.437C-0.250092 114.959 -1.58061 107.376 2.01482 101.761C8.04445 92.3421 24.7165 90.0087 28.9298 79.8951C31.2506 74.3324 28.8672 68.1344 25.4952 62.9754C18.2637 51.9045 6.14178 42.1962 5.50362 29.5431C5.06349 20.8567 10.8917 12.1499 19.9023 8.03835C29.3479 3.72923 42.4432 4.27085 49.4123 11.4056C56.5879 18.7515 69.1974 21.5772 80.0057 21.2008Z" fill="#04318C"/>
<path d="M38.2041 116.144C38.8912 115.92 39.6169 115.842 40.3353 115.915C41.2105 116.011 41.0869 117.351 40.2084 117.288C39.769 117.254 39.3344 117.173 38.9117 117.048L38.2041 116.144Z" fill="#04318C"/>
<path d="M37.9383 116.155C37.6221 116.809 37.4446 117.522 37.417 118.249C37.3882 119.134 38.7255 119.197 38.7864 118.313C38.8128 117.871 38.7935 117.427 38.7288 116.988L37.9383 116.155Z" fill="#04318C"/>
<path d="M35.9476 113.288C35.9476 113.288 36.3758 111.935 38.9946 112.46C40.1795 112.697 40.1474 114.407 38.9607 114.587H38.91C37.1816 114.829 36.5807 114.139 35.9476 113.288Z" fill="#04318C"/>
<path d="M35.675 113.207C35.675 113.207 34.2683 113.318 34.1803 116C34.1396 117.208 35.8003 117.574 36.2455 116.453C36.2455 116.436 36.2573 116.421 36.2641 116.404C36.8853 114.767 36.3555 114.021 35.675 113.207Z" fill="#04318C"/>
<path d="M33.7961 109.749C33.895 109.258 34.1221 108.803 34.4542 108.43C34.7863 108.057 35.2112 107.78 35.6853 107.627C37.4576 107.065 38.3937 109.732 36.662 110.41C35.9453 110.673 35.1822 110.785 34.4207 110.737L33.7961 109.749Z" fill="#04318C"/>
<path d="M31.6344 105.297C31.6344 105.297 32.3504 103.594 34.2073 103.253C36.1759 102.89 36.7718 105.866 34.8269 106.341C33.9542 106.532 33.0517 106.54 32.176 106.363L31.6344 105.297Z" fill="#04318C"/>
<path d="M30.3294 100.909C30.6326 100.43 31.0286 100.017 31.494 99.6948C31.9593 99.3729 32.4844 99.1487 33.0378 99.0355C34.7306 98.7153 35.301 101.265 33.6387 101.701C32.5948 101.958 31.503 101.943 30.4665 101.657L30.3294 100.909Z" fill="#04318C"/>
<path d="M29.0983 96.635C29.6385 95.7392 30.479 95.0669 31.4682 94.7394C33.161 94.2165 33.9973 96.7985 32.3146 97.3606C31.3171 97.6936 30.2388 97.6894 29.2439 97.3486L29.0983 96.635Z" fill="#04318C"/>
<path d="M28.581 92.7389C28.581 92.7389 29.2581 91.1413 30.6377 90.2966C32.1748 89.3547 33.639 91.6591 32.1612 92.6964C31.2505 93.3385 30.0842 93.7813 28.7215 93.4849L28.581 92.7389Z" fill="#04318C"/>
<path d="M28.3248 88.1194C28.3248 88.1194 29.0713 86.5065 30.5034 85.7349C32.1048 84.8833 33.4979 87.2372 31.9897 88.2523C31.0028 88.9148 29.7705 89.344 28.4619 88.8263L28.3248 88.1194Z" fill="#04318C"/>
<path d="M28.4838 83.9048C29.0424 83.0327 29.7271 82.2491 30.5152 81.58C31.6358 80.6585 33.0544 82.3174 31.993 83.3019C31.0128 84.2063 29.7923 84.9659 28.5312 84.9046L28.4838 83.9048Z" fill="#04318C"/>
<path d="M28.909 79.8622C29.5489 78.7761 30.3199 77.7738 31.2044 76.8781C32.0812 76.0265 33.3778 77.3244 32.5585 78.222C31.6123 79.2439 30.336 80.3033 28.8024 80.7666L28.909 79.8622Z" fill="#04318C"/>
<path d="M29.7301 75.1061C30.2578 74.2807 30.8724 73.515 31.5634 72.8221C32.447 71.9518 33.7792 73.2616 32.9311 74.166C32.0306 75.1283 30.8659 76.0293 29.4998 76.3359L29.7301 75.1061Z" fill="#04318C"/>
<path d="M30.4481 70.6697C30.9907 69.9307 31.5792 69.227 32.2102 68.5629C32.9177 67.8288 34.0484 68.8609 33.3815 69.6342C32.5978 70.5437 31.5924 71.3493 30.4362 71.4788L30.4481 70.6697Z" fill="#04318C"/>
<path d="M31.1926 66.5539C31.6874 65.5793 32.2532 64.6428 32.8853 63.7522C33.4151 63.0232 34.5188 63.8033 34.0194 64.5527C33.366 65.5354 32.4587 66.508 31.267 66.9763L31.1926 66.5539Z" fill="#04318C"/>
<path d="M31.8072 61.0854C31.8072 61.0854 32.2253 60.3718 32.8229 59.5423C33.3747 58.7776 34.5393 59.5679 34.0281 60.3599C33.4526 61.2472 32.7315 62.0035 31.8919 62.1534L31.8072 61.0854Z" fill="#04318C"/>
<path d="M32.0997 57.4621L32.6295 54.7966C32.77 54.0915 33.8144 54.2601 33.7297 54.9669C33.5402 56.3908 33.0527 57.8232 31.9913 58.7634L32.0997 57.4621Z" fill="#04318C"/>
<path d="M31.7854 49.8852C31.8348 49.7674 31.9253 49.6719 32.04 49.6167C32.1546 49.5615 32.2853 49.5504 32.4075 49.5857C32.5296 49.6209 32.6347 49.7 32.7029 49.8079C32.771 49.9158 32.7975 50.0451 32.7773 50.1714C32.6595 50.9117 32.4806 51.641 32.2425 52.3514L31.7854 49.8852Z" fill="#04318C"/>
<path d="M33.6774 109.698C33.2045 109.54 32.6985 109.513 32.2117 109.619C31.7249 109.724 31.2748 109.958 30.908 110.297C29.5538 111.569 31.3854 113.703 32.8293 112.53C33.4112 112.033 33.8854 111.422 34.2224 110.733L33.6774 109.698Z" fill="#04318C"/>
<path d="M31.5142 105.135C31.5142 105.135 29.7334 104.702 28.3555 106C26.8946 107.376 28.9141 109.629 30.4528 108.34C31.1252 107.748 31.6686 107.023 32.0491 106.209L31.5142 105.135Z" fill="#04318C"/>
<path d="M30.2123 101.21C29.7519 100.879 29.2298 100.644 28.6771 100.521C28.1244 100.397 27.5526 100.387 26.9961 100.491C25.3033 100.832 25.7248 103.409 27.4294 103.189C28.4928 103.034 29.4994 102.609 30.3545 101.954L30.2123 101.21Z" fill="#04318C"/>
<path d="M29.0143 96.6586C28.1822 96.0302 27.1544 95.7215 26.1162 95.7882C24.3455 95.9432 24.5351 98.6496 26.3075 98.5372C27.3567 98.4715 28.3556 98.0617 29.1514 97.3705L29.0143 96.6586Z" fill="#04318C"/>
<path d="M28.6025 92.8518C28.6025 92.8518 27.663 91.3938 26.1632 90.7977C24.4992 90.1352 23.4311 92.644 25.0477 93.4156C26.0633 93.8976 27.2872 94.1411 28.5873 93.6114L28.6025 92.8518Z" fill="#04318C"/>
<path d="M28.5435 88.0497C28.5435 88.0497 27.5938 86.5508 26.0754 85.9785C24.3826 85.3398 23.301 87.8606 24.9277 88.6696C25.9925 89.1976 27.2705 89.4599 28.4994 88.7752L28.5435 88.0497Z" fill="#04318C"/>
<path d="M28.8618 83.8613C28.5017 82.8891 27.9996 81.9764 27.3722 81.1532C26.475 80.0103 24.7298 81.3235 25.5626 82.5157C26.3277 83.6109 27.3502 84.6141 28.6096 84.827L28.8618 83.8613Z" fill="#04318C"/>
<path d="M28.9922 79.8547C28.6809 78.629 28.2192 77.4469 27.6177 76.3359C27.01 75.2765 25.407 76.1537 25.952 77.2471C26.575 78.499 27.5094 79.8701 28.8534 80.7472L28.9922 79.8547Z" fill="#04318C"/>
<path d="M29.9736 74.8851C29.608 73.9404 29.1391 73.0395 28.5754 72.1991C27.878 71.1772 26.3325 72.1787 26.9707 73.2347C27.6647 74.3861 28.6431 75.5442 29.955 76.1301L29.9736 74.8851Z" fill="#04318C"/>
<path d="M30.7563 70.6466C30.5676 69.748 30.3227 68.8623 30.0233 67.9946C29.6848 67.0289 28.2272 67.4956 28.515 68.4783C28.8536 69.6331 29.4342 70.7862 30.4313 71.3875L30.7563 70.6466Z" fill="#04318C"/>
<path d="M31.2996 66.4746C31.0382 65.4112 30.6988 64.3688 30.2839 63.356C29.9318 62.5249 28.6792 63.0307 28.9975 63.8755C29.4105 64.9826 30.074 66.1374 31.1269 66.8664L31.2996 66.4746Z" fill="#04318C"/>
<path d="M32.1138 61.4603C32.1138 61.4603 31.9547 60.6478 31.6652 59.6651C31.3978 58.7589 30.0368 59.1149 30.2586 60.033C30.5057 61.0549 30.9356 62.0172 31.6804 62.4396L32.1138 61.4603Z" fill="#04318C"/>
<path d="M31.9235 57.2815L31.0026 54.7267C30.7589 54.0454 29.7432 54.3758 29.9412 55.0673C30.3391 56.4469 31.0297 57.7925 32.2231 58.5589L31.9235 57.2815Z" fill="#04318C"/>
<path d="M30.7766 50.1521C30.7766 50.1521 30.6327 50.0363 30.4126 49.854C29.9641 49.4793 29.3784 50.1333 29.8016 50.5353C30.5383 51.2091 31.3853 51.7496 32.3052 52.1329L30.7766 50.1521Z" fill="#04318C"/>
<path d="M30.837 48.6727C30.2866 47.5421 29.6734 46.4435 29.0003 45.3821C28.9617 45.309 28.9509 45.2241 28.97 45.1435C28.9891 45.063 29.0367 44.9921 29.1039 44.9443C29.1712 44.8965 29.2534 44.875 29.3353 44.8838C29.4172 44.8926 29.4931 44.9311 29.5488 44.9921C30.0905 45.7381 30.622 46.8299 31.0249 48.4343L30.837 48.6727Z" fill="#04318C"/>
<path d="M31.8867 62.1958L31.6904 62.1753C32.5368 54.2367 32.1796 49.3417 30.7001 48.393L30.8067 48.2227C32.3743 49.2327 32.7467 54.063 31.8867 62.1958Z" fill="#444053"/>
<path d="M28.9748 80.9661L28.6819 80.9218C28.7919 80.1877 28.9189 79.4417 29.0611 78.7076C30.2934 72.2644 31.2515 66.3083 31.7306 61.7846L31.9456 61.6143C31.4648 66.1465 30.5913 72.3087 29.3505 78.7604C29.2117 79.4894 29.0848 80.2337 28.9748 80.9661Z" fill="#444053"/>
<path d="M42.6864 121.089C42.6424 121.053 38.1328 117.582 34.1734 110.924C31.8528 107.028 30.1616 102.786 29.1628 98.3561C27.9119 92.819 27.8763 86.3706 28.7786 80.3311L29.0427 80.544C27.0113 94.0981 30.8861 104.622 34.5018 110.706C38.4223 117.303 42.8793 120.738 42.925 120.772L42.6864 121.089Z" fill="#444053"/>
<path d="M158.157 121.059C151.935 121.059 146.891 120.083 146.891 118.879C146.891 117.675 151.935 116.699 158.157 116.699C164.378 116.699 169.422 117.675 169.422 118.879C169.422 120.083 164.378 121.059 158.157 121.059Z" fill="#04318C"/>
<path d="M158.346 119.68C157.622 119.68 157.034 118.906 157.034 117.953C157.034 116.999 157.622 116.226 158.346 116.226C159.071 116.226 159.658 116.999 159.658 117.953C159.658 118.906 159.071 119.68 158.346 119.68Z" fill="#3F3D56"/>
<path d="M158.346 117.567C157.622 117.567 157.034 116.794 157.034 115.84C157.034 114.887 157.622 114.113 158.346 114.113C159.071 114.113 159.658 114.887 159.658 115.84C159.658 116.794 159.071 117.567 158.346 117.567Z" fill="#3F3D56"/>
<path d="M158.346 115.458C157.622 115.458 157.034 114.685 157.034 113.731C157.034 112.777 157.622 112.004 158.346 112.004C159.071 112.004 159.658 112.777 159.658 113.731C159.658 114.685 159.071 115.458 158.346 115.458Z" fill="#3F3D56"/>
<path d="M158.346 113.345C157.622 113.345 157.034 112.572 157.034 111.618C157.034 110.664 157.622 109.891 158.346 109.891C159.071 109.891 159.658 110.664 159.658 111.618C159.658 112.572 159.071 113.345 158.346 113.345Z" fill="#3F3D56"/>
<path d="M158.346 111.233C157.622 111.233 157.034 110.46 157.034 109.506C157.034 108.553 157.622 107.779 158.346 107.779C159.071 107.779 159.658 108.553 159.658 109.506C159.658 110.46 159.071 111.233 158.346 111.233Z" fill="#3F3D56"/>
<path d="M158.346 109.122C157.622 109.122 157.034 108.349 157.034 107.395C157.034 106.441 157.622 105.668 158.346 105.668C159.071 105.668 159.658 106.441 159.658 107.395C159.658 108.349 159.071 109.122 158.346 109.122Z" fill="#3F3D56"/>
<path d="M158.346 107.012C157.622 107.012 157.034 106.239 157.034 105.285C157.034 104.331 157.622 103.558 158.346 103.558C159.071 103.558 159.658 104.331 159.658 105.285C159.658 106.239 159.071 107.012 158.346 107.012Z" fill="#3F3D56"/>
<path d="M153.437 90.8339C153.258 90.6045 153.094 90.3626 152.948 90.11L156.395 89.5411L152.671 89.5684C152.313 88.786 152.118 87.9382 152.097 87.0772C152.076 86.2161 152.231 85.3599 152.55 84.561L157.551 87.1703L152.94 83.7639C153.371 83.0109 153.952 82.3555 154.646 81.8384C155.34 81.3214 156.133 80.9539 156.974 80.7589C157.816 80.5639 158.689 80.5456 159.538 80.705C160.387 80.8645 161.194 81.1984 161.909 81.6858C162.624 82.1732 163.231 82.8037 163.693 83.5379C164.155 84.2721 164.462 85.0942 164.594 85.953C164.726 86.8118 164.681 87.6887 164.461 88.5291C164.241 89.3694 163.852 90.1552 163.316 90.8373C163.595 91.1949 163.835 91.5815 164.032 91.9904L159.559 94.3289L164.325 92.7176C164.66 93.714 164.742 94.7785 164.565 95.8149C164.388 96.8514 163.956 97.8269 163.31 98.6533C164.039 99.5858 164.493 100.706 164.619 101.886C164.746 103.066 164.539 104.257 164.024 105.325C163.509 106.392 162.706 107.292 161.706 107.922C160.707 108.552 159.551 108.886 158.372 108.886C157.193 108.886 156.037 108.552 155.037 107.922C154.038 107.292 153.235 106.392 152.719 105.325C152.204 104.257 151.998 103.066 152.125 101.886C152.251 100.706 152.705 99.5858 153.434 98.6533C152.562 97.5395 152.089 96.163 152.089 94.7453C152.089 93.3276 152.562 91.9511 153.434 90.8373L153.437 90.8339Z" fill="#04318C"/>
<path opacity="0.1" d="M164.657 94.7437C164.658 96.1611 164.185 97.5376 163.313 98.6509C164.042 99.5834 164.496 100.704 164.623 101.883C164.749 103.063 164.543 104.255 164.028 105.322C163.512 106.39 162.709 107.29 161.71 107.92C160.71 108.549 159.554 108.883 158.375 108.883C157.196 108.883 156.04 108.549 155.041 107.92C154.041 107.29 153.238 106.39 152.723 105.322C152.208 104.255 152.001 103.063 152.128 101.883C152.254 100.704 152.708 99.5834 153.437 98.6509C152.594 97.5762 164.657 94.0335 164.657 94.7437Z" fill="black"/>
<path d="M151.733 44.4941V119.727C151.733 120.071 151.665 120.413 151.534 120.732C151.403 121.05 151.211 121.34 150.968 121.584C150.726 121.828 150.438 122.021 150.122 122.153C149.805 122.285 149.465 122.353 149.123 122.353H41.8233C41.131 122.353 40.467 122.076 39.9775 121.584C39.488 121.091 39.213 120.423 39.213 119.727V44.4941H151.733Z" fill="white"/>
<path opacity="0.1" d="M117.395 51.2285H141.365C142.174 51.2285 142.829 51.8881 142.829 52.7018V65.6411C142.829 66.4547 142.174 67.1143 141.365 67.1143H117.395C116.587 67.1143 115.931 66.4547 115.931 65.6411V52.7018C115.931 51.8881 116.587 51.2285 117.395 51.2285Z" fill="black"/>
<path opacity="0.1" d="M83.4871 51.2285H107.457C108.265 51.2285 108.921 51.8881 108.921 52.7018V65.6411C108.921 66.4547 108.265 67.1143 107.457 67.1143H83.4871C82.6784 67.1143 82.0228 66.4547 82.0228 65.6411V52.7018C82.0228 51.8881 82.6784 51.2285 83.4871 51.2285Z" fill="black"/>
<path d="M117.774 51.4531H140.987C141.796 51.4531 142.451 52.1127 142.451 52.9264V65.4177C142.451 66.2314 141.796 66.891 140.987 66.891H117.774C116.966 66.891 116.31 66.2314 116.31 65.4177V52.9264C116.31 52.1127 116.966 51.4531 117.774 51.4531Z" fill="#04318C"/>
<path opacity="0.1" d="M73.1718 66.8896H49.9589C49.1502 66.8896 48.4946 66.23 48.4946 65.4164V52.925C48.4946 52.1114 49.1502 51.4518 49.9589 51.4518H73.1718C73.9805 51.4518 74.636 52.1114 74.636 52.925V65.4164C74.636 66.23 73.9805 66.8896 73.1718 66.8896Z" fill="#444053"/>
<path d="M107.08 66.8896H83.8666C83.0579 66.8896 82.4023 66.23 82.4023 65.4164V52.925C82.4023 52.1114 83.0579 51.4518 83.8666 51.4518H107.08C107.888 51.4518 108.544 52.1114 108.544 52.925V65.4164C108.544 66.23 107.888 66.8896 107.08 66.8896Z" fill="#04318C"/>
<path opacity="0.1" d="M117.774 73.7529H140.987C141.796 73.7529 142.451 74.4125 142.451 75.2262V87.7175C142.451 88.5312 141.796 89.1908 140.987 89.1908H117.774C116.966 89.1908 116.31 88.5312 116.31 87.7175V75.2262C116.31 74.4125 116.966 73.7529 117.774 73.7529Z" fill="#444053"/>
<path opacity="0.1" d="M73.1718 89.1904H49.9589C49.1502 89.1904 48.4946 88.5308 48.4946 87.7172V75.2258C48.4946 74.4122 49.1502 73.7525 49.9589 73.7525H73.1718C73.9805 73.7525 74.636 74.4122 74.636 75.2258V87.7172C74.636 88.5308 73.9805 89.1904 73.1718 89.1904Z" fill="#444053"/>
<path opacity="0.1" d="M107.08 89.1904H83.8666C83.0579 89.1904 82.4023 88.5308 82.4023 87.7172V75.2258C82.4023 74.4122 83.0579 73.7525 83.8666 73.7525H107.08C107.888 73.7525 108.544 74.4122 108.544 75.2258V87.7172C108.544 88.5308 107.888 89.1904 107.08 89.1904Z" fill="#444053"/>
<path opacity="0.1" d="M117.774 96.0527H140.987C141.796 96.0527 142.451 96.7123 142.451 97.526V110.017C142.451 110.831 141.796 111.491 140.987 111.491H117.774C116.966 111.491 116.31 110.831 116.31 110.017V97.526C116.31 96.7123 116.966 96.0527 117.774 96.0527Z" fill="#444053"/>
<path opacity="0.1" d="M73.1718 111.492H49.9589C49.1502 111.492 48.4946 110.833 48.4946 110.019V97.5276C48.4946 96.7139 49.1502 96.0543 49.9589 96.0543H73.1718C73.9805 96.0543 74.636 96.7139 74.636 97.5276V110.019C74.636 110.833 73.9805 111.492 73.1718 111.492Z" fill="#444053"/>
<path opacity="0.1" d="M107.08 111.492H83.8666C83.0579 111.492 82.4023 110.833 82.4023 110.019V97.5276C82.4023 96.7139 83.0579 96.0543 83.8666 96.0543H107.08C107.888 96.0543 108.544 96.7139 108.544 97.5276V110.019C108.544 110.833 107.888 111.492 107.08 111.492Z" fill="#444053"/>
<path d="M151.733 31.2081V44.8764H39.213V31.2081C39.2128 30.8631 39.2801 30.5214 39.4112 30.2025C39.5423 29.8837 39.7345 29.594 39.9769 29.3499C40.2193 29.1059 40.5072 28.9123 40.824 28.7802C41.1408 28.6481 41.4803 28.5801 41.8233 28.5801H149.123C149.466 28.5801 149.805 28.6481 150.122 28.7802C150.439 28.9123 150.727 29.1059 150.969 29.3499C151.211 29.594 151.404 29.8837 151.535 30.2025C151.666 30.5214 151.733 30.8631 151.733 31.2081ZM123.887 35.2516C124.299 35.2516 124.702 35.1286 125.045 34.8982C125.387 34.6678 125.654 34.3404 125.812 33.9573C125.97 33.5741 126.011 33.1526 125.931 32.7459C125.85 32.3392 125.652 31.9656 125.36 31.6723C125.069 31.3791 124.698 31.1794 124.293 31.0985C123.889 31.0176 123.47 31.0592 123.089 31.2178C122.709 31.3765 122.383 31.6453 122.154 31.9901C121.925 32.3349 121.803 32.7402 121.803 33.1549C121.803 33.711 122.023 34.2443 122.413 34.6375C122.804 35.0307 123.334 35.2516 123.887 35.2516ZM67.059 35.2516C67.4712 35.2516 67.874 35.1286 68.2167 34.8982C68.5594 34.6678 68.8265 34.3404 68.9842 33.9573C69.1419 33.5741 69.1832 33.1526 69.1028 32.7459C69.0224 32.3392 68.8239 31.9656 68.5325 31.6723C68.2411 31.3791 67.8698 31.1794 67.4656 31.0985C67.0613 31.0176 66.6423 31.0592 66.2616 31.2178C65.8808 31.3765 65.5554 31.6453 65.3264 31.9901C65.0974 32.3349 64.9752 32.7402 64.9752 33.1549C64.9752 33.4305 65.0292 33.7034 65.1342 33.958C65.2391 34.2126 65.3929 34.4439 65.5868 34.6387C65.7806 34.8334 66.0107 34.9878 66.2639 35.0929C66.5171 35.1981 66.7885 35.252 67.0624 35.2516H67.059Z" fill="#04318C"/>
<path opacity="0.1" d="M123.887 30.6758C124.374 30.6754 124.85 30.8205 125.255 31.0926C125.661 31.3647 125.977 31.7516 126.163 32.2044C126.35 32.6572 126.399 33.1556 126.304 33.6364C126.209 34.1172 125.975 34.5589 125.631 34.9057C125.286 35.2524 124.847 35.4886 124.369 35.5844C123.892 35.6802 123.396 35.6312 122.946 35.4437C122.496 35.2561 122.111 34.9385 121.841 34.5309C121.57 34.1234 121.425 33.6442 121.425 33.154C121.425 32.8286 121.489 32.5064 121.612 32.2057C121.736 31.9051 121.917 31.6319 122.146 31.4017C122.374 31.1716 122.646 30.989 122.944 30.8645C123.243 30.7399 123.563 30.6758 123.887 30.6758ZM123.887 35.2506C124.299 35.2506 124.702 35.1277 125.044 34.8973C125.387 34.6669 125.654 34.3394 125.812 33.9563C125.97 33.5732 126.011 33.1516 125.93 32.7449C125.85 32.3382 125.652 31.9646 125.36 31.6714C125.069 31.3782 124.697 31.1785 124.293 31.0976C123.889 31.0167 123.47 31.0582 123.089 31.2169C122.708 31.3756 122.383 31.6443 122.154 31.9891C121.925 32.3339 121.803 32.7393 121.803 33.154C121.803 33.71 122.022 34.2433 122.413 34.6365C122.804 35.0297 123.334 35.2506 123.887 35.2506Z" fill="black"/>
<path opacity="0.1" d="M67.0624 30.6758C67.5496 30.6758 68.0258 30.8211 68.4308 31.0934C68.8358 31.3657 69.1515 31.7528 69.3379 32.2056C69.5243 32.6584 69.5731 33.1567 69.4781 33.6374C69.383 34.1181 69.1485 34.5597 68.804 34.9063C68.4596 35.2529 68.0207 35.4889 67.5429 35.5845C67.0652 35.6801 66.57 35.6311 66.1199 35.4435C65.6699 35.2559 65.2852 34.9383 65.0146 34.5308C64.7439 34.1232 64.5995 33.6441 64.5995 33.154C64.5995 32.4967 64.859 31.8664 65.3209 31.4016C65.7828 30.9369 66.4092 30.6758 67.0624 30.6758ZM67.0624 35.2506C67.4746 35.2506 67.8774 35.1277 68.2201 34.8973C68.5628 34.6669 68.8299 34.3394 68.9876 33.9563C69.1453 33.5732 69.1866 33.1516 69.1062 32.7449C69.0258 32.3382 68.8273 31.9646 68.5359 31.6714C68.2445 31.3782 67.8732 31.1785 67.469 31.0976C67.0647 31.0167 66.6458 31.0582 66.265 31.2169C65.8843 31.3756 65.5588 31.6443 65.3298 31.9891C65.1009 32.3339 64.9787 32.7393 64.9787 33.154C64.9787 33.71 65.1982 34.2433 65.589 34.6365C65.9798 35.0297 66.5098 35.2506 67.0624 35.2506Z" fill="black"/>
<path opacity="0.1" d="M16.1205 74.1254C14.693 74.1254 13.5357 72.961 13.5357 71.5246C13.5357 70.0882 14.693 68.9238 16.1205 68.9238C17.5481 68.9238 18.7053 70.0882 18.7053 71.5246C18.7053 72.961 17.5481 74.1254 16.1205 74.1254Z" fill="#04318C"/>
<path opacity="0.1" d="M6.87233 64.2859C4.47901 64.2859 2.53885 62.3337 2.53885 59.9256C2.53885 57.5176 4.47901 55.5654 6.87233 55.5654C9.26565 55.5654 11.2058 57.5176 11.2058 59.9256C11.2058 62.3337 9.26565 64.2859 6.87233 64.2859Z" fill="#04318C"/>
<path opacity="0.1" d="M12.6096 85.4431C10.2163 85.4431 8.27615 83.491 8.27615 81.0829C8.27615 78.6748 10.2163 76.7227 12.6096 76.7227C15.003 76.7227 16.9431 78.6748 16.9431 81.0829C16.9431 83.491 15.003 85.4431 12.6096 85.4431Z" fill="#04318C"/>
<path opacity="0.1" d="M184.864 65.0309C181.475 65.0309 178.727 62.2666 178.727 58.8568C178.727 55.4469 181.475 52.6826 184.864 52.6826C188.253 52.6826 191 55.4469 191 58.8568C191 62.2666 188.253 65.0309 184.864 65.0309Z" fill="#04318C"/>
<path d="M34.3091 126.102C34.6945 125.81 35.1169 125.571 35.5651 125.391C35.5992 125.374 35.6368 125.364 35.6752 125.362C36.6027 124.693 37.4694 123.941 38.2651 123.118C38.0958 122.981 37.9401 122.849 37.7742 122.717C38.7898 122.23 39.3535 121.115 39.902 120.108C41.3521 117.432 43.263 115.037 45.5457 113.033C45.6015 112.817 45.9282 112.863 46.1026 112.723C46.1594 112.668 46.2008 112.599 46.2225 112.523C46.2442 112.446 46.2455 112.366 46.2262 112.289C46.1991 112.132 46.128 111.987 46.089 111.834C45.9959 111.474 46.0772 111.096 46.1178 110.727C46.1585 110.357 46.1415 109.945 45.8978 109.669C45.8199 109.579 45.72 109.509 45.6438 109.417C45.5638 109.309 45.5074 109.185 45.4782 109.053C45.449 108.921 45.4478 108.785 45.4746 108.652C45.493 108.387 45.55 108.126 45.6438 107.877C44.8144 105.606 43.9855 103.331 43.1572 101.053C42.5766 99.4617 41.9909 97.8369 41.9316 96.1405C41.8842 94.7779 42.2329 93.3625 43.0522 92.3219C42.9033 92.2861 42.7543 92.2486 42.607 92.2061C43.5753 90.915 43.6802 89.205 43.7056 87.5785C43.7192 86.7677 43.7468 85.9564 43.7886 85.1446C43.5076 85.2689 43.2232 85.3796 42.932 85.475L42.6612 85.5584C42.2214 85.688 41.7727 85.7847 41.3188 85.848C41.1191 85.8769 40.916 85.8991 40.7145 85.9127C41.0057 85.1792 41.2963 84.4445 41.5863 83.7088C41.7371 83.3832 41.8289 83.033 41.8571 82.6749V82.6068C41.8571 82.5659 41.8571 82.525 41.8487 82.4841C41.8371 82.3866 41.815 82.2907 41.7826 82.198C41.7677 82.1522 41.7501 82.1073 41.7302 82.0635C41.6699 81.9293 41.5973 81.801 41.5135 81.6802C41.4526 81.5866 41.3848 81.4963 41.3171 81.4043C41.0649 81.1081 40.8598 80.7743 40.7094 80.4148C40.6499 80.2327 40.6185 80.0426 40.6163 79.851C40.6131 79.6567 40.6301 79.4626 40.6671 79.2719C40.6908 79.1459 40.7213 79.0181 40.7551 78.8955C40.7772 78.8188 40.8008 78.7422 40.8245 78.6673L40.8449 78.6059C40.8635 78.548 40.8821 78.4918 40.9024 78.4356L40.9227 78.3777C40.9447 78.3164 40.9667 78.2568 40.9904 78.1955L41.004 78.1597C41.3273 77.3234 41.7573 76.5263 42.0196 75.6662C42.0886 75.4373 42.1451 75.2047 42.1889 74.9696C42.2008 74.91 42.2092 74.8487 42.2194 74.7891C42.2295 74.7294 42.2346 74.6869 42.2414 74.6358C42.2482 74.5847 42.2566 74.5165 42.2634 74.4569L42.2786 74.2866C42.2786 74.2321 42.2871 74.1776 42.2905 74.1163C42.2905 74.0124 42.3006 73.9085 42.3023 73.8046C42.3023 73.7671 42.3023 73.7314 42.3023 73.6939C42.3023 73.6155 42.3023 73.5355 42.3023 73.4571C42.3023 73.4146 42.3023 73.372 42.3023 73.3311C42.3023 73.2528 42.2905 73.1744 42.2837 73.0978C42.2837 73.0603 42.2837 73.0228 42.2719 72.9871C42.2606 72.8735 42.2453 72.76 42.2262 72.6464C42.2092 72.5459 42.1906 72.4437 42.1703 72.3415C42.109 72.0618 42.0772 71.7764 42.0755 71.4899C42.0755 71.4354 42.0755 71.3792 42.0874 71.3196C42.0992 71.26 42.1009 71.2276 42.1094 71.1834C42.1102 71.1697 42.1102 71.1561 42.1094 71.1425C42.1094 71.1118 42.1246 71.0812 42.1314 71.0505C42.1381 71.0198 42.1398 71.0216 42.1449 71.0079C42.15 70.9943 42.1635 70.9483 42.1737 70.9194C42.1838 70.8904 42.1821 70.8938 42.1872 70.8802C42.1923 70.8666 42.2109 70.8189 42.2245 70.7899L42.2363 70.7593C42.2532 70.7218 42.2719 70.686 42.2905 70.6503C42.3561 70.526 42.432 70.4075 42.5173 70.296C43.0742 69.5602 44.0002 68.9998 44.5097 68.1891C44.8072 67.6637 45.0009 67.0853 45.0802 66.4859C45.1056 66.3497 45.1276 66.2134 45.1513 66.0788C45.175 65.9443 45.1953 65.8114 45.219 65.6786C45.2342 65.5968 45.2494 65.5083 45.2664 65.4333L45.2765 65.3805C45.2901 65.3158 45.3036 65.2494 45.3188 65.1847L45.329 65.1387C45.3442 65.0705 45.3595 65.0024 45.3764 64.9343L45.3865 64.8985C45.4035 64.827 45.4221 64.7554 45.4407 64.6839C45.4415 64.6754 45.4415 64.6669 45.4407 64.6584C45.461 64.5834 45.483 64.5085 45.505 64.4335V64.4182C45.5287 64.3399 45.5524 64.2632 45.5778 64.1866C45.6032 64.1082 45.6303 64.0282 45.6591 63.9498C45.6896 63.8698 45.7183 63.7897 45.7505 63.7114C45.9634 63.1626 46.2517 62.6467 46.607 62.1785C47.3823 61.177 48.5808 60.4582 49.8233 60.5059C50.4902 60.5315 51.1301 60.7665 51.7581 60.9999L53.3882 61.6045L52.9329 61.3933C53.4069 61.4359 53.891 61.4802 54.3193 61.6914C54.7475 61.9026 55.1098 62.3164 55.1233 62.8002C55.1318 63.0812 55.0218 63.3605 55.0573 63.6398C55.1166 64.1014 55.5381 64.4148 55.7564 64.8236C55.8844 65.0699 55.9429 65.3467 55.9257 65.6241V65.6377C55.9257 65.6701 55.9257 65.7007 55.9257 65.7331C55.9265 65.7422 55.9265 65.7513 55.9257 65.7603V65.8148C56.6028 65.5185 57.2799 65.2102 57.957 64.8798C59.0759 64.3262 60.2084 63.6756 60.9058 62.6264C61.1293 62.2858 61.3019 61.9179 61.5237 61.5807C61.7781 61.2177 62.0611 60.876 62.3701 60.5587L64.4471 58.2969C64.6062 58.5983 64.4014 58.9543 64.2406 59.2541C64.0698 59.5685 63.9406 59.904 63.8563 60.2522C63.8153 60.3656 63.819 60.4905 63.8665 60.6013C63.9421 60.6927 64.0401 60.7626 64.1508 60.804C64.3406 60.9241 64.4854 61.1041 64.5629 61.3157C64.6404 61.5274 64.6461 61.7589 64.5791 61.9741C64.5054 62.1861 64.3782 62.3751 64.2099 62.5226C64.0416 62.6701 63.8381 62.7711 63.6193 62.8155C63.4727 62.8323 63.3288 62.8678 63.1911 62.9211C62.9405 63.0454 62.822 63.335 62.6426 63.5513C62.3159 63.9464 61.7962 64.0946 61.3002 64.224C60.5317 65.1165 59.7327 65.9715 58.9642 66.864C57.8013 68.2147 56.6113 69.5892 55.0946 70.5021C54.9371 70.5975 54.7763 70.686 54.6138 70.7678C54.6138 70.795 54.6138 70.8223 54.6223 70.8495C54.6647 71.0508 54.6391 71.2607 54.5495 71.4457C54.4141 71.662 54.1348 71.7267 53.8859 71.771L52.7382 71.9771C52.7484 72.1267 52.7671 72.2757 52.7941 72.4233C52.8093 72.5136 52.8279 72.6021 52.8449 72.6924L52.8652 72.8082C52.8652 72.8082 52.8652 72.8201 52.8652 72.8253C52.8652 72.8304 52.8652 72.8866 52.877 72.9189C52.8889 72.9513 52.877 72.9411 52.877 72.9513V73.033V73.0671C52.877 73.1029 52.877 73.1403 52.877 73.1778C52.8381 73.6309 52.5385 74.0056 52.2389 74.3513L52.078 74.5472C52.3332 74.8705 52.5121 75.2479 52.6011 75.6509C52.6522 75.9037 52.6771 76.1611 52.6756 76.419C52.8291 76.5663 52.9452 76.7486 53.0141 76.9504C53.0944 77.2295 53.1242 77.5208 53.1022 77.8105V77.831C53.1022 77.9383 53.1022 78.0439 53.1022 78.1512C53.1218 78.5581 53.0549 78.9646 52.9058 79.3434C52.8906 79.3741 52.8737 79.4013 52.8584 79.4303C53.1123 79.931 53.5355 80.3211 53.8385 80.7929C54.145 81.3166 54.2836 81.9227 54.2354 82.5286C54.1873 83.1345 53.9547 83.7107 53.5694 84.1788C53.3375 84.4479 53.0395 84.7068 53.0125 85.0645C53.0165 85.2267 53.0323 85.3884 53.0599 85.5482C53.0869 85.9332 52.9109 86.2976 52.8161 86.6706C52.7365 86.9806 52.7332 87.3519 52.9092 87.6006C53.0873 87.8619 53.1693 88.1775 53.1411 88.4931C53.0548 88.9751 53.2528 89.4571 53.2867 89.9459C53.3019 90.1554 53.2867 90.3683 53.3053 90.5778C53.3297 90.7785 53.371 90.9768 53.4289 91.1705C53.4289 91.191 53.439 91.2131 53.4458 91.2352C53.8639 91.4209 54.2786 91.6134 54.6781 91.8365C54.8939 91.9332 55.0722 92.0983 55.186 92.3066C55.2535 92.5158 55.2629 92.7396 55.2131 92.9538L54.8525 95.4779L54.9151 95.4507C54.8869 95.864 54.8576 96.279 54.8271 96.6957C54.8051 97.0108 54.7763 97.3447 54.5901 97.5967C54.4954 97.6984 54.4098 97.8085 54.3345 97.9254C54.1923 98.215 54.3616 98.5522 54.4869 98.8486C54.6121 99.1449 54.6561 99.5656 54.3802 99.7257C54.2363 99.8265 54.0812 99.9099 53.9181 99.9744C54.2566 101.395 53.9452 102.883 53.6303 104.309C53.3899 105.399 53.149 106.488 52.9075 107.576C52.8131 108.038 52.7598 108.508 52.7484 108.979C52.7484 109.047 52.7484 109.116 52.7484 109.184C52.7144 109.832 52.6007 110.474 52.4098 111.095C52.034 112.369 52.3946 113.898 52.2761 115.286C52.1973 115.954 52.0649 116.614 51.88 117.26C51.0624 120.524 50.3328 123.722 50.0518 127.078C49.7512 127.463 49.3434 127.749 48.8804 127.9C48.9143 128.312 48.8686 128.784 48.8804 129.024C48.8809 129.223 48.9117 129.421 48.9718 129.61C49.1157 129.988 49.4797 130.235 49.8571 130.368C49.9756 130.409 50.0958 130.441 50.2177 130.47L50.0823 130.355C50.8562 130.185 51.6652 130.328 52.3353 130.753C52.4406 130.807 52.5342 130.882 52.6106 130.972C52.687 131.063 52.7448 131.168 52.7805 131.281C52.8084 131.497 52.7527 131.716 52.6248 131.893C52.2521 132.441 51.6968 132.838 51.059 133.012C50.4287 133.179 49.7809 133.269 49.1293 133.282L47.9342 133.352C47.9748 133.421 47.9892 133.502 47.9749 133.581C47.9606 133.659 47.9185 133.73 47.8563 133.78C47.7282 133.874 47.5761 133.929 47.4179 133.94C46.9295 134.013 46.4337 134.02 45.9435 133.962C45.8205 133.958 45.7019 133.915 45.6049 133.839C45.5824 133.819 45.5644 133.794 45.552 133.766C45.5397 133.738 45.5333 133.707 45.5333 133.677C45.5333 133.646 45.5397 133.616 45.552 133.588C45.5644 133.56 45.5824 133.535 45.6049 133.514C45.5332 133.512 45.4639 133.488 45.4059 133.445C45.3479 133.403 45.304 133.344 45.2799 133.276C45.2331 133.137 45.218 132.99 45.2359 132.845C45.2681 132.284 45.3171 131.47 45.6066 130.971C45.6567 130.88 45.7349 130.808 45.8294 130.767C45.9238 130.725 46.0293 130.715 46.1297 130.739C46.3169 129.742 46.4301 128.732 46.4682 127.718C46.17 127.605 45.8793 127.473 45.5981 127.323C46.4293 125.972 46.4445 124.257 46.1906 122.687C46.0899 122.191 46.0159 121.69 45.9689 121.186C45.913 120.181 46.0636 119.044 46.6172 118.212C45.6081 118.858 44.7152 119.671 43.9765 120.617C42.8068 122.15 42.0941 124.007 40.6604 125.284C40.4719 125.099 40.2812 124.915 40.0882 124.732C39.7858 125.248 39.4997 125.774 39.23 126.311C39.0184 126.706 38.8514 127.124 38.7323 127.556C38.6003 128.218 38.5848 128.897 38.6866 129.564C38.7261 129.919 38.774 130.271 38.8305 130.622C38.8532 130.772 38.8878 130.92 38.9337 131.065C38.9344 131.019 38.9454 130.973 38.9659 130.932C39.0556 130.774 39.3044 130.845 39.4399 130.954C39.6811 131.136 39.8803 131.369 40.0239 131.635C40.1029 131.766 40.1396 131.917 40.1288 132.07C40.1069 132.161 40.0652 132.247 40.0067 132.321C39.9482 132.394 39.8743 132.454 39.7903 132.495C39.1623 132.865 38.3734 132.598 37.6997 132.325C37.5136 132.258 37.3362 132.168 37.1716 132.058C36.833 131.812 36.6485 131.409 36.3116 131.17C36.1318 131.071 35.9583 130.961 35.792 130.84C35.4788 130.552 35.4534 130.067 35.2249 129.702C34.8457 129.074 33.9976 128.912 33.6658 128.246C33.2816 127.51 33.7302 126.582 34.3091 126.102Z" fill="url(#paint0_linear)"/>
<path d="M48.9022 129.099C48.9032 129.295 48.9347 129.491 48.9953 129.678C49.1375 130.051 49.5031 130.294 49.8789 130.425C50.2547 130.556 50.6542 130.596 51.0368 130.71C51.2048 130.748 51.3604 130.829 51.4888 130.945C51.8273 131.285 51.6242 131.899 51.2281 132.152C50.832 132.406 50.3275 132.398 49.8569 132.365C48.8584 132.307 47.8664 132.165 46.8912 131.941C46.5391 131.858 46.1277 131.694 46.0719 131.335C46.0613 131.221 46.0705 131.105 46.099 130.994C46.3392 129.775 46.4667 128.536 46.4798 127.293C46.4798 127.211 48.4435 127.159 48.6263 127.278C49.0359 127.549 48.8802 128.68 48.9022 129.099Z" fill="#A1616A"/>
<path d="M40.1472 124.76C39.8222 125.302 39.5169 125.855 39.2314 126.418C39.0199 126.807 38.853 127.219 38.7337 127.646C38.6025 128.298 38.5871 128.969 38.688 129.627C38.7275 129.975 38.776 130.323 38.8336 130.671C38.8894 131.011 38.9792 131.398 39.2686 131.594C39.1396 131.671 38.9951 131.718 38.8456 131.731C38.6962 131.744 38.5458 131.723 38.4053 131.67C38.126 131.562 37.8685 131.403 37.6453 131.202C36.1946 129.998 35.1062 128.249 35.052 126.356C35.0367 126.209 35.0643 126.059 35.1315 125.927C35.1999 125.835 35.2863 125.757 35.3855 125.699C36.4679 124.957 37.4734 124.107 38.3867 123.163C38.4404 123.09 38.5187 123.04 38.6068 123.021C38.6761 123.022 38.744 123.041 38.8031 123.078C39.36 123.359 40.291 123.759 40.5229 124.398C40.3644 124.478 40.2335 124.604 40.1472 124.76Z" fill="#A1616A"/>
<path d="M46.9186 131.076C48.1374 131.587 49.4578 131.771 50.7764 131.946C50.9457 131.967 51.1268 131.98 51.2386 131.861C51.2829 131.805 51.3096 131.737 51.315 131.666C51.3204 131.595 51.3044 131.524 51.269 131.462C51.1972 131.339 51.1009 131.233 50.9863 131.149L50.1112 130.411C50.8742 130.249 51.6703 130.386 52.3355 130.796C52.5445 130.901 52.7039 131.085 52.779 131.307C52.8072 131.522 52.7513 131.738 52.6233 131.912C52.2487 132.455 51.6942 132.846 51.0591 133.016C50.429 133.18 49.7819 133.27 49.1311 133.283L47.9461 133.351C47.9869 133.419 48.0014 133.5 47.9867 133.578C47.972 133.656 47.9292 133.725 47.8666 133.774C47.7379 133.868 47.5854 133.924 47.4264 133.935C46.9385 134.007 46.4434 134.014 45.9537 133.956C45.8308 133.954 45.7119 133.911 45.6152 133.835C45.5928 133.815 45.5748 133.79 45.5625 133.763C45.5503 133.735 45.5439 133.705 45.5439 133.675C45.5439 133.645 45.5503 133.615 45.5625 133.587C45.5748 133.559 45.5928 133.535 45.6152 133.515C45.5437 133.513 45.4745 133.489 45.4165 133.447C45.3586 133.404 45.3145 133.346 45.2902 133.278C45.2449 133.142 45.2299 132.997 45.2462 132.854C45.2783 132.302 45.3274 131.491 45.6169 131.009C45.9063 130.527 46.509 130.905 46.9186 131.076Z" fill="#3F3D56"/>
<path d="M34.3396 126.206C34.7257 125.918 35.1481 125.682 35.5956 125.506C35.6135 125.492 35.6342 125.482 35.6563 125.478C35.6784 125.473 35.7012 125.474 35.723 125.479C35.7448 125.485 35.7651 125.495 35.7824 125.51C35.7996 125.524 35.8133 125.543 35.8224 125.564C36.6219 126.655 37.2462 127.866 37.6726 129.152C37.9147 129.885 38.106 130.665 38.5969 131.257C38.6612 131.336 38.7662 131.416 38.8542 131.37C38.9811 131.305 38.9033 131.099 38.9744 130.975C39.0624 130.818 39.3028 130.889 39.4467 130.997C39.6886 131.178 39.8875 131.41 40.029 131.678C40.11 131.805 40.1469 131.955 40.1339 132.106C40.1128 132.195 40.0723 132.28 40.0152 132.352C39.9582 132.424 39.886 132.483 39.8038 132.525C39.1758 132.891 38.387 132.627 37.715 132.354C37.5293 132.288 37.3525 132.2 37.1885 132.09C36.85 131.85 36.6654 131.45 36.3286 131.216C36.1488 131.118 35.9753 131.009 35.8089 130.889C35.4974 130.605 35.4704 130.126 35.2435 129.765C34.8643 129.147 34.0163 128.987 33.6845 128.33C33.3138 127.595 33.7607 126.679 34.3396 126.206Z" fill="#3F3D56"/>
<path d="M43.7867 92.1852C42.4562 93.1901 41.8976 94.9768 41.9568 96.6494C42.0161 98.3219 42.6001 99.9263 43.179 101.495C44.0084 103.74 44.8368 105.984 45.664 108.228C45.5718 108.474 45.5148 108.732 45.4947 108.994C45.4685 109.125 45.47 109.259 45.4992 109.389C45.5284 109.519 45.5845 109.641 45.664 109.747C45.7418 109.837 45.8333 109.907 45.9179 109.996C46.1617 110.268 46.1769 110.677 46.138 111.04C46.099 111.403 46.0161 111.777 46.1092 112.132C46.1481 112.283 46.2192 112.426 46.2463 112.579C46.2652 112.656 46.2637 112.735 46.242 112.811C46.2203 112.886 46.1791 112.954 46.1227 113.009C45.9534 113.145 45.6149 113.101 45.5658 113.315C43.2897 115.288 41.3809 117.652 39.9289 120.298C39.3804 121.291 38.8269 122.392 37.8028 122.872C38.8006 123.667 39.7572 124.514 40.6686 125.408C42.099 124.148 42.8117 122.313 43.9797 120.809C44.719 119.874 45.6108 119.072 46.617 118.437C46.0635 119.256 45.9128 120.38 45.9687 121.37C46.0156 121.867 46.0896 122.361 46.1904 122.85C46.4528 124.4 46.4291 126.086 45.598 127.425C46.485 127.888 47.504 128.232 48.4943 128.094C49.1156 128.005 49.6799 127.681 50.0719 127.188C50.3529 123.877 51.0876 120.716 51.8984 117.502C52.0843 116.861 52.2163 116.205 52.2929 115.541C52.4113 114.179 52.0508 112.663 52.4283 111.406C52.6185 110.795 52.7322 110.162 52.7668 109.522C52.7668 109.454 52.7668 109.388 52.7668 109.32C52.7784 108.855 52.8316 108.392 52.9259 107.937L53.6471 104.714C53.9619 103.306 54.2768 101.837 53.9365 100.436C54.0988 100.373 54.2533 100.291 54.397 100.192C54.6729 100.034 54.6289 99.6198 54.5036 99.3268C54.3783 99.0338 54.2108 98.7017 54.3513 98.4156C54.4262 98.2994 54.5118 98.1905 54.6069 98.0903C54.7931 97.8416 54.8219 97.5129 54.8439 97.2029L54.9319 95.9732C54.4209 96.177 53.9953 96.5517 53.7266 97.0343C54.3936 95.9953 54.0652 94.5135 53.5726 93.3792C53.481 93.0317 53.2802 92.7234 53.0002 92.5002C52.7201 92.277 52.3758 92.151 52.0186 92.141C49.3051 91.6743 45.9907 90.5178 43.7867 92.1852Z" fill="#3F3D56"/>
<path opacity="0.1" d="M45.0242 99.1777C45.0242 99.1777 46.3581 100.074 46.3581 100.745C46.3581 101.416 46.6966 107.455 46.6966 107.455V111.713C46.6966 111.713 46.4749 113.951 46.6966 114.51C46.9184 115.069 46.6966 117.642 46.6966 117.978C46.6966 118.313 46.3581 114.51 46.3581 114.51V110.477L46.0195 101.303L45.0242 99.1777Z" fill="black"/>
<path d="M52.4641 68.1546L53.2411 67.8497C54.8289 67.2093 56.4184 66.5672 57.9554 65.8161C59.0726 65.2694 60.2051 64.6239 60.9008 63.5934C61.1242 63.2528 61.2969 62.8951 61.5187 62.5596C61.7735 62.2007 62.0565 61.8629 62.365 61.5496L64.4404 59.3184C64.5995 59.6164 64.3963 59.9673 64.2338 60.2619C64.0638 60.5725 63.9346 60.904 63.8496 61.2481C63.8097 61.3589 63.8139 61.481 63.8614 61.5887C63.9362 61.6799 64.0338 61.7493 64.1441 61.7897C64.3331 61.9063 64.4779 62.0831 64.5555 62.2921C64.6331 62.501 64.6391 62.7301 64.5724 62.9428C64.4981 63.1531 64.3707 63.3403 64.2027 63.486C64.0347 63.6317 63.8319 63.731 63.6143 63.774C63.4679 63.791 63.3241 63.8259 63.186 63.8779C62.9355 64.0022 62.817 64.2866 62.6376 64.4995C62.3109 64.8896 61.7912 65.0377 61.2969 65.1638C60.5284 66.0443 59.7311 66.8874 58.9626 67.768C57.8014 69.0999 56.6131 70.4557 55.0963 71.3584C54.5577 71.6896 53.9679 71.928 53.3511 72.0635C53.1472 70.7412 52.8508 69.435 52.4641 68.1546Z" fill="#A1616A"/>
<path opacity="0.15" d="M52.4641 68.1546L53.2411 67.8497C54.8289 67.2093 56.4184 66.5672 57.9554 65.8161C59.0726 65.2694 60.2051 64.6239 60.9008 63.5934C61.1242 63.2528 61.2969 62.8951 61.5187 62.5596C61.7735 62.2007 62.0565 61.8629 62.365 61.5496L64.4404 59.3184C64.5995 59.6164 64.3963 59.9673 64.2338 60.2619C64.0638 60.5725 63.9346 60.904 63.8496 61.2481C63.8097 61.3589 63.8139 61.481 63.8614 61.5887C63.9362 61.6799 64.0338 61.7493 64.1441 61.7897C64.3331 61.9063 64.4779 62.0831 64.5555 62.2921C64.6331 62.501 64.6391 62.7301 64.5724 62.9428C64.4981 63.1531 64.3707 63.3403 64.2027 63.486C64.0347 63.6317 63.8319 63.731 63.6143 63.774C63.4679 63.791 63.3241 63.8259 63.186 63.8779C62.9355 64.0022 62.817 64.2866 62.6376 64.4995C62.3109 64.8896 61.7912 65.0377 61.2969 65.1638C60.5284 66.0443 59.7311 66.8874 58.9626 67.768C57.8014 69.0999 56.6131 70.4557 55.0963 71.3584C54.5577 71.6896 53.9679 71.928 53.3511 72.0635C53.1472 70.7412 52.8508 69.435 52.4641 68.1546Z" fill="black"/>
<path d="M53.8857 72.6036C54.1346 72.5593 54.4139 72.498 54.5493 72.2834C54.6389 72.1014 54.6646 71.8943 54.6221 71.6958C54.4874 70.412 54.2034 69.1487 53.7757 67.9316C53.3982 68.6351 52.6551 69.0455 51.9509 69.4151C51.3223 69.7668 50.6669 70.0675 49.9908 70.3144C50.16 70.2599 50.5748 72.8795 50.8084 73.0396C51.1029 73.2474 51.8138 72.9664 52.1405 72.9102L53.8857 72.6036Z" fill="#19C3AB"/>
<path d="M52.0829 71.8282C50.1178 71.8282 48.5247 70.2253 48.5247 68.2481C48.5247 66.2708 50.1178 64.668 52.0829 64.668C54.0481 64.668 55.6411 66.2708 55.6411 68.2481C55.6411 70.2253 54.0481 71.8282 52.0829 71.8282Z" fill="#A1616A"/>
<path d="M52.8057 71.2127C52.8057 71.2127 50.4713 73.2259 51.4718 74.568C52.4722 75.9102 53.0291 76.806 51.6952 76.9185C50.3613 77.0309 45.9144 74.6805 45.9144 74.6805C45.9144 74.6805 50.0278 71.3251 49.3609 69.312C48.6939 67.2988 52.8057 71.2127 52.8057 71.2127Z" fill="#FBBEBE"/>
<path d="M50.5662 74.3638C51.0637 74.484 51.5183 74.7411 51.8791 75.1062C52.2398 75.4713 52.4927 75.9301 52.6093 76.4315C52.8717 77.6373 52.3148 78.9863 52.8396 80.0968C53.0867 80.6248 53.5454 81.0199 53.8552 81.5155C54.1603 82.0315 54.2984 82.6301 54.2505 83.2284C54.2026 83.8268 53.971 84.3954 53.5878 84.8555C53.3559 85.1213 53.0579 85.3784 53.0308 85.7293C53.0348 85.8892 53.0507 86.0486 53.0782 86.2062C53.1053 86.586 52.9293 86.9471 52.8345 87.315C52.7549 87.6199 52.7515 87.986 52.9276 88.2313C53.1052 88.4883 53.1867 88.8002 53.1578 89.1119C53.0732 89.5888 53.2712 90.064 53.3051 90.546C53.3203 90.7538 53.3051 90.9616 53.3237 91.1693C53.3483 91.3671 53.3891 91.5625 53.4456 91.7536L53.7435 92.8589C52.1286 93.5539 50.4121 93.8042 48.6652 93.7719C47.1011 93.7412 45.559 93.4159 44.0287 93.0906C43.5632 92.9918 43.0977 92.893 42.6389 92.7653C43.6072 91.4913 43.7105 89.8034 43.7376 88.2007C43.7798 85.5285 43.9781 82.8613 44.3317 80.2126C43.8628 79.3218 43.6546 78.3288 43.4616 77.3393C43.375 76.9407 43.3386 76.5326 43.3533 76.1249C43.4007 75.2733 43.79 74.4642 44.1709 73.6927C44.5196 72.9876 44.8971 72.245 45.6741 71.9401C45.8617 71.8605 46.0663 71.8305 46.2687 71.8529C46.471 71.8752 46.6643 71.9492 46.8302 72.0678C47.4176 72.5141 47.2433 73.2839 47.3939 73.9414C47.592 74.793 48.3724 75.4044 49.2035 75.6446C49.8238 75.8081 50.4665 75.8685 51.1062 75.8234C51.1688 75.8198 51.2293 75.7988 51.2807 75.7626C51.3322 75.7264 51.3726 75.6766 51.3976 75.6187C51.4225 75.5607 51.4309 75.4969 51.4219 75.4344C51.4129 75.3719 51.3868 75.3132 51.3465 75.2648C51.074 74.9616 50.7998 74.6533 50.5662 74.3638Z" fill="#19C3AB"/>
<path d="M47.8105 88.2021C49.1275 89.2854 50.4597 90.3789 51.9798 91.1453C52.8719 91.5949 53.8198 91.9271 54.6882 92.4108C54.903 92.5057 55.0812 92.6683 55.1961 92.8741C55.2652 93.08 55.2746 93.3016 55.2231 93.5128L54.8372 96.1902C54.7306 96.9158 54.0382 97.3824 53.483 97.8457C53.5134 97.6022 53.5625 97.4131 53.4474 97.1968C53.4075 97.1292 53.364 97.0638 53.3171 97.0009C53.0801 96.6399 53.0716 96.1715 53.1292 95.7423C53.1867 95.3131 53.2985 94.8907 53.2765 94.4512C53.2812 94.3785 53.2672 94.3058 53.2358 94.2401C53.2043 94.1745 53.1565 94.1181 53.097 94.0765C51.2062 93.1619 49.1698 92.4602 47.2586 91.5915C46.753 91.3859 46.2766 91.1138 45.8418 90.7825C45.4049 90.4453 45.111 89.9543 45.0191 89.408C45.0103 89.3726 45.0088 89.3358 45.0146 89.2998C45.0204 89.2638 45.0335 89.2293 45.0529 89.1985C45.0913 89.1562 45.1414 89.1265 45.1968 89.1134C46.0534 88.8 46.9573 88.5121 47.8105 88.2021Z" fill="#A1616A"/>
<path opacity="0.1" d="M51.4685 76.968C52.1219 77.0787 52.8092 77.4194 53.0309 78.0496C53.1107 78.3259 53.1405 78.6143 53.1189 78.9012C53.1392 79.3044 53.0716 79.7073 52.9209 80.0815C52.8095 80.2881 52.6767 80.4822 52.5248 80.6606C50.9607 82.6772 50.1752 85.2099 48.6517 87.2589C48.5163 87.4394 48.2692 87.6744 48.3453 87.8874C48.373 87.9426 48.3973 87.9995 48.4181 88.0577C48.425 88.1128 48.4185 88.1687 48.399 88.2207C48.3795 88.2726 48.3477 88.319 48.3064 88.3557C48.2252 88.4307 48.1621 88.5233 48.1219 88.6265C48.0931 88.7338 48.1642 88.8735 48.2742 88.865C48.0914 89.4339 47.5311 89.766 46.9996 90.0351C46.1159 90.483 45.1375 90.8356 44.154 90.7385C43.9695 89.9942 43.7122 89.1528 43.8155 88.3949C43.9235 87.8161 44.1146 87.2561 44.3826 86.7326L45.0444 85.278C45.6081 84.0364 46.1769 82.7862 46.9623 81.674C47.2453 81.3219 47.4836 80.9357 47.6716 80.5243C47.873 79.998 48.4266 79.6285 48.7618 79.1771C49.2594 78.4958 49.7774 77.8145 50.4444 77.3223C50.7118 77.1145 51.1418 76.9135 51.4685 76.968Z" fill="black"/>
<path d="M51.4686 76.6331C52.122 76.7438 52.8093 77.0844 53.0311 77.7129C53.1105 77.9892 53.1403 78.2776 53.1191 78.5645C53.1394 78.9678 53.0718 79.3706 52.921 79.7448C52.8097 79.9514 52.6769 80.1455 52.5249 80.3239C50.9608 82.3405 50.1754 84.8732 48.6519 86.9221C48.5165 87.1027 48.2693 87.3377 48.3455 87.5506C48.3732 87.6058 48.3975 87.6627 48.4183 87.7209C48.4252 87.776 48.4186 87.832 48.3992 87.8839C48.3797 87.9359 48.3479 87.9822 48.3066 88.019C48.2253 88.0939 48.1622 88.1866 48.122 88.2898C48.0933 88.3971 48.1644 88.5368 48.2744 88.5283C48.0916 89.0971 47.5313 89.4293 46.9997 89.6984C46.1161 90.1463 45.1377 90.4989 44.1542 90.4018C43.9697 89.6575 43.7124 88.8161 43.8156 88.0582C43.9237 87.4794 44.1147 86.9194 44.3827 86.3958L45.0446 84.9413C45.6083 83.6997 46.1771 82.4495 46.9625 81.3373C47.2458 80.9849 47.4841 80.5981 47.6718 80.186C47.8732 79.6614 48.4267 79.2918 48.7619 78.8404C49.2596 78.1591 49.7776 77.4779 50.4445 76.9856C50.712 76.7796 51.1419 76.5786 51.4686 76.6331Z" fill="#19C3AB"/>
<path d="M52.96 62.3674C53.4323 62.4083 53.9181 62.4526 54.3447 62.6604C54.7713 62.8682 55.1352 63.2769 55.1488 63.7538C55.1488 64.0315 55.0472 64.3074 55.0828 64.5816C55.142 65.0381 55.5635 65.3463 55.7802 65.75C56.1594 66.4517 55.8648 67.3442 55.3739 67.9642C54.883 68.5841 54.2177 69.061 53.7133 69.6776C53.3154 70.1706 53.0275 70.7439 52.8692 71.3587C52.7109 71.9735 52.6858 72.6153 52.7958 73.2407C52.8584 73.4837 52.8886 73.734 52.8855 73.985C52.8466 74.4312 52.547 74.8008 52.249 75.1415C50.7998 76.8466 49.4587 78.642 48.2338 80.5168C47.8662 81.0613 47.536 81.6304 47.2452 82.22C46.9574 82.8298 46.7373 83.4804 46.3378 84.0203C45.969 84.4839 45.5172 84.8738 45.0056 85.17C43.7153 85.9706 42.2518 86.4456 40.7398 86.5547L41.6116 84.3797C41.7656 83.9931 41.9247 83.586 41.874 83.1721C41.7775 82.3886 40.992 81.8743 40.7364 81.1283C40.5671 80.648 40.6433 80.1183 40.7821 79.6294C41.0902 78.5275 41.7064 77.5362 42.0382 76.441C42.3291 75.4808 42.394 74.4656 42.2278 73.4757C42.155 73.0397 42.0365 72.602 42.0906 72.1643C42.2515 70.8324 43.8037 70.1954 44.5215 69.0661C44.9853 68.3406 45.075 67.4464 45.2308 66.5982C45.4559 65.36 45.8571 64.1234 46.6324 63.1356C47.4077 62.1477 48.6028 61.4324 49.8487 61.4852C50.5156 61.5107 51.1538 61.744 51.7818 61.9723L53.4137 62.5701" fill="#3F3D56"/>
<g opacity="0.1">
<path opacity="0.1" d="M45.6765 65.1497C45.536 65.9144 45.448 66.7166 45.0925 67.3996C45.1416 67.1339 45.1822 66.8665 45.2313 66.6042C45.3463 65.9366 45.5289 65.2825 45.7764 64.6523C45.734 64.8176 45.7053 64.9828 45.6765 65.1497Z" fill="black"/>
<path opacity="0.1" d="M42.6729 72.0283C42.8382 73.0187 42.7734 74.0342 42.4833 74.9952C42.4038 75.2558 42.314 75.5062 42.2057 75.7617C42.3467 75.0093 42.3542 74.2378 42.2277 73.4828C42.1549 73.0468 42.0364 72.609 42.0906 72.1713C42.1404 71.7963 42.2928 71.4425 42.5307 71.1494C42.5561 71.4458 42.6238 71.737 42.6729 72.0283Z" fill="black"/>
<path opacity="0.1" d="M40.7823 79.6355C40.8761 79.3155 40.9892 79.0015 41.1209 78.6953C41.064 79.0239 41.086 79.3615 41.1852 79.6798C41.4409 80.4241 42.228 80.9401 42.3228 81.7236C42.3736 82.1375 42.2162 82.5446 42.0604 82.9312C42.0029 83.076 41.9453 83.2224 41.8911 83.3672C41.8954 83.3043 41.8954 83.2411 41.8911 83.1782C41.7947 82.3947 41.0092 81.8803 40.7536 81.1343C40.5707 80.654 40.6435 80.1243 40.7823 79.6355Z" fill="black"/>
<path opacity="0.1" d="M45.4493 83.721C45.9608 83.424 46.4126 83.0336 46.7815 82.5696C47.1827 82.0297 47.4028 81.3774 47.6906 80.7693C47.9809 80.1795 48.3112 79.6104 48.6791 79.0661C49.9036 77.1908 51.2441 75.395 52.6927 73.6891C52.7451 73.6295 52.7959 73.5682 52.8467 73.5068C52.8816 73.6644 52.8947 73.826 52.8856 73.9871C52.8467 74.4334 52.5471 74.803 52.2492 75.1436C50.7999 76.8488 49.4588 78.6441 48.2339 80.519C47.8664 81.0635 47.5361 81.6325 47.2454 82.2222C46.9576 82.8319 46.7375 83.4825 46.338 84.0225C45.9692 84.486 45.5174 84.876 45.0058 85.1721C43.7156 85.9727 42.2521 86.4478 40.7401 86.5568L41.3325 85.0921C42.7921 84.9634 44.2017 84.494 45.4493 83.721Z" fill="black"/>
<path opacity="0.1" d="M54.1586 68.2301C54.6665 67.6136 55.3283 67.1452 55.8192 66.5184C55.8632 66.4605 55.9056 66.4009 55.9479 66.3379C55.958 66.9341 55.7543 67.5139 55.374 67.9713C54.8831 68.5997 54.2179 69.0681 53.7135 69.6847C53.5165 69.9241 53.3462 70.1846 53.2056 70.4613C53.3105 69.6428 53.6405 68.87 54.1586 68.2301Z" fill="black"/>
</g>
<path d="M120.236 50.7474L121.463 49.5057C121.524 49.4442 121.596 49.3954 121.675 49.362C121.755 49.3287 121.84 49.3115 121.926 49.3115C122.012 49.3115 122.097 49.3287 122.177 49.362C122.256 49.3954 122.328 49.4442 122.389 49.5057L130.096 57.1889L133.356 53.8847C133.478 53.7621 133.644 53.6932 133.816 53.6932C133.988 53.6932 134.154 53.7621 134.276 53.8847L135.516 55.1195C135.638 55.2436 135.707 55.4109 135.707 55.5854C135.707 55.7598 135.638 55.9272 135.516 56.0512L130.565 61.0705C130.442 61.1931 130.276 61.2618 130.103 61.2618C129.93 61.2618 129.764 61.1931 129.641 61.0705L120.236 51.679C120.175 51.6181 120.126 51.5455 120.093 51.4656C120.06 51.3856 120.043 51.2998 120.043 51.2132C120.043 51.1266 120.06 51.0408 120.093 50.9609C120.126 50.8809 120.175 50.8084 120.236 50.7474Z" fill="#3ACC6C"/>
<path d="M86.211 50.7474L87.4383 49.5057C87.4989 49.4442 87.571 49.3954 87.6505 49.362C87.7299 49.3287 87.8152 49.3115 87.9013 49.3115C87.9873 49.3115 88.0726 49.3287 88.1521 49.362C88.2315 49.3954 88.3036 49.4442 88.3642 49.5057L96.0714 57.1889L99.3317 53.8847C99.4536 53.7621 99.6189 53.6932 99.7913 53.6932C99.9636 53.6932 100.129 53.7621 100.251 53.8847L101.492 55.1195C101.614 55.2436 101.682 55.4109 101.682 55.5854C101.682 55.7598 101.614 55.9272 101.492 56.0512L96.5403 61.0705C96.4173 61.1931 96.2512 61.2618 96.0782 61.2618C95.9051 61.2618 95.739 61.1931 95.6161 61.0705L86.211 51.679C86.1499 51.6181 86.1013 51.5455 86.0682 51.4656C86.0351 51.3856 86.018 51.2998 86.018 51.2132C86.018 51.1266 86.0351 51.0408 86.0682 50.9609C86.1013 50.8809 86.1499 50.8084 86.211 50.7474Z" fill="#3ACC6C"/>
</g>
<defs>
<linearGradient id="paint0_linear" x1="49.0649" y1="133.999" x2="49.0649" y2="58.2935" gradientUnits="userSpaceOnUse">
<stop stop-color="#808080" stop-opacity="0.25"/>
<stop offset="0.54" stop-color="#808080" stop-opacity="0.12"/>
<stop offset="1" stop-color="#808080" stop-opacity="0.1"/>
</linearGradient>
<clipPath id="clip0">
<rect width="191" height="134" fill="white" transform="matrix(-1 0 0 1 191 0)"/>
</clipPath>
</defs>
</svg>
