<svg width="365" height="204" viewBox="0 0 365 204" fill="none" xmlns="http://www.w3.org/2000/svg">
<g filter="url(#filter0_d)">
<rect x="4" width="345" height="184" rx="24" fill="url(#paint0_linear)"/>
</g>
<path opacity="0.1" d="M289.523 170.325H279.47V160.175H289.523V170.325ZM289.375 154.985H279.625C279.625 139.189 294.25 140.108 294.25 130.11C294.244 128.801 293.987 127.507 293.494 126.3C293 125.093 292.28 123.998 291.375 123.077C290.47 122.156 289.397 121.427 288.217 120.932C287.037 120.437 285.774 120.186 284.5 120.192C281.92 120.246 279.461 121.327 277.642 123.207C275.823 125.087 274.786 127.619 274.75 130.27H265C264.98 124.958 267.014 119.856 270.657 116.085C274.299 112.314 279.251 110.183 284.422 110.162C289.594 110.141 294.562 112.231 298.234 115.972C301.905 119.713 303.979 124.798 304 130.11C303.984 142.607 289.375 144.037 289.375 154.985Z" fill="#04348C"/>
<path d="M198.295 177.463H170.725V149.847H198.314L198.295 177.463ZM197.896 135.825H171.124C171.124 92.9106 211.252 95.4185 211.252 68.2689C211.252 53.3146 199.211 41.3341 184.5 41.3341C169.789 41.3341 157.752 54.2505 157.752 68.6943H131C130.988 61.5491 132.364 54.4716 135.048 47.8679C137.732 41.2642 141.673 35.264 146.643 30.2115C151.613 25.159 157.516 21.1536 164.012 18.4249C170.509 15.6962 177.471 14.2979 184.5 14.3101C214.05 14.3101 238 38.2752 238 68.2689C238 102.217 197.876 106.082 197.876 135.825H197.896Z" fill="#04348C"/>
<path d="M183.068 59.0913C183.972 59.4273 184.728 60.0815 185.2 60.9359C185.563 61.7038 185.551 62.6017 185.798 63.4184C186.32 65.137 187.89 66.2624 188.866 67.7657C190.189 69.7972 190.344 72.3853 190.252 74.8231C190.161 77.2608 189.854 79.7474 190.452 82.1161C190.735 83.2699 191.217 84.3669 191.412 85.5411C191.647 86.9632 191.452 88.4502 191.81 89.8478C192.125 91.1195 192.862 92.2328 193.587 93.3135L196.687 97.9331C195.3 97.5981 193.934 97.1789 192.595 96.6777C193.008 98.0011 193.774 99.1814 194.807 100.086L192.567 97.3237C192.112 96.6836 191.546 96.133 190.898 95.6985C190.077 95.2231 189.105 95.15 188.181 94.955C186.407 94.5893 184.63 93.6629 183.762 92.0337C182.602 89.8641 183.363 87.1379 182.698 84.757C182.224 83.018 181.052 81.5838 180.247 79.983C178.419 76.3548 178.53 72.0765 177.956 68.0379C177.709 66.3234 177.335 64.621 177.327 62.8861C177.327 61.6063 177.45 59.1766 178.765 58.5225C179.905 57.974 182.009 58.6322 183.068 59.0913Z" fill="#3F3D56"/>
<path d="M184.435 88.1531C184.622 90.274 185.057 92.7768 186.953 93.6666C188.025 94.1704 189.272 93.9835 190.436 94.1785C192.631 94.5401 194.42 96.2628 195.456 98.2821C196.492 100.301 196.823 102.593 197.05 104.852C197.349 107.676 197.448 110.743 195.922 113.124C194.691 115.054 192.563 116.228 190.384 116.825C188.19 117.408 185.898 117.492 183.669 117.071C181.44 116.65 179.329 115.734 177.486 114.388C175.681 113.051 174.191 111.328 172.741 109.606C169.581 105.855 166.401 101.744 165.752 96.8438C165.676 96.2872 165.684 95.6249 166.15 95.2836C166.459 95.1064 166.815 95.0338 167.166 95.0764L170.195 95.1333C170.964 95.1333 171.832 95.1333 172.354 94.5442C172.876 93.955 172.844 93.2156 172.824 92.5127C172.747 89.5332 172.67 86.5469 172.593 83.5539C172.547 83.2371 172.618 82.9141 172.793 82.6478C172.985 82.4702 173.231 82.363 173.49 82.3431C175.159 82.0547 176.904 82.3431 178.538 81.8799C180.092 81.4452 182.523 79.625 183.674 81.494C184.638 83.0582 184.288 86.3492 184.435 88.1531Z" fill="#FFC1C7"/>
<path opacity="0.1" d="M184.435 88.1531C184.622 90.274 185.057 92.7768 186.953 93.6666C188.025 94.1704 189.272 93.9835 190.436 94.1785C192.631 94.5401 194.42 96.2628 195.456 98.2821C196.492 100.301 196.823 102.593 197.05 104.852C197.349 107.676 197.448 110.743 195.922 113.124C194.691 115.054 192.563 116.228 190.384 116.825C188.19 117.408 185.898 117.492 183.669 117.071C181.44 116.65 179.329 115.734 177.486 114.388C175.681 113.051 174.191 111.328 172.741 109.606C169.581 105.855 166.401 101.744 165.752 96.8438C165.676 96.2872 165.684 95.6249 166.15 95.2836C166.459 95.1064 166.815 95.0338 167.166 95.0764L170.195 95.1333C170.964 95.1333 171.832 95.1333 172.354 94.5442C172.876 93.955 172.844 93.2156 172.824 92.5127C172.747 89.5332 172.67 86.5469 172.593 83.5539C172.547 83.2371 172.618 82.9141 172.793 82.6478C172.985 82.4702 173.231 82.363 173.49 82.3431C175.159 82.0547 176.904 82.3431 178.538 81.8799C180.092 81.4452 182.523 79.625 183.674 81.494C184.638 83.0582 184.288 86.3492 184.435 88.1531Z" fill="black"/>
<path d="M176.809 87.5725C183.202 87.5725 188.384 82.2882 188.384 75.7697C188.384 69.2511 183.202 63.9668 176.809 63.9668C170.416 63.9668 165.234 69.2511 165.234 75.7697C165.234 82.2882 170.416 87.5725 176.809 87.5725Z" fill="#FFC1C7"/>
<path d="M202.572 126.313C202.493 126.795 202.383 127.271 202.242 127.739C201.871 128.829 201.445 129.899 200.967 130.944C200.783 131.379 200.612 131.814 200.465 132.261C200.349 132.61 200.249 132.968 200.162 133.325C200.074 133.683 199.97 134.166 199.899 134.593C199.791 135.223 199.711 135.861 199.648 136.498H169.442C169.571 134.94 169.514 133.371 169.27 131.826C168.865 129.699 168.24 127.623 167.406 125.63C165.481 120.6 163.33 115.473 162.146 110.227C162.146 110.227 162.146 110.227 162.146 110.207C161.318 106.803 161.07 103.279 161.413 99.7897C161.437 99.5865 161.465 99.3834 161.493 99.1721C161.564 98.6447 161.661 98.1213 161.784 97.6038C162.075 96.1312 162.739 94.7617 163.708 93.6302C165.063 92.1432 167.354 91.4078 169.111 92.3585C170.171 92.9314 170.828 93.9471 171.354 95.0726C171.689 95.7877 171.972 96.5434 172.267 97.2625C173.347 99.8587 174.899 102.223 176.841 104.23C177.211 104.637 177.602 104.998 178.004 105.356C178.407 105.713 178.757 106.014 179.152 106.323C180.431 107.326 181.973 108.598 183.642 108.643C184.61 108.671 185.599 108.643 186.599 108.643C187.475 108.643 188.36 108.606 189.232 108.643C191.101 108.679 193.217 108.139 194.121 106.469C194.739 105.327 194.635 103.934 194.52 102.634C194.428 101.618 194.336 100.602 194.241 99.5825C194.241 99.5297 194.241 99.4768 194.241 99.424C194.177 98.6886 194.109 97.9614 194.042 97.226C194.01 96.8725 193.978 96.5149 193.942 96.1615L193.87 95.3733C194.202 95.3353 194.537 95.3028 194.874 95.2757C196.384 95.1538 197.926 95.1823 199.225 95.9339C200.461 96.6449 201.218 97.8679 201.704 99.2534C202.027 100.241 202.235 101.264 202.325 102.301C202.772 106.912 202.05 111.564 202.297 116.188C202.457 119.536 203.15 123.009 202.572 126.313Z" fill="#19C3AB"/>
<path d="M209.469 136.498H200.333C200.257 135.442 200.198 134.385 200.162 133.325C200.13 132.594 200.106 131.858 200.094 131.127C200.054 129.155 200.07 127.189 200.142 125.228C201.941 126.264 203.955 126.85 206.019 126.938C206.854 127.891 207.528 128.98 208.011 130.16C208.282 130.808 208.51 131.475 208.693 132.155C208.695 132.164 208.695 132.174 208.693 132.183C209.067 133.597 209.327 135.041 209.469 136.498Z" fill="#FFC1C7"/>
<path d="M208.669 130.148C205.213 130.183 201.774 130.646 198.429 131.53C197.986 129.303 198.201 127.003 198.429 124.744L199.907 109.22C200.014 108.07 199.807 97.5146 201.991 99.3795C202.788 100.066 203.808 106.238 204.059 107.229C204.437 108.728 204.736 110.244 205.003 111.763C205.549 114.884 205.919 118.028 206.449 121.153C206.601 122.055 207.88 130.156 208.669 130.148Z" fill="#19C3AB"/>
<path d="M181.22 60.7607C181.236 60.3917 181.153 60.025 180.981 59.7003C180.831 59.5072 180.644 59.3482 180.43 59.2335C180.217 59.1187 179.982 59.0507 179.742 59.034C178.072 58.7699 176.239 59.4403 174.729 58.6764C173.932 58.2701 173.331 57.4576 172.534 57.0066C170.653 55.9218 168.278 57.0066 166.613 58.4123C163.961 60.6576 162.028 63.6601 161.062 67.0339C160.321 69.6424 160.023 72.6936 157.903 74.3472C157.026 75.0298 155.911 75.4077 155.253 76.3178C154.759 77.0166 154.644 77.9145 154.552 78.7555C154.333 80.7383 154.153 82.7697 154.659 84.6956C155.058 86.1298 155.795 87.4299 156.253 88.8398C156.884 90.8356 156.942 92.9736 156.421 95.002C155.9 97.0305 154.822 98.8648 153.313 100.289C154.085 100.78 155.014 100.944 155.903 100.748C155.885 101.165 155.756 101.568 155.528 101.914C158.238 101.825 160.592 99.1353 163.242 99.7244C165.266 100.171 166.394 102.3 167.904 103.747C169.848 105.612 172.868 106.392 175.311 105.287C177.753 104.181 179.235 101.037 178.2 98.5258C177.004 95.6818 173.382 94.5401 172.119 91.7164C171.143 89.5264 171.868 86.9749 171.657 84.5818C171.478 82.5259 170.609 80.6123 170.063 78.6255C169.517 76.6387 169.346 74.3676 170.462 72.6367C171.633 70.8003 173.876 70.0852 175.916 69.3864C180.511 67.875 181.395 65.4981 181.22 60.7607Z" fill="#3F3D56"/>
<path d="M178.375 103.194C178.705 101.569 179.032 99.7937 178.45 98.2214C177.367 95.2879 173.824 94.3738 171.374 92.4845C169.954 91.3854 168.864 89.9036 168.226 88.2062C167.78 87.0158 167.72 85.3621 168.816 84.7608C169.242 84.5576 169.714 84.4735 170.183 84.5171C174 84.6064 177.498 86.7232 180.427 89.226C182.128 90.6846 183.746 92.3545 184.594 94.4469C185.196 95.9299 185.391 97.5469 185.563 99.1396L186.16 104.421C186.555 107.449 186.785 110.497 186.85 113.551C186.854 115.302 186.746 117.051 186.527 118.788C186.375 120.007 186.128 121.291 185.439 122.302C184.116 124.184 181.574 124.606 179.303 124.671C178.446 124.722 177.585 124.666 176.741 124.505C172.968 123.668 170.107 118.28 172.96 114.953C174.155 113.539 175.996 113.502 176.685 111.564C177.61 108.996 177.833 105.888 178.375 103.194Z" fill="#FFC1C7"/>
<path d="M175.311 104.121L178.287 109.082C178.465 109.339 178.589 109.631 178.65 109.939C178.733 110.585 178.251 111.158 177.885 111.682C175.319 115.257 175.972 120.174 176.745 124.533C172.65 123.209 169.004 120.736 166.223 117.397C163.443 114.058 161.64 109.988 161.023 105.653C160.648 103.056 160.043 98.7821 162.302 97.0919C167.744 93.0208 172.757 99.871 175.311 104.121Z" fill="#19C3AB"/>
<path d="M190.436 94.1789C189.272 93.9838 188.045 94.1789 186.953 93.6669C185.057 92.7771 184.622 90.2744 184.435 88.1535C184.435 87.9585 184.407 87.7472 184.399 87.5156C185.078 86.802 185.815 86.1483 186.603 85.5613C187.313 85.138 188.068 84.7986 188.854 84.5496L190.958 83.7939C191.151 84.3641 191.303 84.9481 191.412 85.541C191.647 86.963 191.452 88.4501 191.81 89.8477C192.125 91.1194 192.862 92.2327 193.587 93.3134L196.687 97.933C196.125 97.799 195.568 97.6445 195.014 97.482C193.942 95.8243 192.336 94.4917 190.436 94.1789Z" fill="#3F3D56"/>
<path opacity="0.1" d="M79.9246 98.9457H66.0052V84.8738H79.9246V98.9457ZM79.7139 77.782H66.2158C66.2158 55.9795 86.4629 57.2493 86.4629 43.441C86.4558 41.6343 86.1009 39.8468 85.4186 38.1806C84.7363 36.5143 83.7399 35.0021 82.4864 33.7301C81.2329 32.4582 79.7468 31.4515 78.113 30.7677C76.4793 30.0838 74.7299 29.7361 72.9649 29.7445C69.4003 29.8288 66.0062 31.3233 63.4952 33.9144C60.9842 36.5054 59.5516 39.9915 59.498 43.6407H46C46.0896 36.3897 48.9594 29.4652 53.9907 24.3601C59.0221 19.2549 65.8119 16.3781 72.8964 16.3498C79.9808 16.3215 86.7924 19.1441 91.8625 24.2089C96.9326 29.2737 99.8552 36.175 100 43.425C99.961 60.6754 79.7139 62.64 79.7139 77.7501V77.782Z" fill="#04348C"/>
<path opacity="0.1" d="M281.87 56.3144H274.56V48.9726H281.87V56.3144ZM281.76 45.2506H274.63C274.63 33.8503 285.26 34.5132 285.26 27.2937C285.26 26.3494 285.076 25.4145 284.72 24.5431C284.363 23.6717 283.84 22.8812 283.182 22.2173C282.523 21.5534 281.742 21.0293 280.883 20.6755C280.025 20.3216 279.106 20.1449 278.18 20.1557C276.305 20.1951 274.518 20.975 273.195 22.3312C271.873 23.6873 271.118 25.5139 271.09 27.4262H264C264.083 23.6581 265.605 20.0718 268.243 17.4314C270.881 14.791 274.425 13.3053 278.121 13.2906C281.818 13.276 285.373 14.7337 288.031 17.3531C290.689 19.9725 292.239 23.5466 292.35 27.314C292.39 36.2772 281.76 37.3479 281.76 45.2506Z" fill="#04348C"/>
<path opacity="0.1" d="M129.87 167.462H122.56V160.121H129.87V167.462ZM129.76 156.399H122.63C122.63 144.998 133.26 145.661 133.26 138.442C133.26 137.497 133.076 136.562 132.72 135.691C132.363 134.82 131.84 134.029 131.182 133.365C130.523 132.701 129.742 132.177 128.883 131.823C128.025 131.47 127.106 131.293 126.18 131.304C124.305 131.343 122.518 132.123 121.195 133.479C119.873 134.835 119.118 136.662 119.09 138.574H112C112.083 134.806 113.605 131.22 116.243 128.579C118.881 125.939 122.425 124.453 126.121 124.439C129.818 124.424 133.373 125.882 136.031 128.501C138.689 131.12 140.239 134.695 140.35 138.462C140.39 147.425 129.76 148.496 129.76 156.399Z" fill="#04348C"/>
<defs>
<filter id="filter0_d" x="0" y="0" width="365" height="204" filterUnits="userSpaceOnUse" color-interpolation-filters="sRGB">
<feFlood flood-opacity="0" result="BackgroundImageFix"/>
<feColorMatrix in="SourceAlpha" type="matrix" values="0 0 0 0 0 0 0 0 0 0 0 0 0 0 0 0 0 0 127 0"/>
<feOffset dx="6" dy="10"/>
<feGaussianBlur stdDeviation="5"/>
<feColorMatrix type="matrix" values="0 0 0 0 0 0 0 0 0 0 0 0 0 0 0 0 0 0 0.1 0"/>
<feBlend mode="normal" in2="BackgroundImageFix" result="effect1_dropShadow"/>
<feBlend mode="normal" in="SourceGraphic" in2="effect1_dropShadow" result="shape"/>
</filter>
<linearGradient id="paint0_linear" x1="176.5" y1="0" x2="214.5" y2="304" gradientUnits="userSpaceOnUse">
<stop stop-color="#F8F8F8"/>
<stop offset="0.265625" stop-color="#F8F7F5" stop-opacity="0.985313"/>
<stop offset="0.597787" stop-color="#F8F6F2" stop-opacity="0.972014"/>
<stop offset="0.833333" stop-color="#F8F3E9"/>
<stop offset="0.9999" stop-color="#F9E1B6" stop-opacity="0.671471"/>
<stop offset="1" stop-color="#FCB83B" stop-opacity="0.06"/>
</linearGradient>
</defs>
</svg>
