<svg width="238" height="66" viewBox="0 0 238 66" fill="none" xmlns="http://www.w3.org/2000/svg">
<path fill-rule="evenodd" clip-rule="evenodd" d="M21.5782 0C11.9132 0 4.0782 7.83502 4.0782 17.5V48.0304C4.02457 50.4821 3.93437 52.8055 3.78853 54.609C3.36973 59.788 1.18008 63.5935 0.0924716 65.1953C-0.143018 65.5422 0.0981403 66.0056 0.512753 65.9437C2.23493 65.6864 5.82986 64.6878 9.15668 60.827C12.3272 64.0217 16.7217 66 21.5782 66H219.825C229.49 66 237.325 58.165 237.325 48.5V17.5C237.325 7.83502 229.49 0 219.825 0L21.5782 0Z" fill="#19C3AB"/>
<path d="M44.154 14.454L40.518 27H38.682L35.766 16.902L32.742 27L30.924 27.018L27.414 14.454H29.16L31.896 25.092L34.92 14.454H36.756L39.636 25.056L42.39 14.454H44.154ZM54.9465 21.69C54.9465 22.002 54.9285 22.332 54.8925 22.68H47.0085C47.0685 23.652 47.3985 24.414 47.9985 24.966C48.6105 25.506 49.3485 25.776 50.2125 25.776C50.9205 25.776 51.5085 25.614 51.9765 25.29C52.4565 24.954 52.7925 24.51 52.9845 23.958H54.7485C54.4845 24.906 53.9565 25.68 53.1645 26.28C52.3725 26.868 51.3885 27.162 50.2125 27.162C49.2765 27.162 48.4365 26.952 47.6925 26.532C46.9605 26.112 46.3845 25.518 45.9645 24.75C45.5445 23.97 45.3345 23.07 45.3345 22.05C45.3345 21.03 45.5385 20.136 45.9465 19.368C46.3545 18.6 46.9245 18.012 47.6565 17.604C48.4005 17.184 49.2525 16.974 50.2125 16.974C51.1485 16.974 51.9765 17.178 52.6965 17.586C53.4165 17.994 53.9685 18.558 54.3525 19.278C54.7485 19.986 54.9465 20.79 54.9465 21.69ZM53.2545 21.348C53.2545 20.724 53.1165 20.19 52.8405 19.746C52.5645 19.29 52.1865 18.948 51.7065 18.72C51.2385 18.48 50.7165 18.36 50.1405 18.36C49.3125 18.36 48.6045 18.624 48.0165 19.152C47.4405 19.68 47.1105 20.412 47.0265 21.348H53.2545ZM57.3607 14.454H59.1787L57.4507 18.54H56.2987L57.3607 14.454ZM64.7182 25.488L67.7782 17.136H69.5242L65.6542 27H63.7462L59.8762 17.136H61.6402L64.7182 25.488ZM80.136 21.69C80.136 22.002 80.118 22.332 80.082 22.68H72.198C72.258 23.652 72.588 24.414 73.188 24.966C73.8 25.506 74.538 25.776 75.402 25.776C76.11 25.776 76.698 25.614 77.166 25.29C77.646 24.954 77.982 24.51 78.174 23.958H79.938C79.674 24.906 79.146 25.68 78.354 26.28C77.562 26.868 76.578 27.162 75.402 27.162C74.466 27.162 73.626 26.952 72.882 26.532C72.15 26.112 71.574 25.518 71.154 24.75C70.734 23.97 70.524 23.07 70.524 22.05C70.524 21.03 70.728 20.136 71.136 19.368C71.544 18.6 72.114 18.012 72.846 17.604C73.59 17.184 74.442 16.974 75.402 16.974C76.338 16.974 77.166 17.178 77.886 17.586C78.606 17.994 79.158 18.558 79.542 19.278C79.938 19.986 80.136 20.79 80.136 21.69ZM78.444 21.348C78.444 20.724 78.306 20.19 78.03 19.746C77.754 19.29 77.376 18.948 76.896 18.72C76.428 18.48 75.906 18.36 75.33 18.36C74.502 18.36 73.794 18.624 73.206 19.152C72.63 19.68 72.3 20.412 72.216 21.348H78.444ZM86.4849 22.032C86.4849 21.024 86.6889 20.142 87.0969 19.386C87.5049 18.618 88.0629 18.024 88.7709 17.604C89.4909 17.184 90.2949 16.974 91.1829 16.974C91.9509 16.974 92.6649 17.154 93.3249 17.514C93.9849 17.862 94.4889 18.324 94.8369 18.9V13.68H96.4929V27H94.8369V25.146C94.5129 25.734 94.0329 26.22 93.3969 26.604C92.7609 26.976 92.0169 27.162 91.1649 27.162C90.2889 27.162 89.4909 26.946 88.7709 26.514C88.0629 26.082 87.5049 25.476 87.0969 24.696C86.6889 23.916 86.4849 23.028 86.4849 22.032ZM94.8369 22.05C94.8369 21.306 94.6869 20.658 94.3869 20.106C94.0869 19.554 93.6789 19.134 93.1629 18.846C92.6589 18.546 92.1009 18.396 91.4889 18.396C90.8769 18.396 90.3189 18.54 89.8149 18.828C89.3109 19.116 88.9089 19.536 88.6089 20.088C88.3089 20.64 88.1589 21.288 88.1589 22.032C88.1589 22.788 88.3089 23.448 88.6089 24.012C88.9089 24.564 89.3109 24.99 89.8149 25.29C90.3189 25.578 90.8769 25.722 91.4889 25.722C92.1009 25.722 92.6589 25.578 93.1629 25.29C93.6789 24.99 94.0869 24.564 94.3869 24.012C94.6869 23.448 94.8369 22.794 94.8369 22.05ZM100.107 15.534C99.795 15.534 99.531 15.426 99.315 15.21C99.099 14.994 98.991 14.73 98.991 14.418C98.991 14.106 99.099 13.842 99.315 13.626C99.531 13.41 99.795 13.302 100.107 13.302C100.407 13.302 100.659 13.41 100.863 13.626C101.079 13.842 101.187 14.106 101.187 14.418C101.187 14.73 101.079 14.994 100.863 15.21C100.659 15.426 100.407 15.534 100.107 15.534ZM100.899 17.136V27H99.261V17.136H100.899ZM107.363 25.488L110.423 17.136H112.169L108.299 27H106.391L102.521 17.136H104.285L107.363 25.488ZM114.627 15.534C114.315 15.534 114.051 15.426 113.835 15.21C113.619 14.994 113.511 14.73 113.511 14.418C113.511 14.106 113.619 13.842 113.835 13.626C114.051 13.41 114.315 13.302 114.627 13.302C114.927 13.302 115.179 13.41 115.383 13.626C115.599 13.842 115.707 14.106 115.707 14.418C115.707 14.73 115.599 14.994 115.383 15.21C115.179 15.426 114.927 15.534 114.627 15.534ZM115.419 17.136V27H113.781V17.136H115.419ZM117.598 22.032C117.598 21.024 117.802 20.142 118.21 19.386C118.618 18.618 119.176 18.024 119.884 17.604C120.604 17.184 121.408 16.974 122.296 16.974C123.064 16.974 123.778 17.154 124.438 17.514C125.098 17.862 125.602 18.324 125.95 18.9V13.68H127.606V27H125.95V25.146C125.626 25.734 125.146 26.22 124.51 26.604C123.874 26.976 123.13 27.162 122.278 27.162C121.402 27.162 120.604 26.946 119.884 26.514C119.176 26.082 118.618 25.476 118.21 24.696C117.802 23.916 117.598 23.028 117.598 22.032ZM125.95 22.05C125.95 21.306 125.8 20.658 125.5 20.106C125.2 19.554 124.792 19.134 124.276 18.846C123.772 18.546 123.214 18.396 122.602 18.396C121.99 18.396 121.432 18.54 120.928 18.828C120.424 19.116 120.022 19.536 119.722 20.088C119.422 20.64 119.272 21.288 119.272 22.032C119.272 22.788 119.422 23.448 119.722 24.012C120.022 24.564 120.424 24.99 120.928 25.29C121.432 25.578 121.99 25.722 122.602 25.722C123.214 25.722 123.772 25.578 124.276 25.29C124.792 24.99 125.2 24.564 125.5 24.012C125.8 23.448 125.95 22.794 125.95 22.05ZM139.374 21.69C139.374 22.002 139.356 22.332 139.32 22.68H131.436C131.496 23.652 131.826 24.414 132.426 24.966C133.038 25.506 133.776 25.776 134.64 25.776C135.348 25.776 135.936 25.614 136.404 25.29C136.884 24.954 137.22 24.51 137.412 23.958H139.176C138.912 24.906 138.384 25.68 137.592 26.28C136.8 26.868 135.816 27.162 134.64 27.162C133.704 27.162 132.864 26.952 132.12 26.532C131.388 26.112 130.812 25.518 130.392 24.75C129.972 23.97 129.762 23.07 129.762 22.05C129.762 21.03 129.966 20.136 130.374 19.368C130.782 18.6 131.352 18.012 132.084 17.604C132.828 17.184 133.68 16.974 134.64 16.974C135.576 16.974 136.404 17.178 137.124 17.586C137.844 17.994 138.396 18.558 138.78 19.278C139.176 19.986 139.374 20.79 139.374 21.69ZM137.682 21.348C137.682 20.724 137.544 20.19 137.268 19.746C136.992 19.29 136.614 18.948 136.134 18.72C135.666 18.48 135.144 18.36 134.568 18.36C133.74 18.36 133.032 18.624 132.444 19.152C131.868 19.68 131.538 20.412 131.454 21.348H137.682ZM140.924 22.032C140.924 21.024 141.128 20.142 141.536 19.386C141.944 18.618 142.502 18.024 143.21 17.604C143.93 17.184 144.734 16.974 145.622 16.974C146.39 16.974 147.104 17.154 147.764 17.514C148.424 17.862 148.928 18.324 149.276 18.9V13.68H150.932V27H149.276V25.146C148.952 25.734 148.472 26.22 147.836 26.604C147.2 26.976 146.456 27.162 145.604 27.162C144.728 27.162 143.93 26.946 143.21 26.514C142.502 26.082 141.944 25.476 141.536 24.696C141.128 23.916 140.924 23.028 140.924 22.032ZM149.276 22.05C149.276 21.306 149.126 20.658 148.826 20.106C148.526 19.554 148.118 19.134 147.602 18.846C147.098 18.546 146.54 18.396 145.928 18.396C145.316 18.396 144.758 18.54 144.254 18.828C143.75 19.116 143.348 19.536 143.048 20.088C142.748 20.64 142.598 21.288 142.598 22.032C142.598 22.788 142.748 23.448 143.048 24.012C143.348 24.564 143.75 24.99 144.254 25.29C144.758 25.578 145.316 25.722 145.928 25.722C146.54 25.722 147.098 25.578 147.602 25.29C148.118 24.99 148.526 24.564 148.826 24.012C149.126 23.448 149.276 22.794 149.276 22.05ZM165.915 24.21H160.443L159.435 27H157.707L162.243 14.526H164.133L168.651 27H166.923L165.915 24.21ZM165.447 22.878L163.179 16.542L160.911 22.878H165.447ZM170.016 22.032C170.016 21.024 170.22 20.142 170.628 19.386C171.036 18.618 171.594 18.024 172.302 17.604C173.022 17.184 173.82 16.974 174.696 16.974C175.56 16.974 176.31 17.16 176.946 17.532C177.582 17.904 178.056 18.372 178.368 18.936V17.136H180.024V27H178.368V25.164C178.044 25.74 177.558 26.22 176.91 26.604C176.274 26.976 175.53 27.162 174.678 27.162C173.802 27.162 173.01 26.946 172.302 26.514C171.594 26.082 171.036 25.476 170.628 24.696C170.22 23.916 170.016 23.028 170.016 22.032ZM178.368 22.05C178.368 21.306 178.218 20.658 177.918 20.106C177.618 19.554 177.21 19.134 176.694 18.846C176.19 18.546 175.632 18.396 175.02 18.396C174.408 18.396 173.85 18.54 173.346 18.828C172.842 19.116 172.44 19.536 172.14 20.088C171.84 20.64 171.69 21.288 171.69 22.032C171.69 22.788 171.84 23.448 172.14 24.012C172.44 24.564 172.842 24.99 173.346 25.29C173.85 25.578 174.408 25.722 175.02 25.722C175.632 25.722 176.19 25.578 176.694 25.29C177.21 24.99 177.618 24.564 177.918 24.012C178.218 23.448 178.368 22.794 178.368 22.05ZM184.43 18.738C184.718 18.174 185.126 17.736 185.654 17.424C186.194 17.112 186.848 16.956 187.616 16.956V18.648H187.184C185.348 18.648 184.43 19.644 184.43 21.636V27H182.792V17.136H184.43V18.738ZM194.403 16.956C195.147 16.956 195.819 17.118 196.419 17.442C197.019 17.754 197.487 18.228 197.823 18.864C198.171 19.5 198.345 20.274 198.345 21.186V27H196.725V21.42C196.725 20.436 196.479 19.686 195.987 19.17C195.495 18.642 194.823 18.378 193.971 18.378C193.107 18.378 192.417 18.648 191.901 19.188C191.397 19.728 191.145 20.514 191.145 21.546V27H189.507V13.68H191.145V18.54C191.469 18.036 191.913 17.646 192.477 17.37C193.053 17.094 193.695 16.956 194.403 16.956ZM209.769 17.136V27H208.131V25.542C207.819 26.046 207.381 26.442 206.817 26.73C206.265 27.006 205.653 27.144 204.981 27.144C204.213 27.144 203.523 26.988 202.911 26.676C202.299 26.352 201.813 25.872 201.453 25.236C201.105 24.6 200.931 23.826 200.931 22.914V17.136H202.551V22.698C202.551 23.67 202.797 24.42 203.289 24.948C203.781 25.464 204.453 25.722 205.305 25.722C206.181 25.722 206.871 25.452 207.375 24.912C207.879 24.372 208.131 23.586 208.131 22.554V17.136H209.769ZM216.026 27.162C215.27 27.162 214.592 27.036 213.992 26.784C213.392 26.52 212.918 26.16 212.57 25.704C212.222 25.236 212.03 24.702 211.994 24.102H213.686C213.734 24.594 213.962 24.996 214.37 25.308C214.79 25.62 215.336 25.776 216.008 25.776C216.632 25.776 217.124 25.638 217.484 25.362C217.844 25.086 218.024 24.738 218.024 24.318C218.024 23.886 217.832 23.568 217.448 23.364C217.064 23.148 216.47 22.938 215.666 22.734C214.934 22.542 214.334 22.35 213.866 22.158C213.41 21.954 213.014 21.66 212.678 21.276C212.354 20.88 212.192 20.364 212.192 19.728C212.192 19.224 212.342 18.762 212.642 18.342C212.942 17.922 213.368 17.592 213.92 17.352C214.472 17.1 215.102 16.974 215.81 16.974C216.902 16.974 217.784 17.25 218.456 17.802C219.128 18.354 219.488 19.11 219.536 20.07H217.898C217.862 19.554 217.652 19.14 217.268 18.828C216.896 18.516 216.392 18.36 215.756 18.36C215.168 18.36 214.7 18.486 214.352 18.738C214.004 18.99 213.83 19.32 213.83 19.728C213.83 20.052 213.932 20.322 214.136 20.538C214.352 20.742 214.616 20.91 214.928 21.042C215.252 21.162 215.696 21.3 216.26 21.456C216.968 21.648 217.544 21.84 217.988 22.032C218.432 22.212 218.81 22.488 219.122 22.86C219.446 23.232 219.614 23.718 219.626 24.318C219.626 24.858 219.476 25.344 219.176 25.776C218.876 26.208 218.45 26.55 217.898 26.802C217.358 27.042 216.734 27.162 216.026 27.162ZM29.232 42.534C28.92 42.534 28.656 42.426 28.44 42.21C28.224 41.994 28.116 41.73 28.116 41.418C28.116 41.106 28.224 40.842 28.44 40.626C28.656 40.41 28.92 40.302 29.232 40.302C29.532 40.302 29.784 40.41 29.988 40.626C30.204 40.842 30.312 41.106 30.312 41.418C30.312 41.73 30.204 41.994 29.988 42.21C29.784 42.426 29.532 42.534 29.232 42.534ZM30.024 44.136V54H28.386V44.136H30.024ZM37.6217 43.956C38.8217 43.956 39.7937 44.322 40.5377 45.054C41.2817 45.774 41.6537 46.818 41.6537 48.186V54H40.0337V48.42C40.0337 47.436 39.7877 46.686 39.2957 46.17C38.8037 45.642 38.1317 45.378 37.2797 45.378C36.4157 45.378 35.7257 45.648 35.2097 46.188C34.7057 46.728 34.4537 47.514 34.4537 48.546V54H32.8157V44.136H34.4537V45.54C34.7777 45.036 35.2157 44.646 35.7677 44.37C36.3317 44.094 36.9497 43.956 37.6217 43.956ZM51.2342 47.232C50.5622 46.968 50.0462 46.584 49.6862 46.08C49.3262 45.576 49.1462 44.964 49.1462 44.244C49.1462 43.596 49.3082 43.014 49.6322 42.498C49.9562 41.97 50.4362 41.556 51.0722 41.256C51.7202 40.944 52.5002 40.788 53.4122 40.788C54.3242 40.788 55.0982 40.944 55.7342 41.256C56.3822 41.556 56.8682 41.97 57.1922 42.498C57.5282 43.014 57.6962 43.596 57.6962 44.244C57.6962 44.94 57.5102 45.552 57.1382 46.08C56.7662 46.596 56.2562 46.98 55.6082 47.232C56.3522 47.46 56.9402 47.862 57.3722 48.438C57.8162 49.002 58.0382 49.686 58.0382 50.49C58.0382 51.27 57.8462 51.954 57.4622 52.542C57.0782 53.118 56.5322 53.568 55.8242 53.892C55.1282 54.204 54.3242 54.36 53.4122 54.36C52.5002 54.36 51.6962 54.204 51.0002 53.892C50.3162 53.568 49.7822 53.118 49.3982 52.542C49.0142 51.954 48.8222 51.27 48.8222 50.49C48.8222 49.686 49.0382 48.996 49.4702 48.42C49.9022 47.844 50.4902 47.448 51.2342 47.232ZM56.1122 44.442C56.1122 43.71 55.8722 43.146 55.3922 42.75C54.9122 42.354 54.2522 42.156 53.4122 42.156C52.5842 42.156 51.9302 42.354 51.4502 42.75C50.9702 43.146 50.7302 43.716 50.7302 44.46C50.7302 45.132 50.9762 45.672 51.4682 46.08C51.9722 46.488 52.6202 46.692 53.4122 46.692C54.2162 46.692 54.8642 46.488 55.3562 46.08C55.8602 45.66 56.1122 45.114 56.1122 44.442ZM53.4122 47.952C52.5242 47.952 51.7982 48.162 51.2342 48.582C50.6702 48.99 50.3882 49.608 50.3882 50.436C50.3882 51.204 50.6582 51.822 51.1982 52.29C51.7502 52.758 52.4882 52.992 53.4122 52.992C54.3362 52.992 55.0682 52.758 55.6082 52.29C56.1482 51.822 56.4182 51.204 56.4182 50.436C56.4182 49.632 56.1422 49.02 55.5902 48.6C55.0382 48.168 54.3122 47.952 53.4122 47.952ZM64.6705 49.032C64.6705 48.024 64.8745 47.142 65.2825 46.386C65.6905 45.618 66.2485 45.024 66.9565 44.604C67.6765 44.184 68.4745 43.974 69.3505 43.974C70.2145 43.974 70.9645 44.16 71.6005 44.532C72.2365 44.904 72.7105 45.372 73.0225 45.936V44.136H74.6785V54H73.0225V52.164C72.6985 52.74 72.2125 53.22 71.5645 53.604C70.9285 53.976 70.1845 54.162 69.3325 54.162C68.4565 54.162 67.6645 53.946 66.9565 53.514C66.2485 53.082 65.6905 52.476 65.2825 51.696C64.8745 50.916 64.6705 50.028 64.6705 49.032ZM73.0225 49.05C73.0225 48.306 72.8725 47.658 72.5725 47.106C72.2725 46.554 71.8645 46.134 71.3485 45.846C70.8445 45.546 70.2865 45.396 69.6745 45.396C69.0625 45.396 68.5045 45.54 68.0005 45.828C67.4965 46.116 67.0945 46.536 66.7945 47.088C66.4945 47.64 66.3445 48.288 66.3445 49.032C66.3445 49.788 66.4945 50.448 66.7945 51.012C67.0945 51.564 67.4965 51.99 68.0005 52.29C68.5045 52.578 69.0625 52.722 69.6745 52.722C70.2865 52.722 70.8445 52.578 71.3485 52.29C71.8645 51.99 72.2725 51.564 72.5725 51.012C72.8725 50.448 73.0225 49.794 73.0225 49.05ZM79.0845 45.738C79.3725 45.174 79.7805 44.736 80.3085 44.424C80.8485 44.112 81.5025 43.956 82.2705 43.956V45.648H81.8385C80.0025 45.648 79.0845 46.644 79.0845 48.636V54H77.4465V44.136H79.0845V45.738ZM93.1614 48.69C93.1614 49.002 93.1434 49.332 93.1074 49.68H85.2234C85.2834 50.652 85.6134 51.414 86.2134 51.966C86.8254 52.506 87.5634 52.776 88.4274 52.776C89.1354 52.776 89.7234 52.614 90.1914 52.29C90.6714 51.954 91.0074 51.51 91.1994 50.958H92.9634C92.6994 51.906 92.1714 52.68 91.3794 53.28C90.5874 53.868 89.6034 54.162 88.4274 54.162C87.4914 54.162 86.6514 53.952 85.9074 53.532C85.1754 53.112 84.5994 52.518 84.1794 51.75C83.7594 50.97 83.5494 50.07 83.5494 49.05C83.5494 48.03 83.7534 47.136 84.1614 46.368C84.5694 45.6 85.1394 45.012 85.8714 44.604C86.6154 44.184 87.4674 43.974 88.4274 43.974C89.3634 43.974 90.1914 44.178 90.9114 44.586C91.6314 44.994 92.1834 45.558 92.5674 46.278C92.9634 46.986 93.1614 47.79 93.1614 48.69ZM91.4694 48.348C91.4694 47.724 91.3314 47.19 91.0554 46.746C90.7794 46.29 90.4014 45.948 89.9214 45.72C89.4534 45.48 88.9314 45.36 88.3554 45.36C87.5274 45.36 86.8194 45.624 86.2314 46.152C85.6554 46.68 85.3254 47.412 85.2414 48.348H91.4694ZM94.7115 49.032C94.7115 48.024 94.9155 47.142 95.3235 46.386C95.7315 45.618 96.2895 45.024 96.9975 44.604C97.7175 44.184 98.5155 43.974 99.3915 43.974C100.256 43.974 101.006 44.16 101.642 44.532C102.278 44.904 102.752 45.372 103.064 45.936V44.136H104.72V54H103.064V52.164C102.74 52.74 102.254 53.22 101.606 53.604C100.97 53.976 100.226 54.162 99.3735 54.162C98.4975 54.162 97.7055 53.946 96.9975 53.514C96.2895 53.082 95.7315 52.476 95.3235 51.696C94.9155 50.916 94.7115 50.028 94.7115 49.032ZM103.064 49.05C103.064 48.306 102.914 47.658 102.614 47.106C102.314 46.554 101.906 46.134 101.39 45.846C100.886 45.546 100.328 45.396 99.7155 45.396C99.1035 45.396 98.5455 45.54 98.0415 45.828C97.5375 46.116 97.1355 46.536 96.8355 47.088C96.5355 47.64 96.3855 48.288 96.3855 49.032C96.3855 49.788 96.5355 50.448 96.8355 51.012C97.1355 51.564 97.5375 51.99 98.0415 52.29C98.5455 52.578 99.1035 52.722 99.7155 52.722C100.328 52.722 100.886 52.578 101.39 52.29C101.906 51.99 102.314 51.564 102.614 51.012C102.914 50.448 103.064 49.794 103.064 49.05ZM110.98 54.162C110.224 54.162 109.546 54.036 108.946 53.784C108.346 53.52 107.872 53.16 107.524 52.704C107.176 52.236 106.984 51.702 106.948 51.102H108.64C108.688 51.594 108.916 51.996 109.324 52.308C109.744 52.62 110.29 52.776 110.962 52.776C111.586 52.776 112.078 52.638 112.438 52.362C112.798 52.086 112.978 51.738 112.978 51.318C112.978 50.886 112.786 50.568 112.402 50.364C112.018 50.148 111.424 49.938 110.62 49.734C109.888 49.542 109.288 49.35 108.82 49.158C108.364 48.954 107.968 48.66 107.632 48.276C107.308 47.88 107.146 47.364 107.146 46.728C107.146 46.224 107.296 45.762 107.596 45.342C107.896 44.922 108.322 44.592 108.874 44.352C109.426 44.1 110.056 43.974 110.764 43.974C111.856 43.974 112.738 44.25 113.41 44.802C114.082 45.354 114.442 46.11 114.49 47.07H112.852C112.816 46.554 112.606 46.14 112.222 45.828C111.85 45.516 111.346 45.36 110.71 45.36C110.122 45.36 109.654 45.486 109.306 45.738C108.958 45.99 108.784 46.32 108.784 46.728C108.784 47.052 108.886 47.322 109.09 47.538C109.306 47.742 109.57 47.91 109.882 48.042C110.206 48.162 110.65 48.3 111.214 48.456C111.922 48.648 112.498 48.84 112.942 49.032C113.386 49.212 113.764 49.488 114.076 49.86C114.4 50.232 114.568 50.718 114.58 51.318C114.58 51.858 114.43 52.344 114.13 52.776C113.83 53.208 113.404 53.55 112.852 53.802C112.312 54.042 111.688 54.162 110.98 54.162Z" fill="white"/>
</svg>
