<svg width="269" height="124" viewBox="0 0 269 124" fill="none" xmlns="http://www.w3.org/2000/svg">
<path fill-rule="evenodd" clip-rule="evenodd" d="M247.5 0C257.165 0 265 7.83501 265 17.5V106.5C265 106.986 264.98 107.468 264.941 107.945C264.97 110.74 265.062 113.693 265.288 115.731C265.67 119.175 267.529 121.783 268.67 123.09C268.972 123.435 268.733 123.986 268.279 123.927C266.331 123.676 262.52 122.774 259.17 119.541C256.074 122.314 251.984 124 247.5 124H17.5001C7.83511 124 9.15527e-05 116.165 9.15527e-05 106.5V17.5C9.15527e-05 7.83502 7.83511 0 17.5001 0H247.5Z" fill="#19C3AB"/>
<path d="M29.7891 28.538C30.2451 28.61 30.6591 28.796 31.0311 29.096C31.4151 29.396 31.7151 29.768 31.9311 30.212C32.1591 30.656 32.2731 31.13 32.2731 31.634C32.2731 32.27 32.1111 32.846 31.7871 33.362C31.4631 33.866 30.9891 34.268 30.3651 34.568C29.7531 34.856 29.0271 35 28.1871 35H23.5071V22.454H28.0071C28.8591 22.454 29.5851 22.598 30.1851 22.886C30.7851 23.162 31.2351 23.54 31.5351 24.02C31.8351 24.5 31.9851 25.04 31.9851 25.64C31.9851 26.384 31.7811 27.002 31.3731 27.494C30.9771 27.974 30.4491 28.322 29.7891 28.538ZM25.1451 27.872H27.8991C28.6671 27.872 29.2611 27.692 29.6811 27.332C30.1011 26.972 30.3111 26.474 30.3111 25.838C30.3111 25.202 30.1011 24.704 29.6811 24.344C29.2611 23.984 28.6551 23.804 27.8631 23.804H25.1451V27.872ZM28.0431 33.65C28.8591 33.65 29.4951 33.458 29.9511 33.074C30.4071 32.69 30.6351 32.156 30.6351 31.472C30.6351 30.776 30.3951 30.23 29.9151 29.834C29.4351 29.426 28.7931 29.222 27.9891 29.222H25.1451V33.65H28.0431ZM43.2942 25.136V35H41.6562V33.542C41.3442 34.046 40.9062 34.442 40.3422 34.73C39.7902 35.006 39.1782 35.144 38.5062 35.144C37.7382 35.144 37.0482 34.988 36.4362 34.676C35.8242 34.352 35.3382 33.872 34.9782 33.236C34.6302 32.6 34.4562 31.826 34.4562 30.914V25.136H36.0762V30.698C36.0762 31.67 36.3222 32.42 36.8142 32.948C37.3062 33.464 37.9782 33.722 38.8302 33.722C39.7062 33.722 40.3962 33.452 40.9002 32.912C41.4042 32.372 41.6562 31.586 41.6562 30.554V25.136H43.2942ZM45.4478 30.032C45.4478 29.024 45.6518 28.142 46.0598 27.386C46.4678 26.618 47.0258 26.024 47.7338 25.604C48.4538 25.184 49.2578 24.974 50.1458 24.974C50.9138 24.974 51.6278 25.154 52.2878 25.514C52.9478 25.862 53.4518 26.324 53.7998 26.9V21.68H55.4558V35H53.7998V33.146C53.4758 33.734 52.9958 34.22 52.3598 34.604C51.7238 34.976 50.9798 35.162 50.1278 35.162C49.2518 35.162 48.4538 34.946 47.7338 34.514C47.0258 34.082 46.4678 33.476 46.0598 32.696C45.6518 31.916 45.4478 31.028 45.4478 30.032ZM53.7998 30.05C53.7998 29.306 53.6498 28.658 53.3498 28.106C53.0498 27.554 52.6418 27.134 52.1258 26.846C51.6218 26.546 51.0638 26.396 50.4518 26.396C49.8398 26.396 49.2818 26.54 48.7778 26.828C48.2738 27.116 47.8718 27.536 47.5718 28.088C47.2718 28.64 47.1218 29.288 47.1218 30.032C47.1218 30.788 47.2718 31.448 47.5718 32.012C47.8718 32.564 48.2738 32.99 48.7778 33.29C49.2818 33.578 49.8398 33.722 50.4518 33.722C51.0638 33.722 51.6218 33.578 52.1258 33.29C52.6418 32.99 53.0498 32.564 53.3498 32.012C53.6498 31.448 53.7998 30.794 53.7998 30.05ZM57.6119 30.032C57.6119 29.024 57.8159 28.142 58.2239 27.386C58.6319 26.618 59.1899 26.024 59.8979 25.604C60.6179 25.184 61.4219 24.974 62.3099 24.974C63.0779 24.974 63.7919 25.154 64.4519 25.514C65.1119 25.862 65.6159 26.324 65.9639 26.9V21.68H67.6199V35H65.9639V33.146C65.6399 33.734 65.1599 34.22 64.5239 34.604C63.8879 34.976 63.1439 35.162 62.2919 35.162C61.4159 35.162 60.6179 34.946 59.8979 34.514C59.1899 34.082 58.6319 33.476 58.2239 32.696C57.8159 31.916 57.6119 31.028 57.6119 30.032ZM65.9639 30.05C65.9639 29.306 65.8139 28.658 65.5139 28.106C65.2139 27.554 64.8059 27.134 64.2899 26.846C63.7859 26.546 63.2279 26.396 62.6159 26.396C62.0039 26.396 61.4459 26.54 60.9419 26.828C60.4379 27.116 60.0359 27.536 59.7359 28.088C59.4359 28.64 59.2859 29.288 59.2859 30.032C59.2859 30.788 59.4359 31.448 59.7359 32.012C60.0359 32.564 60.4379 32.99 60.9419 33.29C61.4459 33.578 62.0039 33.722 62.6159 33.722C63.2279 33.722 63.7859 33.578 64.2899 33.29C64.8059 32.99 65.2139 32.564 65.5139 32.012C65.8139 31.448 65.9639 30.794 65.9639 30.05ZM78.884 25.136L72.944 39.644H71.252L73.196 34.892L69.218 25.136H71.036L74.132 33.128L77.192 25.136H78.884ZM94.0774 25.136V35H92.4394V33.542C92.1274 34.046 91.6894 34.442 91.1254 34.73C90.5734 35.006 89.9614 35.144 89.2894 35.144C88.5214 35.144 87.8314 34.988 87.2194 34.676C86.6074 34.352 86.1214 33.872 85.7614 33.236C85.4134 32.6 85.2394 31.826 85.2394 30.914V25.136H86.8594V30.698C86.8594 31.67 87.1054 32.42 87.5974 32.948C88.0894 33.464 88.7614 33.722 89.6134 33.722C90.4894 33.722 91.1794 33.452 91.6834 32.912C92.1874 32.372 92.4394 31.586 92.4394 30.554V25.136H94.0774ZM98.481 26.954C98.805 26.39 99.285 25.922 99.921 25.55C100.569 25.166 101.319 24.974 102.171 24.974C103.047 24.974 103.839 25.184 104.547 25.604C105.267 26.024 105.831 26.618 106.239 27.386C106.647 28.142 106.851 29.024 106.851 30.032C106.851 31.028 106.647 31.916 106.239 32.696C105.831 33.476 105.267 34.082 104.547 34.514C103.839 34.946 103.047 35.162 102.171 35.162C101.331 35.162 100.587 34.976 99.939 34.604C99.303 34.22 98.817 33.746 98.481 33.182V39.68H96.843V25.136H98.481V26.954ZM105.177 30.032C105.177 29.288 105.027 28.64 104.727 28.088C104.427 27.536 104.019 27.116 103.503 26.828C102.999 26.54 102.441 26.396 101.829 26.396C101.229 26.396 100.671 26.546 100.155 26.846C99.651 27.134 99.243 27.56 98.931 28.124C98.631 28.676 98.481 29.318 98.481 30.05C98.481 30.794 98.631 31.448 98.931 32.012C99.243 32.564 99.651 32.99 100.155 33.29C100.671 33.578 101.229 33.722 101.829 33.722C102.441 33.722 102.999 33.578 103.503 33.29C104.019 32.99 104.427 32.564 104.727 32.012C105.027 31.448 105.177 30.788 105.177 30.032ZM126.946 25.136L123.868 35H122.176L119.8 27.17L117.424 35H115.732L112.636 25.136H114.31L116.578 33.416L119.026 25.136H120.7L123.094 33.434L125.326 25.136H126.946ZM129.418 23.534C129.106 23.534 128.842 23.426 128.626 23.21C128.41 22.994 128.302 22.73 128.302 22.418C128.302 22.106 128.41 21.842 128.626 21.626C128.842 21.41 129.106 21.302 129.418 21.302C129.718 21.302 129.97 21.41 130.174 21.626C130.39 21.842 130.498 22.106 130.498 22.418C130.498 22.73 130.39 22.994 130.174 23.21C129.97 23.426 129.718 23.534 129.418 23.534ZM130.21 25.136V35H128.572V25.136H130.21ZM134.999 26.486V32.3C134.999 32.78 135.101 33.122 135.305 33.326C135.509 33.518 135.863 33.614 136.367 33.614H137.573V35H136.097C135.185 35 134.501 34.79 134.045 34.37C133.589 33.95 133.361 33.26 133.361 32.3V26.486H132.083V25.136H133.361V22.652H134.999V25.136H137.573V26.486H134.999ZM144.454 24.956C145.198 24.956 145.87 25.118 146.47 25.442C147.07 25.754 147.538 26.228 147.874 26.864C148.222 27.5 148.396 28.274 148.396 29.186V35H146.776V29.42C146.776 28.436 146.53 27.686 146.038 27.17C145.546 26.642 144.874 26.378 144.022 26.378C143.158 26.378 142.468 26.648 141.952 27.188C141.448 27.728 141.196 28.514 141.196 29.546V35H139.558V21.68H141.196V26.54C141.52 26.036 141.964 25.646 142.528 25.37C143.104 25.094 143.746 24.956 144.454 24.956ZM159.884 26.486H157.814V35H156.176V26.486H154.898V25.136H156.176V24.434C156.176 23.33 156.458 22.526 157.022 22.022C157.598 21.506 158.516 21.248 159.776 21.248V22.616C159.056 22.616 158.546 22.76 158.246 23.048C157.958 23.324 157.814 23.786 157.814 24.434V25.136H159.884V26.486ZM170.794 29.69C170.794 30.002 170.776 30.332 170.74 30.68H162.856C162.916 31.652 163.246 32.414 163.846 32.966C164.458 33.506 165.196 33.776 166.06 33.776C166.768 33.776 167.356 33.614 167.824 33.29C168.304 32.954 168.64 32.51 168.832 31.958H170.596C170.332 32.906 169.804 33.68 169.012 34.28C168.22 34.868 167.236 35.162 166.06 35.162C165.124 35.162 164.284 34.952 163.54 34.532C162.808 34.112 162.232 33.518 161.812 32.75C161.392 31.97 161.182 31.07 161.182 30.05C161.182 29.03 161.386 28.136 161.794 27.368C162.202 26.6 162.772 26.012 163.504 25.604C164.248 25.184 165.1 24.974 166.06 24.974C166.996 24.974 167.824 25.178 168.544 25.586C169.264 25.994 169.816 26.558 170.2 27.278C170.596 27.986 170.794 28.79 170.794 29.69ZM169.102 29.348C169.102 28.724 168.964 28.19 168.688 27.746C168.412 27.29 168.034 26.948 167.554 26.72C167.086 26.48 166.564 26.36 165.988 26.36C165.16 26.36 164.452 26.624 163.864 27.152C163.288 27.68 162.958 28.412 162.874 29.348H169.102ZM174.594 21.68V35H172.956V21.68H174.594ZM179.024 21.68V35H177.386V21.68H179.024ZM186.118 35.162C185.194 35.162 184.354 34.952 183.598 34.532C182.854 34.112 182.266 33.518 181.834 32.75C181.414 31.97 181.204 31.07 181.204 30.05C181.204 29.042 181.42 28.154 181.852 27.386C182.296 26.606 182.896 26.012 183.652 25.604C184.408 25.184 185.254 24.974 186.19 24.974C187.126 24.974 187.972 25.184 188.728 25.604C189.484 26.012 190.078 26.6 190.51 27.368C190.954 28.136 191.176 29.03 191.176 30.05C191.176 31.07 190.948 31.97 190.492 32.75C190.048 33.518 189.442 34.112 188.674 34.532C187.906 34.952 187.054 35.162 186.118 35.162ZM186.118 33.722C186.706 33.722 187.258 33.584 187.774 33.308C188.29 33.032 188.704 32.618 189.016 32.066C189.34 31.514 189.502 30.842 189.502 30.05C189.502 29.258 189.346 28.586 189.034 28.034C188.722 27.482 188.314 27.074 187.81 26.81C187.306 26.534 186.76 26.396 186.172 26.396C185.572 26.396 185.02 26.534 184.516 26.81C184.024 27.074 183.628 27.482 183.328 28.034C183.028 28.586 182.878 29.258 182.878 30.05C182.878 30.854 183.022 31.532 183.31 32.084C183.61 32.636 184.006 33.05 184.498 33.326C184.99 33.59 185.53 33.722 186.118 33.722ZM206.469 25.136L203.391 35H201.699L199.323 27.17L196.947 35H195.255L192.159 25.136H193.833L196.101 33.416L198.549 25.136H200.223L202.617 33.434L204.849 25.136H206.469ZM212.282 30.032C212.282 29.024 212.486 28.142 212.894 27.386C213.302 26.618 213.86 26.024 214.568 25.604C215.288 25.184 216.086 24.974 216.962 24.974C217.826 24.974 218.576 25.16 219.212 25.532C219.848 25.904 220.322 26.372 220.634 26.936V25.136H222.29V35H220.634V33.164C220.31 33.74 219.824 34.22 219.176 34.604C218.54 34.976 217.796 35.162 216.944 35.162C216.068 35.162 215.276 34.946 214.568 34.514C213.86 34.082 213.302 33.476 212.894 32.696C212.486 31.916 212.282 31.028 212.282 30.032ZM220.634 30.05C220.634 29.306 220.484 28.658 220.184 28.106C219.884 27.554 219.476 27.134 218.96 26.846C218.456 26.546 217.898 26.396 217.286 26.396C216.674 26.396 216.116 26.54 215.612 26.828C215.108 27.116 214.706 27.536 214.406 28.088C214.106 28.64 213.956 29.288 213.956 30.032C213.956 30.788 214.106 31.448 214.406 32.012C214.706 32.564 215.108 32.99 215.612 33.29C216.116 33.578 216.674 33.722 217.286 33.722C217.898 33.722 218.456 33.578 218.96 33.29C219.476 32.99 219.884 32.564 220.184 32.012C220.484 31.448 220.634 30.794 220.634 30.05ZM226.696 26.954C227.02 26.39 227.5 25.922 228.136 25.55C228.784 25.166 229.534 24.974 230.386 24.974C231.262 24.974 232.054 25.184 232.762 25.604C233.482 26.024 234.046 26.618 234.454 27.386C234.862 28.142 235.066 29.024 235.066 30.032C235.066 31.028 234.862 31.916 234.454 32.696C234.046 33.476 233.482 34.082 232.762 34.514C232.054 34.946 231.262 35.162 230.386 35.162C229.546 35.162 228.802 34.976 228.154 34.604C227.518 34.22 227.032 33.746 226.696 33.182V39.68H225.058V25.136H226.696V26.954ZM233.392 30.032C233.392 29.288 233.242 28.64 232.942 28.088C232.642 27.536 232.234 27.116 231.718 26.828C231.214 26.54 230.656 26.396 230.044 26.396C229.444 26.396 228.886 26.546 228.37 26.846C227.866 27.134 227.458 27.56 227.146 28.124C226.846 28.676 226.696 29.318 226.696 30.05C226.696 30.794 226.846 31.448 227.146 32.012C227.458 32.564 227.866 32.99 228.37 33.29C228.886 33.578 229.444 33.722 230.044 33.722C230.656 33.722 231.214 33.578 231.718 33.29C232.234 32.99 232.642 32.564 232.942 32.012C233.242 31.448 233.392 30.788 233.392 30.032ZM238.86 26.954C239.184 26.39 239.664 25.922 240.3 25.55C240.948 25.166 241.698 24.974 242.55 24.974C243.426 24.974 244.218 25.184 244.926 25.604C245.646 26.024 246.21 26.618 246.618 27.386C247.026 28.142 247.23 29.024 247.23 30.032C247.23 31.028 247.026 31.916 246.618 32.696C246.21 33.476 245.646 34.082 244.926 34.514C244.218 34.946 243.426 35.162 242.55 35.162C241.71 35.162 240.966 34.976 240.318 34.604C239.682 34.22 239.196 33.746 238.86 33.182V39.68H237.222V25.136H238.86V26.954ZM245.556 30.032C245.556 29.288 245.406 28.64 245.106 28.088C244.806 27.536 244.398 27.116 243.882 26.828C243.378 26.54 242.82 26.396 242.208 26.396C241.608 26.396 241.05 26.546 240.534 26.846C240.03 27.134 239.622 27.56 239.31 28.124C239.01 28.676 238.86 29.318 238.86 30.05C238.86 30.794 239.01 31.448 239.31 32.012C239.622 32.564 240.03 32.99 240.534 33.29C241.05 33.578 241.608 33.722 242.208 33.722C242.82 33.722 243.378 33.578 243.882 33.29C244.398 32.99 244.806 32.564 245.106 32.012C245.406 31.448 245.556 30.788 245.556 30.032ZM42.0813 52.136V62H40.4433V60.542C40.1313 61.046 39.6933 61.442 39.1293 61.73C38.5773 62.006 37.9653 62.144 37.2933 62.144C36.5253 62.144 35.8353 61.988 35.2233 61.676C34.6113 61.352 34.1253 60.872 33.7653 60.236C33.4173 59.6 33.2433 58.826 33.2433 57.914V52.136H34.8633V57.698C34.8633 58.67 35.1093 59.42 35.6013 59.948C36.0933 60.464 36.7653 60.722 37.6173 60.722C38.4933 60.722 39.1833 60.452 39.6873 59.912C40.1913 59.372 40.4433 58.586 40.4433 57.554V52.136H42.0813ZM48.3389 62.162C47.5829 62.162 46.9049 62.036 46.3049 61.784C45.7049 61.52 45.2309 61.16 44.8829 60.704C44.5349 60.236 44.3429 59.702 44.3069 59.102H45.9989C46.0469 59.594 46.2749 59.996 46.6829 60.308C47.1029 60.62 47.6489 60.776 48.3209 60.776C48.9449 60.776 49.4369 60.638 49.7969 60.362C50.1569 60.086 50.3369 59.738 50.3369 59.318C50.3369 58.886 50.1449 58.568 49.7609 58.364C49.3769 58.148 48.7829 57.938 47.9789 57.734C47.2469 57.542 46.6469 57.35 46.1789 57.158C45.7229 56.954 45.3269 56.66 44.9909 56.276C44.6669 55.88 44.5049 55.364 44.5049 54.728C44.5049 54.224 44.6549 53.762 44.9549 53.342C45.2549 52.922 45.6809 52.592 46.2329 52.352C46.7849 52.1 47.4149 51.974 48.1229 51.974C49.2149 51.974 50.0969 52.25 50.7689 52.802C51.4409 53.354 51.8009 54.11 51.8489 55.07H50.2109C50.1749 54.554 49.9649 54.14 49.5809 53.828C49.2089 53.516 48.7049 53.36 48.0689 53.36C47.4809 53.36 47.0129 53.486 46.6649 53.738C46.3169 53.99 46.1429 54.32 46.1429 54.728C46.1429 55.052 46.2449 55.322 46.4489 55.538C46.6649 55.742 46.9289 55.91 47.2409 56.042C47.5649 56.162 48.0089 56.3 48.5729 56.456C49.2809 56.648 49.8569 56.84 50.3009 57.032C50.7449 57.212 51.1229 57.488 51.4349 57.86C51.7589 58.232 51.9269 58.718 51.9389 59.318C51.9389 59.858 51.7889 60.344 51.4889 60.776C51.1889 61.208 50.7629 61.55 50.2109 61.802C49.6709 62.042 49.0469 62.162 48.3389 62.162ZM63.2512 56.69C63.2512 57.002 63.2332 57.332 63.1972 57.68H55.3132C55.3732 58.652 55.7032 59.414 56.3032 59.966C56.9152 60.506 57.6532 60.776 58.5172 60.776C59.2252 60.776 59.8132 60.614 60.2812 60.29C60.7612 59.954 61.0972 59.51 61.2892 58.958H63.0532C62.7892 59.906 62.2612 60.68 61.4692 61.28C60.6772 61.868 59.6932 62.162 58.5172 62.162C57.5812 62.162 56.7412 61.952 55.9972 61.532C55.2652 61.112 54.6892 60.518 54.2692 59.75C53.8492 58.97 53.6392 58.07 53.6392 57.05C53.6392 56.03 53.8432 55.136 54.2512 54.368C54.6592 53.6 55.2292 53.012 55.9612 52.604C56.7052 52.184 57.5572 51.974 58.5172 51.974C59.4532 51.974 60.2812 52.178 61.0012 52.586C61.7212 52.994 62.2732 53.558 62.6572 54.278C63.0532 54.986 63.2512 55.79 63.2512 56.69ZM61.5592 56.348C61.5592 55.724 61.4212 55.19 61.1452 54.746C60.8692 54.29 60.4912 53.948 60.0112 53.72C59.5432 53.48 59.0212 53.36 58.4452 53.36C57.6172 53.36 56.9092 53.624 56.3212 54.152C55.7452 54.68 55.4152 55.412 55.3312 56.348H61.5592ZM67.0513 53.738C67.3393 53.174 67.7473 52.736 68.2753 52.424C68.8153 52.112 69.4693 51.956 70.2373 51.956V53.648H69.8053C67.9693 53.648 67.0513 54.644 67.0513 56.636V62H65.4133V52.136H67.0513V53.738ZM75.6202 62.162C74.8642 62.162 74.1862 62.036 73.5862 61.784C72.9862 61.52 72.5122 61.16 72.1642 60.704C71.8162 60.236 71.6242 59.702 71.5882 59.102H73.2802C73.3282 59.594 73.5562 59.996 73.9642 60.308C74.3842 60.62 74.9302 60.776 75.6022 60.776C76.2262 60.776 76.7182 60.638 77.0782 60.362C77.4382 60.086 77.6182 59.738 77.6182 59.318C77.6182 58.886 77.4262 58.568 77.0422 58.364C76.6582 58.148 76.0642 57.938 75.2602 57.734C74.5282 57.542 73.9282 57.35 73.4602 57.158C73.0042 56.954 72.6082 56.66 72.2722 56.276C71.9482 55.88 71.7862 55.364 71.7862 54.728C71.7862 54.224 71.9362 53.762 72.2362 53.342C72.5362 52.922 72.9622 52.592 73.5142 52.352C74.0662 52.1 74.6962 51.974 75.4042 51.974C76.4962 51.974 77.3782 52.25 78.0502 52.802C78.7222 53.354 79.0822 54.11 79.1302 55.07H77.4922C77.4562 54.554 77.2462 54.14 76.8622 53.828C76.4902 53.516 75.9862 53.36 75.3502 53.36C74.7622 53.36 74.2942 53.486 73.9462 53.738C73.5982 53.99 73.4242 54.32 73.4242 54.728C73.4242 55.052 73.5262 55.322 73.7302 55.538C73.9462 55.742 74.2102 55.91 74.5222 56.042C74.8462 56.162 75.2902 56.3 75.8542 56.456C76.5622 56.648 77.1382 56.84 77.5822 57.032C78.0262 57.212 78.4042 57.488 78.7162 57.86C79.0402 58.232 79.2082 58.718 79.2202 59.318C79.2202 59.858 79.0702 60.344 78.7702 60.776C78.4702 61.208 78.0442 61.55 77.4922 61.802C76.9522 62.042 76.3282 62.162 75.6202 62.162ZM85.7193 57.032C85.7193 56.024 85.9233 55.142 86.3313 54.386C86.7393 53.618 87.2973 53.024 88.0053 52.604C88.7253 52.184 89.5233 51.974 90.3993 51.974C91.2633 51.974 92.0133 52.16 92.6493 52.532C93.2853 52.904 93.7593 53.372 94.0713 53.936V52.136H95.7273V62H94.0713V60.164C93.7473 60.74 93.2613 61.22 92.6133 61.604C91.9773 61.976 91.2333 62.162 90.3813 62.162C89.5053 62.162 88.7133 61.946 88.0053 61.514C87.2973 61.082 86.7393 60.476 86.3313 59.696C85.9233 58.916 85.7193 58.028 85.7193 57.032ZM94.0713 57.05C94.0713 56.306 93.9213 55.658 93.6213 55.106C93.3213 54.554 92.9133 54.134 92.3973 53.846C91.8933 53.546 91.3353 53.396 90.7233 53.396C90.1113 53.396 89.5533 53.54 89.0493 53.828C88.5453 54.116 88.1433 54.536 87.8433 55.088C87.5433 55.64 87.3933 56.288 87.3933 57.032C87.3933 57.788 87.5433 58.448 87.8433 59.012C88.1433 59.564 88.5453 59.99 89.0493 60.29C89.5533 60.578 90.1113 60.722 90.7233 60.722C91.3353 60.722 91.8933 60.578 92.3973 60.29C92.9133 59.99 93.3213 59.564 93.6213 59.012C93.9213 58.448 94.0713 57.794 94.0713 57.05ZM103.301 51.956C104.501 51.956 105.473 52.322 106.217 53.054C106.961 53.774 107.333 54.818 107.333 56.186V62H105.713V56.42C105.713 55.436 105.467 54.686 104.975 54.17C104.483 53.642 103.811 53.378 102.959 53.378C102.095 53.378 101.405 53.648 100.889 54.188C100.385 54.728 100.133 55.514 100.133 56.546V62H98.4954V52.136H100.133V53.54C100.457 53.036 100.895 52.646 101.447 52.37C102.011 52.094 102.629 51.956 103.301 51.956ZM109.397 57.032C109.397 56.024 109.601 55.142 110.009 54.386C110.417 53.618 110.975 53.024 111.683 52.604C112.403 52.184 113.207 51.974 114.095 51.974C114.863 51.974 115.577 52.154 116.237 52.514C116.897 52.862 117.401 53.324 117.749 53.9V48.68H119.405V62H117.749V60.146C117.425 60.734 116.945 61.22 116.309 61.604C115.673 61.976 114.929 62.162 114.077 62.162C113.201 62.162 112.403 61.946 111.683 61.514C110.975 61.082 110.417 60.476 110.009 59.696C109.601 58.916 109.397 58.028 109.397 57.032ZM117.749 57.05C117.749 56.306 117.599 55.658 117.299 55.106C116.999 54.554 116.591 54.134 116.075 53.846C115.571 53.546 115.013 53.396 114.401 53.396C113.789 53.396 113.231 53.54 112.727 53.828C112.223 54.116 111.821 54.536 111.521 55.088C111.221 55.64 111.071 56.288 111.071 57.032C111.071 57.788 111.221 58.448 111.521 59.012C111.821 59.564 112.223 59.99 112.727 60.29C113.231 60.578 113.789 60.722 114.401 60.722C115.013 60.722 115.571 60.578 116.075 60.29C116.591 59.99 116.999 59.564 117.299 59.012C117.599 58.448 117.749 57.794 117.749 57.05ZM128.61 53.954C128.934 53.39 129.414 52.922 130.05 52.55C130.698 52.166 131.448 51.974 132.3 51.974C133.176 51.974 133.968 52.184 134.676 52.604C135.396 53.024 135.96 53.618 136.368 54.386C136.776 55.142 136.98 56.024 136.98 57.032C136.98 58.028 136.776 58.916 136.368 59.696C135.96 60.476 135.396 61.082 134.676 61.514C133.968 61.946 133.176 62.162 132.3 62.162C131.46 62.162 130.716 61.976 130.068 61.604C129.432 61.22 128.946 60.746 128.61 60.182V66.68H126.972V52.136H128.61V53.954ZM135.306 57.032C135.306 56.288 135.156 55.64 134.856 55.088C134.556 54.536 134.148 54.116 133.632 53.828C133.128 53.54 132.57 53.396 131.958 53.396C131.358 53.396 130.8 53.546 130.284 53.846C129.78 54.134 129.372 54.56 129.06 55.124C128.76 55.676 128.61 56.318 128.61 57.05C128.61 57.794 128.76 58.448 129.06 59.012C129.372 59.564 129.78 59.99 130.284 60.29C130.8 60.578 131.358 60.722 131.958 60.722C132.57 60.722 133.128 60.578 133.632 60.29C134.148 59.99 134.556 59.564 134.856 59.012C135.156 58.448 135.306 57.788 135.306 57.032ZM140.774 48.68V62H139.136V48.68H140.774ZM142.954 57.032C142.954 56.024 143.158 55.142 143.566 54.386C143.974 53.618 144.532 53.024 145.24 52.604C145.96 52.184 146.758 51.974 147.634 51.974C148.498 51.974 149.248 52.16 149.884 52.532C150.52 52.904 150.994 53.372 151.306 53.936V52.136H152.962V62H151.306V60.164C150.982 60.74 150.496 61.22 149.848 61.604C149.212 61.976 148.468 62.162 147.616 62.162C146.74 62.162 145.948 61.946 145.24 61.514C144.532 61.082 143.974 60.476 143.566 59.696C143.158 58.916 142.954 58.028 142.954 57.032ZM151.306 57.05C151.306 56.306 151.156 55.658 150.856 55.106C150.556 54.554 150.148 54.134 149.632 53.846C149.128 53.546 148.57 53.396 147.958 53.396C147.346 53.396 146.788 53.54 146.284 53.828C145.78 54.116 145.378 54.536 145.078 55.088C144.778 55.64 144.628 56.288 144.628 57.032C144.628 57.788 144.778 58.448 145.078 59.012C145.378 59.564 145.78 59.99 146.284 60.29C146.788 60.578 147.346 60.722 147.958 60.722C148.57 60.722 149.128 60.578 149.632 60.29C150.148 59.99 150.556 59.564 150.856 59.012C151.156 58.448 151.306 57.794 151.306 57.05ZM160.536 51.956C161.736 51.956 162.708 52.322 163.452 53.054C164.196 53.774 164.568 54.818 164.568 56.186V62H162.948V56.42C162.948 55.436 162.702 54.686 162.21 54.17C161.718 53.642 161.046 53.378 160.194 53.378C159.33 53.378 158.64 53.648 158.124 54.188C157.62 54.728 157.368 55.514 157.368 56.546V62H155.73V52.136H157.368V53.54C157.692 53.036 158.13 52.646 158.682 52.37C159.246 52.094 159.864 51.956 160.536 51.956ZM174.04 53.486V59.3C174.04 59.78 174.142 60.122 174.346 60.326C174.55 60.518 174.904 60.614 175.408 60.614H176.614V62H175.138C174.226 62 173.542 61.79 173.086 61.37C172.63 60.95 172.402 60.26 172.402 59.3V53.486H171.124V52.136H172.402V49.652H174.04V52.136H176.614V53.486H174.04ZM182.901 62.162C181.977 62.162 181.137 61.952 180.381 61.532C179.637 61.112 179.049 60.518 178.617 59.75C178.197 58.97 177.987 58.07 177.987 57.05C177.987 56.042 178.203 55.154 178.635 54.386C179.079 53.606 179.679 53.012 180.435 52.604C181.191 52.184 182.037 51.974 182.973 51.974C183.909 51.974 184.755 52.184 185.511 52.604C186.267 53.012 186.861 53.6 187.293 54.368C187.737 55.136 187.959 56.03 187.959 57.05C187.959 58.07 187.731 58.97 187.275 59.75C186.831 60.518 186.225 61.112 185.457 61.532C184.689 61.952 183.837 62.162 182.901 62.162ZM182.901 60.722C183.489 60.722 184.041 60.584 184.557 60.308C185.073 60.032 185.487 59.618 185.799 59.066C186.123 58.514 186.285 57.842 186.285 57.05C186.285 56.258 186.129 55.586 185.817 55.034C185.505 54.482 185.097 54.074 184.593 53.81C184.089 53.534 183.543 53.396 182.955 53.396C182.355 53.396 181.803 53.534 181.299 53.81C180.807 54.074 180.411 54.482 180.111 55.034C179.811 55.586 179.661 56.258 179.661 57.05C179.661 57.854 179.805 58.532 180.093 59.084C180.393 59.636 180.789 60.05 181.281 60.326C181.773 60.59 182.313 60.722 182.901 60.722ZM194.181 51.974C195.033 51.974 195.777 52.16 196.413 52.532C197.061 52.904 197.541 53.372 197.853 53.936V52.136H199.509V62.216C199.509 63.116 199.317 63.914 198.933 64.61C198.549 65.318 197.997 65.87 197.277 66.266C196.569 66.662 195.741 66.86 194.793 66.86C193.497 66.86 192.417 66.554 191.553 65.942C190.689 65.33 190.179 64.496 190.023 63.44H191.643C191.823 64.04 192.195 64.52 192.759 64.88C193.323 65.252 194.001 65.438 194.793 65.438C195.693 65.438 196.425 65.156 196.989 64.592C197.565 64.028 197.853 63.236 197.853 62.216V60.146C197.529 60.722 197.049 61.202 196.413 61.586C195.777 61.97 195.033 62.162 194.181 62.162C193.305 62.162 192.507 61.946 191.787 61.514C191.079 61.082 190.521 60.476 190.113 59.696C189.705 58.916 189.501 58.028 189.501 57.032C189.501 56.024 189.705 55.142 190.113 54.386C190.521 53.618 191.079 53.024 191.787 52.604C192.507 52.184 193.305 51.974 194.181 51.974ZM197.853 57.05C197.853 56.306 197.703 55.658 197.403 55.106C197.103 54.554 196.695 54.134 196.179 53.846C195.675 53.546 195.117 53.396 194.505 53.396C193.893 53.396 193.335 53.54 192.831 53.828C192.327 54.116 191.925 54.536 191.625 55.088C191.325 55.64 191.175 56.288 191.175 57.032C191.175 57.788 191.325 58.448 191.625 59.012C191.925 59.564 192.327 59.99 192.831 60.29C193.335 60.578 193.893 60.722 194.505 60.722C195.117 60.722 195.675 60.578 196.179 60.29C196.695 59.99 197.103 59.564 197.403 59.012C197.703 58.448 197.853 57.794 197.853 57.05ZM211.277 56.69C211.277 57.002 211.259 57.332 211.223 57.68H203.339C203.399 58.652 203.729 59.414 204.329 59.966C204.941 60.506 205.679 60.776 206.543 60.776C207.251 60.776 207.839 60.614 208.307 60.29C208.787 59.954 209.123 59.51 209.315 58.958H211.079C210.815 59.906 210.287 60.68 209.495 61.28C208.703 61.868 207.719 62.162 206.543 62.162C205.607 62.162 204.767 61.952 204.023 61.532C203.291 61.112 202.715 60.518 202.295 59.75C201.875 58.97 201.665 58.07 201.665 57.05C201.665 56.03 201.869 55.136 202.277 54.368C202.685 53.6 203.255 53.012 203.987 52.604C204.731 52.184 205.583 51.974 206.543 51.974C207.479 51.974 208.307 52.178 209.027 52.586C209.747 52.994 210.299 53.558 210.683 54.278C211.079 54.986 211.277 55.79 211.277 56.69ZM209.585 56.348C209.585 55.724 209.447 55.19 209.171 54.746C208.895 54.29 208.517 53.948 208.037 53.72C207.569 53.48 207.047 53.36 206.471 53.36C205.643 53.36 204.935 53.624 204.347 54.152C203.771 54.68 203.441 55.412 203.357 56.348H209.585ZM215.437 53.486V59.3C215.437 59.78 215.539 60.122 215.743 60.326C215.947 60.518 216.301 60.614 216.805 60.614H218.011V62H216.535C215.623 62 214.939 61.79 214.483 61.37C214.027 60.95 213.799 60.26 213.799 59.3V53.486H212.521V52.136H213.799V49.652H215.437V52.136H218.011V53.486H215.437ZM224.891 51.956C225.635 51.956 226.307 52.118 226.907 52.442C227.507 52.754 227.975 53.228 228.311 53.864C228.659 54.5 228.833 55.274 228.833 56.186V62H227.213V56.42C227.213 55.436 226.967 54.686 226.475 54.17C225.983 53.642 225.311 53.378 224.459 53.378C223.595 53.378 222.905 53.648 222.389 54.188C221.885 54.728 221.633 55.514 221.633 56.546V62H219.995V48.68H221.633V53.54C221.957 53.036 222.401 52.646 222.965 52.37C223.541 52.094 224.183 51.956 224.891 51.956ZM240.509 56.69C240.509 57.002 240.491 57.332 240.455 57.68H232.571C232.631 58.652 232.961 59.414 233.561 59.966C234.173 60.506 234.911 60.776 235.775 60.776C236.483 60.776 237.071 60.614 237.539 60.29C238.019 59.954 238.355 59.51 238.547 58.958H240.311C240.047 59.906 239.519 60.68 238.727 61.28C237.935 61.868 236.951 62.162 235.775 62.162C234.839 62.162 233.999 61.952 233.255 61.532C232.523 61.112 231.947 60.518 231.527 59.75C231.107 58.97 230.897 58.07 230.897 57.05C230.897 56.03 231.101 55.136 231.509 54.368C231.917 53.6 232.487 53.012 233.219 52.604C233.963 52.184 234.815 51.974 235.775 51.974C236.711 51.974 237.539 52.178 238.259 52.586C238.979 52.994 239.531 53.558 239.915 54.278C240.311 54.986 240.509 55.79 240.509 56.69ZM238.817 56.348C238.817 55.724 238.679 55.19 238.403 54.746C238.127 54.29 237.749 53.948 237.269 53.72C236.801 53.48 236.279 53.36 235.703 53.36C234.875 53.36 234.167 53.624 233.579 54.152C233.003 54.68 232.673 55.412 232.589 56.348H238.817ZM244.309 53.738C244.597 53.174 245.005 52.736 245.533 52.424C246.073 52.112 246.727 51.956 247.495 51.956V53.648H247.063C245.227 53.648 244.309 54.644 244.309 56.636V62H242.671V52.136H244.309V53.738ZM20.0031 80.486V86.3C20.0031 86.78 20.1051 87.122 20.3091 87.326C20.5131 87.518 20.8671 87.614 21.3711 87.614H22.5771V89H21.1011C20.1891 89 19.5051 88.79 19.0491 88.37C18.5931 87.95 18.3651 87.26 18.3651 86.3V80.486H17.0871V79.136H18.3651V76.652H20.0031V79.136H22.5771V80.486H20.0031ZM26.1998 80.738C26.4878 80.174 26.8958 79.736 27.4238 79.424C27.9638 79.112 28.6178 78.956 29.3858 78.956V80.648H28.9538C27.1178 80.648 26.1998 81.644 26.1998 83.636V89H24.5618V79.136H26.1998V80.738ZM32.1226 77.534C31.8106 77.534 31.5466 77.426 31.3306 77.21C31.1146 76.994 31.0066 76.73 31.0066 76.418C31.0066 76.106 31.1146 75.842 31.3306 75.626C31.5466 75.41 31.8106 75.302 32.1226 75.302C32.4226 75.302 32.6746 75.41 32.8786 75.626C33.0946 75.842 33.2026 76.106 33.2026 76.418C33.2026 76.73 33.0946 76.994 32.8786 77.21C32.6746 77.426 32.4226 77.534 32.1226 77.534ZM32.9146 79.136V89H31.2766V79.136H32.9146ZM37.3443 80.954C37.6683 80.39 38.1483 79.922 38.7843 79.55C39.4323 79.166 40.1823 78.974 41.0343 78.974C41.9103 78.974 42.7023 79.184 43.4103 79.604C44.1303 80.024 44.6943 80.618 45.1023 81.386C45.5103 82.142 45.7143 83.024 45.7143 84.032C45.7143 85.028 45.5103 85.916 45.1023 86.696C44.6943 87.476 44.1303 88.082 43.4103 88.514C42.7023 88.946 41.9103 89.162 41.0343 89.162C40.1943 89.162 39.4503 88.976 38.8023 88.604C38.1663 88.22 37.6803 87.746 37.3443 87.182V93.68H35.7063V79.136H37.3443V80.954ZM44.0403 84.032C44.0403 83.288 43.8903 82.64 43.5903 82.088C43.2903 81.536 42.8823 81.116 42.3663 80.828C41.8623 80.54 41.3043 80.396 40.6923 80.396C40.0923 80.396 39.5343 80.546 39.0183 80.846C38.5143 81.134 38.1063 81.56 37.7943 82.124C37.4943 82.676 37.3443 83.318 37.3443 84.05C37.3443 84.794 37.4943 85.448 37.7943 86.012C38.1063 86.564 38.5143 86.99 39.0183 87.29C39.5343 87.578 40.0923 87.722 40.6923 87.722C41.3043 87.722 41.8623 87.578 42.3663 87.29C42.8823 86.99 43.2903 86.564 43.5903 86.012C43.8903 85.448 44.0403 84.788 44.0403 84.032ZM51.3624 89.162C50.6064 89.162 49.9284 89.036 49.3284 88.784C48.7284 88.52 48.2544 88.16 47.9064 87.704C47.5584 87.236 47.3664 86.702 47.3304 86.102H49.0224C49.0704 86.594 49.2984 86.996 49.7064 87.308C50.1264 87.62 50.6724 87.776 51.3444 87.776C51.9684 87.776 52.4604 87.638 52.8204 87.362C53.1804 87.086 53.3604 86.738 53.3604 86.318C53.3604 85.886 53.1684 85.568 52.7844 85.364C52.4004 85.148 51.8064 84.938 51.0024 84.734C50.2704 84.542 49.6704 84.35 49.2024 84.158C48.7464 83.954 48.3504 83.66 48.0144 83.276C47.6904 82.88 47.5284 82.364 47.5284 81.728C47.5284 81.224 47.6784 80.762 47.9784 80.342C48.2784 79.922 48.7044 79.592 49.2564 79.352C49.8084 79.1 50.4384 78.974 51.1464 78.974C52.2384 78.974 53.1204 79.25 53.7924 79.802C54.4644 80.354 54.8244 81.11 54.8724 82.07H53.2344C53.1984 81.554 52.9884 81.14 52.6044 80.828C52.2324 80.516 51.7284 80.36 51.0924 80.36C50.5044 80.36 50.0364 80.486 49.6884 80.738C49.3404 80.99 49.1664 81.32 49.1664 81.728C49.1664 82.052 49.2684 82.322 49.4724 82.538C49.6884 82.742 49.9524 82.91 50.2644 83.042C50.5884 83.162 51.0324 83.3 51.5964 83.456C52.3044 83.648 52.8804 83.84 53.3244 84.032C53.7684 84.212 54.1464 84.488 54.4584 84.86C54.7824 85.232 54.9504 85.718 54.9624 86.318C54.9624 86.858 54.8124 87.344 54.5124 87.776C54.2124 88.208 53.7864 88.55 53.2344 88.802C52.6944 89.042 52.0704 89.162 51.3624 89.162ZM64.0715 80.486V86.3C64.0715 86.78 64.1735 87.122 64.3775 87.326C64.5815 87.518 64.9355 87.614 65.4395 87.614H66.6455V89H65.1695C64.2575 89 63.5735 88.79 63.1175 88.37C62.6615 87.95 62.4335 87.26 62.4335 86.3V80.486H61.1555V79.136H62.4335V76.652H64.0715V79.136H66.6455V80.486H64.0715ZM72.9321 89.162C72.0081 89.162 71.1681 88.952 70.4121 88.532C69.6681 88.112 69.0801 87.518 68.6481 86.75C68.2281 85.97 68.0181 85.07 68.0181 84.05C68.0181 83.042 68.2341 82.154 68.6661 81.386C69.1101 80.606 69.7101 80.012 70.4661 79.604C71.2221 79.184 72.0681 78.974 73.0041 78.974C73.9401 78.974 74.7861 79.184 75.5421 79.604C76.2981 80.012 76.8921 80.6 77.3241 81.368C77.7681 82.136 77.9901 83.03 77.9901 84.05C77.9901 85.07 77.7621 85.97 77.3061 86.75C76.8621 87.518 76.2561 88.112 75.4881 88.532C74.7201 88.952 73.8681 89.162 72.9321 89.162ZM72.9321 87.722C73.5201 87.722 74.0721 87.584 74.5881 87.308C75.1041 87.032 75.5181 86.618 75.8301 86.066C76.1541 85.514 76.3161 84.842 76.3161 84.05C76.3161 83.258 76.1601 82.586 75.8481 82.034C75.5361 81.482 75.1281 81.074 74.6241 80.81C74.1201 80.534 73.5741 80.396 72.9861 80.396C72.3861 80.396 71.8341 80.534 71.3301 80.81C70.8381 81.074 70.4421 81.482 70.1421 82.034C69.8421 82.586 69.6921 83.258 69.6921 84.05C69.6921 84.854 69.8361 85.532 70.1241 86.084C70.4241 86.636 70.8201 87.05 71.3121 87.326C71.8041 87.59 72.3441 87.722 72.9321 87.722ZM91.5486 89L88.5606 83.87H86.5806V89H84.9426V76.454H88.9926C89.9406 76.454 90.7386 76.616 91.3866 76.94C92.0466 77.264 92.5386 77.702 92.8626 78.254C93.1866 78.806 93.3486 79.436 93.3486 80.144C93.3486 81.008 93.0966 81.77 92.5926 82.43C92.1006 83.09 91.3566 83.528 90.3606 83.744L93.5106 89H91.5486ZM86.5806 82.556H88.9926C89.8806 82.556 90.5466 82.34 90.9906 81.908C91.4346 81.464 91.6566 80.876 91.6566 80.144C91.6566 79.4 91.4346 78.824 90.9906 78.416C90.5586 78.008 89.8926 77.804 88.9926 77.804H86.5806V82.556ZM104.894 83.69C104.894 84.002 104.876 84.332 104.84 84.68H96.9558C97.0158 85.652 97.3458 86.414 97.9458 86.966C98.5578 87.506 99.2958 87.776 100.16 87.776C100.868 87.776 101.456 87.614 101.924 87.29C102.404 86.954 102.74 86.51 102.932 85.958H104.696C104.432 86.906 103.904 87.68 103.112 88.28C102.32 88.868 101.336 89.162 100.16 89.162C99.2238 89.162 98.3838 88.952 97.6398 88.532C96.9078 88.112 96.3318 87.518 95.9118 86.75C95.4918 85.97 95.2818 85.07 95.2818 84.05C95.2818 83.03 95.4858 82.136 95.8938 81.368C96.3018 80.6 96.8718 80.012 97.6038 79.604C98.3478 79.184 99.1998 78.974 100.16 78.974C101.096 78.974 101.924 79.178 102.644 79.586C103.364 79.994 103.916 80.558 104.3 81.278C104.696 81.986 104.894 82.79 104.894 83.69ZM103.202 83.348C103.202 82.724 103.064 82.19 102.788 81.746C102.512 81.29 102.134 80.948 101.654 80.72C101.186 80.48 100.664 80.36 100.088 80.36C99.2598 80.36 98.5518 80.624 97.9638 81.152C97.3878 81.68 97.0578 82.412 96.9738 83.348H103.202ZM115.804 79.136V89H114.166V87.542C113.854 88.046 113.416 88.442 112.852 88.73C112.3 89.006 111.688 89.144 111.016 89.144C110.248 89.144 109.558 88.988 108.946 88.676C108.334 88.352 107.848 87.872 107.488 87.236C107.14 86.6 106.966 85.826 106.966 84.914V79.136H108.586V84.698C108.586 85.67 108.832 86.42 109.324 86.948C109.816 87.464 110.488 87.722 111.34 87.722C112.216 87.722 112.906 87.452 113.41 86.912C113.914 86.372 114.166 85.586 114.166 84.554V79.136H115.804ZM122.062 89.162C121.306 89.162 120.628 89.036 120.028 88.784C119.428 88.52 118.954 88.16 118.606 87.704C118.258 87.236 118.066 86.702 118.03 86.102H119.722C119.77 86.594 119.998 86.996 120.406 87.308C120.826 87.62 121.372 87.776 122.044 87.776C122.668 87.776 123.16 87.638 123.52 87.362C123.88 87.086 124.06 86.738 124.06 86.318C124.06 85.886 123.868 85.568 123.484 85.364C123.1 85.148 122.506 84.938 121.702 84.734C120.97 84.542 120.37 84.35 119.902 84.158C119.446 83.954 119.05 83.66 118.714 83.276C118.39 82.88 118.228 82.364 118.228 81.728C118.228 81.224 118.378 80.762 118.678 80.342C118.978 79.922 119.404 79.592 119.956 79.352C120.508 79.1 121.138 78.974 121.846 78.974C122.938 78.974 123.82 79.25 124.492 79.802C125.164 80.354 125.524 81.11 125.572 82.07H123.934C123.898 81.554 123.688 81.14 123.304 80.828C122.932 80.516 122.428 80.36 121.792 80.36C121.204 80.36 120.736 80.486 120.388 80.738C120.04 80.99 119.866 81.32 119.866 81.728C119.866 82.052 119.968 82.322 120.172 82.538C120.388 82.742 120.652 82.91 120.964 83.042C121.288 83.162 121.732 83.3 122.296 83.456C123.004 83.648 123.58 83.84 124.024 84.032C124.468 84.212 124.846 84.488 125.158 84.86C125.482 85.232 125.65 85.718 125.662 86.318C125.662 86.858 125.512 87.344 125.212 87.776C124.912 88.208 124.486 88.55 123.934 88.802C123.394 89.042 122.77 89.162 122.062 89.162ZM136.974 83.69C136.974 84.002 136.956 84.332 136.92 84.68H129.036C129.096 85.652 129.426 86.414 130.026 86.966C130.638 87.506 131.376 87.776 132.24 87.776C132.948 87.776 133.536 87.614 134.004 87.29C134.484 86.954 134.82 86.51 135.012 85.958H136.776C136.512 86.906 135.984 87.68 135.192 88.28C134.4 88.868 133.416 89.162 132.24 89.162C131.304 89.162 130.464 88.952 129.72 88.532C128.988 88.112 128.412 87.518 127.992 86.75C127.572 85.97 127.362 85.07 127.362 84.05C127.362 83.03 127.566 82.136 127.974 81.368C128.382 80.6 128.952 80.012 129.684 79.604C130.428 79.184 131.28 78.974 132.24 78.974C133.176 78.974 134.004 79.178 134.724 79.586C135.444 79.994 135.996 80.558 136.38 81.278C136.776 81.986 136.974 82.79 136.974 83.69ZM135.282 83.348C135.282 82.724 135.144 82.19 134.868 81.746C134.592 81.29 134.214 80.948 133.734 80.72C133.266 80.48 132.744 80.36 132.168 80.36C131.34 80.36 130.632 80.624 130.044 81.152C129.468 81.68 129.138 82.412 129.054 83.348H135.282ZM148.237 89.162C147.313 89.162 146.473 88.952 145.717 88.532C144.973 88.112 144.385 87.518 143.953 86.75C143.533 85.97 143.323 85.07 143.323 84.05C143.323 83.042 143.539 82.154 143.971 81.386C144.415 80.606 145.015 80.012 145.771 79.604C146.527 79.184 147.373 78.974 148.309 78.974C149.245 78.974 150.091 79.184 150.847 79.604C151.603 80.012 152.197 80.6 152.629 81.368C153.073 82.136 153.295 83.03 153.295 84.05C153.295 85.07 153.067 85.97 152.611 86.75C152.167 87.518 151.561 88.112 150.793 88.532C150.025 88.952 149.173 89.162 148.237 89.162ZM148.237 87.722C148.825 87.722 149.377 87.584 149.893 87.308C150.409 87.032 150.823 86.618 151.135 86.066C151.459 85.514 151.621 84.842 151.621 84.05C151.621 83.258 151.465 82.586 151.153 82.034C150.841 81.482 150.433 81.074 149.929 80.81C149.425 80.534 148.879 80.396 148.291 80.396C147.691 80.396 147.139 80.534 146.635 80.81C146.143 81.074 145.747 81.482 145.447 82.034C145.147 82.586 144.997 83.258 144.997 84.05C144.997 84.854 145.141 85.532 145.429 86.084C145.729 86.636 146.125 87.05 146.617 87.326C147.109 87.59 147.649 87.722 148.237 87.722ZM157.087 80.738C157.375 80.174 157.783 79.736 158.311 79.424C158.851 79.112 159.505 78.956 160.273 78.956V80.648H159.841C158.005 80.648 157.087 81.644 157.087 83.636V89H155.449V79.136H157.087V80.738ZM168.6 80.738C168.888 80.174 169.296 79.736 169.824 79.424C170.364 79.112 171.018 78.956 171.786 78.956V80.648H171.354C169.518 80.648 168.6 81.644 168.6 83.636V89H166.962V79.136H168.6V80.738ZM182.677 83.69C182.677 84.002 182.659 84.332 182.623 84.68H174.739C174.799 85.652 175.129 86.414 175.729 86.966C176.341 87.506 177.079 87.776 177.943 87.776C178.651 87.776 179.239 87.614 179.707 87.29C180.187 86.954 180.523 86.51 180.715 85.958H182.479C182.215 86.906 181.687 87.68 180.895 88.28C180.103 88.868 179.119 89.162 177.943 89.162C177.007 89.162 176.167 88.952 175.423 88.532C174.691 88.112 174.115 87.518 173.695 86.75C173.275 85.97 173.065 85.07 173.065 84.05C173.065 83.03 173.269 82.136 173.677 81.368C174.085 80.6 174.655 80.012 175.387 79.604C176.131 79.184 176.983 78.974 177.943 78.974C178.879 78.974 179.707 79.178 180.427 79.586C181.147 79.994 181.699 80.558 182.083 81.278C182.479 81.986 182.677 82.79 182.677 83.69ZM180.985 83.348C180.985 82.724 180.847 82.19 180.571 81.746C180.295 81.29 179.917 80.948 179.437 80.72C178.969 80.48 178.447 80.36 177.871 80.36C177.043 80.36 176.335 80.624 175.747 81.152C175.171 81.68 174.841 82.412 174.757 83.348H180.985ZM184.227 84.05C184.227 83.03 184.431 82.142 184.839 81.386C185.247 80.618 185.811 80.024 186.531 79.604C187.263 79.184 188.097 78.974 189.033 78.974C190.245 78.974 191.241 79.268 192.021 79.856C192.813 80.444 193.335 81.26 193.587 82.304H191.823C191.655 81.704 191.325 81.23 190.833 80.882C190.353 80.534 189.753 80.36 189.033 80.36C188.097 80.36 187.341 80.684 186.765 81.332C186.189 81.968 185.901 82.874 185.901 84.05C185.901 85.238 186.189 86.156 186.765 86.804C187.341 87.452 188.097 87.776 189.033 87.776C189.753 87.776 190.353 87.608 190.833 87.272C191.313 86.936 191.643 86.456 191.823 85.832H193.587C193.323 86.84 192.795 87.65 192.003 88.262C191.211 88.862 190.221 89.162 189.033 89.162C188.097 89.162 187.263 88.952 186.531 88.532C185.811 88.112 185.247 87.518 184.839 86.75C184.431 85.982 184.227 85.082 184.227 84.05ZM204.269 79.136L198.329 93.644H196.637L198.581 88.892L194.603 79.136H196.421L199.517 87.128L202.577 79.136H204.269ZM205.303 84.05C205.303 83.03 205.507 82.142 205.915 81.386C206.323 80.618 206.887 80.024 207.607 79.604C208.339 79.184 209.173 78.974 210.109 78.974C211.321 78.974 212.317 79.268 213.097 79.856C213.889 80.444 214.411 81.26 214.663 82.304H212.899C212.731 81.704 212.401 81.23 211.909 80.882C211.429 80.534 210.829 80.36 210.109 80.36C209.173 80.36 208.417 80.684 207.841 81.332C207.265 81.968 206.977 82.874 206.977 84.05C206.977 85.238 207.265 86.156 207.841 86.804C208.417 87.452 209.173 87.776 210.109 87.776C210.829 87.776 211.429 87.608 211.909 87.272C212.389 86.936 212.719 86.456 212.899 85.832H214.663C214.399 86.84 213.871 87.65 213.079 88.262C212.287 88.862 211.297 89.162 210.109 89.162C209.173 89.162 208.339 88.952 207.607 88.532C206.887 88.112 206.323 87.518 205.915 86.75C205.507 85.982 205.303 85.082 205.303 84.05ZM218.487 75.68V89H216.849V75.68H218.487ZM222.125 77.534C221.813 77.534 221.549 77.426 221.333 77.21C221.117 76.994 221.009 76.73 221.009 76.418C221.009 76.106 221.117 75.842 221.333 75.626C221.549 75.41 221.813 75.302 222.125 75.302C222.425 75.302 222.677 75.41 222.881 75.626C223.097 75.842 223.205 76.106 223.205 76.418C223.205 76.73 223.097 76.994 222.881 77.21C222.677 77.426 222.425 77.534 222.125 77.534ZM222.917 79.136V89H221.279V79.136H222.917ZM230.514 78.956C231.714 78.956 232.686 79.322 233.43 80.054C234.174 80.774 234.546 81.818 234.546 83.186V89H232.926V83.42C232.926 82.436 232.68 81.686 232.188 81.17C231.696 80.642 231.024 80.378 230.172 80.378C229.308 80.378 228.618 80.648 228.102 81.188C227.598 81.728 227.346 82.514 227.346 83.546V89H225.708V79.136H227.346V80.54C227.67 80.036 228.108 79.646 228.66 79.37C229.224 79.094 229.842 78.956 230.514 78.956ZM241.29 78.974C242.142 78.974 242.886 79.16 243.522 79.532C244.17 79.904 244.65 80.372 244.962 80.936V79.136H246.618V89.216C246.618 90.116 246.426 90.914 246.042 91.61C245.658 92.318 245.106 92.87 244.386 93.266C243.678 93.662 242.85 93.86 241.902 93.86C240.606 93.86 239.526 93.554 238.662 92.942C237.798 92.33 237.288 91.496 237.132 90.44H238.752C238.932 91.04 239.304 91.52 239.868 91.88C240.432 92.252 241.11 92.438 241.902 92.438C242.802 92.438 243.534 92.156 244.098 91.592C244.674 91.028 244.962 90.236 244.962 89.216V87.146C244.638 87.722 244.158 88.202 243.522 88.586C242.886 88.97 242.142 89.162 241.29 89.162C240.414 89.162 239.616 88.946 238.896 88.514C238.188 88.082 237.63 87.476 237.222 86.696C236.814 85.916 236.61 85.028 236.61 84.032C236.61 83.024 236.814 82.142 237.222 81.386C237.63 80.618 238.188 80.024 238.896 79.604C239.616 79.184 240.414 78.974 241.29 78.974ZM244.962 84.05C244.962 83.306 244.812 82.658 244.512 82.106C244.212 81.554 243.804 81.134 243.288 80.846C242.784 80.546 242.226 80.396 241.614 80.396C241.002 80.396 240.444 80.54 239.94 80.828C239.436 81.116 239.034 81.536 238.734 82.088C238.434 82.64 238.284 83.288 238.284 84.032C238.284 84.788 238.434 85.448 238.734 86.012C239.034 86.564 239.436 86.99 239.94 87.29C240.444 87.578 241.002 87.722 241.614 87.722C242.226 87.722 242.784 87.578 243.288 87.29C243.804 86.99 244.212 86.564 244.512 86.012C244.812 85.448 244.962 84.794 244.962 84.05ZM181.327 111.05C181.327 110.03 181.531 109.142 181.939 108.386C182.347 107.618 182.911 107.024 183.631 106.604C184.363 106.184 185.197 105.974 186.133 105.974C187.345 105.974 188.341 106.268 189.121 106.856C189.913 107.444 190.435 108.26 190.687 109.304H188.923C188.755 108.704 188.425 108.23 187.933 107.882C187.453 107.534 186.853 107.36 186.133 107.36C185.197 107.36 184.441 107.684 183.865 108.332C183.289 108.968 183.001 109.874 183.001 111.05C183.001 112.238 183.289 113.156 183.865 113.804C184.441 114.452 185.197 114.776 186.133 114.776C186.853 114.776 187.453 114.608 187.933 114.272C188.413 113.936 188.743 113.456 188.923 112.832H190.687C190.423 113.84 189.895 114.65 189.103 115.262C188.311 115.862 187.321 116.162 186.133 116.162C185.197 116.162 184.363 115.952 183.631 115.532C182.911 115.112 182.347 114.518 181.939 113.75C181.531 112.982 181.327 112.082 181.327 111.05ZM201.872 110.69C201.872 111.002 201.854 111.332 201.818 111.68H193.934C193.994 112.652 194.324 113.414 194.924 113.966C195.536 114.506 196.274 114.776 197.138 114.776C197.846 114.776 198.434 114.614 198.902 114.29C199.382 113.954 199.718 113.51 199.91 112.958H201.674C201.41 113.906 200.882 114.68 200.09 115.28C199.298 115.868 198.314 116.162 197.138 116.162C196.202 116.162 195.362 115.952 194.618 115.532C193.886 115.112 193.31 114.518 192.89 113.75C192.47 112.97 192.26 112.07 192.26 111.05C192.26 110.03 192.464 109.136 192.872 108.368C193.28 107.6 193.85 107.012 194.582 106.604C195.326 106.184 196.178 105.974 197.138 105.974C198.074 105.974 198.902 106.178 199.622 106.586C200.342 106.994 200.894 107.558 201.278 108.278C201.674 108.986 201.872 109.79 201.872 110.69ZM200.18 110.348C200.18 109.724 200.042 109.19 199.766 108.746C199.49 108.29 199.112 107.948 198.632 107.72C198.164 107.48 197.642 107.36 197.066 107.36C196.238 107.36 195.53 107.624 194.942 108.152C194.366 108.68 194.036 109.412 193.952 110.348H200.18ZM208.84 105.956C210.04 105.956 211.012 106.322 211.756 107.054C212.5 107.774 212.872 108.818 212.872 110.186V116H211.252V110.42C211.252 109.436 211.006 108.686 210.514 108.17C210.022 107.642 209.35 107.378 208.498 107.378C207.634 107.378 206.944 107.648 206.428 108.188C205.924 108.728 205.672 109.514 205.672 110.546V116H204.034V106.136H205.672V107.54C205.996 107.036 206.434 106.646 206.986 106.37C207.55 106.094 208.168 105.956 208.84 105.956ZM217.546 107.486V113.3C217.546 113.78 217.648 114.122 217.852 114.326C218.056 114.518 218.41 114.614 218.914 114.614H220.12V116H218.644C217.732 116 217.048 115.79 216.592 115.37C216.136 114.95 215.908 114.26 215.908 113.3V107.486H214.63V106.136H215.908V103.652H217.546V106.136H220.12V107.486H217.546ZM231.105 110.69C231.105 111.002 231.087 111.332 231.051 111.68H223.167C223.227 112.652 223.557 113.414 224.157 113.966C224.769 114.506 225.507 114.776 226.371 114.776C227.079 114.776 227.667 114.614 228.135 114.29C228.615 113.954 228.951 113.51 229.143 112.958H230.907C230.643 113.906 230.115 114.68 229.323 115.28C228.531 115.868 227.547 116.162 226.371 116.162C225.435 116.162 224.595 115.952 223.851 115.532C223.119 115.112 222.543 114.518 222.123 113.75C221.703 112.97 221.493 112.07 221.493 111.05C221.493 110.03 221.697 109.136 222.105 108.368C222.513 107.6 223.083 107.012 223.815 106.604C224.559 106.184 225.411 105.974 226.371 105.974C227.307 105.974 228.135 106.178 228.855 106.586C229.575 106.994 230.127 107.558 230.511 108.278C230.907 108.986 231.105 109.79 231.105 110.69ZM229.413 110.348C229.413 109.724 229.275 109.19 228.999 108.746C228.723 108.29 228.345 107.948 227.865 107.72C227.397 107.48 226.875 107.36 226.299 107.36C225.471 107.36 224.763 107.624 224.175 108.152C223.599 108.68 223.269 109.412 223.185 110.348H229.413ZM234.905 107.738C235.193 107.174 235.601 106.736 236.129 106.424C236.669 106.112 237.323 105.956 238.091 105.956V107.648H237.659C235.823 107.648 234.905 108.644 234.905 110.636V116H233.267V106.136H234.905V107.738ZM243.474 116.162C242.718 116.162 242.04 116.036 241.44 115.784C240.84 115.52 240.366 115.16 240.018 114.704C239.67 114.236 239.478 113.702 239.442 113.102H241.134C241.182 113.594 241.41 113.996 241.818 114.308C242.238 114.62 242.784 114.776 243.456 114.776C244.08 114.776 244.572 114.638 244.932 114.362C245.292 114.086 245.472 113.738 245.472 113.318C245.472 112.886 245.28 112.568 244.896 112.364C244.512 112.148 243.918 111.938 243.114 111.734C242.382 111.542 241.782 111.35 241.314 111.158C240.858 110.954 240.462 110.66 240.126 110.276C239.802 109.88 239.64 109.364 239.64 108.728C239.64 108.224 239.79 107.762 240.09 107.342C240.39 106.922 240.816 106.592 241.368 106.352C241.92 106.1 242.55 105.974 243.258 105.974C244.35 105.974 245.232 106.25 245.904 106.802C246.576 107.354 246.936 108.11 246.984 109.07H245.346C245.31 108.554 245.1 108.14 244.716 107.828C244.344 107.516 243.84 107.36 243.204 107.36C242.616 107.36 242.148 107.486 241.8 107.738C241.452 107.99 241.278 108.32 241.278 108.728C241.278 109.052 241.38 109.322 241.584 109.538C241.8 109.742 242.064 109.91 242.376 110.042C242.7 110.162 243.144 110.3 243.708 110.456C244.416 110.648 244.992 110.84 245.436 111.032C245.88 111.212 246.258 111.488 246.57 111.86C246.894 112.232 247.062 112.718 247.074 113.318C247.074 113.858 246.924 114.344 246.624 114.776C246.324 115.208 245.898 115.55 245.346 115.802C244.806 116.042 244.182 116.162 243.474 116.162Z" fill="white"/>
</svg>
