<svg width="215" height="199" viewBox="0 0 215 199" fill="none" xmlns="http://www.w3.org/2000/svg">
<g clip-path="url(#clip0)">
<g opacity="0.5">
<path opacity="0.5" d="M150.14 11.9756L59.6485 12.1961C59.16 12.1972 58.6766 12.2945 58.2258 12.4826C57.775 12.6706 57.3656 12.9457 57.0211 13.292C56.6766 13.6384 56.4037 14.0492 56.2181 14.5011C56.0324 14.953 55.9375 15.4371 55.939 15.9257L56.3499 185.223C56.351 185.711 56.4483 186.195 56.6363 186.646C56.8243 187.097 57.0993 187.506 57.4455 187.851C57.7918 188.195 58.2026 188.468 58.6543 188.654C59.1061 188.84 59.59 188.935 60.0785 188.933L150.57 188.713C151.059 188.712 151.542 188.614 151.993 188.426C152.444 188.238 152.854 187.962 153.198 187.616C153.543 187.269 153.816 186.858 154.001 186.406C154.187 185.954 154.281 185.469 154.28 184.98L153.869 15.6834C153.867 15.195 153.77 14.7117 153.581 14.2611C153.393 13.8105 153.118 13.4014 152.772 13.0571C152.426 12.7128 152.015 12.4401 151.564 12.2545C151.112 12.0689 150.628 11.9742 150.14 11.9756Z" fill="url(#paint0_linear)"/>
</g>
<path d="M148.829 14.2869L60.9695 14.5017C58.9193 14.5067 57.2614 16.1732 57.2664 18.2239L57.6685 182.833C57.6735 184.883 59.3396 186.542 61.3898 186.537L149.249 186.322C151.3 186.317 152.958 184.651 152.953 182.6L152.55 17.9911C152.545 15.9403 150.879 14.2819 148.829 14.2869Z" fill="white"/>
<path opacity="0.4" d="M128.846 18.6483C128.575 20.473 127.661 22.1405 126.267 23.3493C124.874 24.5581 123.095 25.2284 121.25 25.2389L88.3387 25.3179C86.4959 25.3146 84.715 24.6523 83.3175 23.4507C81.9201 22.2491 80.9982 20.5873 80.7184 18.7653L63.2868 18.8089C62.8115 18.8099 62.341 18.9047 61.9022 19.0876C61.4635 19.2706 61.0651 19.5381 60.7297 19.8751C60.3943 20.2121 60.1286 20.6118 59.9477 21.0515C59.7668 21.4912 59.6742 21.9622 59.6753 22.4377L60.0536 178.608C60.0547 179.083 60.1494 179.554 60.3325 179.993C60.5156 180.432 60.7833 180.831 61.1205 181.167C61.4577 181.502 61.8576 181.768 62.2975 181.949C62.7374 182.129 63.2086 182.222 63.6842 182.22L146.964 182.019C147.439 182.018 147.91 181.923 148.348 181.74C148.787 181.557 149.185 181.29 149.521 180.953C149.856 180.616 150.122 180.216 150.303 179.776C150.484 179.336 150.576 178.865 150.575 178.39L150.197 22.2199C150.196 21.7444 150.101 21.2738 149.918 20.835C149.735 20.3961 149.468 19.9976 149.131 19.6621C148.794 19.3267 148.394 19.0609 147.955 18.8799C147.515 18.6989 147.044 18.6064 146.569 18.6074L128.846 18.6483Z" fill="#19C3AB"/>
<path d="M114.116 20.6269L93.973 20.9293C93.6724 20.9338 93.4324 21.1812 93.4369 21.4819L93.4405 21.7214C93.445 22.0221 93.6923 22.2622 93.9929 22.2577L114.136 21.9552C114.436 21.9507 114.676 21.7033 114.672 21.4026L114.668 21.1631C114.664 20.8624 114.416 20.6224 114.116 20.6269Z" fill="#DBDBDB"/>
<path d="M119.188 21.8771C119.628 21.8705 119.98 21.508 119.973 21.0675C119.967 20.6271 119.604 20.2754 119.164 20.282C118.724 20.2886 118.372 20.651 118.379 21.0915C118.385 21.532 118.748 21.8837 119.188 21.8771Z" fill="#DBDBDB"/>
<g opacity="0.5">
<path opacity="0.5" d="M116.229 137.375C116.231 132.728 115.03 128.161 112.743 124.117C110.456 120.073 107.162 116.69 103.18 114.297C99.1983 111.905 94.665 110.584 90.0216 110.464C85.3782 110.344 80.7828 111.429 76.6829 113.612C72.5829 115.796 69.118 119.004 66.6255 122.925C64.133 126.846 62.6979 131.345 62.4597 135.985C62.2215 140.625 63.1885 145.248 65.2665 149.404C67.3445 153.559 70.4627 157.105 74.3175 159.697L74.3338 159.817C75.2126 160.66 76.2495 161.319 77.3847 161.758L77.4201 161.638C78.6802 162.727 83.9845 164.451 90.078 164.434H90.2114C94.0705 164.434 98.2618 163.754 101.947 161.758C101.947 161.758 101.979 161.687 102.028 161.554C102.962 161.115 103.818 160.529 104.565 159.817C104.579 159.714 104.594 159.612 104.608 159.512C108.194 157.04 111.125 153.734 113.149 149.877C115.173 146.021 116.23 141.73 116.229 137.375Z" fill="url(#paint1_linear)"/>
</g>
<path d="M89.324 163.482C103.737 163.482 115.421 151.794 115.421 137.378C115.421 122.961 103.737 111.273 89.324 111.273C74.9111 111.273 63.2271 122.961 63.2271 137.378C63.2271 151.794 74.9111 163.482 89.324 163.482Z" fill="#F5F5F5"/>
<path d="M79.3551 148.112C79.3551 148.112 73.1363 148.621 74.7829 159.952C75.6344 160.771 76.6399 161.413 77.7412 161.841L81.2384 150.002L79.3551 148.112Z" fill="#FDA57D"/>
<path d="M99.5327 148.112C99.5327 148.112 105.752 148.621 104.105 159.952C103.253 160.771 102.248 161.413 101.147 161.841L97.6494 149.996L99.5327 148.112Z" fill="#FDA57D"/>
<path d="M79.6245 129.543C79.6245 129.543 76.6661 138.157 75.0522 137.34C75.0522 137.34 90.625 150.796 104.377 137.34C104.377 137.34 101.955 133.033 98.4576 129.535L79.6245 129.543Z" fill="#333333"/>
<path d="M89.6069 140.307C95.9965 140.307 101.176 135.126 101.176 128.735C101.176 122.343 95.9965 117.162 89.6069 117.162C83.2174 117.162 78.0376 122.343 78.0376 128.735C78.0376 135.126 83.2174 140.307 89.6069 140.307Z" fill="#333333"/>
<path opacity="0.1" d="M99.4127 148.112H79.2378L77.3545 156.187C77.3545 156.187 76.2495 159.924 77.6266 161.569C79.0037 163.213 91.8549 166.951 101.304 161.841C102.128 159.689 102.224 157.326 101.576 155.114C100.488 151.346 101.304 154.842 101.304 154.842L99.4127 148.112Z" fill="black"/>
<path opacity="0.1" d="M99.6825 148.112H79.5049L77.6215 156.187C77.6215 156.187 76.5166 159.924 77.8937 161.569C79.2708 163.213 92.122 166.951 101.571 161.841C102.395 159.689 102.491 157.326 101.843 155.114C100.755 151.346 101.571 154.842 101.571 154.842L99.6825 148.112Z" fill="black"/>
<path d="M99.5325 148.112H79.355L77.4716 156.187C77.4716 156.187 76.3667 159.924 77.7438 161.569C79.1209 163.213 91.9721 166.951 101.421 161.841C102.245 159.689 102.341 157.326 101.693 155.114C100.605 151.346 101.421 154.842 101.421 154.842L99.5325 148.112Z" fill="#F86D70"/>
<path opacity="0.1" d="M85.544 141.412H93.6216V149.225C93.6216 149.577 93.5522 149.926 93.4175 150.251C93.2828 150.577 93.0853 150.872 92.8364 151.121C92.5875 151.37 92.292 151.568 91.9667 151.702C91.6415 151.837 91.2929 151.907 90.9409 151.907H88.2193C87.5083 151.907 86.8265 151.624 86.3237 151.121C85.821 150.618 85.5386 149.936 85.5386 149.225V141.412H85.544Z" fill="black"/>
<path d="M85.544 141.116H93.6216V148.929C93.6216 149.281 93.5522 149.63 93.4175 149.955C93.2828 150.281 93.0853 150.576 92.8364 150.825C92.5875 151.074 92.292 151.272 91.9667 151.407C91.6415 151.541 91.2929 151.611 90.9409 151.611H88.2193C87.5083 151.611 86.8265 151.328 86.3237 150.825C85.821 150.322 85.5386 149.64 85.5386 148.929V141.116H85.544Z" fill="#FDA57D"/>
<path opacity="0.1" d="M85.5605 142.278C88.1621 143.25 91.0259 143.258 93.6327 142.3V141.309H85.5605V142.278Z" fill="black"/>
<path d="M89.6069 142.82C95.9965 142.82 101.176 137.639 101.176 131.247C101.176 124.856 95.9965 119.675 89.6069 119.675C83.2174 119.675 78.0376 124.856 78.0376 131.247C78.0376 137.639 83.2174 142.82 89.6069 142.82Z" fill="#FDA57D"/>
<path d="M78.5493 126.851H100.61C100.61 126.851 98.7269 117.941 90.3881 118.51C82.0492 119.078 78.5493 126.851 78.5493 126.851Z" fill="#333333"/>
<path d="M78.2801 132.772C78.8738 132.772 79.3551 131.869 79.3551 130.755C79.3551 129.64 78.8738 128.737 78.2801 128.737C77.6864 128.737 77.2051 129.64 77.2051 130.755C77.2051 131.869 77.6864 132.772 78.2801 132.772Z" fill="#FDA57D"/>
<path d="M100.877 132.772C101.471 132.772 101.952 131.869 101.952 130.755C101.952 129.64 101.471 128.737 100.877 128.737C100.284 128.737 99.8022 129.64 99.8022 130.755C99.8022 131.869 100.284 132.772 100.877 132.772Z" fill="#FDA57D"/>
<path opacity="0.1" d="M78.5493 127.15H100.61C100.61 127.15 98.7269 118.24 90.3881 118.809C82.0492 119.378 78.5493 127.15 78.5493 127.15Z" fill="black"/>
<g opacity="0.5">
<path opacity="0.5" d="M94.4214 66.3834C94.4197 61.7372 95.6208 57.1697 97.9076 53.1255C100.194 49.0814 103.489 45.6984 107.471 43.3059C111.453 40.9134 115.986 39.5928 120.629 39.4728C125.273 39.3529 129.868 40.4375 133.968 42.6212C138.068 44.8049 141.533 48.0132 144.025 51.9339C146.518 55.8546 147.953 60.3539 148.191 64.9941C148.429 69.6342 147.462 74.2569 145.384 78.4123C143.306 82.5677 140.188 86.1141 136.333 88.7063L136.317 88.8261C135.44 89.6762 134.403 90.3433 133.266 90.7888L133.231 90.669C131.971 91.758 126.666 93.4812 120.573 93.4648H120.439C116.58 93.4648 112.389 92.7843 108.704 90.7888C108.704 90.7888 108.671 90.718 108.622 90.5847C107.689 90.146 106.833 89.5595 106.086 88.8478C106.071 88.7444 106.057 88.6427 106.042 88.5429C102.454 86.0688 99.5214 82.7588 97.4968 78.8983C95.4723 75.0379 94.4168 70.7428 94.4214 66.3834Z" fill="url(#paint2_linear)"/>
</g>
<path d="M121.324 92.4905C135.737 92.4905 147.421 80.8032 147.421 66.3863C147.421 51.9694 135.737 40.2822 121.324 40.2822C106.911 40.2822 95.2271 51.9694 95.2271 66.3863C95.2271 80.8032 106.911 92.4905 121.324 92.4905Z" fill="#F5F5F5"/>
<path d="M111.094 76.3281C111.094 76.3281 104.875 76.8372 106.522 88.1674C107.374 88.9847 108.379 89.625 109.48 90.0512L112.977 78.212L111.094 76.3281Z" fill="#BE7C5E"/>
<path d="M131.269 76.3281C131.269 76.3281 137.487 76.8372 135.841 88.1674C134.989 88.9847 133.983 89.625 132.882 90.0512L129.385 78.212L131.269 76.3281Z" fill="#BE7C5E"/>
<path d="M111.361 57.7587C111.361 57.7587 110.882 59.1526 110.204 60.7533C108.724 64.2923 110.414 77.8248 113.954 79.2649C117.928 80.8983 123.153 81.9219 128.583 79.9427C133.299 78.2222 134.755 62.7923 131.419 59.0491C131.027 58.6081 130.619 58.1698 130.191 57.7451L111.361 57.7587Z" fill="#333333"/>
<path d="M121.343 68.5258C127.733 68.5258 132.913 63.3447 132.913 56.9534C132.913 50.562 127.733 45.3809 121.343 45.3809C114.954 45.3809 109.774 50.562 109.774 56.9534C109.774 63.3447 114.954 68.5258 121.343 68.5258Z" fill="#333333"/>
<path opacity="0.1" d="M131.152 76.3281H110.974L109.091 84.4025C109.091 84.4025 107.986 88.1402 109.363 89.7844C110.74 91.4287 123.591 95.1664 133.04 90.0567C133.865 87.9046 133.96 85.5415 133.313 83.3299C132.224 79.5622 133.04 83.0576 133.04 83.0576L131.152 76.3281Z" fill="black"/>
<path opacity="0.1" d="M131.418 76.3281H111.241L109.357 84.4025C109.357 84.4025 108.252 88.1402 109.63 89.7844C111.007 91.4287 123.858 95.1664 133.307 90.0567C134.131 87.9046 134.227 85.5415 133.579 83.3299C132.491 79.5622 133.307 83.0576 133.307 83.0576L131.418 76.3281Z" fill="black"/>
<path d="M131.269 76.3281H111.094L109.21 84.4025C109.21 84.4025 108.105 88.1402 109.483 89.7844C110.86 91.4287 123.711 95.1664 133.16 90.0567C133.984 87.9046 134.08 85.5415 133.432 83.3299C132.344 79.5622 133.16 83.0576 133.16 83.0576L131.269 76.3281Z" fill="#FCB83B"/>
<path opacity="0.1" d="M117.28 69.6309H125.352V77.4439C125.352 78.155 125.07 78.8371 124.567 79.3399C124.064 79.8428 123.382 80.1253 122.671 80.1253H119.95C119.239 80.1253 118.557 79.8428 118.054 79.3399C117.551 78.8371 117.269 78.155 117.269 77.4439V69.6309H117.28Z" fill="black"/>
<path d="M117.28 69.332H125.352V77.145C125.352 77.8562 125.07 78.5382 124.567 79.0411C124.064 79.544 123.382 79.8265 122.671 79.8265H119.95C119.239 79.8265 118.557 79.544 118.054 79.0411C117.551 78.5382 117.269 77.8562 117.269 77.145V69.332H117.28Z" fill="#BE7C5E"/>
<path opacity="0.1" d="M117.299 70.4936C119.9 71.4659 122.764 71.4736 125.371 70.5153V69.5244H117.299V70.4936Z" fill="black"/>
<path d="M121.343 71.0356C127.733 71.0356 132.913 65.8544 132.913 59.4631C132.913 53.0718 127.733 47.8906 121.343 47.8906C114.954 47.8906 109.774 53.0718 109.774 59.4631C109.774 65.8544 114.954 71.0356 121.343 71.0356Z" fill="#BE7C5E"/>
<path d="M110.286 55.0694H132.347C132.347 55.0694 130.463 46.1593 122.124 46.7283C113.786 47.2972 110.286 55.0694 110.286 55.0694Z" fill="#333333"/>
<path d="M110.016 60.9876C110.61 60.9876 111.091 60.0844 111.091 58.9703C111.091 57.8563 110.61 56.9531 110.016 56.9531C109.422 56.9531 108.941 57.8563 108.941 58.9703C108.941 60.0844 109.422 60.9876 110.016 60.9876Z" fill="#BE7C5E"/>
<path d="M132.613 60.9876C133.207 60.9876 133.688 60.0844 133.688 58.9703C133.688 57.8563 133.207 56.9531 132.613 56.9531C132.019 56.9531 131.538 57.8563 131.538 58.9703C131.538 60.0844 132.019 60.9876 132.613 60.9876Z" fill="#BE7C5E"/>
<path opacity="0.1" d="M110.286 55.3682H132.347C132.347 55.3682 130.463 46.4581 122.124 47.0271C113.786 47.5961 110.286 55.3682 110.286 55.3682Z" fill="black"/>
<g opacity="0.5">
<path opacity="0.5" d="M1.3606 43.042V81.8946H62.5574C62.5574 81.8946 67.0752 90.7884 74.8425 93.3746C74.8425 93.3746 72.3632 87.0752 74.9514 81.8946H91.9883V43.042H1.3606Z" fill="url(#paint3_linear)"/>
</g>
<path d="M3.8103 44.374V81.125H65.0453C65.0453 81.125 65.0453 88.4753 72.3934 90.9253C72.3934 90.9253 69.9441 86.0252 72.3934 81.125H89.5392V44.374H3.8103Z" fill="white"/>
<path d="M60.1464 51.7236H11.1584V56.6238H60.1464V51.7236Z" fill="#04318C"/>
<path d="M77.2922 59.0742H11.1584V63.9743H77.2922V59.0742Z" fill="#04318C"/>
<path d="M69.944 66.4238H11.1584V71.324H69.944V66.4238Z" fill="#04318C"/>
<g opacity="0.5">
<path opacity="0.5" d="M209.56 117.905V156.758H148.366C148.366 156.758 143.848 165.652 136.078 168.238C136.078 168.238 138.557 161.938 135.969 156.758H118.932V117.905H209.56Z" fill="url(#paint4_linear)"/>
</g>
<path d="M207.11 119.236V155.987H145.875C145.875 155.987 145.875 163.338 138.527 165.788C138.527 165.788 140.977 160.887 138.527 155.987H121.381V119.236H207.11Z" fill="white"/>
<path d="M180.439 126.587H131.451V131.487H180.439V126.587Z" fill="#04318C"/>
<path d="M197.585 133.938H131.451V138.838H197.585V133.938Z" fill="#04318C"/>
<path d="M190.237 141.287H131.451V146.187H190.237V141.287Z" fill="#04318C"/>
<g opacity="0.5">
<path opacity="0.5" d="M23.6773 194.372H22.8608V199H23.6773V194.372Z" fill="#47E6B1"/>
<path opacity="0.5" d="M25.5825 197.094V196.277H20.9559V197.094H25.5825Z" fill="#47E6B1"/>
</g>
<g opacity="0.5">
<path opacity="0.5" d="M173.091 52.2686H172.274V56.8964H173.091V52.2686Z" fill="#47E6B1"/>
<path opacity="0.5" d="M174.996 54.9905V54.1738H170.369V54.9905H174.996Z" fill="#47E6B1"/>
</g>
<g opacity="0.5">
<path opacity="0.5" d="M190.508 166.604H189.692V171.232H190.508V166.604Z" fill="#47E6B1"/>
<path opacity="0.5" d="M192.414 169.326V168.51H187.787V169.326H192.414Z" fill="#47E6B1"/>
</g>
<g opacity="0.5">
<path opacity="0.5" d="M139.071 0H138.255V4.62791H139.071V0Z" fill="#47E6B1"/>
<path opacity="0.5" d="M140.976 2.72196V1.90527L136.349 1.90527V2.72196L140.976 2.72196Z" fill="#47E6B1"/>
</g>
<path opacity="0.5" d="M70.4065 193.912C70.1837 193.812 70.0053 193.634 69.905 193.411C69.8047 193.188 69.7895 192.937 69.8621 192.703C69.8738 192.667 69.8811 192.63 69.8839 192.592C69.8909 192.484 69.8628 192.377 69.804 192.286C69.7451 192.196 69.6586 192.127 69.5574 192.089C69.4561 192.052 69.3455 192.049 69.242 192.079C69.1385 192.11 69.0477 192.173 68.9831 192.26C68.9612 192.29 68.9429 192.323 68.9286 192.358C68.8286 192.58 68.6504 192.759 68.4277 192.859C68.2051 192.96 67.9534 192.975 67.7203 192.902C67.6841 192.89 67.6466 192.883 67.6087 192.88C67.501 192.873 67.3939 192.901 67.3034 192.96C67.213 193.019 67.1439 193.106 67.1066 193.207C67.0693 193.308 67.0657 193.419 67.0963 193.522C67.1269 193.626 67.1902 193.717 67.2767 193.781C67.3071 193.803 67.34 193.822 67.3746 193.836C67.5974 193.936 67.7758 194.114 67.8761 194.337C67.9764 194.56 67.9916 194.811 67.9189 195.045C67.9073 195.081 67.9 195.118 67.8972 195.156C67.8902 195.264 67.9183 195.371 67.9771 195.461C68.0359 195.552 68.1224 195.621 68.2237 195.658C68.325 195.696 68.4356 195.699 68.5391 195.669C68.6426 195.638 68.7334 195.575 68.798 195.488C68.8199 195.458 68.8382 195.425 68.8524 195.39C68.9525 195.167 69.1307 194.989 69.3533 194.889C69.576 194.788 69.8277 194.773 70.0608 194.846C70.097 194.857 70.1345 194.865 70.1724 194.868C70.2801 194.875 70.3872 194.846 70.4777 194.788C70.5681 194.729 70.6372 194.642 70.6745 194.541C70.7118 194.44 70.7154 194.329 70.6848 194.225C70.6541 194.122 70.5909 194.031 70.5044 193.966C70.474 193.945 70.4411 193.926 70.4065 193.912Z" fill="#4D8AF0"/>
<path opacity="0.5" d="M15.7578 107.519C15.535 107.419 15.3566 107.241 15.2563 107.018C15.156 106.796 15.1408 106.544 15.2134 106.311C15.2251 106.275 15.2324 106.237 15.2352 106.199C15.2422 106.091 15.2141 105.984 15.1553 105.894C15.0964 105.803 15.0099 105.734 14.9087 105.697C14.8074 105.66 14.6968 105.656 14.5933 105.687C14.4898 105.717 14.399 105.781 14.3344 105.867C14.3125 105.897 14.2942 105.93 14.28 105.965C14.1799 106.188 14.0017 106.366 13.7791 106.467C13.5564 106.567 13.3047 106.582 13.0716 106.51C13.0354 106.498 12.9979 106.491 12.96 106.488C12.8523 106.481 12.7452 106.509 12.6547 106.568C12.5643 106.627 12.4952 106.713 12.4579 106.814C12.4206 106.916 12.417 107.026 12.4476 107.13C12.4783 107.233 12.5415 107.324 12.628 107.389C12.6584 107.411 12.6913 107.429 12.7259 107.443C12.9487 107.543 13.1271 107.722 13.2274 107.944C13.3277 108.167 13.3429 108.419 13.2703 108.652C13.2586 108.688 13.2513 108.726 13.2485 108.764C13.2371 108.873 13.2622 108.984 13.3199 109.078C13.3776 109.172 13.4647 109.244 13.5677 109.283C13.6706 109.323 13.7837 109.327 13.8894 109.295C13.995 109.264 14.0873 109.199 14.152 109.109C14.1739 109.079 14.1922 109.046 14.2065 109.011C14.3065 108.789 14.4847 108.61 14.7074 108.51C14.93 108.409 15.1817 108.394 15.4148 108.467C15.4511 108.479 15.4885 108.486 15.5264 108.489C15.6341 108.496 15.7412 108.468 15.8317 108.409C15.9222 108.35 15.9912 108.263 16.0285 108.162C16.0659 108.061 16.0695 107.95 16.0388 107.847C16.0082 107.743 15.9449 107.652 15.8585 107.588C15.8279 107.561 15.7941 107.538 15.7578 107.519Z" fill="#4D8AF0"/>
<path opacity="0.5" d="M45.4225 131.204C45.1998 131.104 45.0214 130.926 44.9211 130.703C44.8208 130.48 44.8056 130.229 44.8782 129.995C44.8899 129.959 44.8972 129.922 44.9 129.884C44.907 129.776 44.8789 129.669 44.8201 129.578C44.7612 129.488 44.6747 129.419 44.5735 129.382C44.4722 129.344 44.3616 129.341 44.2581 129.371C44.1546 129.402 44.0638 129.465 43.9992 129.552C43.9773 129.582 43.959 129.615 43.9447 129.65C43.8447 129.872 43.6665 130.051 43.4438 130.151C43.2212 130.252 42.9695 130.267 42.7364 130.194C42.7002 130.182 42.6627 130.175 42.6248 130.172C42.5171 130.165 42.41 130.193 42.3195 130.252C42.2291 130.311 42.16 130.398 42.1227 130.499C42.0854 130.6 42.0818 130.711 42.1124 130.814C42.1431 130.918 42.2063 131.009 42.2928 131.073C42.3232 131.095 42.3561 131.114 42.3907 131.128C42.6135 131.228 42.7919 131.406 42.8922 131.629C42.9925 131.852 43.0077 132.103 42.9351 132.337C42.9234 132.373 42.9161 132.41 42.9133 132.448C42.9019 132.558 42.927 132.668 42.9847 132.762C43.0424 132.856 43.1295 132.928 43.2324 132.968C43.3354 133.007 43.4485 133.011 43.5541 132.98C43.6598 132.949 43.7521 132.883 43.8168 132.794C43.8387 132.763 43.857 132.731 43.8713 132.696C43.9713 132.473 44.1495 132.295 44.3722 132.194C44.5948 132.094 44.8465 132.079 45.0796 132.151C45.1158 132.163 45.1533 132.17 45.1912 132.173C45.2989 132.18 45.406 132.152 45.4965 132.093C45.5869 132.034 45.656 131.948 45.6933 131.847C45.7306 131.745 45.7342 131.635 45.7036 131.531C45.6729 131.428 45.6097 131.337 45.5232 131.272C45.4927 131.245 45.4588 131.222 45.4225 131.204Z" fill="#4D8AF0"/>
<path opacity="0.5" d="M214.703 195.45C214.481 195.35 214.302 195.172 214.202 194.949C214.102 194.726 214.086 194.475 214.159 194.241C214.171 194.205 214.178 194.168 214.181 194.13C214.188 194.022 214.16 193.915 214.101 193.824C214.042 193.734 213.956 193.665 213.854 193.628C213.753 193.59 213.642 193.587 213.539 193.617C213.435 193.648 213.345 193.711 213.28 193.798C213.258 193.828 213.24 193.861 213.226 193.896C213.125 194.119 212.947 194.297 212.725 194.397C212.502 194.498 212.25 194.513 212.017 194.44C211.981 194.429 211.943 194.421 211.906 194.418C211.798 194.411 211.691 194.439 211.6 194.498C211.51 194.557 211.441 194.644 211.403 194.745C211.366 194.846 211.363 194.957 211.393 195.06C211.424 195.164 211.487 195.255 211.574 195.319C211.604 195.341 211.637 195.36 211.672 195.374C211.894 195.474 212.073 195.652 212.173 195.875C212.273 196.098 212.289 196.349 212.216 196.583C212.204 196.619 212.197 196.656 212.194 196.694C212.183 196.804 212.208 196.914 212.265 197.008C212.323 197.102 212.41 197.174 212.513 197.214C212.616 197.253 212.729 197.258 212.835 197.226C212.941 197.195 213.033 197.129 213.098 197.04C213.12 197.01 213.138 196.977 213.152 196.942C213.252 196.719 213.43 196.541 213.653 196.44C213.876 196.34 214.127 196.325 214.36 196.398C214.397 196.409 214.434 196.416 214.472 196.419C214.58 196.426 214.687 196.398 214.777 196.339C214.868 196.28 214.937 196.194 214.974 196.093C215.011 195.991 215.015 195.881 214.984 195.777C214.954 195.674 214.891 195.583 214.804 195.518C214.773 195.491 214.74 195.468 214.703 195.45Z" fill="#4D8AF0"/>
<path opacity="0.5" d="M1.63293 181.032C2.53478 181.032 3.26586 180.301 3.26586 179.399C3.26586 178.497 2.53478 177.766 1.63293 177.766C0.731089 177.766 0 178.497 0 179.399C0 180.301 0.731089 181.032 1.63293 181.032Z" fill="#F55F44"/>
<path opacity="0.5" d="M185.882 19.0558C186.784 19.0558 187.515 18.3245 187.515 17.4224C187.515 16.5204 186.784 15.7891 185.882 15.7891C184.98 15.7891 184.249 16.5204 184.249 17.4224C184.249 18.3245 184.98 19.0558 185.882 19.0558Z" fill="#4D8AF0"/>
<path opacity="0.5" d="M28.3043 22.3224C29.2062 22.3224 29.9372 21.5911 29.9372 20.689C29.9372 19.787 29.2062 19.0557 28.3043 19.0557C27.4025 19.0557 26.6714 19.787 26.6714 20.689C26.6714 21.5911 27.4025 22.3224 28.3043 22.3224Z" fill="#47E6B1"/>
<path opacity="0.5" d="M187.515 95.8254C188.417 95.8254 189.148 95.0941 189.148 94.192C189.148 93.2899 188.417 92.5586 187.515 92.5586C186.613 92.5586 185.882 93.2899 185.882 94.192C185.882 95.0941 186.613 95.8254 187.515 95.8254Z" fill="#F55F44"/>
</g>
<defs>
<linearGradient id="paint0_linear" x1="66.6146" y1="191.999" x2="143.642" y2="8.91905" gradientUnits="userSpaceOnUse">
<stop stop-color="#808080" stop-opacity="0.25"/>
<stop offset="0.54" stop-color="#808080" stop-opacity="0.12"/>
<stop offset="1" stop-color="#808080" stop-opacity="0.1"/>
</linearGradient>
<linearGradient id="paint1_linear" x1="28751.9" y1="37279.5" x2="28751.9" y2="26575.4" gradientUnits="userSpaceOnUse">
<stop stop-color="#808080" stop-opacity="0.25"/>
<stop offset="0.54" stop-color="#808080" stop-opacity="0.12"/>
<stop offset="1" stop-color="#808080" stop-opacity="0.1"/>
</linearGradient>
<linearGradient id="paint2_linear" x1="32240.3" y1="23141.1" x2="32240.3" y2="12432.7" gradientUnits="userSpaceOnUse">
<stop stop-color="#808080" stop-opacity="0.25"/>
<stop offset="0.54" stop-color="#808080" stop-opacity="0.12"/>
<stop offset="1" stop-color="#808080" stop-opacity="0.1"/>
</linearGradient>
<linearGradient id="paint3_linear" x1="34122.7" y1="21560.2" x2="34122.7" y2="12254.2" gradientUnits="userSpaceOnUse">
<stop stop-color="#808080" stop-opacity="0.25"/>
<stop offset="0.54" stop-color="#808080" stop-opacity="0.12"/>
<stop offset="1" stop-color="#808080" stop-opacity="0.1"/>
</linearGradient>
<linearGradient id="paint4_linear" x1="-299404" y1="35476.5" x2="-299404" y2="26170.5" gradientUnits="userSpaceOnUse">
<stop stop-color="#808080" stop-opacity="0.25"/>
<stop offset="0.54" stop-color="#808080" stop-opacity="0.12"/>
<stop offset="1" stop-color="#808080" stop-opacity="0.1"/>
</linearGradient>
<clipPath id="clip0">
<rect width="215" height="199" fill="white"/>
</clipPath>
</defs>
</svg>
