<svg width="269" height="99" viewBox="0 0 269 99" fill="none" xmlns="http://www.w3.org/2000/svg">
<path fill-rule="evenodd" clip-rule="evenodd" d="M247.5 0C257.165 0 265 7.83502 265 17.5V70.5C265 70.7714 264.994 71.0414 264.982 71.3098C264.94 72.7653 264.796 78.9849 265.288 82.1319C265.622 84.2721 267.089 85.957 268.215 86.9658C268.588 87.2998 268.359 87.9617 267.861 87.9059C265.732 87.6669 261.987 86.9144 258.767 84.5494C258.621 84.4428 258.491 84.3305 258.374 84.2127C255.388 86.5837 251.609 88 247.5 88H17.5001C7.83517 88 0.000152588 80.165 0.000152588 70.5V17.5C0.000152588 7.83502 7.83517 0 17.5001 0H247.5Z" fill="#19C3AB"/>
<path d="M58.5857 21.126C57.4217 21.126 56.3597 20.856 55.3997 20.316C54.4397 19.764 53.6777 19.002 53.1137 18.03C52.5617 17.046 52.2857 15.942 52.2857 14.718C52.2857 13.494 52.5617 12.396 53.1137 11.424C53.6777 10.44 54.4397 9.678 55.3997 9.138C56.3597 8.586 57.4217 8.31 58.5857 8.31C59.7617 8.31 60.8297 8.586 61.7897 9.138C62.7497 9.678 63.5057 10.434 64.0577 11.406C64.6097 12.378 64.8857 13.482 64.8857 14.718C64.8857 15.954 64.6097 17.058 64.0577 18.03C63.5057 19.002 62.7497 19.764 61.7897 20.316C60.8297 20.856 59.7617 21.126 58.5857 21.126ZM58.5857 19.704C59.4617 19.704 60.2477 19.5 60.9437 19.092C61.6517 18.684 62.2037 18.102 62.5997 17.346C63.0077 16.59 63.2117 15.714 63.2117 14.718C63.2117 13.71 63.0077 12.834 62.5997 12.09C62.2037 11.334 61.6577 10.752 60.9617 10.344C60.2657 9.936 59.4737 9.732 58.5857 9.732C57.6977 9.732 56.9057 9.936 56.2097 10.344C55.5137 10.752 54.9617 11.334 54.5537 12.09C54.1577 12.834 53.9597 13.71 53.9597 14.718C53.9597 15.714 54.1577 16.59 54.5537 17.346C54.9617 18.102 55.5137 18.684 56.2097 19.092C56.9177 19.5 57.7097 19.704 58.5857 19.704ZM68.6861 12.738C68.9741 12.174 69.3821 11.736 69.9101 11.424C70.4501 11.112 71.1041 10.956 71.8721 10.956V12.648H71.4401C69.6041 12.648 68.6861 13.644 68.6861 15.636V21H67.0481V11.136H68.6861V12.738ZM82.0538 21.162C81.2978 21.162 80.6198 21.036 80.0198 20.784C79.4198 20.52 78.9458 20.16 78.5978 19.704C78.2498 19.236 78.0578 18.702 78.0218 18.102H79.7138C79.7618 18.594 79.9898 18.996 80.3978 19.308C80.8178 19.62 81.3638 19.776 82.0358 19.776C82.6598 19.776 83.1518 19.638 83.5118 19.362C83.8718 19.086 84.0518 18.738 84.0518 18.318C84.0518 17.886 83.8598 17.568 83.4758 17.364C83.0918 17.148 82.4978 16.938 81.6938 16.734C80.9618 16.542 80.3618 16.35 79.8938 16.158C79.4378 15.954 79.0418 15.66 78.7058 15.276C78.3818 14.88 78.2198 14.364 78.2198 13.728C78.2198 13.224 78.3698 12.762 78.6698 12.342C78.9698 11.922 79.3958 11.592 79.9478 11.352C80.4998 11.1 81.1298 10.974 81.8378 10.974C82.9298 10.974 83.8118 11.25 84.4838 11.802C85.1558 12.354 85.5158 13.11 85.5638 14.07H83.9258C83.8898 13.554 83.6798 13.14 83.2958 12.828C82.9238 12.516 82.4198 12.36 81.7838 12.36C81.1958 12.36 80.7278 12.486 80.3798 12.738C80.0318 12.99 79.8578 13.32 79.8578 13.728C79.8578 14.052 79.9598 14.322 80.1638 14.538C80.3798 14.742 80.6438 14.91 80.9558 15.042C81.2798 15.162 81.7238 15.3 82.2878 15.456C82.9958 15.648 83.5718 15.84 84.0158 16.032C84.4598 16.212 84.8378 16.488 85.1498 16.86C85.4738 17.232 85.6418 17.718 85.6538 18.318C85.6538 18.858 85.5038 19.344 85.2038 19.776C84.9038 20.208 84.4778 20.55 83.9258 20.802C83.3858 21.042 82.7618 21.162 82.0538 21.162ZM88.8121 9.534C88.5001 9.534 88.2361 9.426 88.0201 9.21C87.8041 8.994 87.6961 8.73 87.6961 8.418C87.6961 8.106 87.8041 7.842 88.0201 7.626C88.2361 7.41 88.5001 7.302 88.8121 7.302C89.1121 7.302 89.3641 7.41 89.5681 7.626C89.7841 7.842 89.8921 8.106 89.8921 8.418C89.8921 8.73 89.7841 8.994 89.5681 9.21C89.3641 9.426 89.1121 9.534 88.8121 9.534ZM89.6041 11.136V21H87.9661V11.136H89.6041ZM104.258 10.956C105.026 10.956 105.71 11.118 106.31 11.442C106.91 11.754 107.384 12.228 107.732 12.864C108.08 13.5 108.254 14.274 108.254 15.186V21H106.634V15.42C106.634 14.436 106.388 13.686 105.896 13.17C105.416 12.642 104.762 12.378 103.934 12.378C103.082 12.378 102.404 12.654 101.9 13.206C101.396 13.746 101.144 14.532 101.144 15.564V21H99.5238V15.42C99.5238 14.436 99.2778 13.686 98.7858 13.17C98.3058 12.642 97.6518 12.378 96.8238 12.378C95.9718 12.378 95.2938 12.654 94.7898 13.206C94.2858 13.746 94.0338 14.532 94.0338 15.564V21H92.3958V11.136H94.0338V12.558C94.3578 12.042 94.7898 11.646 95.3298 11.37C95.8818 11.094 96.4878 10.956 97.1478 10.956C97.9758 10.956 98.7078 11.142 99.3438 11.514C99.9798 11.886 100.454 12.432 100.766 13.152C101.042 12.456 101.498 11.916 102.134 11.532C102.77 11.148 103.478 10.956 104.258 10.956ZM112.579 12.954C112.903 12.39 113.383 11.922 114.019 11.55C114.667 11.166 115.417 10.974 116.269 10.974C117.145 10.974 117.937 11.184 118.645 11.604C119.365 12.024 119.929 12.618 120.337 13.386C120.745 14.142 120.949 15.024 120.949 16.032C120.949 17.028 120.745 17.916 120.337 18.696C119.929 19.476 119.365 20.082 118.645 20.514C117.937 20.946 117.145 21.162 116.269 21.162C115.429 21.162 114.685 20.976 114.037 20.604C113.401 20.22 112.915 19.746 112.579 19.182V25.68H110.941V11.136H112.579V12.954ZM119.275 16.032C119.275 15.288 119.125 14.64 118.825 14.088C118.525 13.536 118.117 13.116 117.601 12.828C117.097 12.54 116.539 12.396 115.927 12.396C115.327 12.396 114.769 12.546 114.253 12.846C113.749 13.134 113.341 13.56 113.029 14.124C112.729 14.676 112.579 15.318 112.579 16.05C112.579 16.794 112.729 17.448 113.029 18.012C113.341 18.564 113.749 18.99 114.253 19.29C114.769 19.578 115.327 19.722 115.927 19.722C116.539 19.722 117.097 19.578 117.601 19.29C118.117 18.99 118.525 18.564 118.825 18.012C119.125 17.448 119.275 16.788 119.275 16.032ZM124.743 7.68V21H123.105V7.68H124.743ZM136.03 11.136L130.09 25.644H128.398L130.342 20.892L126.364 11.136H128.182L131.278 19.128L134.338 11.136H136.03ZM144.114 12.972C144.45 12.384 144.942 11.904 145.59 11.532C146.238 11.16 146.976 10.974 147.804 10.974C148.692 10.974 149.49 11.184 150.198 11.604C150.906 12.024 151.464 12.618 151.872 13.386C152.28 14.142 152.484 15.024 152.484 16.032C152.484 17.028 152.28 17.916 151.872 18.696C151.464 19.476 150.9 20.082 150.18 20.514C149.472 20.946 148.68 21.162 147.804 21.162C146.952 21.162 146.202 20.976 145.554 20.604C144.918 20.232 144.438 19.758 144.114 19.182V21H142.476V7.68H144.114V12.972ZM150.81 16.032C150.81 15.288 150.66 14.64 150.36 14.088C150.06 13.536 149.652 13.116 149.136 12.828C148.632 12.54 148.074 12.396 147.462 12.396C146.862 12.396 146.304 12.546 145.788 12.846C145.284 13.134 144.876 13.56 144.564 14.124C144.264 14.676 144.114 15.318 144.114 16.05C144.114 16.794 144.264 17.448 144.564 18.012C144.876 18.564 145.284 18.99 145.788 19.29C146.304 19.578 146.862 19.722 147.462 19.722C148.074 19.722 148.632 19.578 149.136 19.29C149.652 18.99 150.06 18.564 150.36 18.012C150.66 17.448 150.81 16.788 150.81 16.032ZM158.942 21.162C158.018 21.162 157.178 20.952 156.422 20.532C155.678 20.112 155.09 19.518 154.658 18.75C154.238 17.97 154.028 17.07 154.028 16.05C154.028 15.042 154.244 14.154 154.676 13.386C155.12 12.606 155.72 12.012 156.476 11.604C157.232 11.184 158.078 10.974 159.014 10.974C159.95 10.974 160.796 11.184 161.552 11.604C162.308 12.012 162.902 12.6 163.334 13.368C163.778 14.136 164 15.03 164 16.05C164 17.07 163.772 17.97 163.316 18.75C162.872 19.518 162.266 20.112 161.498 20.532C160.73 20.952 159.878 21.162 158.942 21.162ZM158.942 19.722C159.53 19.722 160.082 19.584 160.598 19.308C161.114 19.032 161.528 18.618 161.84 18.066C162.164 17.514 162.326 16.842 162.326 16.05C162.326 15.258 162.17 14.586 161.858 14.034C161.546 13.482 161.138 13.074 160.634 12.81C160.13 12.534 159.584 12.396 158.996 12.396C158.396 12.396 157.844 12.534 157.34 12.81C156.848 13.074 156.452 13.482 156.152 14.034C155.852 14.586 155.702 15.258 155.702 16.05C155.702 16.854 155.846 17.532 156.134 18.084C156.434 18.636 156.83 19.05 157.322 19.326C157.814 19.59 158.354 19.722 158.942 19.722ZM170.456 21.162C169.532 21.162 168.692 20.952 167.936 20.532C167.192 20.112 166.604 19.518 166.172 18.75C165.752 17.97 165.542 17.07 165.542 16.05C165.542 15.042 165.758 14.154 166.19 13.386C166.634 12.606 167.234 12.012 167.99 11.604C168.746 11.184 169.592 10.974 170.528 10.974C171.464 10.974 172.31 11.184 173.066 11.604C173.822 12.012 174.416 12.6 174.848 13.368C175.292 14.136 175.514 15.03 175.514 16.05C175.514 17.07 175.286 17.97 174.83 18.75C174.386 19.518 173.78 20.112 173.012 20.532C172.244 20.952 171.392 21.162 170.456 21.162ZM170.456 19.722C171.044 19.722 171.596 19.584 172.112 19.308C172.628 19.032 173.042 18.618 173.354 18.066C173.678 17.514 173.84 16.842 173.84 16.05C173.84 15.258 173.684 14.586 173.372 14.034C173.06 13.482 172.652 13.074 172.148 12.81C171.644 12.534 171.098 12.396 170.51 12.396C169.91 12.396 169.358 12.534 168.854 12.81C168.362 13.074 167.966 13.482 167.666 14.034C167.366 14.586 167.216 15.258 167.216 16.05C167.216 16.854 167.36 17.532 167.648 18.084C167.948 18.636 168.344 19.05 168.836 19.326C169.328 19.59 169.868 19.722 170.456 19.722ZM183.175 21L179.305 16.644V21H177.667V7.68H179.305V15.51L183.103 11.136H185.389L180.745 16.05L185.407 21H183.175ZM191.118 16.032C191.118 15.024 191.322 14.142 191.73 13.386C192.138 12.618 192.696 12.024 193.404 11.604C194.124 11.184 194.922 10.974 195.798 10.974C196.662 10.974 197.412 11.16 198.048 11.532C198.684 11.904 199.158 12.372 199.47 12.936V11.136H201.126V21H199.47V19.164C199.146 19.74 198.66 20.22 198.012 20.604C197.376 20.976 196.632 21.162 195.78 21.162C194.904 21.162 194.112 20.946 193.404 20.514C192.696 20.082 192.138 19.476 191.73 18.696C191.322 17.916 191.118 17.028 191.118 16.032ZM199.47 16.05C199.47 15.306 199.32 14.658 199.02 14.106C198.72 13.554 198.312 13.134 197.796 12.846C197.292 12.546 196.734 12.396 196.122 12.396C195.51 12.396 194.952 12.54 194.448 12.828C193.944 13.116 193.542 13.536 193.242 14.088C192.942 14.64 192.792 15.288 192.792 16.032C192.792 16.788 192.942 17.448 193.242 18.012C193.542 18.564 193.944 18.99 194.448 19.29C194.952 19.578 195.51 19.722 196.122 19.722C196.734 19.722 197.292 19.578 197.796 19.29C198.312 18.99 198.72 18.564 199.02 18.012C199.32 17.448 199.47 16.794 199.47 16.05ZM210.691 12.486V18.3C210.691 18.78 210.793 19.122 210.997 19.326C211.201 19.518 211.555 19.614 212.059 19.614H213.265V21H211.789C210.877 21 210.193 20.79 209.737 20.37C209.281 19.95 209.053 19.26 209.053 18.3V12.486H207.775V11.136H209.053V8.652H210.691V11.136H213.265V12.486H210.691ZM216.095 9.534C215.783 9.534 215.519 9.426 215.303 9.21C215.087 8.994 214.979 8.73 214.979 8.418C214.979 8.106 215.087 7.842 215.303 7.626C215.519 7.41 215.783 7.302 216.095 7.302C216.395 7.302 216.647 7.41 216.851 7.626C217.067 7.842 217.175 8.106 217.175 8.418C217.175 8.73 217.067 8.994 216.851 9.21C216.647 9.426 216.395 9.534 216.095 9.534ZM216.887 11.136V21H215.249V11.136H216.887ZM231.541 10.956C232.309 10.956 232.993 11.118 233.593 11.442C234.193 11.754 234.667 12.228 235.015 12.864C235.363 13.5 235.537 14.274 235.537 15.186V21H233.917V15.42C233.917 14.436 233.671 13.686 233.179 13.17C232.699 12.642 232.045 12.378 231.217 12.378C230.365 12.378 229.687 12.654 229.183 13.206C228.679 13.746 228.427 14.532 228.427 15.564V21H226.807V15.42C226.807 14.436 226.561 13.686 226.069 13.17C225.589 12.642 224.935 12.378 224.107 12.378C223.255 12.378 222.577 12.654 222.073 13.206C221.569 13.746 221.317 14.532 221.317 15.564V21H219.679V11.136H221.317V12.558C221.641 12.042 222.073 11.646 222.613 11.37C223.165 11.094 223.771 10.956 224.431 10.956C225.259 10.956 225.991 11.142 226.627 11.514C227.263 11.886 227.737 12.432 228.049 13.152C228.325 12.456 228.781 11.916 229.417 11.532C230.053 11.148 230.761 10.956 231.541 10.956ZM247.224 15.69C247.224 16.002 247.206 16.332 247.17 16.68H239.286C239.346 17.652 239.676 18.414 240.276 18.966C240.888 19.506 241.626 19.776 242.49 19.776C243.198 19.776 243.786 19.614 244.254 19.29C244.734 18.954 245.07 18.51 245.262 17.958H247.026C246.762 18.906 246.234 19.68 245.442 20.28C244.65 20.868 243.666 21.162 242.49 21.162C241.554 21.162 240.714 20.952 239.97 20.532C239.238 20.112 238.662 19.518 238.242 18.75C237.822 17.97 237.612 17.07 237.612 16.05C237.612 15.03 237.816 14.136 238.224 13.368C238.632 12.6 239.202 12.012 239.934 11.604C240.678 11.184 241.53 10.974 242.49 10.974C243.426 10.974 244.254 11.178 244.974 11.586C245.694 11.994 246.246 12.558 246.63 13.278C247.026 13.986 247.224 14.79 247.224 15.69ZM245.532 15.348C245.532 14.724 245.394 14.19 245.118 13.746C244.842 13.29 244.464 12.948 243.984 12.72C243.516 12.48 242.994 12.36 242.418 12.36C241.59 12.36 240.882 12.624 240.294 13.152C239.718 13.68 239.388 14.412 239.304 15.348H245.532ZM32.9908 38.136L29.9128 48H28.2208L25.8448 40.17L23.4688 48H21.7768L18.6808 38.136H20.3548L22.6228 46.416L25.0708 38.136H26.7448L29.1388 46.434L31.3708 38.136H32.9908ZM35.4625 36.534C35.1505 36.534 34.8865 36.426 34.6705 36.21C34.4545 35.994 34.3465 35.73 34.3465 35.418C34.3465 35.106 34.4545 34.842 34.6705 34.626C34.8865 34.41 35.1505 34.302 35.4625 34.302C35.7625 34.302 36.0145 34.41 36.2185 34.626C36.4345 34.842 36.5425 35.106 36.5425 35.418C36.5425 35.73 36.4345 35.994 36.2185 36.21C36.0145 36.426 35.7625 36.534 35.4625 36.534ZM36.2545 38.136V48H34.6165V38.136H36.2545ZM41.0442 39.486V45.3C41.0442 45.78 41.1462 46.122 41.3502 46.326C41.5542 46.518 41.9082 46.614 42.4122 46.614H43.6182V48H42.1422C41.2302 48 40.5462 47.79 40.0902 47.37C39.6342 46.95 39.4062 46.26 39.4062 45.3V39.486H38.1282V38.136H39.4062V35.652H41.0442V38.136H43.6182V39.486H41.0442ZM50.4988 37.956C51.2428 37.956 51.9148 38.118 52.5148 38.442C53.1148 38.754 53.5828 39.228 53.9188 39.864C54.2668 40.5 54.4408 41.274 54.4408 42.186V48H52.8208V42.42C52.8208 41.436 52.5748 40.686 52.0828 40.17C51.5908 39.642 50.9188 39.378 50.0668 39.378C49.2028 39.378 48.5128 39.648 47.9968 40.188C47.4928 40.728 47.2408 41.514 47.2408 42.546V48H45.6028V34.68H47.2408V39.54C47.5648 39.036 48.0088 38.646 48.5728 38.37C49.1488 38.094 49.7908 37.956 50.4988 37.956ZM63.9133 39.486V45.3C63.9133 45.78 64.0153 46.122 64.2193 46.326C64.4233 46.518 64.7773 46.614 65.2813 46.614H66.4873V48H65.0113C64.0993 48 63.4153 47.79 62.9593 47.37C62.5033 46.95 62.2753 46.26 62.2753 45.3V39.486H60.9973V38.136H62.2753V35.652H63.9133V38.136H66.4873V39.486H63.9133ZM73.3679 37.956C74.1119 37.956 74.7839 38.118 75.3839 38.442C75.9839 38.754 76.4519 39.228 76.7879 39.864C77.1359 40.5 77.3099 41.274 77.3099 42.186V48H75.6899V42.42C75.6899 41.436 75.4439 40.686 74.9519 40.17C74.4599 39.642 73.7879 39.378 72.9359 39.378C72.0719 39.378 71.3819 39.648 70.8659 40.188C70.3619 40.728 70.1099 41.514 70.1099 42.546V48H68.4719V34.68H70.1099V39.54C70.4339 39.036 70.8779 38.646 71.4419 38.37C72.0179 38.094 72.6599 37.956 73.3679 37.956ZM88.9856 42.69C88.9856 43.002 88.9676 43.332 88.9316 43.68H81.0476C81.1076 44.652 81.4376 45.414 82.0376 45.966C82.6496 46.506 83.3876 46.776 84.2516 46.776C84.9596 46.776 85.5476 46.614 86.0156 46.29C86.4956 45.954 86.8316 45.51 87.0236 44.958H88.7876C88.5236 45.906 87.9956 46.68 87.2036 47.28C86.4116 47.868 85.4276 48.162 84.2516 48.162C83.3156 48.162 82.4756 47.952 81.7316 47.532C80.9996 47.112 80.4236 46.518 80.0036 45.75C79.5836 44.97 79.3736 44.07 79.3736 43.05C79.3736 42.03 79.5776 41.136 79.9856 40.368C80.3936 39.6 80.9636 39.012 81.6956 38.604C82.4396 38.184 83.2916 37.974 84.2516 37.974C85.1876 37.974 86.0156 38.178 86.7356 38.586C87.4556 38.994 88.0076 39.558 88.3916 40.278C88.7876 40.986 88.9856 41.79 88.9856 42.69ZM87.2936 42.348C87.2936 41.724 87.1556 41.19 86.8796 40.746C86.6036 40.29 86.2256 39.948 85.7456 39.72C85.2776 39.48 84.7556 39.36 84.1796 39.36C83.3516 39.36 82.6436 39.624 82.0556 40.152C81.4796 40.68 81.1496 41.412 81.0656 42.348H87.2936ZM99.4385 48.162C98.6825 48.162 98.0045 48.036 97.4045 47.784C96.8045 47.52 96.3305 47.16 95.9825 46.704C95.6345 46.236 95.4425 45.702 95.4065 45.102H97.0985C97.1465 45.594 97.3745 45.996 97.7825 46.308C98.2025 46.62 98.7485 46.776 99.4205 46.776C100.045 46.776 100.537 46.638 100.897 46.362C101.257 46.086 101.437 45.738 101.437 45.318C101.437 44.886 101.245 44.568 100.861 44.364C100.477 44.148 99.8825 43.938 99.0785 43.734C98.3465 43.542 97.7465 43.35 97.2785 43.158C96.8225 42.954 96.4265 42.66 96.0905 42.276C95.7665 41.88 95.6045 41.364 95.6045 40.728C95.6045 40.224 95.7545 39.762 96.0545 39.342C96.3545 38.922 96.7805 38.592 97.3325 38.352C97.8845 38.1 98.5145 37.974 99.2225 37.974C100.315 37.974 101.197 38.25 101.869 38.802C102.541 39.354 102.901 40.11 102.949 41.07H101.311C101.275 40.554 101.065 40.14 100.681 39.828C100.309 39.516 99.8045 39.36 99.1685 39.36C98.5805 39.36 98.1125 39.486 97.7645 39.738C97.4165 39.99 97.2425 40.32 97.2425 40.728C97.2425 41.052 97.3445 41.322 97.5485 41.538C97.7645 41.742 98.0285 41.91 98.3405 42.042C98.6645 42.162 99.1085 42.3 99.6725 42.456C100.381 42.648 100.957 42.84 101.401 43.032C101.845 43.212 102.223 43.488 102.535 43.86C102.859 44.232 103.027 44.718 103.039 45.318C103.039 45.858 102.889 46.344 102.589 46.776C102.289 47.208 101.863 47.55 101.311 47.802C100.771 48.042 100.147 48.162 99.4385 48.162ZM104.739 43.05C104.739 42.03 104.943 41.142 105.351 40.386C105.759 39.618 106.323 39.024 107.043 38.604C107.775 38.184 108.609 37.974 109.545 37.974C110.757 37.974 111.753 38.268 112.533 38.856C113.325 39.444 113.847 40.26 114.099 41.304H112.335C112.167 40.704 111.837 40.23 111.345 39.882C110.865 39.534 110.265 39.36 109.545 39.36C108.609 39.36 107.853 39.684 107.277 40.332C106.701 40.968 106.413 41.874 106.413 43.05C106.413 44.238 106.701 45.156 107.277 45.804C107.853 46.452 108.609 46.776 109.545 46.776C110.265 46.776 110.865 46.608 111.345 46.272C111.825 45.936 112.155 45.456 112.335 44.832H114.099C113.835 45.84 113.307 46.65 112.515 47.262C111.723 47.862 110.733 48.162 109.545 48.162C108.609 48.162 107.775 47.952 107.043 47.532C106.323 47.112 105.759 46.518 105.351 45.75C104.943 44.982 104.739 44.082 104.739 43.05ZM121.18 37.956C121.924 37.956 122.596 38.118 123.196 38.442C123.796 38.754 124.264 39.228 124.6 39.864C124.948 40.5 125.122 41.274 125.122 42.186V48H123.502V42.42C123.502 41.436 123.256 40.686 122.764 40.17C122.272 39.642 121.6 39.378 120.748 39.378C119.884 39.378 119.194 39.648 118.678 40.188C118.174 40.728 117.922 41.514 117.922 42.546V48H116.284V34.68H117.922V39.54C118.246 39.036 118.69 38.646 119.254 38.37C119.83 38.094 120.472 37.956 121.18 37.956ZM136.798 42.69C136.798 43.002 136.78 43.332 136.744 43.68H128.86C128.92 44.652 129.25 45.414 129.85 45.966C130.462 46.506 131.2 46.776 132.064 46.776C132.772 46.776 133.36 46.614 133.828 46.29C134.308 45.954 134.644 45.51 134.836 44.958H136.6C136.336 45.906 135.808 46.68 135.016 47.28C134.224 47.868 133.24 48.162 132.064 48.162C131.128 48.162 130.288 47.952 129.544 47.532C128.812 47.112 128.236 46.518 127.816 45.75C127.396 44.97 127.186 44.07 127.186 43.05C127.186 42.03 127.39 41.136 127.798 40.368C128.206 39.6 128.776 39.012 129.508 38.604C130.252 38.184 131.104 37.974 132.064 37.974C133 37.974 133.828 38.178 134.548 38.586C135.268 38.994 135.82 39.558 136.204 40.278C136.6 40.986 136.798 41.79 136.798 42.69ZM135.106 42.348C135.106 41.724 134.968 41.19 134.692 40.746C134.416 40.29 134.038 39.948 133.558 39.72C133.09 39.48 132.568 39.36 131.992 39.36C131.164 39.36 130.456 39.624 129.868 40.152C129.292 40.68 128.962 41.412 128.878 42.348H135.106ZM138.348 43.032C138.348 42.024 138.552 41.142 138.96 40.386C139.368 39.618 139.926 39.024 140.634 38.604C141.354 38.184 142.158 37.974 143.046 37.974C143.814 37.974 144.528 38.154 145.188 38.514C145.848 38.862 146.352 39.324 146.7 39.9V34.68H148.356V48H146.7V46.146C146.376 46.734 145.896 47.22 145.26 47.604C144.624 47.976 143.88 48.162 143.028 48.162C142.152 48.162 141.354 47.946 140.634 47.514C139.926 47.082 139.368 46.476 138.96 45.696C138.552 44.916 138.348 44.028 138.348 43.032ZM146.7 43.05C146.7 42.306 146.55 41.658 146.25 41.106C145.95 40.554 145.542 40.134 145.026 39.846C144.522 39.546 143.964 39.396 143.352 39.396C142.74 39.396 142.182 39.54 141.678 39.828C141.174 40.116 140.772 40.536 140.472 41.088C140.172 41.64 140.022 42.288 140.022 43.032C140.022 43.788 140.172 44.448 140.472 45.012C140.772 45.564 141.174 45.99 141.678 46.29C142.182 46.578 142.74 46.722 143.352 46.722C143.964 46.722 144.522 46.578 145.026 46.29C145.542 45.99 145.95 45.564 146.25 45.012C146.55 44.448 146.7 43.794 146.7 43.05ZM159.872 38.136V48H158.234V46.542C157.922 47.046 157.484 47.442 156.92 47.73C156.368 48.006 155.756 48.144 155.084 48.144C154.316 48.144 153.626 47.988 153.014 47.676C152.402 47.352 151.916 46.872 151.556 46.236C151.208 45.6 151.034 44.826 151.034 43.914V38.136H152.654V43.698C152.654 44.67 152.9 45.42 153.392 45.948C153.884 46.464 154.556 46.722 155.408 46.722C156.284 46.722 156.974 46.452 157.478 45.912C157.982 45.372 158.234 44.586 158.234 43.554V38.136H159.872ZM164.276 34.68V48H162.638V34.68H164.276ZM176.068 42.69C176.068 43.002 176.05 43.332 176.014 43.68H168.13C168.19 44.652 168.52 45.414 169.12 45.966C169.732 46.506 170.47 46.776 171.334 46.776C172.042 46.776 172.63 46.614 173.098 46.29C173.578 45.954 173.914 45.51 174.106 44.958H175.87C175.606 45.906 175.078 46.68 174.286 47.28C173.494 47.868 172.51 48.162 171.334 48.162C170.398 48.162 169.558 47.952 168.814 47.532C168.082 47.112 167.506 46.518 167.086 45.75C166.666 44.97 166.456 44.07 166.456 43.05C166.456 42.03 166.66 41.136 167.068 40.368C167.476 39.6 168.046 39.012 168.778 38.604C169.522 38.184 170.374 37.974 171.334 37.974C172.27 37.974 173.098 38.178 173.818 38.586C174.538 38.994 175.09 39.558 175.474 40.278C175.87 40.986 176.068 41.79 176.068 42.69ZM174.376 42.348C174.376 41.724 174.238 41.19 173.962 40.746C173.686 40.29 173.308 39.948 172.828 39.72C172.36 39.48 171.838 39.36 171.262 39.36C170.434 39.36 169.726 39.624 169.138 40.152C168.562 40.68 168.232 41.412 168.148 42.348H174.376ZM177.618 43.032C177.618 42.024 177.822 41.142 178.23 40.386C178.638 39.618 179.196 39.024 179.904 38.604C180.624 38.184 181.428 37.974 182.316 37.974C183.084 37.974 183.798 38.154 184.458 38.514C185.118 38.862 185.622 39.324 185.97 39.9V34.68H187.626V48H185.97V46.146C185.646 46.734 185.166 47.22 184.53 47.604C183.894 47.976 183.15 48.162 182.298 48.162C181.422 48.162 180.624 47.946 179.904 47.514C179.196 47.082 178.638 46.476 178.23 45.696C177.822 44.916 177.618 44.028 177.618 43.032ZM185.97 43.05C185.97 42.306 185.82 41.658 185.52 41.106C185.22 40.554 184.812 40.134 184.296 39.846C183.792 39.546 183.234 39.396 182.622 39.396C182.01 39.396 181.452 39.54 180.948 39.828C180.444 40.116 180.042 40.536 179.742 41.088C179.442 41.64 179.292 42.288 179.292 43.032C179.292 43.788 179.442 44.448 179.742 45.012C180.042 45.564 180.444 45.99 180.948 46.29C181.452 46.578 182.01 46.722 182.622 46.722C183.234 46.722 183.792 46.578 184.296 46.29C184.812 45.99 185.22 45.564 185.52 45.012C185.82 44.448 185.97 43.794 185.97 43.05ZM201.799 48L198.811 42.87H196.831V48H195.193V35.454H199.243C200.191 35.454 200.989 35.616 201.637 35.94C202.297 36.264 202.789 36.702 203.113 37.254C203.437 37.806 203.599 38.436 203.599 39.144C203.599 40.008 203.347 40.77 202.843 41.43C202.351 42.09 201.607 42.528 200.611 42.744L203.761 48H201.799ZM196.831 41.556H199.243C200.131 41.556 200.797 41.34 201.241 40.908C201.685 40.464 201.907 39.876 201.907 39.144C201.907 38.4 201.685 37.824 201.241 37.416C200.809 37.008 200.143 36.804 199.243 36.804H196.831V41.556ZM215.144 42.69C215.144 43.002 215.126 43.332 215.09 43.68H207.206C207.266 44.652 207.596 45.414 208.196 45.966C208.808 46.506 209.546 46.776 210.41 46.776C211.118 46.776 211.706 46.614 212.174 46.29C212.654 45.954 212.99 45.51 213.182 44.958H214.946C214.682 45.906 214.154 46.68 213.362 47.28C212.57 47.868 211.586 48.162 210.41 48.162C209.474 48.162 208.634 47.952 207.89 47.532C207.158 47.112 206.582 46.518 206.162 45.75C205.742 44.97 205.532 44.07 205.532 43.05C205.532 42.03 205.736 41.136 206.144 40.368C206.552 39.6 207.122 39.012 207.854 38.604C208.598 38.184 209.45 37.974 210.41 37.974C211.346 37.974 212.174 38.178 212.894 38.586C213.614 38.994 214.166 39.558 214.55 40.278C214.946 40.986 215.144 41.79 215.144 42.69ZM213.452 42.348C213.452 41.724 213.314 41.19 213.038 40.746C212.762 40.29 212.384 39.948 211.904 39.72C211.436 39.48 210.914 39.36 210.338 39.36C209.51 39.36 208.802 39.624 208.214 40.152C207.638 40.68 207.308 41.412 207.224 42.348H213.452ZM226.054 38.136V48H224.416V46.542C224.104 47.046 223.666 47.442 223.102 47.73C222.55 48.006 221.938 48.144 221.266 48.144C220.498 48.144 219.808 47.988 219.196 47.676C218.584 47.352 218.098 46.872 217.738 46.236C217.39 45.6 217.216 44.826 217.216 43.914V38.136H218.836V43.698C218.836 44.67 219.082 45.42 219.574 45.948C220.066 46.464 220.738 46.722 221.59 46.722C222.466 46.722 223.156 46.452 223.66 45.912C224.164 45.372 224.416 44.586 224.416 43.554V38.136H226.054ZM232.312 48.162C231.556 48.162 230.878 48.036 230.278 47.784C229.678 47.52 229.204 47.16 228.856 46.704C228.508 46.236 228.316 45.702 228.28 45.102H229.972C230.02 45.594 230.248 45.996 230.656 46.308C231.076 46.62 231.622 46.776 232.294 46.776C232.918 46.776 233.41 46.638 233.77 46.362C234.13 46.086 234.31 45.738 234.31 45.318C234.31 44.886 234.118 44.568 233.734 44.364C233.35 44.148 232.756 43.938 231.952 43.734C231.22 43.542 230.62 43.35 230.152 43.158C229.696 42.954 229.3 42.66 228.964 42.276C228.64 41.88 228.478 41.364 228.478 40.728C228.478 40.224 228.628 39.762 228.928 39.342C229.228 38.922 229.654 38.592 230.206 38.352C230.758 38.1 231.388 37.974 232.096 37.974C233.188 37.974 234.07 38.25 234.742 38.802C235.414 39.354 235.774 40.11 235.822 41.07H234.184C234.148 40.554 233.938 40.14 233.554 39.828C233.182 39.516 232.678 39.36 232.042 39.36C231.454 39.36 230.986 39.486 230.638 39.738C230.29 39.99 230.116 40.32 230.116 40.728C230.116 41.052 230.218 41.322 230.422 41.538C230.638 41.742 230.902 41.91 231.214 42.042C231.538 42.162 231.982 42.3 232.546 42.456C233.254 42.648 233.83 42.84 234.274 43.032C234.718 43.212 235.096 43.488 235.408 43.86C235.732 44.232 235.9 44.718 235.912 45.318C235.912 45.858 235.762 46.344 235.462 46.776C235.162 47.208 234.736 47.55 234.184 47.802C233.644 48.042 233.02 48.162 232.312 48.162ZM247.224 42.69C247.224 43.002 247.206 43.332 247.17 43.68H239.286C239.346 44.652 239.676 45.414 240.276 45.966C240.888 46.506 241.626 46.776 242.49 46.776C243.198 46.776 243.786 46.614 244.254 46.29C244.734 45.954 245.07 45.51 245.262 44.958H247.026C246.762 45.906 246.234 46.68 245.442 47.28C244.65 47.868 243.666 48.162 242.49 48.162C241.554 48.162 240.714 47.952 239.97 47.532C239.238 47.112 238.662 46.518 238.242 45.75C237.822 44.97 237.612 44.07 237.612 43.05C237.612 42.03 237.816 41.136 238.224 40.368C238.632 39.6 239.202 39.012 239.934 38.604C240.678 38.184 241.53 37.974 242.49 37.974C243.426 37.974 244.254 38.178 244.974 38.586C245.694 38.994 246.246 39.558 246.63 40.278C247.026 40.986 247.224 41.79 247.224 42.69ZM245.532 42.348C245.532 41.724 245.394 41.19 245.118 40.746C244.842 40.29 244.464 39.948 243.984 39.72C243.516 39.48 242.994 39.36 242.418 39.36C241.59 39.36 240.882 39.624 240.294 40.152C239.718 40.68 239.388 41.412 239.304 42.348H245.532ZM142.075 66.954C142.399 66.39 142.879 65.922 143.515 65.55C144.163 65.166 144.913 64.974 145.765 64.974C146.641 64.974 147.433 65.184 148.141 65.604C148.861 66.024 149.425 66.618 149.833 67.386C150.241 68.142 150.445 69.024 150.445 70.032C150.445 71.028 150.241 71.916 149.833 72.696C149.425 73.476 148.861 74.082 148.141 74.514C147.433 74.946 146.641 75.162 145.765 75.162C144.925 75.162 144.181 74.976 143.533 74.604C142.897 74.22 142.411 73.746 142.075 73.182V79.68H140.437V65.136H142.075V66.954ZM148.771 70.032C148.771 69.288 148.621 68.64 148.321 68.088C148.021 67.536 147.613 67.116 147.097 66.828C146.593 66.54 146.035 66.396 145.423 66.396C144.823 66.396 144.265 66.546 143.749 66.846C143.245 67.134 142.837 67.56 142.525 68.124C142.225 68.676 142.075 69.318 142.075 70.05C142.075 70.794 142.225 71.448 142.525 72.012C142.837 72.564 143.245 72.99 143.749 73.29C144.265 73.578 144.823 73.722 145.423 73.722C146.035 73.722 146.593 73.578 147.097 73.29C147.613 72.99 148.021 72.564 148.321 72.012C148.621 71.448 148.771 70.788 148.771 70.032ZM153.447 63.534C153.135 63.534 152.871 63.426 152.655 63.21C152.439 62.994 152.331 62.73 152.331 62.418C152.331 62.106 152.439 61.842 152.655 61.626C152.871 61.41 153.135 61.302 153.447 61.302C153.747 61.302 153.999 61.41 154.203 61.626C154.419 61.842 154.527 62.106 154.527 62.418C154.527 62.73 154.419 62.994 154.203 63.21C153.999 63.426 153.747 63.534 153.447 63.534ZM154.239 65.136V75H152.601V65.136H154.239ZM156.419 70.05C156.419 69.03 156.623 68.142 157.031 67.386C157.439 66.618 158.003 66.024 158.723 65.604C159.455 65.184 160.289 64.974 161.225 64.974C162.437 64.974 163.433 65.268 164.213 65.856C165.005 66.444 165.527 67.26 165.779 68.304H164.015C163.847 67.704 163.517 67.23 163.025 66.882C162.545 66.534 161.945 66.36 161.225 66.36C160.289 66.36 159.533 66.684 158.957 67.332C158.381 67.968 158.093 68.874 158.093 70.05C158.093 71.238 158.381 72.156 158.957 72.804C159.533 73.452 160.289 73.776 161.225 73.776C161.945 73.776 162.545 73.608 163.025 73.272C163.505 72.936 163.835 72.456 164.015 71.832H165.779C165.515 72.84 164.987 73.65 164.195 74.262C163.403 74.862 162.413 75.162 161.225 75.162C160.289 75.162 159.455 74.952 158.723 74.532C158.003 74.112 157.439 73.518 157.031 72.75C156.623 71.982 156.419 71.082 156.419 70.05ZM173.472 75L169.602 70.644V75H167.964V61.68H169.602V69.51L173.4 65.136H175.686L171.042 70.05L175.704 75H173.472ZM184.068 67.71V69.096H176.886V67.71H184.068ZM195.89 65.136V75H194.252V73.542C193.94 74.046 193.502 74.442 192.938 74.73C192.386 75.006 191.774 75.144 191.102 75.144C190.334 75.144 189.644 74.988 189.032 74.676C188.42 74.352 187.934 73.872 187.574 73.236C187.226 72.6 187.052 71.826 187.052 70.914V65.136H188.672V70.698C188.672 71.67 188.918 72.42 189.41 72.948C189.902 73.464 190.574 73.722 191.426 73.722C192.302 73.722 192.992 73.452 193.496 72.912C194 72.372 194.252 71.586 194.252 70.554V65.136H195.89ZM200.294 66.954C200.618 66.39 201.098 65.922 201.734 65.55C202.382 65.166 203.132 64.974 203.984 64.974C204.86 64.974 205.652 65.184 206.36 65.604C207.08 66.024 207.644 66.618 208.052 67.386C208.46 68.142 208.664 69.024 208.664 70.032C208.664 71.028 208.46 71.916 208.052 72.696C207.644 73.476 207.08 74.082 206.36 74.514C205.652 74.946 204.86 75.162 203.984 75.162C203.144 75.162 202.4 74.976 201.752 74.604C201.116 74.22 200.63 73.746 200.294 73.182V79.68H198.656V65.136H200.294V66.954ZM206.99 70.032C206.99 69.288 206.84 68.64 206.54 68.088C206.24 67.536 205.832 67.116 205.316 66.828C204.812 66.54 204.254 66.396 203.642 66.396C203.042 66.396 202.484 66.546 201.968 66.846C201.464 67.134 201.056 67.56 200.744 68.124C200.444 68.676 200.294 69.318 200.294 70.05C200.294 70.794 200.444 71.448 200.744 72.012C201.056 72.564 201.464 72.99 201.968 73.29C202.484 73.578 203.042 73.722 203.642 73.722C204.254 73.722 204.812 73.578 205.316 73.29C205.832 72.99 206.24 72.564 206.54 72.012C206.84 71.448 206.99 70.788 206.99 70.032ZM219.29 73.488L222.35 65.136H224.096L220.226 75H218.318L214.448 65.136H216.212L219.29 73.488ZM225.096 70.032C225.096 69.024 225.3 68.142 225.708 67.386C226.116 66.618 226.674 66.024 227.382 65.604C228.102 65.184 228.9 64.974 229.776 64.974C230.64 64.974 231.39 65.16 232.026 65.532C232.662 65.904 233.136 66.372 233.448 66.936V65.136H235.104V75H233.448V73.164C233.124 73.74 232.638 74.22 231.99 74.604C231.354 74.976 230.61 75.162 229.758 75.162C228.882 75.162 228.09 74.946 227.382 74.514C226.674 74.082 226.116 73.476 225.708 72.696C225.3 71.916 225.096 71.028 225.096 70.032ZM233.448 70.05C233.448 69.306 233.298 68.658 232.998 68.106C232.698 67.554 232.29 67.134 231.774 66.846C231.27 66.546 230.712 66.396 230.1 66.396C229.488 66.396 228.93 66.54 228.426 66.828C227.922 67.116 227.52 67.536 227.22 68.088C226.92 68.64 226.77 69.288 226.77 70.032C226.77 70.788 226.92 71.448 227.22 72.012C227.52 72.564 227.922 72.99 228.426 73.29C228.93 73.578 229.488 73.722 230.1 73.722C230.712 73.722 231.27 73.578 231.774 73.29C232.29 72.99 232.698 72.564 232.998 72.012C233.298 71.448 233.448 70.794 233.448 70.05ZM242.678 64.956C243.878 64.956 244.85 65.322 245.594 66.054C246.338 66.774 246.71 67.818 246.71 69.186V75H245.09V69.42C245.09 68.436 244.844 67.686 244.352 67.17C243.86 66.642 243.188 66.378 242.336 66.378C241.472 66.378 240.782 66.648 240.266 67.188C239.762 67.728 239.51 68.514 239.51 69.546V75H237.872V65.136H239.51V66.54C239.834 66.036 240.272 65.646 240.824 65.37C241.388 65.094 242.006 64.956 242.678 64.956Z" fill="white"/>
</svg>
