<svg width="238" height="66" viewBox="0 0 238 66" fill="none" xmlns="http://www.w3.org/2000/svg">
<path fill-rule="evenodd" clip-rule="evenodd" d="M21.5782 0C11.9132 0 4.0782 7.83502 4.0782 17.5V48.0304C4.02457 50.4821 3.93437 52.8055 3.78853 54.609C3.36973 59.788 1.18008 63.5935 0.0924716 65.1953C-0.143018 65.5422 0.0981403 66.0056 0.512753 65.9437C2.23493 65.6864 5.82986 64.6878 9.15668 60.827C12.3272 64.0217 16.7217 66 21.5782 66H219.825C229.49 66 237.325 58.165 237.325 48.5V17.5C237.325 7.83502 229.49 0 219.825 0L21.5782 0Z" fill="#19C3AB"/>
<path d="M35.89 18.09C35.542 17.358 35.038 16.794 34.378 16.398C33.718 15.99 32.95 15.786 32.074 15.786C31.198 15.786 30.406 15.99 29.698 16.398C29.002 16.794 28.45 17.37 28.042 18.126C27.646 18.87 27.448 19.734 27.448 20.718C27.448 21.702 27.646 22.566 28.042 23.31C28.45 24.054 29.002 24.63 29.698 25.038C30.406 25.434 31.198 25.632 32.074 25.632C33.298 25.632 34.306 25.266 35.098 24.534C35.89 23.802 36.352 22.812 36.484 21.564H31.48V20.232H38.23V21.492C38.134 22.524 37.81 23.472 37.258 24.336C36.706 25.188 35.98 25.866 35.08 26.37C34.18 26.862 33.178 27.108 32.074 27.108C30.91 27.108 29.848 26.838 28.888 26.298C27.928 25.746 27.166 24.984 26.602 24.012C26.05 23.04 25.774 21.942 25.774 20.718C25.774 19.494 26.05 18.396 26.602 17.424C27.166 16.44 27.928 15.678 28.888 15.138C29.848 14.586 30.91 14.31 32.074 14.31C33.406 14.31 34.582 14.64 35.602 15.3C36.634 15.96 37.384 16.89 37.852 18.09H35.89ZM49.3958 21.69C49.3958 22.002 49.3778 22.332 49.3418 22.68H41.4578C41.5178 23.652 41.8478 24.414 42.4478 24.966C43.0598 25.506 43.7978 25.776 44.6618 25.776C45.3698 25.776 45.9578 25.614 46.4258 25.29C46.9058 24.954 47.2418 24.51 47.4338 23.958H49.1978C48.9338 24.906 48.4058 25.68 47.6138 26.28C46.8218 26.868 45.8378 27.162 44.6618 27.162C43.7258 27.162 42.8858 26.952 42.1418 26.532C41.4098 26.112 40.8338 25.518 40.4138 24.75C39.9938 23.97 39.7838 23.07 39.7838 22.05C39.7838 21.03 39.9878 20.136 40.3958 19.368C40.8038 18.6 41.3738 18.012 42.1058 17.604C42.8498 17.184 43.7018 16.974 44.6618 16.974C45.5978 16.974 46.4258 17.178 47.1458 17.586C47.8658 17.994 48.4178 18.558 48.8018 19.278C49.1978 19.986 49.3958 20.79 49.3958 21.69ZM47.7038 21.348C47.7038 20.724 47.5658 20.19 47.2898 19.746C47.0138 19.29 46.6358 18.948 46.1558 18.72C45.6878 18.48 45.1658 18.36 44.5898 18.36C43.7618 18.36 43.0538 18.624 42.4658 19.152C41.8898 19.68 41.5598 20.412 41.4758 21.348H47.7038ZM53.5559 18.486V24.3C53.5559 24.78 53.6579 25.122 53.8619 25.326C54.0659 25.518 54.4199 25.614 54.9239 25.614H56.1299V27H54.6539C53.7419 27 53.0579 26.79 52.6019 26.37C52.1459 25.95 51.9179 25.26 51.9179 24.3V18.486H50.6399V17.136H51.9179V14.652H53.5559V17.136H56.1299V18.486H53.5559ZM64.9113 18.486V24.3C64.9113 24.78 65.0133 25.122 65.2173 25.326C65.4213 25.518 65.7753 25.614 66.2793 25.614H67.4853V27H66.0093C65.0973 27 64.4133 26.79 63.9573 26.37C63.5013 25.95 63.2733 25.26 63.2733 24.3V18.486H61.9953V17.136H63.2733V14.652H64.9113V17.136H67.4853V18.486H64.9113ZM74.366 16.956C75.11 16.956 75.782 17.118 76.382 17.442C76.982 17.754 77.45 18.228 77.786 18.864C78.134 19.5 78.308 20.274 78.308 21.186V27H76.688V21.42C76.688 20.436 76.442 19.686 75.95 19.17C75.458 18.642 74.786 18.378 73.934 18.378C73.07 18.378 72.38 18.648 71.864 19.188C71.36 19.728 71.108 20.514 71.108 21.546V27H69.47V13.68H71.108V18.54C71.432 18.036 71.876 17.646 72.44 17.37C73.016 17.094 73.658 16.956 74.366 16.956ZM89.9837 21.69C89.9837 22.002 89.9657 22.332 89.9297 22.68H82.0457C82.1057 23.652 82.4357 24.414 83.0357 24.966C83.6477 25.506 84.3857 25.776 85.2497 25.776C85.9577 25.776 86.5457 25.614 87.0137 25.29C87.4937 24.954 87.8297 24.51 88.0217 23.958H89.7857C89.5217 24.906 88.9937 25.68 88.2017 26.28C87.4097 26.868 86.4257 27.162 85.2497 27.162C84.3137 27.162 83.4737 26.952 82.7297 26.532C81.9977 26.112 81.4217 25.518 81.0017 24.75C80.5817 23.97 80.3717 23.07 80.3717 22.05C80.3717 21.03 80.5757 20.136 80.9837 19.368C81.3917 18.6 81.9617 18.012 82.6937 17.604C83.4377 17.184 84.2897 16.974 85.2497 16.974C86.1857 16.974 87.0137 17.178 87.7337 17.586C88.4537 17.994 89.0057 18.558 89.3897 19.278C89.7857 19.986 89.9837 20.79 89.9837 21.69ZM88.2917 21.348C88.2917 20.724 88.1537 20.19 87.8777 19.746C87.6017 19.29 87.2237 18.948 86.7437 18.72C86.2757 18.48 85.7537 18.36 85.1777 18.36C84.3497 18.36 83.6417 18.624 83.0537 19.152C82.4777 19.68 82.1477 20.412 82.0637 21.348H88.2917ZM101.841 16.956C102.585 16.956 103.257 17.118 103.857 17.442C104.457 17.754 104.925 18.228 105.261 18.864C105.609 19.5 105.783 20.274 105.783 21.186V27H104.163V21.42C104.163 20.436 103.917 19.686 103.425 19.17C102.933 18.642 102.261 18.378 101.409 18.378C100.545 18.378 99.8546 18.648 99.3386 19.188C98.8346 19.728 98.5826 20.514 98.5826 21.546V27H96.9446V13.68H98.5826V18.54C98.9066 18.036 99.3506 17.646 99.9146 17.37C100.491 17.094 101.133 16.956 101.841 16.956ZM117.458 21.69C117.458 22.002 117.44 22.332 117.404 22.68H109.52C109.58 23.652 109.91 24.414 110.51 24.966C111.122 25.506 111.86 25.776 112.724 25.776C113.432 25.776 114.02 25.614 114.488 25.29C114.968 24.954 115.304 24.51 115.496 23.958H117.26C116.996 24.906 116.468 25.68 115.676 26.28C114.884 26.868 113.9 27.162 112.724 27.162C111.788 27.162 110.948 26.952 110.204 26.532C109.472 26.112 108.896 25.518 108.476 24.75C108.056 23.97 107.846 23.07 107.846 22.05C107.846 21.03 108.05 20.136 108.458 19.368C108.866 18.6 109.436 18.012 110.168 17.604C110.912 17.184 111.764 16.974 112.724 16.974C113.66 16.974 114.488 17.178 115.208 17.586C115.928 17.994 116.48 18.558 116.864 19.278C117.26 19.986 117.458 20.79 117.458 21.69ZM115.766 21.348C115.766 20.724 115.628 20.19 115.352 19.746C115.076 19.29 114.698 18.948 114.218 18.72C113.75 18.48 113.228 18.36 112.652 18.36C111.824 18.36 111.116 18.624 110.528 19.152C109.952 19.68 109.622 20.412 109.538 21.348H115.766ZM121.258 13.68V27H119.62V13.68H121.258ZM125.688 18.954C126.012 18.39 126.492 17.922 127.128 17.55C127.776 17.166 128.526 16.974 129.378 16.974C130.254 16.974 131.046 17.184 131.754 17.604C132.474 18.024 133.038 18.618 133.446 19.386C133.854 20.142 134.058 21.024 134.058 22.032C134.058 23.028 133.854 23.916 133.446 24.696C133.038 25.476 132.474 26.082 131.754 26.514C131.046 26.946 130.254 27.162 129.378 27.162C128.538 27.162 127.794 26.976 127.146 26.604C126.51 26.22 126.024 25.746 125.688 25.182V31.68H124.05V17.136H125.688V18.954ZM132.384 22.032C132.384 21.288 132.234 20.64 131.934 20.088C131.634 19.536 131.226 19.116 130.71 18.828C130.206 18.54 129.648 18.396 129.036 18.396C128.436 18.396 127.878 18.546 127.362 18.846C126.858 19.134 126.45 19.56 126.138 20.124C125.838 20.676 125.688 21.318 125.688 22.05C125.688 22.794 125.838 23.448 126.138 24.012C126.45 24.564 126.858 24.99 127.362 25.29C127.878 25.578 128.436 25.722 129.036 25.722C129.648 25.722 130.206 25.578 130.71 25.29C131.226 24.99 131.634 24.564 131.934 24.012C132.234 23.448 132.384 22.788 132.384 22.032ZM149.509 17.136L143.569 31.644H141.877L143.821 26.892L139.843 17.136H141.661L144.757 25.128L147.817 17.136H149.509ZM155.458 27.162C154.534 27.162 153.694 26.952 152.938 26.532C152.194 26.112 151.606 25.518 151.174 24.75C150.754 23.97 150.544 23.07 150.544 22.05C150.544 21.042 150.76 20.154 151.192 19.386C151.636 18.606 152.236 18.012 152.992 17.604C153.748 17.184 154.594 16.974 155.53 16.974C156.466 16.974 157.312 17.184 158.068 17.604C158.824 18.012 159.418 18.6 159.85 19.368C160.294 20.136 160.516 21.03 160.516 22.05C160.516 23.07 160.288 23.97 159.832 24.75C159.388 25.518 158.782 26.112 158.014 26.532C157.246 26.952 156.394 27.162 155.458 27.162ZM155.458 25.722C156.046 25.722 156.598 25.584 157.114 25.308C157.63 25.032 158.044 24.618 158.356 24.066C158.68 23.514 158.842 22.842 158.842 22.05C158.842 21.258 158.686 20.586 158.374 20.034C158.062 19.482 157.654 19.074 157.15 18.81C156.646 18.534 156.1 18.396 155.512 18.396C154.912 18.396 154.36 18.534 153.856 18.81C153.364 19.074 152.968 19.482 152.668 20.034C152.368 20.586 152.218 21.258 152.218 22.05C152.218 22.854 152.362 23.532 152.65 24.084C152.95 24.636 153.346 25.05 153.838 25.326C154.33 25.59 154.87 25.722 155.458 25.722ZM171.417 17.136V27H169.779V25.542C169.467 26.046 169.029 26.442 168.465 26.73C167.913 27.006 167.301 27.144 166.629 27.144C165.861 27.144 165.171 26.988 164.559 26.676C163.947 26.352 163.461 25.872 163.101 25.236C162.753 24.6 162.579 23.826 162.579 22.914V17.136H164.199V22.698C164.199 23.67 164.445 24.42 164.937 24.948C165.429 25.464 166.101 25.722 166.953 25.722C167.829 25.722 168.519 25.452 169.023 24.912C169.527 24.372 169.779 23.586 169.779 22.554V17.136H171.417ZM31.192 43.956C32.392 43.956 33.364 44.322 34.108 45.054C34.852 45.774 35.224 46.818 35.224 48.186V54H33.604V48.42C33.604 47.436 33.358 46.686 32.866 46.17C32.374 45.642 31.702 45.378 30.85 45.378C29.986 45.378 29.296 45.648 28.78 46.188C28.276 46.728 28.024 47.514 28.024 48.546V54H26.386V44.136H28.024V45.54C28.348 45.036 28.786 44.646 29.338 44.37C29.902 44.094 30.52 43.956 31.192 43.956ZM46.8997 48.69C46.8997 49.002 46.8817 49.332 46.8457 49.68H38.9617C39.0217 50.652 39.3517 51.414 39.9517 51.966C40.5637 52.506 41.3017 52.776 42.1657 52.776C42.8737 52.776 43.4617 52.614 43.9297 52.29C44.4097 51.954 44.7457 51.51 44.9377 50.958H46.7017C46.4377 51.906 45.9097 52.68 45.1177 53.28C44.3257 53.868 43.3417 54.162 42.1657 54.162C41.2297 54.162 40.3897 53.952 39.6457 53.532C38.9137 53.112 38.3377 52.518 37.9177 51.75C37.4977 50.97 37.2877 50.07 37.2877 49.05C37.2877 48.03 37.4917 47.136 37.8997 46.368C38.3077 45.6 38.8777 45.012 39.6097 44.604C40.3537 44.184 41.2057 43.974 42.1657 43.974C43.1017 43.974 43.9297 44.178 44.6497 44.586C45.3697 44.994 45.9217 45.558 46.3057 46.278C46.7017 46.986 46.8997 47.79 46.8997 48.69ZM45.2077 48.348C45.2077 47.724 45.0697 47.19 44.7937 46.746C44.5177 46.29 44.1397 45.948 43.6597 45.72C43.1917 45.48 42.6697 45.36 42.0937 45.36C41.2657 45.36 40.5577 45.624 39.9697 46.152C39.3937 46.68 39.0637 47.412 38.9797 48.348H45.2077ZM58.0618 48.69C58.0618 49.002 58.0438 49.332 58.0078 49.68H50.1238C50.1838 50.652 50.5138 51.414 51.1138 51.966C51.7258 52.506 52.4638 52.776 53.3278 52.776C54.0358 52.776 54.6238 52.614 55.0918 52.29C55.5718 51.954 55.9078 51.51 56.0998 50.958H57.8638C57.5998 51.906 57.0718 52.68 56.2798 53.28C55.4878 53.868 54.5038 54.162 53.3278 54.162C52.3918 54.162 51.5518 53.952 50.8078 53.532C50.0758 53.112 49.4998 52.518 49.0798 51.75C48.6598 50.97 48.4498 50.07 48.4498 49.05C48.4498 48.03 48.6538 47.136 49.0618 46.368C49.4698 45.6 50.0398 45.012 50.7718 44.604C51.5158 44.184 52.3678 43.974 53.3278 43.974C54.2638 43.974 55.0918 44.178 55.8118 44.586C56.5318 44.994 57.0838 45.558 57.4678 46.278C57.8638 46.986 58.0618 47.79 58.0618 48.69ZM56.3698 48.348C56.3698 47.724 56.2318 47.19 55.9558 46.746C55.6798 46.29 55.3018 45.948 54.8218 45.72C54.3538 45.48 53.8318 45.36 53.2558 45.36C52.4278 45.36 51.7198 45.624 51.1318 46.152C50.5558 46.68 50.2258 47.412 50.1418 48.348H56.3698ZM59.6119 49.032C59.6119 48.024 59.8159 47.142 60.2239 46.386C60.6319 45.618 61.1899 45.024 61.8979 44.604C62.6179 44.184 63.4219 43.974 64.3099 43.974C65.0779 43.974 65.7919 44.154 66.4519 44.514C67.1119 44.862 67.6159 45.324 67.9639 45.9V40.68H69.6199V54H67.9639V52.146C67.6399 52.734 67.1599 53.22 66.5239 53.604C65.8879 53.976 65.1439 54.162 64.2919 54.162C63.4159 54.162 62.6179 53.946 61.8979 53.514C61.1899 53.082 60.6319 52.476 60.2239 51.696C59.8159 50.916 59.6119 50.028 59.6119 49.032ZM67.9639 49.05C67.9639 48.306 67.8139 47.658 67.5139 47.106C67.2139 46.554 66.8059 46.134 66.2899 45.846C65.7859 45.546 65.2279 45.396 64.6159 45.396C64.0039 45.396 63.4459 45.54 62.9419 45.828C62.4379 46.116 62.0359 46.536 61.7359 47.088C61.4359 47.64 61.2859 48.288 61.2859 49.032C61.2859 49.788 61.4359 50.448 61.7359 51.012C62.0359 51.564 62.4379 51.99 62.9419 52.29C63.4459 52.578 64.0039 52.722 64.6159 52.722C65.2279 52.722 65.7859 52.578 66.2899 52.29C66.8059 51.99 67.2139 51.564 67.5139 51.012C67.8139 50.448 67.9639 49.794 67.9639 49.05ZM90.3268 44.136L87.2488 54H85.5568L83.1808 46.17L80.8048 54H79.1128L76.0168 44.136H77.6908L79.9588 52.416L82.4068 44.136H84.0808L86.4748 52.434L88.7068 44.136H90.3268ZM96.8484 43.956C97.5924 43.956 98.2644 44.118 98.8644 44.442C99.4644 44.754 99.9324 45.228 100.268 45.864C100.616 46.5 100.79 47.274 100.79 48.186V54H99.1704V48.42C99.1704 47.436 98.9244 46.686 98.4324 46.17C97.9404 45.642 97.2684 45.378 96.4164 45.378C95.5524 45.378 94.8624 45.648 94.3464 46.188C93.8424 46.728 93.5904 47.514 93.5904 48.546V54H91.9524V40.68H93.5904V45.54C93.9144 45.036 94.3584 44.646 94.9224 44.37C95.4984 44.094 96.1404 43.956 96.8484 43.956ZM104.312 42.534C104 42.534 103.736 42.426 103.52 42.21C103.304 41.994 103.196 41.73 103.196 41.418C103.196 41.106 103.304 40.842 103.52 40.626C103.736 40.41 104 40.302 104.312 40.302C104.612 40.302 104.864 40.41 105.068 40.626C105.284 40.842 105.392 41.106 105.392 41.418C105.392 41.73 105.284 41.994 105.068 42.21C104.864 42.426 104.612 42.534 104.312 42.534ZM105.104 44.136V54H103.466V44.136H105.104ZM109.534 40.68V54H107.896V40.68H109.534ZM121.325 48.69C121.325 49.002 121.307 49.332 121.271 49.68H113.387C113.447 50.652 113.777 51.414 114.377 51.966C114.989 52.506 115.727 52.776 116.591 52.776C117.299 52.776 117.887 52.614 118.355 52.29C118.835 51.954 119.171 51.51 119.363 50.958H121.127C120.863 51.906 120.335 52.68 119.543 53.28C118.751 53.868 117.767 54.162 116.591 54.162C115.655 54.162 114.815 53.952 114.071 53.532C113.339 53.112 112.763 52.518 112.343 51.75C111.923 50.97 111.713 50.07 111.713 49.05C111.713 48.03 111.917 47.136 112.325 46.368C112.733 45.6 113.303 45.012 114.035 44.604C114.779 44.184 115.631 43.974 116.591 43.974C117.527 43.974 118.355 44.178 119.075 44.586C119.795 44.994 120.347 45.558 120.731 46.278C121.127 46.986 121.325 47.79 121.325 48.69ZM119.633 48.348C119.633 47.724 119.495 47.19 119.219 46.746C118.943 46.29 118.565 45.948 118.085 45.72C117.617 45.48 117.095 45.36 116.519 45.36C115.691 45.36 114.983 45.624 114.395 46.152C113.819 46.68 113.489 47.412 113.405 48.348H119.633ZM133.182 43.956C133.926 43.956 134.598 44.118 135.198 44.442C135.798 44.754 136.266 45.228 136.602 45.864C136.95 46.5 137.124 47.274 137.124 48.186V54H135.504V48.42C135.504 47.436 135.258 46.686 134.766 46.17C134.274 45.642 133.602 45.378 132.75 45.378C131.886 45.378 131.196 45.648 130.68 46.188C130.176 46.728 129.924 47.514 129.924 48.546V54H128.286V40.68H129.924V45.54C130.248 45.036 130.692 44.646 131.256 44.37C131.832 44.094 132.474 43.956 133.182 43.956ZM148.8 48.69C148.8 49.002 148.782 49.332 148.746 49.68H140.862C140.922 50.652 141.252 51.414 141.852 51.966C142.464 52.506 143.202 52.776 144.066 52.776C144.774 52.776 145.362 52.614 145.83 52.29C146.31 51.954 146.646 51.51 146.838 50.958H148.602C148.338 51.906 147.81 52.68 147.018 53.28C146.226 53.868 145.242 54.162 144.066 54.162C143.13 54.162 142.29 53.952 141.546 53.532C140.814 53.112 140.238 52.518 139.818 51.75C139.398 50.97 139.188 50.07 139.188 49.05C139.188 48.03 139.392 47.136 139.8 46.368C140.208 45.6 140.778 45.012 141.51 44.604C142.254 44.184 143.106 43.974 144.066 43.974C145.002 43.974 145.83 44.178 146.55 44.586C147.27 44.994 147.822 45.558 148.206 46.278C148.602 46.986 148.8 47.79 148.8 48.69ZM147.108 48.348C147.108 47.724 146.97 47.19 146.694 46.746C146.418 46.29 146.04 45.948 145.56 45.72C145.092 45.48 144.57 45.36 143.994 45.36C143.166 45.36 142.458 45.624 141.87 46.152C141.294 46.68 140.964 47.412 140.88 48.348H147.108ZM152.6 40.68V54H150.962V40.68H152.6ZM157.03 45.954C157.354 45.39 157.834 44.922 158.47 44.55C159.118 44.166 159.868 43.974 160.72 43.974C161.596 43.974 162.388 44.184 163.096 44.604C163.816 45.024 164.38 45.618 164.788 46.386C165.196 47.142 165.4 48.024 165.4 49.032C165.4 50.028 165.196 50.916 164.788 51.696C164.38 52.476 163.816 53.082 163.096 53.514C162.388 53.946 161.596 54.162 160.72 54.162C159.88 54.162 159.136 53.976 158.488 53.604C157.852 53.22 157.366 52.746 157.03 52.182V58.68H155.392V44.136H157.03V45.954ZM163.726 49.032C163.726 48.288 163.576 47.64 163.276 47.088C162.976 46.536 162.568 46.116 162.052 45.828C161.548 45.54 160.99 45.396 160.378 45.396C159.778 45.396 159.22 45.546 158.704 45.846C158.2 46.134 157.792 46.56 157.48 47.124C157.18 47.676 157.03 48.318 157.03 49.05C157.03 49.794 157.18 50.448 157.48 51.012C157.792 51.564 158.2 51.99 158.704 52.29C159.22 52.578 159.778 52.722 160.378 52.722C160.99 52.722 161.548 52.578 162.052 52.29C162.568 51.99 162.976 51.564 163.276 51.012C163.576 50.448 163.726 49.788 163.726 49.032ZM168.402 42.534C168.09 42.534 167.826 42.426 167.61 42.21C167.394 41.994 167.286 41.73 167.286 41.418C167.286 41.106 167.394 40.842 167.61 40.626C167.826 40.41 168.09 40.302 168.402 40.302C168.702 40.302 168.954 40.41 169.158 40.626C169.374 40.842 169.482 41.106 169.482 41.418C169.482 41.73 169.374 41.994 169.158 42.21C168.954 42.426 168.702 42.534 168.402 42.534ZM169.194 44.136V54H167.556V44.136H169.194ZM176.792 43.956C177.992 43.956 178.964 44.322 179.708 45.054C180.452 45.774 180.824 46.818 180.824 48.186V54H179.204V48.42C179.204 47.436 178.958 46.686 178.466 46.17C177.974 45.642 177.302 45.378 176.45 45.378C175.586 45.378 174.896 45.648 174.38 46.188C173.876 46.728 173.624 47.514 173.624 48.546V54H171.986V44.136H173.624V45.54C173.948 45.036 174.386 44.646 174.938 44.37C175.502 44.094 176.12 43.956 176.792 43.956ZM187.567 43.974C188.419 43.974 189.163 44.16 189.799 44.532C190.447 44.904 190.927 45.372 191.239 45.936V44.136H192.895V54.216C192.895 55.116 192.703 55.914 192.319 56.61C191.935 57.318 191.383 57.87 190.663 58.266C189.955 58.662 189.127 58.86 188.179 58.86C186.883 58.86 185.803 58.554 184.939 57.942C184.075 57.33 183.565 56.496 183.409 55.44H185.029C185.209 56.04 185.581 56.52 186.145 56.88C186.709 57.252 187.387 57.438 188.179 57.438C189.079 57.438 189.811 57.156 190.375 56.592C190.951 56.028 191.239 55.236 191.239 54.216V52.146C190.915 52.722 190.435 53.202 189.799 53.586C189.163 53.97 188.419 54.162 187.567 54.162C186.691 54.162 185.893 53.946 185.173 53.514C184.465 53.082 183.907 52.476 183.499 51.696C183.091 50.916 182.887 50.028 182.887 49.032C182.887 48.024 183.091 47.142 183.499 46.386C183.907 45.618 184.465 45.024 185.173 44.604C185.893 44.184 186.691 43.974 187.567 43.974ZM191.239 49.05C191.239 48.306 191.089 47.658 190.789 47.106C190.489 46.554 190.081 46.134 189.565 45.846C189.061 45.546 188.503 45.396 187.891 45.396C187.279 45.396 186.721 45.54 186.217 45.828C185.713 46.116 185.311 46.536 185.011 47.088C184.711 47.64 184.561 48.288 184.561 49.032C184.561 49.788 184.711 50.448 185.011 51.012C185.311 51.564 185.713 51.99 186.217 52.29C186.721 52.578 187.279 52.722 187.891 52.722C188.503 52.722 189.061 52.578 189.565 52.29C190.081 51.99 190.489 51.564 190.789 51.012C191.089 50.448 191.239 49.794 191.239 49.05Z" fill="white"/>
</svg>
