<svg width="29" height="29" viewBox="0 0 29 29" fill="none" xmlns="http://www.w3.org/2000/svg">
<path fill-rule="evenodd" clip-rule="evenodd" d="M0 6C0 2.68629 2.68629 0 6 0H23C26.3137 0 29 2.68629 29 6V23C29 26.3137 26.3137 29 23 29H6C2.68629 29 0 26.3137 0 23V6Z" fill="#008F89"/>
<path fill-rule="evenodd" clip-rule="evenodd" d="M9.08558 21.0237C8.71845 21.1223 8.35495 21.2321 7.99362 21.3462C6.98511 21.6658 5.98893 22.0228 5 22.3973C7.56772 24.6306 10.9495 26 14.6694 26C18.2246 26 21.4773 24.7552 24 22.6958C22.6897 22.1044 20.8402 21.5074 20.8402 21.5074C18.6411 21.0969 17.9758 20.6069 17.9758 20.6069C17.2698 20.2943 17.391 17.3386 17.391 17.3386C18.48 17.2013 18.4198 13.9521 18.4198 13.9521C19.186 14.4217 19.2469 13.4431 19.2469 13.4431C19.2868 13.0713 19.4885 12.3863 19.4885 12.3863C20.2351 10.096 19.1453 10.6437 19.1453 10.6437C19.7504 8.41255 19.4885 6.49469 19.4885 6.49469C19.3579 5.53998 18.903 4.7458 18.0824 4.191C17.8045 4.00301 17.5027 3.84882 17.1871 3.72984C16.7576 3.5679 16.3128 3.34894 15.8724 3.23136C15.5132 3.1349 15.1439 3.07858 14.7732 3.04338C14.3647 3.00536 13.9482 2.98705 13.5383 3.01029C13.1545 3.01029 12.9731 3.24544 12.9731 3.24544C12.915 3.31937 12.4195 3.40949 12.3056 3.46159C12.1024 3.55382 11.9043 3.65732 11.7106 3.76715C11.2187 4.04807 10.7812 4.41066 10.3234 4.73876C9.96567 4.99503 9.51148 5.16683 9.25608 5.53575C9.03334 5.85821 8.91072 6.23841 8.84107 6.61719C8.76198 7.05089 8.71119 7.56345 8.79826 8.00138C8.89838 8.51041 9.03987 10.781 9.03987 10.781C8.23305 10.6247 8.67709 11.7794 8.67709 11.7794C8.83816 11.9948 9.06018 13.1692 9.06018 13.1692C9.26189 14.8723 10.1093 14.1873 10.1093 14.1873C9.96785 17.2013 11.017 17.3576 11.017 17.3576C11.1578 19.1192 10.8153 20.1373 10.8153 20.1373C10.5592 20.7892 9.68198 20.8639 9.08558 21.0237Z" fill="white"/>
</svg>
