<svg width="29" height="29" viewBox="0 0 29 29" fill="none" xmlns="http://www.w3.org/2000/svg">
<path fill-rule="evenodd" clip-rule="evenodd" d="M0 6C0 2.68629 2.68629 0 6 0H23C26.3137 0 29 2.68629 29 6V23C29 26.3137 26.3137 29 23 29H6C2.68629 29 0 26.3137 0 23V6Z" fill="#F86D70"/>
<g clip-path="url(#clip0)">
<path d="M23.4967 13.5383C22.9823 13.1178 22.2538 12.9832 21.6406 13.1953C21.4762 13.2522 21.3237 13.332 21.1869 13.4326C20.8383 13.6891 20.0642 14.4591 19.4508 15.2211V9.3472C19.4508 8.84793 19.2456 8.35996 18.8877 8.00824C18.5325 7.65912 18.0659 7.47083 17.5762 7.47998C17.3539 7.48395 17.1409 7.52805 16.9441 7.6051V7.03137C16.9441 6.48801 16.7207 5.95685 16.331 5.57385C15.9448 5.19421 15.4394 4.98959 14.9049 4.99936C13.8392 5.01782 12.9692 5.88406 12.9373 6.94302C12.7064 6.83835 12.4557 6.7796 12.1961 6.77182C11.6548 6.75595 11.1186 6.96545 10.7255 7.34708C10.3405 7.72077 10.1284 8.21408 10.1284 8.73471L10.127 9.29105C9.96088 9.23642 9.78372 9.20652 9.59955 9.20652C8.67014 9.20652 7.91406 9.96259 7.91406 10.8919L7.91467 19.4304L7.91605 19.4708C7.99371 20.5914 8.22824 21.5509 8.61337 22.3227C8.9744 23.0463 9.47809 23.6288 10.1104 24.0542C11.3548 24.8917 12.8919 24.9991 14.092 24.9991C16.4488 24.9991 18.569 23.8273 19.6293 21.9401C19.7583 21.7323 20.0981 21.198 20.465 20.6216C20.8224 20.0601 21.1549 19.5427 21.448 19.0861C21.6091 18.8351 21.7558 18.6069 21.883 18.4079C22.3571 17.6665 22.8623 16.9476 23.3848 16.2712C23.5786 16.0203 23.6383 15.9523 23.6518 15.9373C23.8964 15.6705 24.0506 15.3438 24.0975 14.9923C24.1716 14.441 23.9524 13.911 23.4967 13.5383ZM22.9348 14.8367C22.9197 14.949 22.8686 15.0555 22.787 15.1446C22.7444 15.1912 22.6683 15.2797 22.4565 15.554C21.9128 16.2578 21.3873 17.0053 20.8946 17.7759C20.7676 17.9744 20.6216 18.2017 20.4608 18.4521C20.167 18.9096 19.8341 19.4282 19.4754 19.9916C19.0998 20.5815 18.7522 21.1279 18.625 21.3335L18.6117 21.356C17.7607 22.8795 16.029 23.8258 14.0922 23.8258C13.0587 23.8258 11.7465 23.7411 10.7655 23.081C9.7645 22.4075 9.21579 21.2066 9.08792 19.4098L9.08731 10.892C9.08731 10.6096 9.31711 10.3798 9.59955 10.3798C9.88367 10.3798 10.1148 10.6096 10.1148 10.892V14.0873C10.1148 14.0968 10.1159 14.106 10.1162 14.1154C10.1168 14.1258 10.1168 14.1363 10.1179 14.1467C10.1188 14.156 10.1206 14.165 10.122 14.1742C10.1235 14.1844 10.1246 14.1948 10.1266 14.205C10.1286 14.2142 10.1313 14.2232 10.1336 14.2322C10.136 14.2418 10.138 14.2517 10.1411 14.2611C10.1438 14.2703 10.1475 14.2792 10.1509 14.288C10.1541 14.297 10.157 14.3062 10.1608 14.315C10.1644 14.3239 10.1689 14.3323 10.173 14.3408C10.1771 14.3493 10.1809 14.358 10.1853 14.3664C10.1898 14.3747 10.1951 14.3826 10.2 14.3907C10.2049 14.3988 10.2094 14.407 10.2146 14.4148C10.22 14.4226 10.2259 14.4299 10.2316 14.4374C10.2372 14.445 10.2424 14.4528 10.2484 14.46C10.2543 14.4671 10.2609 14.4737 10.267 14.4806C10.2734 14.4876 10.2795 14.4951 10.2862 14.5018C10.2928 14.5082 10.2996 14.514 10.3065 14.5202C10.3135 14.5267 10.3204 14.5335 10.3279 14.5396C10.3349 14.5454 10.3423 14.5506 10.3497 14.5561C10.3575 14.5619 10.3649 14.568 10.3729 14.5735C10.3803 14.5785 10.3883 14.5828 10.3959 14.5874C10.4043 14.5926 10.4125 14.5981 10.4212 14.6029C10.4292 14.6072 10.4376 14.6107 10.4457 14.6147C10.4545 14.6191 10.4634 14.6237 10.4725 14.6277C10.4809 14.6313 10.4899 14.6341 10.4984 14.6373C10.5078 14.6406 10.5169 14.6444 10.5264 14.6475C10.5354 14.6502 10.5448 14.6522 10.554 14.6547C10.5636 14.6571 10.5729 14.66 10.5825 14.662C10.5923 14.664 10.6021 14.665 10.6118 14.6666C10.6216 14.6679 10.631 14.6699 10.6408 14.671C10.6506 14.6719 10.6606 14.6721 10.6706 14.6725C10.6803 14.673 10.6901 14.6741 10.7 14.6741C10.7005 14.6741 10.7011 14.6741 10.7015 14.6741C10.7218 14.6741 10.7418 14.673 10.7615 14.671C10.7701 14.6702 10.7784 14.6684 10.787 14.6672C10.7978 14.6657 10.809 14.6644 10.8196 14.6621C10.8309 14.6599 10.8418 14.6567 10.8528 14.6538C10.8604 14.6516 10.8683 14.6501 10.8758 14.6478C10.888 14.644 10.8999 14.6393 10.9118 14.6347C10.9176 14.6324 10.9239 14.6306 10.9297 14.6281C10.9416 14.6231 10.9529 14.6171 10.9643 14.6115C10.9698 14.6087 10.9754 14.6065 10.9809 14.6036C10.9916 14.5978 11.0017 14.591 11.0119 14.5846C11.0177 14.5811 11.0237 14.5779 11.0291 14.5741C11.0386 14.5678 11.0476 14.5607 11.0566 14.5537C11.0626 14.5492 11.0687 14.5451 11.0743 14.5404C11.0827 14.5337 11.0903 14.526 11.0983 14.5187C11.1042 14.5134 11.1103 14.5082 11.1161 14.5027C11.1234 14.4954 11.13 14.4874 11.1369 14.4798C11.1425 14.4735 11.1486 14.4674 11.154 14.461C11.1601 14.4536 11.1656 14.4456 11.1714 14.4378C11.1769 14.4305 11.1827 14.4235 11.1877 14.4159C11.193 14.4081 11.1975 14.4 11.2023 14.3919C11.2072 14.3838 11.2126 14.3759 11.2171 14.3677C11.2216 14.3594 11.2252 14.3509 11.2293 14.3425C11.2335 14.3338 11.238 14.3252 11.2419 14.3164C11.2455 14.3078 11.2483 14.2988 11.2515 14.2901C11.255 14.281 11.2586 14.272 11.2617 14.2625C11.2644 14.2535 11.2664 14.2444 11.2687 14.2352C11.2712 14.2256 11.2741 14.2161 11.2762 14.2064C11.278 14.1972 11.2791 14.1876 11.2805 14.1781C11.2821 14.1682 11.284 14.1583 11.285 14.1482C11.2861 14.1388 11.2861 14.129 11.2866 14.1194C11.2872 14.1092 11.2882 14.0993 11.2882 14.089L11.3018 8.73624C11.3018 8.53421 11.3874 8.33982 11.5428 8.18891C11.7097 8.02701 11.9355 7.93759 12.1615 7.94461C12.5848 7.95728 12.9292 8.32547 12.9292 8.7663L12.9359 14.0564C12.9359 14.0671 12.937 14.0774 12.9376 14.0878C12.938 14.0971 12.938 14.1067 12.9389 14.1159C12.94 14.1269 12.9421 14.1374 12.9438 14.1481C12.9452 14.1568 12.9461 14.1656 12.9478 14.1742C12.9502 14.1858 12.9536 14.1971 12.9566 14.2084C12.9586 14.2157 12.9601 14.2232 12.9623 14.2303C12.9661 14.2425 12.971 14.2544 12.9756 14.2663C12.9778 14.2723 12.9795 14.2784 12.982 14.2842C12.9875 14.2969 12.9937 14.3092 13 14.3214C13.0024 14.326 13.0042 14.3309 13.0067 14.3353C13.0136 14.348 13.0213 14.36 13.029 14.3719C13.0314 14.3759 13.0335 14.3799 13.0361 14.3837C13.0442 14.3957 13.0531 14.407 13.0619 14.4183C13.0647 14.4218 13.0671 14.4255 13.0699 14.4288C13.0798 14.4409 13.0905 14.4522 13.1013 14.4633C13.1036 14.4658 13.1054 14.4682 13.1077 14.4705C13.1188 14.4816 13.1307 14.492 13.1428 14.5022C13.1451 14.5042 13.1471 14.5064 13.1494 14.5083C13.1614 14.5183 13.1739 14.5273 13.1866 14.5361C13.1893 14.5381 13.1918 14.5402 13.1945 14.5421C13.2073 14.5508 13.2208 14.5585 13.2342 14.5662C13.2371 14.5678 13.2398 14.5698 13.2429 14.5715C13.2569 14.579 13.2714 14.5857 13.2861 14.5923C13.2888 14.5935 13.2914 14.595 13.2942 14.5962C13.3091 14.6025 13.3245 14.6078 13.3401 14.613C13.3428 14.6138 13.3453 14.615 13.348 14.6159C13.3634 14.6206 13.3792 14.6245 13.3949 14.628C13.3981 14.6286 13.4011 14.6296 13.4043 14.6304C13.4425 14.6382 13.482 14.6423 13.5224 14.6423C13.5227 14.6423 13.523 14.6423 13.5234 14.6423C13.5336 14.6423 13.5436 14.6412 13.5537 14.6408C13.5635 14.6402 13.5732 14.6402 13.5829 14.6393C13.5935 14.638 13.6038 14.6361 13.6143 14.6344C13.6231 14.633 13.6323 14.6321 13.6411 14.6303C13.6517 14.6281 13.6619 14.6251 13.6723 14.6223C13.6807 14.62 13.6891 14.6184 13.6973 14.6158C13.7078 14.6126 13.7179 14.6084 13.7281 14.6045C13.7358 14.6016 13.7437 14.5993 13.7512 14.5961C13.7617 14.5915 13.7719 14.5862 13.7821 14.5811C13.7889 14.5778 13.7959 14.5749 13.8024 14.5714C13.8125 14.5659 13.8221 14.5595 13.8319 14.5535C13.8381 14.5495 13.8447 14.546 13.8508 14.5419C13.8601 14.5357 13.8688 14.5286 13.8777 14.5218C13.8838 14.5172 13.89 14.5129 13.896 14.508C13.9044 14.5012 13.9123 14.4934 13.9204 14.4859C13.926 14.4807 13.932 14.4757 13.9376 14.4702C13.9451 14.4626 13.9521 14.4543 13.9593 14.4464C13.9646 14.4404 13.9703 14.4348 13.9755 14.4285C13.9819 14.4206 13.9877 14.4122 13.9936 14.4041C13.9988 14.3971 14.0043 14.3904 14.0092 14.3834C14.0147 14.3753 14.0193 14.3667 14.0243 14.3583C14.029 14.3506 14.0342 14.3429 14.0385 14.335C14.0431 14.3266 14.0467 14.3178 14.0508 14.3092C14.055 14.3007 14.0595 14.2924 14.0632 14.2836C14.0667 14.2752 14.0696 14.2663 14.0727 14.2576C14.0762 14.2483 14.08 14.2392 14.0829 14.2297C14.0856 14.2206 14.0876 14.2113 14.0901 14.2019C14.0925 14.1925 14.0954 14.1832 14.0972 14.1736C14.0992 14.1639 14.1003 14.154 14.1018 14.1444C14.1032 14.1347 14.1052 14.125 14.1061 14.1153C14.1072 14.1054 14.1072 14.0953 14.1076 14.0852C14.1082 14.0753 14.1091 14.0657 14.1091 14.0556V7.0033C14.1091 6.55286 14.4753 6.18024 14.9253 6.17245C15.1425 6.1694 15.3488 6.25333 15.5088 6.41064C15.6755 6.57437 15.771 6.80066 15.771 7.03137V14.088C15.771 14.0986 15.772 14.109 15.7727 14.1195C15.7731 14.1289 15.7731 14.1383 15.774 14.1476C15.7751 14.158 15.7772 14.1681 15.7788 14.1783C15.7803 14.1876 15.7812 14.1969 15.783 14.2059C15.7852 14.2161 15.7882 14.2261 15.7908 14.2361C15.7931 14.2448 15.7948 14.2535 15.7975 14.2621C15.8009 14.2729 15.8052 14.2834 15.8091 14.294C15.8119 14.3013 15.8142 14.3088 15.8172 14.3159C15.8219 14.3269 15.8274 14.3374 15.8328 14.3481C15.8358 14.3544 15.8386 14.3609 15.8419 14.3672C15.8477 14.378 15.8544 14.3883 15.861 14.3986C15.8645 14.4041 15.8676 14.4101 15.8714 14.4156C15.8784 14.4259 15.8862 14.4359 15.894 14.4458C15.8978 14.4507 15.9011 14.4558 15.9051 14.4606C15.9136 14.4711 15.9231 14.4809 15.9324 14.4908C15.9361 14.4945 15.9393 14.4986 15.9429 14.5022C15.9526 14.512 15.9629 14.5209 15.9733 14.5299C15.9771 14.5332 15.9806 14.5369 15.9846 14.5401C15.9962 14.5497 16.0084 14.5584 16.0206 14.5671C16.0237 14.5692 16.0266 14.5717 16.0298 14.574C16.0429 14.5828 16.0566 14.5909 16.0705 14.5987C16.0731 14.6 16.0754 14.6019 16.078 14.6032C16.0932 14.6115 16.1088 14.6188 16.1248 14.6258C16.1264 14.6264 16.1277 14.6274 16.1292 14.628C16.1459 14.635 16.163 14.6411 16.1804 14.6466C16.1813 14.647 16.1822 14.6473 16.1833 14.6477C16.2197 14.6591 16.2577 14.6669 16.2969 14.671C16.2972 14.671 16.2974 14.671 16.2977 14.671C16.3174 14.673 16.3374 14.6741 16.3577 14.6741C16.3578 14.6741 16.358 14.6741 16.3583 14.6741C16.3687 14.6741 16.3789 14.673 16.3893 14.6725C16.3989 14.6719 16.4085 14.6719 16.4179 14.671C16.4288 14.6699 16.4393 14.6678 16.45 14.6661C16.4587 14.6647 16.4675 14.6638 16.4762 14.662C16.4877 14.6597 16.4987 14.6564 16.5098 14.6535C16.5173 14.6515 16.5251 14.6499 16.5324 14.6477C16.5443 14.6438 16.5557 14.6393 16.5673 14.6348C16.5736 14.6324 16.58 14.6304 16.5863 14.6278C16.598 14.6228 16.6093 14.617 16.6207 14.6112C16.6262 14.6084 16.632 14.6061 16.6375 14.6031C16.6487 14.597 16.6593 14.5901 16.6702 14.5833C16.6754 14.5801 16.6807 14.5772 16.6859 14.5736C16.6969 14.5663 16.7071 14.5581 16.7175 14.55C16.7219 14.5466 16.7266 14.5434 16.7311 14.5399C16.7413 14.5314 16.7509 14.5221 16.7607 14.5129C16.7646 14.5093 16.7689 14.5059 16.7726 14.5021C16.782 14.4926 16.7909 14.4826 16.7996 14.4723C16.8032 14.4684 16.807 14.4645 16.8106 14.4604C16.8189 14.4502 16.8266 14.4394 16.8342 14.4287C16.8374 14.4241 16.8411 14.4198 16.8443 14.4153C16.8514 14.4046 16.8579 14.3934 16.8643 14.3823C16.8673 14.3771 16.8708 14.3722 16.8737 14.3669C16.8798 14.3556 16.885 14.3439 16.8904 14.3321C16.893 14.3266 16.896 14.3213 16.8983 14.3156C16.9032 14.3042 16.9071 14.2923 16.9113 14.2805C16.9134 14.2743 16.9161 14.2682 16.9181 14.2616C16.9215 14.2505 16.9241 14.2387 16.927 14.2273C16.9287 14.2199 16.9309 14.2128 16.9325 14.2055C16.9348 14.1942 16.9361 14.1824 16.9378 14.171C16.9389 14.163 16.9406 14.1553 16.9413 14.1472C16.9425 14.1365 16.9425 14.1255 16.943 14.1145C16.9435 14.1055 16.9444 14.0967 16.9444 14.0873V9.24543C16.9825 8.91812 17.2604 8.65888 17.5968 8.65308C17.7697 8.65018 17.9367 8.71823 18.0656 8.84503C18.2005 8.97748 18.2778 9.16059 18.2778 9.3472V16.2715L18.2781 16.2977C18.2814 16.6778 18.531 16.999 18.8992 17.097C19.2649 17.1942 19.6386 17.0405 19.8309 16.7113L19.8345 16.7047C20.2944 15.9012 21.5237 14.6417 21.8826 14.3777C21.9241 14.3471 21.9718 14.3225 22.0245 14.3042C22.2583 14.2235 22.5514 14.2807 22.7543 14.4467C22.8498 14.525 22.9589 14.6562 22.9348 14.8367Z" fill="white"/>
</g>
<defs>
<clipPath id="clip0">
<rect width="20" height="20" fill="white" transform="translate(6 5)"/>
</clipPath>
</defs>
</svg>
