<svg width="29" height="29" viewBox="0 0 29 29" fill="none" xmlns="http://www.w3.org/2000/svg">
<path fill-rule="evenodd" clip-rule="evenodd" d="M18.8894 0C21.8008 0 23.2561 0 24.8233 0.495417C26.5343 1.11819 27.8818 2.46573 28.5046 4.17672C29 5.74369 29 7.19949 29 10.1106V18.8894C29 21.8008 29 23.2561 28.5046 24.8233C27.8818 26.5343 26.5343 27.8818 24.8233 28.5043C23.2561 29 21.8008 29 18.8894 29H10.1106C7.19925 29 5.74369 29 4.17672 28.5043C2.46573 27.8818 1.11819 26.5343 0.495417 24.8233C0 23.2561 0 21.8008 0 18.8894V10.1106C0 7.19949 0 5.74369 0.495417 4.17672C1.11819 2.46573 2.46573 1.11819 4.17672 0.495417C5.74369 0 7.19925 0 10.1106 0H18.8894Z" fill="#19C3AB"/>
<path fill-rule="evenodd" clip-rule="evenodd" d="M6.66098 12.6535C5.5864 10.7063 5.17676 9.13647 5.17676 8.07616C5.17676 7.01585 5.43739 6.71174 5.70186 6.46606C5.96633 6.22038 7.15891 5.48547 7.36211 5.34841C7.56531 5.21135 8.34084 4.94499 8.82719 5.64428C9.31354 6.34356 10.2294 7.74758 10.8608 8.6803C11.8516 10.0014 11.0623 10.5814 10.8073 10.929C10.3381 11.5686 10.068 11.7264 10.068 12.5118C10.068 13.2972 12.264 15.5286 12.7891 16.0784C13.3103 16.624 15.4984 18.5413 16.1765 18.6438C16.8593 18.7471 17.7734 18.0245 17.9677 17.8413C18.9564 17.0826 19.5145 17.6578 19.9699 17.9078C20.4253 18.1579 22.4829 19.4394 23.1205 19.8714C23.7207 20.3033 23.6831 20.9709 23.6831 20.9709C23.6831 20.9709 23.2562 22.2167 22.2954 23.1701C22.0591 23.4045 21.6577 23.6806 20.645 23.6806C19.6323 23.6806 18.5503 23.4957 15.9788 22.0822C13.8747 20.9256 11.869 19.1144 10.8188 18.0541C9.73104 16.9938 7.88845 14.8779 6.66098 12.6535Z" fill="white"/>
</svg>
