<svg width="29" height="29" viewBox="0 0 29 29" fill="none" xmlns="http://www.w3.org/2000/svg">
<path fill-rule="evenodd" clip-rule="evenodd" d="M0 6C0 2.68629 2.68629 0 6 0H23C26.3137 0 29 2.68629 29 6V23C29 26.3137 26.3137 29 23 29H6C2.68629 29 0 26.3137 0 23V6Z" fill="#04318C"/>
<path fill-rule="evenodd" clip-rule="evenodd" d="M22.6174 16.279C21.6035 19.3785 18.6882 21.6174 15.25 21.6174C10.9698 21.6174 7.5 18.1477 7.5 13.8674C7.5 10.4292 9.73896 7.51391 12.8384 6.5C11.9966 7.65546 11.5 9.07845 11.5 10.6174C11.5 14.4834 14.634 17.6174 18.5 17.6174C20.039 17.6174 21.462 17.1208 22.6174 16.279Z" fill="white"/>
</svg>
