<svg width="29" height="29" viewBox="0 0 29 29" fill="none" xmlns="http://www.w3.org/2000/svg">
<path fill-rule="evenodd" clip-rule="evenodd" d="M0 6C0 2.68629 2.68629 0 6 0H23C26.3137 0 29 2.68629 29 6V23C29 26.3137 26.3137 29 23 29H6C2.68629 29 0 26.3137 0 23V6Z" fill="#FCB83B"/>
<path fill-rule="evenodd" clip-rule="evenodd" d="M24.5 8.25C24.5 10.3211 22.8211 12 20.75 12C18.6789 12 17 10.3211 17 8.25C17 6.17893 18.6789 4.5 20.75 4.5C22.8211 4.5 24.5 6.17893 24.5 8.25ZM21 19.9999V13.4942C21.343 13.4781 21.6773 13.4291 22 13.3503V19.9999C22 21.6565 20.6568 23 18.9999 23H9.00009C7.34349 23 6 21.6568 6 19.9999V10.0001C6 8.34349 7.34318 7 9.00009 7H15.6497C15.5709 7.32267 15.5219 7.65703 15.5058 8H9.00009C7.89559 8 7 8.89565 7 10.0001V19.9999C7 21.1044 7.89565 22 9.00009 22H18.9999C20.1044 22 21 21.1043 21 19.9999Z" fill="white"/>
</svg>
