<svg width="29" height="29" viewBox="0 0 29 29" fill="none" xmlns="http://www.w3.org/2000/svg">
<path fill-rule="evenodd" clip-rule="evenodd" d="M0 6C0 2.68629 2.68629 0 6 0H23C26.3137 0 29 2.68629 29 6V23C29 26.3137 26.3137 29 23 29H6C2.68629 29 0 26.3137 0 23V6Z" fill="#FCB83B"/>
<path d="M20.0998 14.2727C20.1116 14.1527 20.1176 14.0314 20.1176 13.9091V11.7273C20.1176 9.11647 17.3787 7 14 7C10.6213 7 7.88235 9.11647 7.88235 11.7273V13.9091C7.88235 14.0314 7.88837 14.1527 7.90018 14.2727H7.44784C6.9444 14.2727 6.76183 14.3132 6.57778 14.3893C6.39373 14.4654 6.24928 14.577 6.15085 14.7192C6.05242 14.8614 6 15.0025 6 15.3915V21.8812C6 22.2702 6.05242 22.4113 6.15085 22.5535C6.24928 22.6958 6.39373 22.8074 6.57778 22.8834C6.76183 22.9595 6.9444 23 7.44784 23H20.5522C21.0556 23 21.2382 22.9595 21.4222 22.8834C21.6063 22.8074 21.7507 22.6958 21.8491 22.5535C21.9476 22.4113 22 22.2702 22 21.8812V15.3915C22 15.0025 21.9476 14.8614 21.8491 14.7192C21.7507 14.577 21.6063 14.4654 21.4222 14.3893C21.2382 14.3132 21.0556 14.2727 20.5522 14.2727H20.0998Z" fill="white"/>
<path d="M17.1755 14.1996C17.1919 14.0773 17.2003 13.9527 17.2003 13.8263V11.5863C17.2003 9.93679 15.7676 8.59961 14.0003 8.59961C12.233 8.59961 10.8003 9.93679 10.8003 11.5863V13.8263C10.8003 13.9527 10.8087 14.0773 10.8251 14.1996H17.1755Z" fill="#FCB83B"/>
</svg>
