<svg width="29" height="29" viewBox="0 0 29 29" fill="none" xmlns="http://www.w3.org/2000/svg">
<path fill-rule="evenodd" clip-rule="evenodd" d="M18.8894 0C21.8008 0 23.2561 0 24.8233 0.495417C26.5343 1.11819 27.8818 2.46573 28.5046 4.17672C29 5.74369 29 7.19949 29 10.1106V18.8894C29 21.8008 29 23.2561 28.5046 24.8233C27.8818 26.5343 26.5343 27.8818 24.8233 28.5043C23.2561 29 21.8008 29 18.8894 29H10.1106C7.19925 29 5.74369 29 4.17672 28.5043C2.46573 27.8818 1.11819 26.5343 0.495417 24.8233C0 23.2561 0 21.8008 0 18.8894V10.1106C0 7.19949 0 5.74369 0.495417 4.17672C1.11819 2.46573 2.46573 1.11819 4.17672 0.495417C5.74369 0 7.19925 0 10.1106 0H18.8894Z" fill="#FCB83B"/>
<path d="M14 4L16.4697 11.6008H24.4616L17.996 16.2984L20.4656 23.8992L14 19.2016L7.53436 23.8992L10.004 16.2984L3.53838 11.6008H11.5303L14 4Z" fill="white"/>
</svg>
