<svg width="29" height="29" viewBox="0 0 29 29" fill="none" xmlns="http://www.w3.org/2000/svg">
<path fill-rule="evenodd" clip-rule="evenodd" d="M18.8894 0C21.8008 0 23.2561 0 24.8233 0.495417C26.5343 1.11819 27.8818 2.46573 28.5046 4.17672C29 5.74369 29 7.19949 29 10.1106V18.8894C29 21.8008 29 23.2561 28.5046 24.8233C27.8818 26.5343 26.5343 27.8818 24.8233 28.5043C23.2561 29 21.8008 29 18.8894 29H10.1106C7.19925 29 5.74369 29 4.17672 28.5043C2.46573 27.8818 1.11819 26.5343 0.495417 24.8233C0 23.2561 0 21.8008 0 18.8894V10.1106C0 7.19949 0 5.74369 0.495417 4.17672C1.11819 2.46573 2.46573 1.11819 4.17672 0.495417C5.74369 0 7.19925 0 10.1106 0H18.8894Z" fill="#008F89"/>
<path d="M19.916 19.4727C19.9512 19.5312 19.9688 19.5957 19.9688 19.666C19.9688 19.7598 19.9365 19.8418 19.8721 19.9121C19.8076 19.9766 19.7227 20.0088 19.6172 20.0088H16.9893C16.8604 20.0088 16.7578 19.9824 16.6816 19.9297C16.6113 19.8711 16.5352 19.7656 16.4531 19.6133L14.5723 15.9922H13.2627V19.543C13.2627 19.6895 13.2188 19.8037 13.1309 19.8857C13.0488 19.9678 12.9316 20.0088 12.7793 20.0088H10.5293C10.3828 20.0088 10.2686 19.9678 10.1865 19.8857C10.1104 19.8037 10.0723 19.6895 10.0723 19.543V7.625C10.0723 7.49023 10.1133 7.37891 10.1953 7.29102C10.2832 7.20312 10.3945 7.15918 10.5293 7.15918H11.1094H12.8057H15.0381C15.9404 7.15918 16.7402 7.34375 17.4375 7.71289C18.1348 8.07617 18.6768 8.59473 19.0635 9.26855C19.4561 9.94238 19.6523 10.7246 19.6523 11.6152C19.6523 12.418 19.4766 13.1387 19.125 13.7773C18.7793 14.416 18.293 14.9229 17.666 15.2979L19.916 19.4727ZM13.2627 13.2412H14.9062C15.2051 13.2412 15.4717 13.168 15.7061 13.0215C15.9463 12.875 16.1338 12.6758 16.2686 12.4238C16.4033 12.1719 16.4707 11.8965 16.4707 11.5977C16.4707 11.2988 16.4033 11.0322 16.2686 10.7979C16.1338 10.5576 15.9463 10.373 15.7061 10.2441C15.4717 10.1094 15.2051 10.042 14.9062 10.042H13.2627V13.2412Z" fill="white"/>
</svg>
