<svg width="22" height="25" viewBox="0 0 22 25" fill="none" xmlns="http://www.w3.org/2000/svg">
<path d="M3.74612 9.36348V9.36255C3.76312 6.6489 5.64524 4.56943 7.49595 3.7072C7.89155 3.52254 8.29797 3.3721 8.71089 3.25351V3.09087C8.71089 1.85664 9.70454 0.85 10.9295 0.85C12.1545 0.85 13.1482 1.85664 13.1482 3.09087V3.21486C13.6096 3.3378 14.0643 3.49875 14.5067 3.70323C16.1843 4.47828 18.141 6.42568 18.1229 9.36662C18.1229 9.36672 18.1229 9.36682 18.1229 9.36692L18.1229 13.1271C18.1229 15.6688 19.083 17.9235 20.984 19.8337C21.1335 19.9837 21.1872 20.2048 21.1239 20.4067L3.74612 9.36348ZM3.74612 9.36348V13.1271C3.74612 15.7597 2.82772 18.0134 1.01575 19.8337L1.01563 19.8338M3.74612 9.36348L1.01563 19.8338M1.01563 19.8338C0.866681 19.9838 0.813072 20.2043 0.875783 20.4063C0.938697 20.609 1.10915 20.7596 1.31751 20.7961L1.31761 20.7961M1.01563 19.8338L1.31761 20.7961M1.31761 20.7961L5.24433 21.4815L5.24436 21.4815M1.31761 20.7961L5.24436 21.4815M5.24436 21.4815C5.94812 21.6042 6.59874 21.7057 7.2185 21.7901M5.24436 21.4815L7.2185 21.7901M9.29365 21.0176C9.04583 20.9996 8.79511 20.9787 8.53901 20.9528M9.29365 21.0176C9.34578 21.0213 9.3975 21.0247 9.44921 21.028C9.66725 21.0427 9.8828 21.0535 10.0967 21.0623M9.29365 21.0176L9.30451 20.868C9.30449 20.868 9.30447 20.868 9.30446 20.868M9.29365 21.0176L9.30446 20.868M8.53901 20.9528L10.1029 20.9125L10.0967 21.0623M8.53901 20.9528L8.51087 20.9503L8.53901 20.9528ZM10.0967 21.0623L10.1022 20.9124C10.1023 20.9124 10.1024 20.9124 10.1025 20.9124M10.0967 21.0623L10.1025 20.9124M10.1025 20.9124C10.1258 20.9133 10.1491 20.9143 10.1717 20.9154L10.1726 20.9154C10.1956 20.9165 10.2179 20.9175 10.2399 20.9183M10.1025 20.9124L12.5625 21.0276C12.6101 21.0247 12.6581 21.0213 12.7061 21.018M10.2399 20.9183L10.2349 21.0682L10.2403 20.9183C10.2402 20.9183 10.24 20.9183 10.2399 20.9183ZM10.2399 20.9183C10.7508 20.9353 11.2551 20.9353 11.7664 20.9178L11.7672 20.9178C11.7933 20.9171 11.8173 20.916 11.8426 20.9148C11.8604 20.914 11.8788 20.9132 11.899 20.9124M11.899 20.9124L11.9047 21.0623L11.8989 20.9124C11.899 20.9124 11.899 20.9124 11.899 20.9124ZM11.899 20.9124C12.1151 20.9041 12.3326 20.8925 12.5526 20.8779L12.5533 20.8779C12.6002 20.875 12.6476 20.8717 12.6957 20.8684M12.6957 20.8684C12.6956 20.8684 12.6954 20.8684 12.6953 20.8684L12.7061 21.018M12.6957 20.8684C12.95 20.8501 13.2066 20.8284 13.4692 20.8019L13.4768 20.8011H13.4793M12.6957 20.8684L12.7061 21.018M12.7061 21.018L13.4793 20.8011M13.4793 20.8011C13.4769 20.8013 13.4751 20.8014 13.4744 20.8015C13.4752 20.8014 13.4764 20.8013 13.4781 20.8013C13.4774 20.8013 13.4768 20.8014 13.4762 20.8014L13.4843 20.8814L13.4914 20.9507V20.8007C13.4872 20.8007 13.4833 20.8008 13.4803 20.801M13.4793 20.8011L14.0371 4.73625C15.5205 5.42194 17.0095 7.11972 16.9954 9.36296V9.3639V13.1275C16.9954 15.6021 17.8491 17.9088 19.4725 19.8541L16.564 20.3613C15.7755 20.4988 15.053 20.6105 14.3708 20.6986H14.368L14.3585 20.6999C14.0579 20.7384 13.766 20.772 13.4803 20.801M13.4793 20.8011C13.4796 20.8011 13.4799 20.8011 13.4803 20.801M13.4793 20.8011H13.4796L13.4803 20.801M9.30446 20.868C9.05773 20.8501 8.80848 20.8293 8.55412 20.8035L8.55216 20.8033L8.53836 20.8021L8.52591 20.801M9.30446 20.868L8.52591 20.801M8.52591 20.801C8.52566 20.801 8.52541 20.801 8.52516 20.8009C8.24062 20.7723 7.95013 20.7386 7.65117 20.7003L7.64168 20.6991H7.63795C6.9534 20.6114 6.2281 20.4988 5.43611 20.3609L2.52442 19.853C4.08447 17.9604 4.87358 15.7008 4.87358 13.1271V9.36646C4.88742 7.16581 6.43424 5.45399 7.9689 4.73855L8.52591 20.801ZM9.37586 4.25641C8.89533 4.36826 8.42351 4.52689 7.96896 4.73852L9.37586 4.25641ZM9.37586 4.25641C9.38044 4.256 9.38712 4.25522 9.39494 4.25364L9.39495 4.25369L9.39845 4.25289C10.397 4.02605 11.4598 4.01572 12.4701 4.2249C12.4703 4.22495 12.4706 4.22501 12.4709 4.22506L12.5013 4.07818C12.5042 4.07884 12.507 4.07845 12.5098 4.07806C12.5124 4.07772 12.5149 4.07737 12.5174 4.07776M9.37586 4.25641L12.5174 4.07776M12.5174 4.07776L12.4865 4.22454C12.4928 4.22586 12.4991 4.2272 12.5054 4.22854M12.5174 4.07776L12.4944 4.22598C12.5079 4.22808 12.5187 4.22766 12.5243 4.22725L12.53 4.2267L12.5304 4.22665C12.5307 4.22661 12.5307 4.22661 12.5296 4.22676L12.5294 4.22679C12.5274 4.22706 12.5197 4.22813 12.5104 4.22844C12.5089 4.22849 12.5072 4.22853 12.5054 4.22854M12.5054 4.22854C13.0279 4.34009 13.5419 4.50765 14.037 4.73622L12.5054 4.22854ZM7.2185 21.7901C7.97478 23.2269 9.421 24.15 11.0048 24.15C12.5891 24.15 14.0357 23.2264 14.7916 21.7889C15.4089 21.7049 16.0562 21.6038 16.7558 21.4815C16.7558 21.4815 16.7559 21.4815 16.7559 21.4815L20.6819 20.7961L7.2185 21.7901ZM20.6821 20.7961C20.8912 20.7599 21.0606 20.6085 21.1238 20.4068L20.6821 20.7961ZM9.84112 3.01166C9.88143 2.43835 10.3558 1.98635 10.9295 1.98635C11.4977 1.98635 11.9684 2.42958 12.0167 2.99494C11.2934 2.90545 10.5623 2.90999 9.84112 3.01166ZM11.0053 23.0132C10.1241 23.0132 9.2909 22.6218 8.69349 21.9614C9.48929 22.0347 10.2449 22.0717 11.0007 22.0717C11.7597 22.0717 12.5183 22.0346 13.3177 21.9604C12.7199 22.6216 11.8864 23.0132 11.0053 23.0132ZM13.4741 20.8015C13.4735 20.8016 13.4736 20.8015 13.4744 20.8015C13.4743 20.8015 13.4742 20.8015 13.4742 20.8015L13.4741 20.8015Z" fill="#F86D70" stroke="#F86D70" stroke-width="0.3"/>
<path d="M13.8093 6.34408L13.8093 6.34408C14.0882 6.45427 14.2402 6.76013 14.0943 7.03595L14.0943 7.03606C13.9565 7.29607 13.6204 7.39226 13.3483 7.28473C11.9718 6.74072 10.2784 6.7395 8.9123 7.28456L8.9123 7.28456C8.55648 7.4265 8.07392 7.70454 7.68146 8.10599C7.28988 8.50655 6.99655 9.02046 6.99207 9.63933C6.99008 9.94212 6.71323 10.15 6.42104 10.15H6.42103H6.42103H6.42102H6.42102H6.42102H6.42101H6.42101H6.421H6.421H6.42099H6.42099H6.42098H6.42098H6.42097H6.42097H6.42096H6.42096H6.42095H6.42095H6.42094H6.42094H6.42093H6.42093H6.42092H6.42092H6.42091H6.42091H6.4209H6.4209H6.42089H6.42089H6.42088H6.42088H6.42087H6.42087H6.42086H6.42086H6.42085H6.42085H6.42084H6.42084H6.42083H6.42083H6.42082H6.42082H6.42081H6.42081H6.4208H6.4208H6.42079H6.42079H6.42078H6.42078H6.42077H6.42077H6.42076H6.42076H6.42075H6.42075H6.42074H6.42074H6.42073H6.42073H6.42072H6.42072H6.42071H6.42071H6.4207H6.4207H6.42069H6.42069H6.42068H6.42068H6.42067H6.42067H6.42066H6.42066H6.42065H6.42065H6.42064H6.42064H6.42064H6.42063H6.42063H6.42062H6.42062H6.42061H6.42061H6.4206H6.4206H6.42059H6.42059H6.42058H6.42058H6.42057H6.42057H6.42056H6.42056H6.42055H6.42055H6.42054H6.42054H6.42053H6.42053H6.42052H6.42052H6.42051H6.42051H6.4205H6.4205H6.42049H6.42049H6.42048H6.42048H6.42047H6.42047H6.42046H6.42046H6.42045H6.42045H6.42044H6.42044H6.42043H6.42043H6.42042H6.42042H6.42041H6.42041H6.4204H6.4204H6.42039H6.42039H6.42038H6.42038H6.42037H6.42037H6.42036H6.42036H6.42035H6.42035H6.42034H6.42034H6.42033H6.42033H6.42032H6.42032H6.42031H6.42031H6.4203H6.4203H6.42029H6.42029H6.42028H6.42028H6.42027H6.42027H6.42027H6.42026H6.42026H6.42025H6.42025H6.42024H6.42024H6.42023H6.42023H6.42022H6.42022H6.42021H6.42021H6.4202H6.4202H6.42019H6.42019H6.42018H6.42018H6.42017H6.42017H6.42016H6.42016H6.42015H6.42015H6.42014H6.42014H6.42013H6.42013H6.42012H6.42012H6.42011H6.42011H6.4201H6.4201H6.42009H6.42009H6.42008H6.42008H6.42007H6.42007H6.42006H6.42006H6.42005H6.42005H6.42004H6.42004H6.42003H6.42003H6.42002H6.42002H6.42001H6.42001H6.42H6.42H6.41999H6.41999H6.41998H6.41998H6.41997H6.41997H6.41996H6.41996H6.41995H6.41995H6.41994H6.41994H6.41993H6.41993H6.41992H6.41992H6.41991H6.41991H6.4199H6.4199H6.41989H6.41989H6.41989H6.41988H6.41988H6.41987H6.41987H6.41986H6.41986H6.41985H6.41985H6.41984H6.41984H6.41983H6.41983H6.41982H6.41982H6.41981H6.41981H6.4198H6.4198H6.41979H6.41979H6.41978H6.41978H6.41977H6.41977H6.41976H6.41976H6.41975H6.41975H6.41974H6.41974H6.41973H6.41973H6.41972H6.41972H6.41971H6.41971H6.4197H6.4197H6.41969H6.41969H6.41968H6.41968H6.41967H6.41967H6.41966H6.41966H6.41965H6.41965H6.41964H6.41964H6.41963H6.41963H6.41962H6.41962H6.41961H6.41961H6.4196H6.4196H6.41959H6.41959H6.41958H6.41958H6.41957H6.41957H6.41956H6.41956H6.41955H6.41955H6.41954H6.41954H6.41953H6.41953H6.41952H6.41952H6.41951H6.41951H6.41951H6.4195H6.4195H6.41949H6.41949H6.41948H6.41948H6.41947H6.41947H6.41946H6.41946H6.41945H6.41945H6.41944H6.41944H6.41943H6.41943H6.41942H6.41942H6.41941H6.41941H6.4194H6.4194H6.41939H6.41939H6.41938H6.41938H6.41937H6.41937H6.41936H6.41936H6.41935H6.41935H6.41934H6.41934H6.41933H6.41933H6.41932H6.41932H6.41931H6.41931H6.4193H6.4193H6.41929H6.41929H6.41928H6.41928H6.41927H6.41927H6.41926H6.41926H6.41925H6.41925H6.41924H6.41924H6.41923H6.41923H6.41922H6.41922H6.41921H6.41921H6.4192H6.4192H6.41919H6.41919H6.41918H6.41918H6.41917H6.41917H6.41916H6.41916H6.41915H6.41915H6.41914H6.41914H6.41913H6.41913H6.41913H6.41912H6.41912H6.41911H6.41911H6.4191H6.4191H6.41909H6.41909H6.41908H6.41908H6.41907H6.41907H6.41906H6.41906H6.41905H6.41905H6.41904H6.41904H6.41903H6.41903H6.41902H6.41902H6.41901H6.41901H6.419H6.419H6.41899H6.41899H6.41898H6.41898H6.41897H6.41897H6.41896H6.41896H6.41895H6.41895H6.41894H6.41894H6.41893H6.41893H6.41892H6.41892H6.41891H6.41891H6.4189H6.4189H6.41889H6.41889H6.41888H6.41888H6.41887H6.41887H6.41886H6.41886H6.41885H6.41885H6.41884H6.41884H6.41883H6.41883H6.41882H6.41882H6.41881H6.41881H6.4188H6.4188H6.41879H6.41879H6.41878H6.41878H6.41877H6.41877H6.41876H6.41876H6.41876H6.41875H6.41875H6.41874H6.41874H6.41873H6.41873H6.41872H6.41872H6.41871H6.41871H6.4187H6.4187H6.41869H6.41869H6.41868H6.41868H6.41867H6.41867H6.41866H6.41866H6.41865H6.41865H6.41864H6.41864H6.41863H6.41863H6.41862H6.41862H6.41861H6.41861H6.4186H6.4186H6.41859H6.41859H6.41858H6.41858H6.41857H6.41857H6.41856H6.41856H6.41855H6.41855H6.41854H6.41854H6.41853H6.41853H6.41852H6.41852H6.41851H6.41758C6.1232 10.1482 5.8481 9.93647 5.85001 9.63293L5.85001 9.63276C5.85669 8.73184 6.27514 8.00157 6.8023 7.45429C7.32839 6.90813 7.97024 6.53569 8.44877 6.34498L13.8093 6.34408ZM13.8093 6.34408C12.1425 5.68561 10.1052 5.6847 8.44878 6.34497L13.8093 6.34408ZM6.00001 9.63387C5.99874 9.83477 6.18568 9.99854 6.41851 10L6.00001 9.63387Z" fill="#F86D70" stroke="#F86D70" stroke-width="0.3"/>
</svg>
