<svg width="20" height="20" viewBox="0 0 20 20" fill="none" xmlns="http://www.w3.org/2000/svg">
<g clip-path="url(#clip0)">
<path d="M3.23125 1.5125H2.34375C1.02379 1.5125 -0.05 2.58629 -0.05 3.90625V17.6562C-0.05 18.9762 1.02379 20.05 2.34375 20.05H17.6562C18.9762 20.05 20.05 18.9762 20.05 17.6562V3.90625C20.05 2.58629 18.9762 1.5125 17.6562 1.5125H16.7687V0V-0.05H16.7188H15.1562H15.1062V0V1.5125H4.89375V0V-0.05H4.84375H3.28125H3.23125V0V1.5125ZM16.7687 4.6875V3.175H17.6562C18.0594 3.175 18.3875 3.50308 18.3875 3.90625V5.73125H1.6125V3.90625C1.6125 3.50308 1.94058 3.175 2.34375 3.175H3.23125V4.6875V4.7375H3.28125H4.84375H4.89375V4.6875V3.175H15.1062V4.6875V4.7375H15.1562H16.7188H16.7687V4.6875ZM18.3875 17.6562C18.3875 18.0594 18.0594 18.3875 17.6562 18.3875H2.34375C1.94058 18.3875 1.6125 18.0594 1.6125 17.6562V7.39375H18.3875V17.6562Z" fill="#04348C" stroke="#04348C" stroke-width="0.1"/>
<path d="M4.58125 8.98438V8.93437H4.53125H2.96875H2.91875V8.98438V10.5469V10.5969H2.96875H4.53125H4.58125V10.5469V8.98438Z" fill="#04348C" stroke="#04348C" stroke-width="0.1"/>
<path d="M7.70625 8.98438V8.93437H7.65625H6.09375H6.04375V8.98438V10.5469V10.5969H6.09375H7.65625H7.70625V10.5469V8.98438Z" fill="#04348C" stroke="#04348C" stroke-width="0.1"/>
<path d="M10.8312 8.98438V8.93437H10.7812H9.21875H9.16875V8.98438V10.5469V10.5969H9.21875H10.7812H10.8312V10.5469V8.98438Z" fill="#04348C" stroke="#04348C" stroke-width="0.1"/>
<path d="M13.9562 8.98438V8.93437H13.9062H12.3438H12.2937V8.98438V10.5469V10.5969H12.3438H13.9062H13.9562V10.5469V8.98438Z" fill="#04348C" stroke="#04348C" stroke-width="0.1"/>
<path d="M17.0812 8.98438V8.93437H17.0312H15.4688H15.4187V8.98438V10.5469V10.5969H15.4688H17.0312H17.0812V10.5469V8.98438Z" fill="#04348C" stroke="#04348C" stroke-width="0.1"/>
<path d="M4.58125 12.1094V12.0594H4.53125H2.96875H2.91875V12.1094V13.6719V13.7219H2.96875H4.53125H4.58125V13.6719V12.1094Z" fill="#04348C" stroke="#04348C" stroke-width="0.1"/>
<path d="M7.70625 12.1094V12.0594H7.65625H6.09375H6.04375V12.1094V13.6719V13.7219H6.09375H7.65625H7.70625V13.6719V12.1094Z" fill="#04348C" stroke="#04348C" stroke-width="0.1"/>
<path d="M10.8312 12.1094V12.0594H10.7812H9.21875H9.16875V12.1094V13.6719V13.7219H9.21875H10.7812H10.8312V13.6719V12.1094Z" fill="#04348C" stroke="#04348C" stroke-width="0.1"/>
<path d="M13.9562 12.1094V12.0594H13.9062H12.3438H12.2937V12.1094V13.6719V13.7219H12.3438H13.9062H13.9562V13.6719V12.1094Z" fill="#04348C" stroke="#04348C" stroke-width="0.1"/>
<path d="M4.58125 15.2344V15.1844H4.53125H2.96875H2.91875V15.2344V16.7969V16.8469H2.96875H4.53125H4.58125V16.7969V15.2344Z" fill="#04348C" stroke="#04348C" stroke-width="0.1"/>
<path d="M7.70625 15.2344V15.1844H7.65625H6.09375H6.04375V15.2344V16.7969V16.8469H6.09375H7.65625H7.70625V16.7969V15.2344Z" fill="#04348C" stroke="#04348C" stroke-width="0.1"/>
<path d="M10.8312 15.2344V15.1844H10.7812H9.21875H9.16875V15.2344V16.7969V16.8469H9.21875H10.7812H10.8312V16.7969V15.2344Z" fill="#04348C" stroke="#04348C" stroke-width="0.1"/>
<path d="M13.9562 15.2344V15.1844H13.9062H12.3438H12.2937V15.2344V16.7969V16.8469H12.3438H13.9062H13.9562V16.7969V15.2344Z" fill="#04348C" stroke="#04348C" stroke-width="0.1"/>
<path d="M17.0812 12.1094V12.0594H17.0312H15.4688H15.4187V12.1094V13.6719V13.7219H15.4688H17.0312H17.0812V13.6719V12.1094Z" fill="#04348C" stroke="#04348C" stroke-width="0.1"/>
</g>
<defs>
<clipPath id="clip0">
<rect width="20" height="20" fill="white"/>
</clipPath>
</defs>
</svg>
