<svg width="365" height="119" viewBox="0 0 365 119" fill="none" xmlns="http://www.w3.org/2000/svg">
<g filter="url(#filter0_d)">
<rect x="7" y="5" width="345" height="99" rx="24" fill="#F86D70"/>
</g>
<g clip-path="url(#clip0)">
<path d="M69.2313 45.5125H68.3438C67.0238 45.5125 65.95 46.5863 65.95 47.9062V61.6562C65.95 62.9762 67.0238 64.05 68.3438 64.05H83.6562C84.9762 64.05 86.05 62.9762 86.05 61.6562V47.9062C86.05 46.5863 84.9762 45.5125 83.6562 45.5125H82.7687V44V43.95H82.7188H81.1562H81.1062V44V45.5125H70.8938V44V43.95H70.8438H69.2812H69.2313V44V45.5125ZM82.7687 48.6875V47.175H83.6562C84.0594 47.175 84.3875 47.5031 84.3875 47.9062V49.7312H67.6125V47.9062C67.6125 47.5031 67.9406 47.175 68.3438 47.175H69.2313V48.6875V48.7375H69.2812H70.8438H70.8938V48.6875V47.175H81.1062V48.6875V48.7375H81.1562H82.7188H82.7687V48.6875ZM84.3875 61.6562C84.3875 62.0594 84.0594 62.3875 83.6562 62.3875H68.3438C67.9406 62.3875 67.6125 62.0594 67.6125 61.6562V51.3938H84.3875V61.6562Z" fill="white" stroke="white" stroke-width="0.1"/>
<path d="M70.5812 52.9844V52.9344H70.5312H68.9688H68.9187V52.9844V54.5469V54.5969H68.9688H70.5312H70.5812V54.5469V52.9844Z" fill="white" stroke="white" stroke-width="0.1"/>
<path d="M73.7062 52.9844V52.9344H73.6562H72.0938H72.0437V52.9844V54.5469V54.5969H72.0938H73.6562H73.7062V54.5469V52.9844Z" fill="white" stroke="white" stroke-width="0.1"/>
<path d="M76.8312 52.9844V52.9344H76.7812H75.2188H75.1687V52.9844V54.5469V54.5969H75.2188H76.7812H76.8312V54.5469V52.9844Z" fill="white" stroke="white" stroke-width="0.1"/>
<path d="M79.9562 52.9844V52.9344H79.9062H78.3438H78.2937V52.9844V54.5469V54.5969H78.3438H79.9062H79.9562V54.5469V52.9844Z" fill="white" stroke="white" stroke-width="0.1"/>
<path d="M83.0812 52.9844V52.9344H83.0312H81.4688H81.4187V52.9844V54.5469V54.5969H81.4688H83.0312H83.0812V54.5469V52.9844Z" fill="white" stroke="white" stroke-width="0.1"/>
<path d="M70.5812 56.1094V56.0594H70.5312H68.9688H68.9187V56.1094V57.6719V57.7219H68.9688H70.5312H70.5812V57.6719V56.1094Z" fill="white" stroke="white" stroke-width="0.1"/>
<path d="M73.7062 56.1094V56.0594H73.6562H72.0938H72.0437V56.1094V57.6719V57.7219H72.0938H73.6562H73.7062V57.6719V56.1094Z" fill="white" stroke="white" stroke-width="0.1"/>
<path d="M76.8312 56.1094V56.0594H76.7812H75.2188H75.1687V56.1094V57.6719V57.7219H75.2188H76.7812H76.8312V57.6719V56.1094Z" fill="white" stroke="white" stroke-width="0.1"/>
<path d="M79.9562 56.1094V56.0594H79.9062H78.3438H78.2937V56.1094V57.6719V57.7219H78.3438H79.9062H79.9562V57.6719V56.1094Z" fill="white" stroke="white" stroke-width="0.1"/>
<path d="M70.5812 59.2344V59.1844H70.5312H68.9688H68.9187V59.2344V60.7969V60.8469H68.9688H70.5312H70.5812V60.7969V59.2344Z" fill="white" stroke="white" stroke-width="0.1"/>
<path d="M73.7062 59.2344V59.1844H73.6562H72.0938H72.0437V59.2344V60.7969V60.8469H72.0938H73.6562H73.7062V60.7969V59.2344Z" fill="white" stroke="white" stroke-width="0.1"/>
<path d="M76.8312 59.2344V59.1844H76.7812H75.2188H75.1687V59.2344V60.7969V60.8469H75.2188H76.7812H76.8312V60.7969V59.2344Z" fill="white" stroke="white" stroke-width="0.1"/>
<path d="M79.9562 59.2344V59.1844H79.9062H78.3438H78.2937V59.2344V60.7969V60.8469H78.3438H79.9062H79.9562V60.7969V59.2344Z" fill="white" stroke="white" stroke-width="0.1"/>
<path d="M83.0812 56.1094V56.0594H83.0312H81.4688H81.4187V56.1094V57.6719V57.7219H81.4688H83.0312H83.0812V57.6719V56.1094Z" fill="white" stroke="white" stroke-width="0.1"/>
</g>
<path d="M128.293 59.2539C128.473 59.1367 128.648 59.0781 128.82 59.0781C129.023 59.0781 129.172 59.1484 129.266 59.2891L131.012 61.9375C131.051 62 131.07 62.0703 131.07 62.1484C131.07 62.25 131.039 62.3516 130.977 62.4531C130.922 62.5469 130.84 62.6328 130.73 62.7109C130.098 63.1875 129.297 63.5859 128.328 63.9062C127.367 64.2188 126.477 64.375 125.656 64.375C124 64.375 122.484 63.9805 121.109 63.1914C119.734 62.4023 118.645 61.3281 117.84 59.9688C117.043 58.6016 116.645 57.1016 116.645 55.4688C116.645 53.8281 117.043 52.3281 117.84 50.9688C118.645 49.6016 119.734 48.5234 121.109 47.7344C122.484 46.9453 124 46.5508 125.656 46.5508C126.453 46.5508 127.34 46.7148 128.316 47.043C129.293 47.3633 130.125 47.7734 130.812 48.2734C131 48.4141 131.094 48.582 131.094 48.7773C131.094 48.8789 131.066 48.9688 131.012 49.0469L129.23 51.6602C129.137 51.793 128.996 51.8594 128.809 51.8594C128.652 51.8594 128.5 51.8086 128.352 51.707C127.969 51.418 127.527 51.1836 127.027 51.0039C126.527 50.8242 126.07 50.7344 125.656 50.7344C124.781 50.7344 123.98 50.9453 123.254 51.3672C122.527 51.7891 121.949 52.3633 121.52 53.0898C121.098 53.8086 120.887 54.6016 120.887 55.4688C120.887 56.3281 121.098 57.1172 121.52 57.8359C121.949 58.5547 122.527 59.125 123.254 59.5469C123.98 59.9609 124.781 60.168 125.656 60.168C126.062 60.168 126.512 60.082 127.004 59.9102C127.496 59.7383 127.926 59.5195 128.293 59.2539ZM148.566 63.332C148.605 63.4336 148.625 63.5234 148.625 63.6016C148.625 63.7266 148.578 63.8281 148.484 63.9062C148.398 63.9844 148.273 64.0234 148.109 64.0234H144.781C144.617 64.0234 144.465 63.9727 144.324 63.8711C144.191 63.7617 144.094 63.625 144.031 63.4609L143.258 61.2109H137.316L136.555 63.4492C136.508 63.6133 136.414 63.75 136.273 63.8594C136.133 63.9609 135.973 64.0117 135.793 64.0117H132.477C132.312 64.0117 132.184 63.9766 132.09 63.9062C132.004 63.8281 131.961 63.7227 131.961 63.5898C131.961 63.5117 131.98 63.4219 132.02 63.3203L138.277 47.4414C138.355 47.2617 138.465 47.1211 138.605 47.0195C138.754 46.918 138.91 46.8672 139.074 46.8672H141.547C141.711 46.8672 141.863 46.9219 142.004 47.0312C142.152 47.1328 142.258 47.2695 142.32 47.4414L148.566 63.332ZM142.051 57.6719L140.281 52.4805L138.512 57.6719H142.051ZM161.176 59.9688C161.324 59.9688 161.438 60.0078 161.516 60.0859C161.594 60.1641 161.633 60.2734 161.633 60.4141V63.5547C161.633 63.6953 161.594 63.8047 161.516 63.8828C161.438 63.9609 161.324 64 161.176 64H150.699C150.559 64 150.445 63.9609 150.359 63.8828C150.281 63.8047 150.242 63.6953 150.242 63.5547V47.3359C150.242 47.1875 150.281 47.0742 150.359 46.9961C150.445 46.918 150.559 46.8789 150.699 46.8789H154.039C154.18 46.8789 154.289 46.918 154.367 46.9961C154.453 47.0742 154.496 47.1875 154.496 47.3359V59.9688H161.176ZM163.836 47.5C163.836 47.3047 163.891 47.1523 164 47.043C164.109 46.9336 164.262 46.8789 164.457 46.8789H175.484C175.68 46.8789 175.832 46.9336 175.941 47.043C176.051 47.1523 176.105 47.3047 176.105 47.5V50.1953C176.105 50.3906 176.051 50.543 175.941 50.6523C175.84 50.7617 175.688 50.8164 175.484 50.8164H168.043V53.6523H173.691C173.902 53.6523 174.066 53.7109 174.184 53.8281C174.309 53.9375 174.371 54.0938 174.371 54.2969V56.5234C174.371 56.7188 174.309 56.8711 174.184 56.9805C174.066 57.0898 173.902 57.1445 173.691 57.1445H168.043V60.0625H175.484C175.75 60.0625 175.957 60.1367 176.105 60.2852C176.262 60.4258 176.34 60.6172 176.34 60.8594V63.3906C176.34 63.5781 176.281 63.7266 176.164 63.8359C176.055 63.9453 175.902 64 175.707 64H164.457C164.262 64 164.109 63.9492 164 63.8477C163.891 63.7383 163.836 63.5859 163.836 63.3906V47.5ZM193.613 46.8789C193.762 46.8789 193.875 46.918 193.953 46.9961C194.031 47.0742 194.07 47.1875 194.07 47.3359V63.5547C194.07 63.7031 194.027 63.8164 193.941 63.8945C193.863 63.9727 193.754 64.0117 193.613 64.0117H190.426C190.059 64.0117 189.762 63.8359 189.535 63.4844L182.949 53.4648V63.5547C182.949 63.7031 182.906 63.8164 182.82 63.8945C182.742 63.9727 182.633 64.0117 182.492 64.0117H179.152C179.012 64.0117 178.898 63.9727 178.812 63.8945C178.734 63.8164 178.695 63.7031 178.695 63.5547V47.3359C178.695 47.1875 178.734 47.0742 178.812 46.9961C178.898 46.918 179.012 46.8789 179.152 46.8789H182.609C182.945 46.8789 183.238 47.0625 183.488 47.4297L189.828 56.8516V47.3359C189.828 47.1875 189.867 47.0742 189.945 46.9961C190.023 46.918 190.133 46.8789 190.273 46.8789H193.613ZM196.953 47.5C196.953 47.3281 197.012 47.1836 197.129 47.0664C197.254 46.9414 197.402 46.8789 197.574 46.8789H202.895C204.559 46.8789 206.043 47.2461 207.348 47.9805C208.66 48.707 209.684 49.7227 210.418 51.0273C211.152 52.3242 211.52 53.8008 211.52 55.457C211.52 57.1055 211.152 58.5781 210.418 59.875C209.684 61.1719 208.66 62.1836 207.348 62.9102C206.043 63.6367 204.559 64 202.895 64H197.574C197.402 64 197.254 63.9414 197.129 63.8242C197.012 63.6992 196.953 63.5508 196.953 63.3789V47.5ZM202.895 59.9688C203.723 59.9688 204.469 59.7695 205.133 59.3711C205.805 58.9648 206.328 58.418 206.703 57.7305C207.078 57.043 207.266 56.2852 207.266 55.457C207.266 54.5977 207.078 53.8164 206.703 53.1133C206.328 52.4102 205.809 51.8594 205.145 51.4609C204.48 51.0547 203.73 50.8516 202.895 50.8516L201.207 50.8633V59.9688H202.895ZM227.949 63.332C227.988 63.4336 228.008 63.5234 228.008 63.6016C228.008 63.7266 227.961 63.8281 227.867 63.9062C227.781 63.9844 227.656 64.0234 227.492 64.0234H224.164C224 64.0234 223.848 63.9727 223.707 63.8711C223.574 63.7617 223.477 63.625 223.414 63.4609L222.641 61.2109H216.699L215.938 63.4492C215.891 63.6133 215.797 63.75 215.656 63.8594C215.516 63.9609 215.355 64.0117 215.176 64.0117H211.859C211.695 64.0117 211.566 63.9766 211.473 63.9062C211.387 63.8281 211.344 63.7227 211.344 63.5898C211.344 63.5117 211.363 63.4219 211.402 63.3203L217.66 47.4414C217.738 47.2617 217.848 47.1211 217.988 47.0195C218.137 46.918 218.293 46.8672 218.457 46.8672H220.93C221.094 46.8672 221.246 46.9219 221.387 47.0312C221.535 47.1328 221.641 47.2695 221.703 47.4414L227.949 63.332ZM221.434 57.6719L219.664 52.4805L217.895 57.6719H221.434ZM242.75 63.2969C242.797 63.375 242.82 63.4609 242.82 63.5547C242.82 63.6797 242.777 63.7891 242.691 63.8828C242.605 63.9688 242.492 64.0117 242.352 64.0117H238.848C238.676 64.0117 238.539 63.9766 238.438 63.9062C238.344 63.8281 238.242 63.6875 238.133 63.4844L235.625 58.6562H233.879V63.3906C233.879 63.5859 233.82 63.7383 233.703 63.8477C233.594 63.957 233.438 64.0117 233.234 64.0117H230.234C230.039 64.0117 229.887 63.957 229.777 63.8477C229.676 63.7383 229.625 63.5859 229.625 63.3906V47.5C229.625 47.3203 229.68 47.1719 229.789 47.0547C229.906 46.9375 230.055 46.8789 230.234 46.8789H231.008H233.27H236.246C237.449 46.8789 238.516 47.125 239.445 47.6172C240.375 48.1016 241.098 48.793 241.613 49.6914C242.137 50.5898 242.398 51.6328 242.398 52.8203C242.398 53.8906 242.164 54.8516 241.695 55.7031C241.234 56.5547 240.586 57.2305 239.75 57.7305L242.75 63.2969ZM233.879 54.9883H236.07C236.469 54.9883 236.824 54.8906 237.137 54.6953C237.457 54.5 237.707 54.2344 237.887 53.8984C238.066 53.5625 238.156 53.1953 238.156 52.7969C238.156 52.3984 238.066 52.043 237.887 51.7305C237.707 51.4102 237.457 51.1641 237.137 50.9922C236.824 50.8125 236.469 50.7227 236.07 50.7227H233.879V54.9883Z" fill="white"/>
<defs>
<filter id="filter0_d" x="0" y="0" width="365" height="119" filterUnits="userSpaceOnUse" color-interpolation-filters="sRGB">
<feFlood flood-opacity="0" result="BackgroundImageFix"/>
<feColorMatrix in="SourceAlpha" type="matrix" values="0 0 0 0 0 0 0 0 0 0 0 0 0 0 0 0 0 0 127 0"/>
<feOffset dx="3" dy="5"/>
<feGaussianBlur stdDeviation="5"/>
<feColorMatrix type="matrix" values="0 0 0 0 0 0 0 0 0 0 0 0 0 0 0 0 0 0 0.1 0"/>
<feBlend mode="normal" in2="BackgroundImageFix" result="effect1_dropShadow"/>
<feBlend mode="normal" in="SourceGraphic" in2="effect1_dropShadow" result="shape"/>
</filter>
<clipPath id="clip0">
<rect width="20" height="20" fill="white" transform="translate(66 44)"/>
</clipPath>
</defs>
</svg>
