<svg width="29" height="29" viewBox="0 0 29 29" fill="none" xmlns="http://www.w3.org/2000/svg">
<path fill-rule="evenodd" clip-rule="evenodd" d="M14.9576 28.6C22.7131 28.6 29.0001 22.1977 29.0001 14.3C29.0001 6.40233 22.7131 0 14.9576 0C7.2021 0 0.915039 6.40233 0.915039 14.3C0.915039 22.1977 7.2021 28.6 14.9576 28.6Z" fill="#19C3AB"/>
<path fill-rule="evenodd" clip-rule="evenodd" d="M14.9569 9.27539C18.52 9.27539 21.4089 11.6822 21.4089 14.6511C21.4089 17.62 18.52 20.0268 14.9569 20.0268C14.3705 20.0268 13.1874 19.7888 13.181 19.7994C12.7866 20.4498 10.6308 20.8441 10.4252 20.8678C10.2203 20.8924 10.0542 20.7001 10.2332 20.5881C10.4114 20.476 11.0784 19.8722 11.2413 19.4967C11.4042 19.1212 11.1962 18.8692 11.0494 18.7081C9.50252 17.7263 8.50488 16.3961 8.50488 14.6511C8.50488 11.6822 11.3938 9.27539 14.9569 9.27539Z" fill="white"/>
</svg>
