<svg width="365" height="119" viewBox="0 0 365 119" fill="none" xmlns="http://www.w3.org/2000/svg">
<g filter="url(#filter0_d)">
<rect x="7" y="5" width="345" height="99" rx="24" fill="#19C3AB"/>
</g>
<g clip-path="url(#clip0)">
<path d="M85.9948 43.5936L85.995 43.5937C86.1553 43.7093 86.25 43.8942 86.25 44.0917V59.0008C86.25 59.254 86.0945 59.4805 85.8593 59.5728L85.8586 59.5731L79.3176 62.1168C79.3075 62.121 79.2979 62.1242 79.2893 62.1266C79.2282 62.1475 79.1613 62.1603 79.0909 62.1603C79.0559 62.1603 79.0198 62.1573 78.9829 62.1504C78.9823 62.1503 78.9817 62.1502 78.9811 62.1501L72.9234 61.0811L66.4968 62.5092L66.4935 62.5099L66.4935 62.5099C66.4518 62.5186 66.4082 62.5235 66.3636 62.5235C66.2256 62.5235 66.0898 62.4769 65.9797 62.3883L66.1364 62.1935M85.9948 43.5936L73.0503 44.2216L72.9924 44.4648L73.0496 44.2215L73.0498 44.2215C73.0086 44.2118 72.9726 44.2131 72.956 44.2143C72.9203 44.2103 72.8498 44.2041 72.7776 44.2197L72.7776 44.2197L72.7759 44.22L66.2305 45.6746L66.2303 45.6746C65.9502 45.7371 65.75 45.9855 65.75 46.2735V61.9099C65.75 62.0967 65.8349 62.2723 65.98 62.3886L66.1364 62.1935M85.9948 43.5936C85.8361 43.4792 85.63 43.4456 85.4412 43.5097M85.9948 43.5936L85.4412 43.5097M66.1364 62.1935C66.0502 62.1244 66 62.0204 66 61.9099V46.2735C66 46.103 66.1185 45.9557 66.2847 45.9186L72.8302 44.4641L72.9178 60.8263L66.4425 62.2652C66.4164 62.2706 66.3898 62.2735 66.3636 62.2735C66.2818 62.2735 66.2015 62.2459 66.1364 62.1935ZM85.4412 43.5097C85.4409 43.5098 85.4405 43.51 85.4402 43.5101L85.4412 43.5097ZM79.062 45.6361L78.9948 45.6585L79.0738 45.8957L79.1311 45.6524L79.062 45.6361ZM66.9773 61.1448V46.7654L72.2955 45.5837V59.9628L66.9773 61.1448ZM73.5227 59.9405V45.5935L78.4773 46.7592V60.8145L73.5227 59.9405ZM85.0227 44.9429V58.5811L79.7045 60.6492V46.7155L85.0227 44.9429Z" fill="white" stroke="white" stroke-width="0.5"/>
</g>
<path d="M174.047 60.3789C174.07 60.5898 174.023 60.75 173.906 60.8594C173.797 60.9609 173.637 61.0117 173.426 61.0117H170.332C170.137 61.0117 169.988 60.9648 169.887 60.8711C169.793 60.7773 169.734 60.625 169.711 60.4141L168.727 50.9922L166.125 60.1914C166.062 60.4102 165.984 60.5625 165.891 60.6484C165.797 60.7344 165.656 60.7773 165.469 60.7773H162.328C162.141 60.7773 162 60.7383 161.906 60.6602C161.812 60.5742 161.734 60.418 161.672 60.1914L159.082 51.0156L158.086 60.4141C158.062 60.625 158 60.7773 157.898 60.8711C157.797 60.9648 157.648 61.0117 157.453 61.0117H154.371C154.16 61.0117 153.996 60.9609 153.879 60.8594C153.77 60.75 153.727 60.5898 153.75 60.3789L155.637 44.4766C155.684 44.0703 155.887 43.8672 156.246 43.8672H160.219C160.594 43.8672 160.832 44.0625 160.934 44.4531L163.898 54.7891L166.863 44.4531C166.91 44.2578 166.988 44.1133 167.098 44.0195C167.215 43.918 167.375 43.8672 167.578 43.8672H171.551C171.91 43.8672 172.113 44.0703 172.16 44.4766L174.047 60.3789ZM191.59 60.332C191.629 60.4336 191.648 60.5234 191.648 60.6016C191.648 60.7266 191.602 60.8281 191.508 60.9062C191.422 60.9844 191.297 61.0234 191.133 61.0234H187.805C187.641 61.0234 187.488 60.9727 187.348 60.8711C187.215 60.7617 187.117 60.625 187.055 60.4609L186.281 58.2109H180.34L179.578 60.4492C179.531 60.6133 179.438 60.75 179.297 60.8594C179.156 60.9609 178.996 61.0117 178.816 61.0117H175.5C175.336 61.0117 175.207 60.9766 175.113 60.9062C175.027 60.8281 174.984 60.7227 174.984 60.5898C174.984 60.5117 175.004 60.4219 175.043 60.3203L181.301 44.4414C181.379 44.2617 181.488 44.1211 181.629 44.0195C181.777 43.918 181.934 43.8672 182.098 43.8672H184.57C184.734 43.8672 184.887 43.9219 185.027 44.0312C185.176 44.1328 185.281 44.2695 185.344 44.4414L191.59 60.332ZM185.074 54.6719L183.305 49.4805L181.535 54.6719H185.074ZM199.57 43.8789C200.773 43.8789 201.84 44.125 202.77 44.6172C203.699 45.1016 204.422 45.793 204.938 46.6914C205.461 47.5898 205.723 48.6367 205.723 49.832C205.723 51.0117 205.461 52.0469 204.938 52.9375C204.422 53.8281 203.699 54.5156 202.77 55C201.84 55.4844 200.773 55.7266 199.57 55.7266H197.52V60.3906C197.52 60.5859 197.461 60.7383 197.344 60.8477C197.234 60.957 197.078 61.0117 196.875 61.0117H193.875C193.68 61.0117 193.527 60.957 193.418 60.8477C193.316 60.7383 193.266 60.5859 193.266 60.3906V44.5117C193.266 44.332 193.32 44.1836 193.43 44.0664C193.547 43.9414 193.695 43.8789 193.875 43.8789H195.387H196.91H199.57ZM199.395 51.8711C199.785 51.8711 200.141 51.7812 200.461 51.6016C200.781 51.4219 201.031 51.1758 201.211 50.8633C201.391 50.5508 201.48 50.1992 201.48 49.8086C201.48 49.418 201.391 49.0664 201.211 48.7539C201.031 48.4336 200.781 48.1836 200.461 48.0039C200.141 47.8242 199.785 47.7344 199.395 47.7344H197.52V51.8711H199.395Z" fill="white"/>
<defs>
<filter id="filter0_d" x="0" y="0" width="365" height="119" filterUnits="userSpaceOnUse" color-interpolation-filters="sRGB">
<feFlood flood-opacity="0" result="BackgroundImageFix"/>
<feColorMatrix in="SourceAlpha" type="matrix" values="0 0 0 0 0 0 0 0 0 0 0 0 0 0 0 0 0 0 127 0"/>
<feOffset dx="3" dy="5"/>
<feGaussianBlur stdDeviation="5"/>
<feColorMatrix type="matrix" values="0 0 0 0 0 0 0 0 0 0 0 0 0 0 0 0 0 0 0.1 0"/>
<feBlend mode="normal" in2="BackgroundImageFix" result="effect1_dropShadow"/>
<feBlend mode="normal" in="SourceGraphic" in2="effect1_dropShadow" result="shape"/>
</filter>
<clipPath id="clip0">
<rect width="20" height="20" fill="white" transform="translate(66 43)"/>
</clipPath>
</defs>
</svg>
