<svg width="20" height="20" viewBox="0 0 20 20" fill="none" xmlns="http://www.w3.org/2000/svg">
<g clip-path="url(#clip0)">
<path d="M19.9948 0.593593L19.995 0.593696C20.1553 0.709336 20.25 0.894166 20.25 1.09172V16.0008C20.25 16.254 20.0945 16.4805 19.8593 16.5728L19.8586 16.5731L13.3176 19.1168C13.3075 19.121 13.2979 19.1242 13.2893 19.1266C13.2282 19.1475 13.1613 19.1603 13.0909 19.1603C13.0559 19.1603 13.0198 19.1573 12.9829 19.1504C12.9823 19.1503 12.9817 19.1502 12.9811 19.1501L6.92342 18.0811L0.496777 19.5092L0.493543 19.5099L0.493538 19.5099C0.451848 19.5186 0.408195 19.5235 0.363636 19.5235C0.225581 19.5235 0.0897545 19.4769 -0.0203417 19.3883L0.136364 19.1935M19.9948 0.593593L7.05027 1.22161L6.99236 1.46481L7.04962 1.22146L7.04982 1.2215C7.00861 1.21176 6.97258 1.21309 6.95599 1.21428C6.9203 1.21035 6.84985 1.20415 6.77764 1.21967L6.77764 1.21966L6.77595 1.22004L0.230495 2.67458L0.230268 2.67463C-0.0497756 2.73714 -0.25 2.98548 -0.25 3.27354V18.9099C-0.25 19.0967 -0.165085 19.2723 -0.0200094 19.3886L0.136364 19.1935M19.9948 0.593593C19.8361 0.479213 19.63 0.445552 19.4412 0.509721M19.9948 0.593593L19.4412 0.509721M0.136364 19.1935C0.0501818 19.1244 0 19.0204 0 18.9099V3.27354C0 3.10299 0.118545 2.95572 0.284727 2.91863L6.83018 1.46408L6.91782 17.8263L0.442545 19.2652C0.416364 19.2706 0.389818 19.2735 0.363636 19.2735C0.281818 19.2735 0.201455 19.2459 0.136364 19.1935ZM19.4412 0.509721C19.4409 0.509843 19.4405 0.509966 19.4402 0.510088L19.4412 0.509721ZM13.062 2.63612L12.9948 2.65855L13.0738 2.89572L13.1311 2.65237L13.062 2.63612ZM0.977273 18.1448V3.76536L6.29545 2.58373V16.9628L0.977273 18.1448ZM7.52273 16.9405V2.59354L12.4773 3.75918V17.8145L7.52273 16.9405ZM19.0227 1.94293V15.5811L13.7045 17.6492V3.71555L19.0227 1.94293Z" fill="#04318C" stroke="#04318C" stroke-width="0.5"/>
</g>
<defs>
<clipPath id="clip0">
<rect width="20" height="20" fill="white"/>
</clipPath>
</defs>
</svg>
