<svg width="365" height="119" viewBox="0 0 365 119" fill="none" xmlns="http://www.w3.org/2000/svg">
<g filter="url(#filter0_d)">
<rect x="7" y="5" width="345" height="99" rx="24" fill="#FCB83B"/>
</g>
<path d="M159.555 65.2969C159.602 65.375 159.625 65.4609 159.625 65.5547C159.625 65.6797 159.582 65.7891 159.496 65.8828C159.41 65.9688 159.297 66.0117 159.156 66.0117H155.652C155.48 66.0117 155.344 65.9766 155.242 65.9062C155.148 65.8281 155.047 65.6875 154.938 65.4844L152.43 60.6562H150.684V65.3906C150.684 65.5859 150.625 65.7383 150.508 65.8477C150.398 65.957 150.242 66.0117 150.039 66.0117H147.039C146.844 66.0117 146.691 65.957 146.582 65.8477C146.48 65.7383 146.43 65.5859 146.43 65.3906V49.5C146.43 49.3203 146.484 49.1719 146.594 49.0547C146.711 48.9375 146.859 48.8789 147.039 48.8789H147.812H150.074H153.051C154.254 48.8789 155.32 49.125 156.25 49.6172C157.18 50.1016 157.902 50.793 158.418 51.6914C158.941 52.5898 159.203 53.6328 159.203 54.8203C159.203 55.8906 158.969 56.8516 158.5 57.7031C158.039 58.5547 157.391 59.2305 156.555 59.7305L159.555 65.2969ZM150.684 56.9883H152.875C153.273 56.9883 153.629 56.8906 153.941 56.6953C154.262 56.5 154.512 56.2344 154.691 55.8984C154.871 55.5625 154.961 55.1953 154.961 54.7969C154.961 54.3984 154.871 54.043 154.691 53.7305C154.512 53.4102 154.262 53.1641 153.941 52.9922C153.629 52.8125 153.273 52.7227 152.875 52.7227H150.684V56.9883ZM165.977 65.543C165.977 65.8477 165.828 66 165.531 66H162.191C162.043 66 161.93 65.9609 161.852 65.8828C161.773 65.8047 161.734 65.6914 161.734 65.543V49.3359C161.734 49.0391 161.887 48.8906 162.191 48.8906H165.531C165.828 48.8906 165.977 49.0391 165.977 49.3359V65.543ZM168.859 49.5C168.859 49.3281 168.918 49.1836 169.035 49.0664C169.16 48.9414 169.309 48.8789 169.48 48.8789H174.801C176.465 48.8789 177.949 49.2461 179.254 49.9805C180.566 50.707 181.59 51.7227 182.324 53.0273C183.059 54.3242 183.426 55.8008 183.426 57.457C183.426 59.1055 183.059 60.5781 182.324 61.875C181.59 63.1719 180.566 64.1836 179.254 64.9102C177.949 65.6367 176.465 66 174.801 66H169.48C169.309 66 169.16 65.9414 169.035 65.8242C168.918 65.6992 168.859 65.5508 168.859 65.3789V49.5ZM174.801 61.9688C175.629 61.9688 176.375 61.7695 177.039 61.3711C177.711 60.9648 178.234 60.418 178.609 59.7305C178.984 59.043 179.172 58.2852 179.172 57.457C179.172 56.5977 178.984 55.8164 178.609 55.1133C178.234 54.4102 177.715 53.8594 177.051 53.4609C176.387 53.0547 175.637 52.8516 174.801 52.8516L173.113 52.8633V61.9688H174.801ZM185.523 49.5C185.523 49.3047 185.578 49.1523 185.688 49.043C185.797 48.9336 185.949 48.8789 186.145 48.8789H197.172C197.367 48.8789 197.52 48.9336 197.629 49.043C197.738 49.1523 197.793 49.3047 197.793 49.5V52.1953C197.793 52.3906 197.738 52.543 197.629 52.6523C197.527 52.7617 197.375 52.8164 197.172 52.8164H189.73V55.6523H195.379C195.59 55.6523 195.754 55.7109 195.871 55.8281C195.996 55.9375 196.059 56.0938 196.059 56.2969V58.5234C196.059 58.7188 195.996 58.8711 195.871 58.9805C195.754 59.0898 195.59 59.1445 195.379 59.1445H189.73V62.0625H197.172C197.438 62.0625 197.645 62.1367 197.793 62.2852C197.949 62.4258 198.027 62.6172 198.027 62.8594V65.3906C198.027 65.5781 197.969 65.7266 197.852 65.8359C197.742 65.9453 197.59 66 197.395 66H186.145C185.949 66 185.797 65.9492 185.688 65.8477C185.578 65.7383 185.523 65.5859 185.523 65.3906V49.5ZM200.09 64.5938C199.887 64.4688 199.785 64.3047 199.785 64.1016C199.785 63.9766 199.828 63.8359 199.914 63.6797L201.297 61.1953C201.422 60.9766 201.598 60.8672 201.824 60.8672C201.934 60.8672 202.062 60.8984 202.211 60.9609C202.984 61.3125 203.73 61.5898 204.449 61.793C205.168 61.9883 205.926 62.0859 206.723 62.0859C207.316 62.0859 207.816 61.9727 208.223 61.7461C208.637 61.5117 208.844 61.1992 208.844 60.8086C208.844 60.5195 208.727 60.2734 208.492 60.0703C208.266 59.8672 207.938 59.6836 207.508 59.5195C207.086 59.3555 206.488 59.1602 205.715 58.9336C204.504 58.5742 203.52 58.1914 202.762 57.7852C202.004 57.3711 201.422 56.8477 201.016 56.2148C200.617 55.582 200.418 54.7852 200.418 53.8242C200.418 52.7305 200.707 51.7891 201.285 51C201.863 50.2109 202.633 49.6172 203.594 49.2188C204.555 48.8125 205.598 48.6094 206.723 48.6094C207.434 48.6094 208.148 48.6914 208.867 48.8555C209.594 49.0195 210.254 49.2266 210.848 49.4766C211.441 49.7266 211.926 49.9766 212.301 50.2266C212.535 50.3828 212.652 50.5586 212.652 50.7539C212.652 50.8711 212.602 51.0195 212.5 51.1992L211.105 53.7305C210.996 53.9336 210.836 54.0352 210.625 54.0352C210.484 54.0352 210.312 53.9844 210.109 53.8828C209.453 53.5469 208.848 53.293 208.293 53.1211C207.746 52.9414 207.125 52.8516 206.43 52.8516C205.938 52.8516 205.512 52.957 205.152 53.168C204.793 53.3789 204.613 53.6445 204.613 53.9648C204.613 54.3086 204.844 54.6055 205.305 54.8555C205.766 55.0977 206.508 55.3672 207.531 55.6641C208.797 56.0391 209.82 56.418 210.602 56.8008C211.383 57.1758 212.012 57.6914 212.488 58.3477C212.965 58.9961 213.203 59.8398 213.203 60.8789C213.203 61.9805 212.91 62.9453 212.324 63.7734C211.738 64.5938 210.941 65.2227 209.934 65.6602C208.926 66.0977 207.812 66.3164 206.594 66.3164C205.453 66.3164 204.312 66.168 203.172 65.8711C202.031 65.5742 201.004 65.1484 200.09 64.5938Z" fill="white"/>
<path d="M85.6959 66.2168L80.7656 61.2662C82.0332 59.8113 82.7278 57.9807 82.7278 56.075C82.7278 51.6225 78.9757 48 74.3639 48C69.7521 48 66 51.6225 66 56.075C66 60.5275 69.7521 64.15 74.3639 64.15C76.0952 64.15 77.7451 63.6458 79.1557 62.6888L84.1235 67.677C84.3311 67.8852 84.6104 68 84.9097 68C85.193 68 85.4617 67.8957 85.6657 67.7061C86.0992 67.3034 86.113 66.6357 85.6959 66.2168ZM74.3639 50.1065C77.7727 50.1065 80.5459 52.7839 80.5459 56.075C80.5459 59.3661 77.7727 62.0435 74.3639 62.0435C70.9551 62.0435 68.1819 59.3661 68.1819 56.075C68.1819 52.7839 70.9551 50.1065 74.3639 50.1065Z" fill="white"/>
<defs>
<filter id="filter0_d" x="0" y="0" width="365" height="119" filterUnits="userSpaceOnUse" color-interpolation-filters="sRGB">
<feFlood flood-opacity="0" result="BackgroundImageFix"/>
<feColorMatrix in="SourceAlpha" type="matrix" values="0 0 0 0 0 0 0 0 0 0 0 0 0 0 0 0 0 0 127 0"/>
<feOffset dx="3" dy="5"/>
<feGaussianBlur stdDeviation="5"/>
<feColorMatrix type="matrix" values="0 0 0 0 0 0 0 0 0 0 0 0 0 0 0 0 0 0 0.1 0"/>
<feBlend mode="normal" in2="BackgroundImageFix" result="effect1_dropShadow"/>
<feBlend mode="normal" in="SourceGraphic" in2="effect1_dropShadow" result="shape"/>
</filter>
</defs>
</svg>
