<svg width="22" height="30" viewBox="0 0 22 30" fill="none" xmlns="http://www.w3.org/2000/svg">
<path d="M11 1C5.486 1 1 5.486 1 11C1 12.863 1.51606 14.6811 2.49272 16.2584L10.4308 29.0505C10.5828 29.2956 10.8507 29.4444 11.1388 29.4444C11.1411 29.4444 11.1432 29.4444 11.1454 29.4444C11.4361 29.4422 11.7045 29.2887 11.8538 29.0393L19.5895 16.1233C20.5123 14.5793 21 12.8077 21 11C21 5.486 16.514 1 11 1ZM18.1592 15.2677L11.1262 27.0103L3.90928 15.3803C3.09633 14.0674 2.65556 12.5528 2.65556 11C2.65556 6.405 6.405 2.65556 11 2.65556C15.595 2.65556 19.3389 6.405 19.3389 11C19.3389 12.5067 18.9272 13.9827 18.1592 15.2677Z" fill="#04318C" stroke="#04318C"/>
<path d="M11 6C8.243 6 6 8.243 6 11C6 13.7394 8.2065 16 11 16C13.8279 16 16 13.7093 16 11C16 8.243 13.757 6 11 6ZM11 14.3444C9.15239 14.3444 7.65556 12.8426 7.65556 11C7.65556 9.162 9.162 7.65556 11 7.65556C12.838 7.65556 14.3389 9.162 14.3389 11C14.3389 12.8157 12.8769 14.3444 11 14.3444Z" fill="#04318C" stroke="#04318C"/>
</svg>
