<svg width="188" height="118" viewBox="0 0 188 118" fill="none" xmlns="http://www.w3.org/2000/svg">
<g clip-path="url(#clip0)">
<path opacity="0.1" d="M186.822 81.2851C184.936 85.8188 180.989 89.9139 176.753 93.7922C173.029 97.202 169.045 100.497 164.802 103.677C163.626 104.56 162.431 105.432 161.218 106.293L160.375 106.887C159.627 107.416 158.867 107.939 158.094 108.458L158.002 108.521C157.252 109.03 156.496 109.535 155.733 110.035C153.237 111.674 150.599 113.301 147.682 114.648C146.688 115.109 145.663 115.537 144.602 115.921C144.027 116.13 143.441 116.325 142.843 116.507C141.862 116.805 140.855 117.065 139.804 117.279C139.628 117.315 139.451 117.35 139.274 117.383C138.197 117.585 137.107 117.732 136.006 117.833C131.97 118.202 127.801 117.932 123.759 117.3C121.738 116.984 119.749 116.577 117.825 116.113C117.588 116.057 117.353 115.999 117.116 115.948C110.562 114.309 104.41 112.084 97.8099 110.52C95.5354 109.981 93.2168 109.523 90.854 109.146C89.7013 108.963 88.542 108.798 87.376 108.65C84.6318 108.309 81.8527 108.08 79.0621 107.965C75.2993 107.799 71.4139 107.87 67.8333 108.527C67.3563 108.614 66.8854 108.713 66.4205 108.822C65.8309 108.96 65.2524 109.117 64.6849 109.294C63.155 109.788 61.666 110.4 60.2314 111.126C59.9482 111.265 59.6683 111.406 59.3884 111.548C58.5107 111.995 57.6445 112.452 56.7651 112.896C55.1823 113.723 53.5351 114.422 51.8396 114.984C50.9109 115.278 49.9665 115.519 49.0109 115.706C46.4819 116.213 43.7907 116.413 41.0878 116.426C39.7844 116.426 38.4793 116.398 37.1892 116.33H37.1494C36.7089 116.307 36.2667 116.281 35.8245 116.247C33.8106 116.11 31.8033 115.898 29.8258 115.608C23.0505 114.615 16.6245 112.738 11.4556 109.875C4.43512 105.988 -0.0232888 100.193 0.645803 94.403C1.12609 90.2317 4.10885 86.3584 6.93924 82.5662C12.2042 75.5049 17.1363 68.283 19.7315 60.6705C21.8365 54.4914 22.4642 47.9581 27.3085 42.4047C28.8603 40.627 30.8444 39.0048 33.1547 37.583C34.8817 36.5263 36.6918 35.6118 38.5671 34.8485C40.6866 33.9808 42.867 33.2699 45.0907 32.7215C47.018 32.2436 48.971 31.8767 50.9403 31.6224C52.0102 31.4833 53.0933 31.3758 54.1831 31.3029C55.0222 31.2444 55.8652 31.2075 56.7121 31.192H56.8429C57.3607 31.1821 57.8786 31.1821 58.3964 31.192C62.1722 31.2504 65.9377 31.6041 69.6583 32.2497C71.9869 32.6387 74.2956 33.1154 76.5563 33.6401C77.9055 33.9524 79.2426 34.2796 80.5675 34.6217C80.9716 34.726 81.3757 34.8319 81.7749 34.9395C91.2018 37.4638 99.4959 40.9498 108.578 43.81C108.625 43.8249 108.669 43.8398 108.716 43.8514C110.58 44.4244 112.473 44.8995 114.386 45.2749C115.793 45.5563 117.23 45.7997 118.693 46.0132C120.932 46.3442 123.219 46.6058 125.523 46.8309L126.031 46.8805C129.411 47.2116 132.821 47.4582 136.134 47.7462C137.31 47.8489 138.475 47.9548 139.625 48.0773C140.354 48.1501 141.076 48.2274 141.791 48.309C142.305 48.3686 142.82 48.4282 143.335 48.4911C143.85 48.554 144.395 48.6202 144.925 48.6881C145.269 48.7311 145.612 48.7758 145.956 48.8238C148.043 49.1002 150.125 49.4098 152.184 49.764C153.436 49.9792 154.681 50.2109 155.912 50.4609C156.803 50.6418 157.686 50.8328 158.561 51.0336C159.211 51.1804 159.854 51.3348 160.493 51.4971C165.678 52.7997 170.531 54.508 174.712 56.8137C185.572 62.7876 190.431 72.6148 186.822 81.2851Z" fill="#19C3AB"/>
<path opacity="0.1" d="M41.2371 14.9634C43.2155 14.9634 44.8194 13.3604 44.8194 11.3831C44.8194 9.4057 43.2155 7.80273 41.2371 7.80273C39.2586 7.80273 37.6548 9.4057 37.6548 11.3831C37.6548 13.3604 39.2586 14.9634 41.2371 14.9634Z" fill="#19C3AB"/>
<path opacity="0.1" d="M114.458 7.16064C116.436 7.16064 118.04 5.55768 118.04 3.58032C118.04 1.60296 116.436 0 114.458 0C112.479 0 110.875 1.60296 110.875 3.58032C110.875 5.55768 112.479 7.16064 114.458 7.16064Z" fill="#19C3AB"/>
<path opacity="0.1" d="M157.874 15.1782C159.853 15.1782 161.457 13.5753 161.457 11.5979C161.457 9.62054 159.853 8.01758 157.874 8.01758C155.896 8.01758 154.292 9.62054 154.292 11.5979C154.292 13.5753 155.896 15.1782 157.874 15.1782Z" fill="#19C3AB"/>
<path opacity="0.1" d="M6.00361 26.0455C9.31931 26.0455 12.0072 23.3591 12.0072 20.0452C12.0072 16.7314 9.31931 14.0449 6.00361 14.0449C2.68791 14.0449 0 16.7314 0 20.0452C0 23.3591 2.68791 26.0455 6.00361 26.0455Z" fill="#19C3AB"/>
<path opacity="0.1" d="M11.759 55.6745C15.0747 55.6745 17.7626 52.988 17.7626 49.6741C17.7626 46.3603 15.0747 43.6738 11.759 43.6738C8.44328 43.6738 5.75537 46.3603 5.75537 49.6741C5.75537 52.988 8.44328 55.6745 11.759 55.6745Z" fill="#19C3AB"/>
<path opacity="0.1" d="M172.891 44.7682C176.206 44.7682 178.894 42.0818 178.894 38.7679C178.894 35.454 176.206 32.7676 172.891 32.7676C169.575 32.7676 166.887 35.454 166.887 38.7679C166.887 42.0818 169.575 44.7682 172.891 44.7682Z" fill="#19C3AB"/>
<path d="M58.6863 39.6191C58.716 40.1229 58.6866 40.6284 58.5985 41.1253C58.2673 42.6631 56.8662 43.7191 55.5098 44.5203C54.1534 45.3214 52.6628 46.0795 51.8563 47.4319C50.8841 49.0656 51.1938 51.2621 52.3349 52.7883C53.476 54.3144 55.2845 55.2232 57.1461 55.6022C60.5412 56.3024 64.2593 55.3192 66.8048 52.9687C69.3504 50.6182 70.6273 46.9452 70.0029 43.5337C68.6216 43.7274 67.3911 42.5091 66.9439 41.1882C66.4968 39.8674 66.5895 38.4356 66.4156 37.0501C66.4029 36.8158 66.3324 36.5884 66.2103 36.388C66.0165 36.1198 65.6737 36.0106 65.354 35.9229C63.7575 35.4842 61.0712 34.5242 59.4167 34.8916C57.9261 35.2326 58.6614 38.3677 58.6863 39.6191Z" fill="#BE6F72"/>
<path opacity="0.1" d="M58.6863 39.6191C58.716 40.1229 58.6866 40.6284 58.5985 41.1253C58.2673 42.6631 56.8662 43.7191 55.5098 44.5203C54.1534 45.3214 52.6628 46.0795 51.8563 47.4319C50.8841 49.0656 51.1938 51.2621 52.3349 52.7883C53.476 54.3144 55.2845 55.2232 57.1461 55.6022C60.5412 56.3024 64.2593 55.3192 66.8048 52.9687C69.3504 50.6182 70.6273 46.9452 70.0029 43.5337C68.6216 43.7274 67.3911 42.5091 66.9439 41.1882C66.4968 39.8674 66.5895 38.4356 66.4156 37.0501C66.4029 36.8158 66.3324 36.5884 66.2103 36.388C66.0165 36.1198 65.6737 36.0106 65.354 35.9229C63.7575 35.4842 61.0712 34.5242 59.4167 34.8916C57.9261 35.2326 58.6614 38.3677 58.6863 39.6191Z" fill="black"/>
<path d="M56.7568 112.898C55.1741 113.726 53.5269 114.425 51.8314 114.987C50.9027 115.28 49.9583 115.521 49.0026 115.709C48.935 114.436 49.0044 113.16 49.2097 111.902C49.3388 111.179 49.5293 110.462 49.579 109.729C49.6493 108.67 49.4228 107.613 48.9248 106.676C50.7698 106.425 52.522 106.014 54.3753 106.135L54.4929 106.143C54.7132 106.149 54.9313 106.19 55.1388 106.264C55.4239 106.402 55.6661 106.615 55.8393 106.88C55.9347 107.01 56.0227 107.145 56.1027 107.285C56.626 108.189 56.8247 109.232 56.8662 110.306C56.8856 111.172 56.8491 112.038 56.7568 112.898Z" fill="#BE6F72"/>
<path d="M66.4139 108.823C65.8243 108.961 65.2458 109.118 64.6782 109.295C63.1483 109.789 61.6593 110.401 60.2248 111.127C60.1316 110.676 60.0861 110.217 60.089 109.756C60.9343 109.174 61.8882 108.767 62.894 108.56C63.8997 108.353 64.9368 108.351 65.9436 108.553C66.0781 108.569 66.2061 108.621 66.3145 108.702C66.3538 108.737 66.3874 108.778 66.4139 108.823Z" fill="#BE6F72"/>
<path d="M69.2608 100.468C69.1481 101.55 68.9825 102.636 68.5983 103.654C68.1826 104.746 67.5069 105.806 67.593 106.973C67.6311 107.479 67.8033 108.029 67.8282 108.53C67.3512 108.617 66.8803 108.716 66.4155 108.825C65.8259 108.963 65.2473 109.12 64.6798 109.297C63.1499 109.791 61.6609 110.403 60.2264 111.129C59.9432 111.268 59.6633 111.409 59.3834 111.551C59.2674 111.536 59.1532 111.518 59.0372 111.497C58.2091 111.346 57.338 110.975 56.8693 110.313C56.762 110.161 56.6778 109.993 56.6192 109.816C56.3493 109.01 56.6308 108.006 56.0694 107.367L56.0429 107.39L56.023 107.403C55.7155 107.682 55.3777 107.925 55.016 108.128C54.1928 108.594 53.2809 108.881 52.3393 108.972C51.3978 109.063 50.4477 108.954 49.5507 108.654C49.1953 108.534 48.8521 108.379 48.5255 108.194C47.767 107.762 47.035 107.036 47.0946 106.168C47.1277 105.685 47.4043 105.221 47.3298 104.743C47.2751 104.4 47.0499 104.116 46.8809 103.813C45.773 101.827 47.0946 99.2724 46.399 97.114C46.3824 97.0627 46.3642 97.0114 46.346 96.9617C46.2947 96.821 46.2367 96.6853 46.1804 96.5495C46.038 96.2334 45.879 95.9222 45.7531 95.5978C45.6483 95.325 45.5652 95.0444 45.5047 94.7586C45.3483 93.9285 45.2927 93.0826 45.3391 92.2393C45.3391 90.0163 45.7365 87.7403 46.3029 85.5984C46.404 85.2177 46.5166 84.6797 46.6656 84.0937C46.8109 83.4761 47.007 82.8716 47.2519 82.2862C47.5832 81.5248 48.0336 80.9173 48.6497 80.7733C49.5772 80.5565 50.9949 81.015 51.9356 81.1275L55.6537 81.5711L63.0882 82.46C64.3717 82.6139 65.7199 82.7911 66.7782 83.5128C66.8477 83.5608 66.9156 83.6104 66.9835 83.6634C67.2631 83.8835 67.5135 84.1382 67.7288 84.4215C67.805 84.5191 67.8779 84.6218 67.9474 84.726C68.1886 85.0951 68.3938 85.4864 68.5602 85.8947C69.4827 88.1094 69.5042 90.5807 69.5108 92.9792C69.5108 95.4819 69.5191 97.983 69.2608 100.468Z" fill="#04318C"/>
<path opacity="0.1" d="M55.0082 108.138C54.7846 107.278 54.3126 106.031 54.2431 105.692C54.0097 104.554 53.8405 103.403 53.7363 102.246C53.5524 100.183 53.2212 97.2798 53.9499 95.3184C54.6339 95.6825 55.2351 96.7138 55.5514 97.4172C56.6975 99.968 55.4073 103.1 56.4839 105.68C56.5644 105.835 56.6144 106.003 56.6313 106.177C56.6126 106.397 56.5335 106.608 56.4027 106.786L56.04 107.389L55.0082 108.138Z" fill="black"/>
<path d="M78.8601 29.3902C80.079 27.4039 81.7484 25.4507 81.6441 23.1283C81.606 22.3007 81.3344 21.4913 81.1274 20.6802C80.5341 18.3328 80.495 15.8797 81.0131 13.5146C83.0611 13.1857 85.1573 13.655 86.8693 14.8256C87.4109 15.1996 87.9243 15.6648 88.1628 16.2789C88.383 16.845 88.3466 17.4756 88.3069 18.0815C88.2158 19.4735 88.0916 20.9583 87.2337 22.0541C86.967 22.3967 86.6391 22.6864 86.3791 23.0323C85.9998 23.5289 85.7779 24.1347 85.5609 24.7257L82.7454 32.3812C81.3245 36.2396 79.7842 40.2752 76.6541 42.9451C76.5779 43.0096 74.3354 39.8266 74.15 39.5071C73.3997 38.1978 73.7276 37.6449 74.6352 36.5492C76.4255 34.3824 77.3977 31.7688 78.8601 29.3902Z" fill="#BE6F72"/>
<path d="M46.5947 94.6426C46.5851 95.214 46.537 95.7842 46.4507 96.3491C46.4208 96.5577 46.3861 96.7646 46.3447 96.9715C45.7799 99.9179 44.3738 102.72 43.39 105.59C42.0933 109.379 41.5235 112.667 41.0714 116.429C39.768 116.429 38.4629 116.401 37.1728 116.333H37.133C36.6925 116.31 36.2503 116.283 35.8081 116.25C36.2072 112.741 35.4769 109.06 36.1907 105.547C36.4789 104.134 36.9707 102.762 37.2672 101.355C37.3586 100.94 37.4277 100.522 37.4742 100.1C37.5156 99.6994 37.5371 99.2839 37.7177 98.9231C37.7342 98.8882 37.753 98.8545 37.774 98.8221C37.9326 98.5724 38.1293 98.349 38.3569 98.16C40.3749 96.3914 42.8431 95.2152 45.4884 94.7618C45.8644 94.7104 46.2304 94.6674 46.5947 94.6426Z" fill="#FBBEBE"/>
<path opacity="0.1" d="M46.5947 94.6426C46.5851 95.214 46.537 95.7842 46.4507 96.3491C46.4208 96.5577 46.3861 96.7646 46.3447 96.9715C45.7799 99.9179 44.3738 102.72 43.39 105.59C42.0933 109.379 41.5235 112.667 41.0714 116.429C39.768 116.429 38.4629 116.401 37.1728 116.333H37.133C36.6925 116.31 36.2503 116.283 35.8081 116.25C36.2072 112.741 35.4769 109.06 36.1907 105.547C36.4789 104.134 36.9707 102.762 37.2672 101.355C37.3586 100.94 37.4277 100.522 37.4742 100.1C37.5156 99.6994 37.5371 99.2839 37.7177 98.9231C37.7342 98.8882 37.753 98.8545 37.774 98.8221C37.9326 98.5724 38.1293 98.349 38.3569 98.16C40.3749 96.3914 42.8431 95.2152 45.4884 94.7618C45.8644 94.7104 46.2304 94.6674 46.5947 94.6426Z" fill="black"/>
<path d="M38.1978 102.185C38.171 103.105 38.0953 104.023 37.9709 104.935C37.5287 108.661 37.4459 112.549 37.1428 116.331C36.7023 116.308 36.2601 116.282 35.8179 116.249C33.804 116.111 31.7967 115.899 29.8192 115.61C29.9716 114.758 30.1251 113.906 30.2796 113.054C30.4685 112.009 30.6573 110.955 30.6026 109.896C30.5513 108.894 30.283 107.919 30.0693 106.938C29.6139 104.836 29.3588 102.568 28.6086 100.585C28.2173 99.4726 27.5928 98.4568 26.7769 97.6054C29.8805 96.3871 32.8633 96.3176 36.1971 96.4467C36.4338 96.4336 36.669 96.4912 36.8728 96.6122C37.0308 96.749 37.1483 96.9265 37.2124 97.1253C37.7133 98.3298 38.0278 99.6035 38.1448 100.903C38.1846 101.329 38.2023 101.757 38.1978 102.185Z" fill="#FBBEBE"/>
<path d="M63.1978 38.7645C66.7651 38.7645 69.6569 35.8743 69.6569 32.309C69.6569 28.7437 66.7651 25.8535 63.1978 25.8535C59.6306 25.8535 56.7388 28.7437 56.7388 32.309C56.7388 35.8743 59.6306 38.7645 63.1978 38.7645Z" fill="#BE6F72"/>
<path d="M64.5407 47.397C65.3688 45.9851 66.0942 44.2222 67.6874 43.8299C68.5867 43.6065 69.5225 43.9111 70.3986 44.2107C70.6524 44.2707 70.8828 44.4043 71.061 44.5947C71.1905 44.8 71.2599 45.0373 71.2614 45.28C71.5388 48.1981 71.5294 51.1365 71.2333 54.0528C71.0229 56.1169 70.6685 58.1711 70.6056 60.2451C70.5178 63.1203 70.9915 65.9955 70.8358 68.8674C70.7182 71.044 70.2412 73.1826 69.7676 75.3097L67.7802 84.2149C67.7446 84.4905 67.634 84.751 67.4605 84.9681C67.2929 85.1217 67.0924 85.2349 66.8742 85.2991C63.9975 86.3155 60.9396 86.7176 57.8978 86.4795C54.8559 86.2415 51.8978 85.3685 49.2145 83.917C48.4974 83.523 47.7819 83.0679 47.3149 82.3958C46.6524 81.4424 46.5911 80.1811 46.8065 79.0389C47.0218 77.8968 47.4871 76.8192 47.8002 75.6986C48.2838 73.9606 48.398 72.1465 48.5073 70.3455C48.6531 67.9752 48.7988 65.59 48.5454 63.2279C48.3715 61.6008 48.0088 59.9985 47.7356 58.3846C47.3331 55.9523 47.0995 53.4949 47.0367 51.0303C46.9953 49.5588 47.0632 47.9251 48.0817 46.864C48.5785 46.3476 49.241 46.0364 49.9151 45.7848C51.0462 45.3677 52.3099 45.1227 53.4527 45.5034C54.5954 45.8841 55.5162 47.0825 55.2463 48.2561C55.1221 48.8007 54.7693 49.2774 54.6832 49.8303C54.5689 50.5619 54.9565 51.2985 55.5113 51.7934C58.4957 54.4882 63.0518 49.9527 64.5407 47.397Z" fill="#008F89"/>
<path d="M64.7779 40.7999C65.6843 40.4662 66.6692 40.4086 67.6083 40.6343C68.2062 40.7767 68.8521 41.0283 69.4036 40.7618C69.604 40.6658 69.7696 40.5085 69.9717 40.4192C70.5182 40.1791 71.227 40.4738 71.7106 40.1245C72.0154 39.9044 72.1148 39.5038 72.2174 39.1396C72.7148 37.4014 73.7339 35.8576 75.1373 34.7168C74.9634 35.9864 74.8375 37.4314 75.6772 38.4014C76.0597 38.8417 76.5963 39.1181 77.1396 39.3333C77.9196 39.6428 78.7759 39.8481 79.599 39.6793C80.4221 39.5104 81.1922 38.888 81.3231 38.0588C81.2949 39.3052 80.1074 40.1758 79.7745 41.3792C79.6487 41.8294 79.6603 42.3078 79.5725 42.768C79.3489 43.9432 78.5092 44.8867 77.7755 45.8335C75.4322 48.8788 73.9353 52.4888 73.4364 56.298C73.4024 56.7501 73.3077 57.1955 73.1548 57.6223C72.9925 57.9496 72.8088 58.2659 72.605 58.5691C71.391 60.6183 71.7653 63.2038 72.1777 65.5443C72.8219 69.2107 73.4645 72.8026 74.5079 76.3763C74.6868 76.9871 74.8888 77.6244 75.3443 78.0697C75.2002 79.5147 73.7411 80.1735 72.4294 80.7975C71.1343 81.4148 69.9395 82.2233 68.8852 83.196C68.5076 83.5436 68.135 83.9342 67.9975 84.4291C67.8683 84.8943 67.9611 85.4058 67.7955 85.8576C67.6298 86.3095 66.9674 86.634 66.6759 86.2532C66.3115 84.891 66.9343 83.4658 66.9061 82.0555C66.8862 81.1037 66.5749 80.1784 66.5302 79.2267C66.4871 78.1491 66.8051 77.0914 67.1429 76.0684C68.0836 73.2197 69.2198 70.3975 69.546 67.4164C69.8723 64.4353 69.2628 61.1794 67.1462 59.0524C64.6338 56.5165 63.2393 53.0786 60.5464 50.7496C60.1191 50.3805 59.6355 49.922 59.7067 49.3625C59.7559 49.1161 59.8645 48.8854 60.0231 48.6905C60.9472 47.3861 62.1761 46.3218 63.1698 45.0737C64.1635 43.8257 64.9584 42.3889 64.7779 40.7999Z" fill="#04318C"/>
<path d="M55.9356 43.4702C55.7699 43.6358 55.6557 43.8642 55.4635 44.0065C55.2392 44.1449 54.9833 44.2241 54.7199 44.2366C53.7453 44.3846 52.7624 44.4725 51.7769 44.4998C50.9488 44.4998 50.0893 44.427 49.2927 44.6537C48.1814 44.9682 47.2937 45.8455 46.7372 46.8552C46.1807 47.8649 45.9174 49.0071 45.7038 50.1442C45.2328 52.6496 44.9807 55.1912 44.9502 57.7402C46.3153 56.6522 47.5319 55.3901 48.5689 53.9861C49.3639 52.9085 50.0843 51.7167 51.2188 50.9967C51.7405 50.6656 52.3268 50.4471 52.8518 50.1244C53.9465 49.4507 54.705 48.3615 55.4337 47.3104C55.9703 46.5308 57.5222 45.008 57.6447 44.0744C57.7491 43.1822 56.5152 42.7469 55.9356 43.4702Z" fill="#04318C"/>
<path d="M61.7058 27.8899C61.9103 28.0126 62.1062 28.1492 62.2921 28.2987C63.4166 29.0833 64.9221 28.9376 66.2818 28.7589C66.6992 28.7059 67.1281 28.6463 67.4858 28.4278C68.0605 28.0736 68.3305 27.3453 68.2742 26.6716C68.2179 25.9979 67.8783 25.3772 67.4643 24.8508C66.9158 24.1542 66.2315 23.5762 65.4529 23.1517C64.6743 22.7272 63.8176 22.465 62.9347 22.3812C62.4775 22.3213 62.0127 22.3706 61.5783 22.5252C61.0433 22.7453 60.6409 23.1989 60.1473 23.5018C58.6916 24.3956 56.4491 23.9983 55.5101 25.4252C54.8228 26.4779 55.313 27.9081 54.9884 29.1181C54.7466 30.0218 54.0493 30.8445 54.1835 31.7665C54.258 32.263 54.5694 32.6967 54.8178 33.1403C55.3883 34.1602 55.6522 35.3229 55.578 36.4889C56.2156 36.9392 57.105 36.239 57.2822 35.4809C57.4594 34.7228 57.2557 33.915 57.4064 33.1503C57.673 31.8078 58.8589 30.823 59.3938 29.5915C59.778 28.7092 60.4041 27.2195 61.7058 27.8899Z" fill="#3F3D56"/>
<path d="M46.0447 42.5832C45.995 42.8845 45.9635 43.2172 46.1308 43.4721C46.462 43.9687 47.2206 43.7899 47.8168 43.8644C48.7459 43.9786 49.4315 44.8576 49.6121 45.7812C49.7926 46.7048 49.5773 47.645 49.3421 48.5521C48.8099 50.6079 48.1762 52.6345 47.4408 54.6318C45.4634 54.3985 43.3816 53.6387 42.3315 51.952C41.3776 50.4176 41.4753 48.4627 40.8691 46.7611C40.4435 45.5627 39.68 44.5199 38.9248 43.4969C40.1388 43.6492 41.0066 42.2621 41.0778 41.0405C41.149 39.819 40.7648 38.5792 41.0265 37.3857C41.0878 37.1027 45.8724 37.9949 46.3378 38.3176C47.6826 39.2495 46.2567 41.2888 46.0447 42.5832Z" fill="#FBBEBE"/>
<path opacity="0.1" d="M46.0447 42.5832C45.995 42.8845 45.9635 43.2172 46.1308 43.4721C46.462 43.9687 47.2206 43.7899 47.8168 43.8644C48.7459 43.9786 49.4315 44.8576 49.6121 45.7812C49.7926 46.7048 49.5773 47.645 49.3421 48.5521C48.8099 50.6079 48.1762 52.6345 47.4408 54.6318C45.4634 54.3985 43.3816 53.6387 42.3315 51.952C41.3776 50.4176 41.4753 48.4627 40.8691 46.7611C40.4435 45.5627 39.68 44.5199 38.9248 43.4969C40.1388 43.6492 41.0066 42.2621 41.0778 41.0405C41.149 39.819 40.7648 38.5792 41.0265 37.3857C41.0878 37.1027 45.8724 37.9949 46.3378 38.3176C47.6826 39.2495 46.2567 41.2888 46.0447 42.5832Z" fill="black"/>
<path d="M44.9801 40.5848C48.5473 40.5848 51.4391 37.6946 51.4391 34.1293C51.4391 30.5641 48.5473 27.6738 44.9801 27.6738C41.4128 27.6738 38.521 30.5641 38.521 34.1293C38.521 37.6946 41.4128 40.5848 44.9801 40.5848Z" fill="#FBBEBE"/>
<path d="M42.9908 41.6556C43.2259 41.2881 42.8251 40.775 43.009 40.3794C43.1183 40.1411 43.3949 40.0384 43.6085 39.8828C43.8765 39.6649 44.0902 39.3878 44.2329 39.0734C45.2385 37.1422 45.5429 34.9221 45.0941 32.7917C44.9417 32.0766 44.8059 31.1265 45.4601 30.8054C45.6414 30.7245 45.8402 30.6904 46.0381 30.7061C47.2173 30.7442 48.3568 31.5337 49.5012 31.254C49.8918 31.1478 50.2406 30.925 50.5011 30.6153C50.7616 30.3056 50.9212 29.9238 50.9586 29.5209C51.0331 28.4516 50.2315 27.5346 49.4432 26.8146C48.0239 25.5102 45.8609 25.2206 43.9331 25.1891L40.3475 25.1295C39.1998 25.1097 37.913 25.1461 37.1147 25.9687C35.9653 27.1522 36.5433 29.0889 36.3777 30.7293C36.2369 32.0385 35.5816 33.2382 34.5559 34.0646C33.8123 34.6572 32.7888 35.2233 32.802 36.1701C32.802 36.5011 32.9444 36.8024 33.0355 37.1152C33.4015 38.3534 33.0521 39.7223 32.3499 40.8065C31.6477 41.8907 30.6208 42.7249 29.5559 43.4549C28.9862 43.8439 28.3966 44.2179 27.9461 44.746C27.4523 45.3559 27.159 46.1034 27.1065 46.8862C27.0356 47.4844 27.1586 48.0896 27.4576 48.6127C28.1581 49.7316 29.8391 49.8955 30.9902 49.2466C32.1412 48.5978 32.8434 47.3696 33.3088 46.1347C33.587 45.4015 33.8702 44.5622 34.5824 44.2328C35.4834 43.8141 36.5367 44.4762 37.123 45.279C37.7092 46.0818 38.0703 47.0617 38.8205 47.7139C39.9964 48.7368 41.9971 48.5713 42.9908 47.3696C43.7013 46.5072 43.8586 45.3137 43.8188 44.1964C43.7991 43.2865 43.511 42.4026 42.9908 41.6556Z" fill="#3F3D56"/>
<path d="M45.3095 50.0697C44.5725 50.227 43.8024 49.8794 43.2542 49.3596C42.706 48.8399 42.3367 48.1695 41.9525 47.5206C40.9783 45.8839 39.8616 44.3363 38.6153 42.8958C37.5288 41.6428 36.0168 40.3699 34.4036 40.7572C33.8635 40.913 33.3624 41.1809 32.933 41.5435C31.5107 42.669 30.3974 44.1368 29.6973 45.8095C28.9972 47.4822 28.7332 49.3051 28.93 51.1076C29.0559 52.162 29.3424 53.1932 29.4616 54.2526C29.542 55.1257 29.5652 56.0032 29.5312 56.8794C29.4865 59.5477 29.3954 62.3699 27.9562 64.6178C25.7253 68.0938 24.5312 72.2452 22.8933 76.0391C22.0089 78.0899 21.4789 80.2732 20.9589 82.4449C20.6508 83.7338 20.3433 85.0222 20.0364 86.3099L18.0324 94.7352C17.8254 95.6042 17.6184 96.5146 17.837 97.3836C18.1682 98.6813 19.3888 99.5884 20.6757 99.9576C21.9625 100.327 23.3255 100.264 24.6621 100.275C27.2192 100.3 29.7962 100.618 32.196 101.505C32.8816 101.758 33.5656 102.061 34.296 102.121C35.0264 102.181 35.7534 101.99 36.4374 101.725C38.3039 101.004 39.9038 99.7391 41.6229 98.7178C42.6967 98.071 43.8276 97.5242 45.0015 97.084C45.5911 96.8639 46.2237 96.6553 46.6295 96.1736C46.9359 95.8111 47.0733 95.3377 47.1744 94.8742C47.7342 92.2656 47.3582 89.5625 47.1744 86.9009C46.9905 84.2392 45.399 81.4269 46.7156 79.1063C46.9806 78.6378 47.2969 78.1876 47.4327 77.6678C47.6116 76.9892 47.4609 76.2592 47.6116 75.5739C47.7226 75.0674 47.9892 74.6122 48.1714 74.1272C48.4894 73.2731 48.5324 72.3429 48.5291 71.4308C48.5216 69.4283 48.3108 67.4318 47.8998 65.4719C47.3781 62.989 49.1038 60.5343 50.0925 58.1888C50.447 57.3495 50.9488 56.5567 51.0962 55.6579C51.2287 54.8468 51.0581 54.0208 50.9306 53.2081C50.7402 51.9485 50.6626 50.6744 50.6987 49.401C50.7302 48.2589 50.8511 47.0952 50.5778 45.9845C50.3045 44.8739 49.5245 43.7963 48.4032 43.5679C48.2775 43.531 48.1452 43.5225 48.0158 43.5428C47.8863 43.5631 47.763 43.6118 47.6547 43.6854C47.5252 43.8122 47.434 43.9728 47.3913 44.1489C47.027 45.2645 47.0982 46.4662 46.8945 47.6249C46.6908 48.7836 46.4523 49.8247 45.3095 50.0697Z" fill="#F86D70"/>
<path d="M29.6805 57.1794C29.7484 56.7208 29.5347 56.1117 29.071 56.1283C28.6437 56.1448 28.4533 56.6795 28.4549 57.1082C28.4566 57.5369 28.5145 58.0285 28.2115 58.3298C27.9432 58.5963 27.4993 58.588 27.1879 58.8048C27.0781 58.8832 26.9886 58.9868 26.9272 59.1069C26.8658 59.227 26.8343 59.3602 26.8352 59.4951C26.8352 59.7251 26.9395 59.9453 26.9461 60.1754C26.9528 60.4055 26.7987 60.6719 26.5702 60.6571C26.4528 60.8539 26.4039 61.0841 26.4312 61.3117C26.4585 61.5393 26.5603 61.7514 26.7209 61.915C26.8401 62.0309 26.9958 62.1302 27.0356 62.2924C27.0482 62.4062 27.0392 62.5213 27.0091 62.6318C26.9395 63.087 27.2542 63.5968 27.713 63.6464C27.4562 63.8302 27.5076 64.2606 27.7428 64.4741C27.9779 64.6876 28.3158 64.729 28.6321 64.729C29.3501 64.725 30.06 64.5782 30.7206 64.297C30.9467 64.2223 31.1468 64.0845 31.2969 63.8997C31.3666 63.8044 31.4 63.6874 31.3912 63.5697C31.3824 63.4521 31.3319 63.3413 31.2489 63.2575C31.5702 63.3104 31.9561 63.3402 32.1664 63.0919C32.4595 62.7443 32.1449 62.2295 31.8352 61.8935C31.9636 61.8745 32.0836 61.8181 32.1803 61.7314C32.2769 61.6447 32.3459 61.5315 32.3787 61.406C32.4116 61.2804 32.4067 61.148 32.3649 61.0251C32.323 60.9023 32.2459 60.7944 32.1432 60.715C32.0372 60.6372 31.8931 60.5693 31.8782 60.4386C31.8633 60.3078 31.9743 60.2234 32.0207 60.1075C32.1267 59.8476 31.8849 59.5828 31.6513 59.4255C31.0982 59.0581 30.2833 59.0647 29.7915 58.6939C29.2996 58.3231 29.6093 57.6759 29.6805 57.1794Z" fill="#BE6F72"/>
<path d="M63.847 32.0622C63.4458 32.1026 63.0422 32.112 62.6396 32.0903C62.571 32.0829 62.5022 32.1026 62.448 32.1453C62.3938 32.188 62.3585 32.2503 62.3498 32.3188L61.5797 38.0923C61.5204 38.5114 61.3487 38.9067 61.0828 39.2361C60.8636 39.4983 60.7006 39.8027 60.6041 40.1304C60.5075 40.4581 60.4793 40.8022 60.5214 41.1413V50.9487C60.5214 50.9487 60.4717 52.2563 61.477 52.2563C62.6802 52.4074 63.8975 52.4074 65.1007 52.2563C65.1007 52.2563 65.9056 52.1041 65.9056 50.8974V41.2406C65.967 40.9037 65.9544 40.5575 65.8686 40.2259C65.7828 39.8944 65.6259 39.5854 65.4087 39.3205C65.1517 38.9899 64.9856 38.5979 64.9268 38.1833L64.1269 32.289C64.1178 32.2227 64.0838 32.1624 64.0318 32.1203C63.9798 32.0781 63.9137 32.0574 63.847 32.0622Z" fill="#3F3D56"/>
<path opacity="0.1" d="M63.847 32.0622C63.4458 32.1026 63.0422 32.112 62.6396 32.0903C62.571 32.0829 62.5022 32.1026 62.448 32.1453C62.3938 32.188 62.3585 32.2503 62.3498 32.3188L61.5797 38.0923C61.5204 38.5114 61.3487 38.9067 61.0828 39.2361C60.8636 39.4983 60.7006 39.8027 60.6041 40.1304C60.5075 40.4581 60.4793 40.8022 60.5214 41.1413V50.9487C60.5214 50.9487 60.4717 52.2563 61.477 52.2563C62.6802 52.4074 63.8975 52.4074 65.1007 52.2563C65.1007 52.2563 65.9056 52.1041 65.9056 50.8974V41.2406C65.967 40.9037 65.9544 40.5575 65.8686 40.2259C65.7828 39.8944 65.6259 39.5854 65.4087 39.3205C65.1517 38.9899 64.9856 38.5979 64.9268 38.1833L64.1269 32.289C64.1178 32.2227 64.0838 32.1624 64.0318 32.1203C63.9798 32.0781 63.9137 32.0574 63.847 32.0622Z" fill="black"/>
<path d="M63.8519 41.3164H62.6313C61.6206 41.3164 60.8013 42.1353 60.8013 43.1455V47.7355C60.8013 48.7456 61.6206 49.5645 62.6313 49.5645H63.8519C64.8627 49.5645 65.682 48.7456 65.682 47.7355V43.1455C65.682 42.1353 64.8627 41.3164 63.8519 41.3164Z" fill="#19C3AB"/>
<path d="M80.2546 7.11425C79.9007 7.30868 79.5319 7.47473 79.1516 7.61082C79.0857 7.63047 79.0301 7.67496 78.9964 7.73489C78.9627 7.79481 78.9536 7.86547 78.9711 7.93194L80.4849 13.5598C80.5931 13.9683 80.5885 14.3985 80.4716 14.8046C80.3696 15.1308 80.336 15.4746 80.3731 15.8144C80.4101 16.1542 80.5169 16.4827 80.6869 16.7793L84.4663 25.8302C84.4663 25.8302 84.9234 27.0551 85.8525 26.6678C87.0221 26.3435 88.1462 25.873 89.198 25.2675C89.198 25.2675 89.882 24.8172 89.4182 23.7049L85.6968 14.793C85.6236 14.4584 85.4786 14.1436 85.2719 13.8704C85.0651 13.5972 84.8016 13.3721 84.4994 13.2106C84.1352 13.0046 83.831 12.7074 83.6167 12.3482L80.6074 7.21687C80.5733 7.15752 80.5175 7.11367 80.4517 7.09454C80.3859 7.07541 80.3153 7.08247 80.2546 7.11425Z" fill="#3F3D56"/>
<path d="M83.8281 15.6549L82.7016 16.1247C81.7689 16.5137 81.3282 17.5848 81.7175 18.5171L83.486 22.7531C83.8753 23.6854 84.947 24.1257 85.8797 23.7367L87.0062 23.2669C87.9389 22.8779 88.3796 21.8068 87.9903 20.8746L86.2217 16.6386C85.8325 15.7063 84.7608 15.2659 83.8281 15.6549Z" fill="#19C3AB"/>
<path d="M33.7775 41.827C31.9971 42.5603 31.2932 44.8413 31.7106 46.7183C32.1279 48.5954 33.3849 50.1596 34.6105 51.6477L38.0454 55.8355C38.9944 56.9942 40.0328 58.2141 41.4803 58.618C43.5969 59.2089 45.7135 57.8615 47.5435 56.6432C53.0062 53.0051 58.8453 49.9662 64.9598 47.5791C65.5577 47.3473 66.1705 47.1123 66.6623 46.6985C67.6825 45.841 67.9691 44.2603 67.401 43.0569C66.8329 41.8535 65.5097 41.0706 64.1764 41.0607C62.8432 41.0507 61.5464 41.7559 60.7449 42.8219C60.3623 43.33 60.0824 43.911 59.7131 44.4274C58.779 45.7252 57.3216 46.528 55.8956 47.253C52.4573 49.0062 48.918 50.5539 45.2961 51.8877C44.6336 52.1294 43.8867 52.3594 43.2623 52.04C42.8798 51.843 42.6214 51.4706 42.3895 51.1064C41.333 49.4442 40.4926 47.6543 39.8887 45.7798C39.4366 44.3728 39.0706 42.8401 37.9841 41.8403C36.4439 40.4234 33.6549 40.7627 32.5005 42.5024C32.5005 42.5024 31.1475 44.4804 31.9755 45.308C32.8036 46.1357 33.7775 41.827 33.7775 41.827Z" fill="#FBBEBE"/>
<path d="M126.662 34.9769C126.904 35.6208 126.91 36.3259 126.875 37.0129C126.832 37.8504 126.622 38.8336 125.844 39.1531C125.337 39.3567 124.711 39.2028 124.26 39.5106C123.714 39.8814 123.74 40.6792 123.825 41.3314C124.058 43.1241 124.322 44.9829 125.299 46.4991C125.824 47.3119 126.534 47.9889 127.255 48.6361C128.691 49.9305 130.266 51.1951 132.152 51.6271C132.459 51.7137 132.783 51.7273 133.096 51.6668C133.405 51.5714 133.686 51.4008 133.913 51.1703C135.006 50.1672 135.569 48.7354 136.297 47.4377C136.812 46.5091 137.427 45.6169 137.717 44.5939C137.955 43.7001 137.94 42.7574 137.671 41.8722C137.402 40.9869 136.892 40.1942 136.196 39.5835C135.873 39.307 135.516 39.0753 135.203 38.7889C134.385 38.0474 133.908 36.9831 133.712 35.8972C133.517 34.8114 133.547 33.6941 133.641 32.5867C131.985 32.4592 130.34 32.6595 128.724 32.9823C128.005 33.1263 126.993 33.1925 126.342 33.5352C125.61 33.9241 126.461 34.4224 126.662 34.9769Z" fill="#FBBEBE"/>
<path opacity="0.1" d="M126.662 34.9769C126.904 35.6208 126.91 36.3259 126.875 37.0129C126.832 37.8504 126.622 38.8336 125.844 39.1531C125.337 39.3567 124.711 39.2028 124.26 39.5106C123.714 39.8814 123.74 40.6792 123.825 41.3314C124.058 43.1241 124.322 44.9829 125.299 46.4991C125.824 47.3119 126.534 47.9889 127.255 48.6361C128.691 49.9305 130.266 51.1951 132.152 51.6271C132.459 51.7137 132.783 51.7273 133.096 51.6668C133.405 51.5714 133.686 51.4008 133.913 51.1703C135.006 50.1672 135.569 48.7354 136.297 47.4377C136.812 46.5091 137.427 45.6169 137.717 44.5939C137.955 43.7001 137.94 42.7574 137.671 41.8722C137.402 40.9869 136.892 40.1942 136.196 39.5835C135.873 39.307 135.516 39.0753 135.203 38.7889C134.385 38.0474 133.908 36.9831 133.712 35.8972C133.517 34.8114 133.547 33.6941 133.641 32.5867C131.985 32.4592 130.34 32.6595 128.724 32.9823C128.005 33.1263 126.993 33.1925 126.342 33.5352C125.61 33.9241 126.461 34.4224 126.662 34.9769Z" fill="black"/>
<path d="M117.421 39.8483C114.731 38.9263 113.446 35.3245 110.63 34.9206C110.186 34.8561 109.731 34.8809 109.295 34.7783C107.674 34.3943 106.977 32.5205 106.508 30.9232C104.928 25.5982 102.865 20.3875 99.9331 15.6667C98.696 13.6804 96.74 12.0483 95.8474 9.87326C95.642 9.37669 95.5377 8.81059 95.1683 8.41829C94.799 8.02599 94.009 7.96971 93.8086 8.4696C93.7527 8.64668 93.7402 8.83458 93.7722 9.01749L93.966 11.0783L90.5973 10.7754C90.2857 10.7223 89.9659 10.745 89.6649 10.8416C89.3399 11.0041 89.0808 11.2736 88.9312 11.6047C87.7918 13.7449 89.0057 16.5489 91.0163 17.9029C93.3648 19.4837 96.7185 19.7237 98.2786 22.0824C99.2061 23.4861 99.2243 25.292 99.8354 26.8595C100.127 27.6093 100.553 28.2979 100.892 29.0246C101.54 30.41 101.871 31.9163 102.373 33.3597C103.091 35.4238 104.156 37.3472 105.218 39.2591C106.036 40.7355 106.874 42.2385 108.133 43.3674C108.961 44.109 109.935 44.6585 110.909 45.1882C113.303 46.4958 116.127 47.7538 118.664 46.7507C118.81 44.4897 118.242 41.9687 117.421 39.8483Z" fill="#FBBEBE"/>
<path d="M125.587 111.104C125.384 113.264 124.072 115.22 123.765 117.299C121.745 116.983 119.756 116.576 117.831 116.113C117.595 116.056 117.359 115.998 117.123 115.947C118.212 112.968 117.263 109.631 117.552 106.458C117.58 106.153 117.619 105.848 117.672 105.547C120.168 104.696 122.422 103.561 125.039 103.892C125.09 104.422 125.143 104.953 125.195 105.483C125.3 106.541 125.403 107.598 125.506 108.654C125.611 109.466 125.638 110.287 125.587 111.104Z" fill="#FBBEBE"/>
<path d="M142.848 116.506C141.867 116.804 140.86 117.064 139.809 117.278C139.633 117.314 139.456 117.349 139.279 117.382C138.202 117.584 137.112 117.731 136.011 117.832C135.898 115.532 134.355 113.416 134.13 111.054C134.084 110.467 134.09 109.877 134.148 109.291C134.168 109.059 134.191 108.828 134.212 108.596L134.68 103.834C135.051 103.787 135.426 103.769 135.801 103.779C137.954 103.831 139.913 104.762 142.046 105.489C142.205 106.494 142.261 107.512 142.212 108.528C142.131 111.114 141.715 113.731 142.676 116.103C142.73 116.237 142.79 116.371 142.848 116.506Z" fill="#FBBEBE"/>
<path d="M114.892 80.2001C115.181 82.4578 114.027 84.6196 113.527 86.8393C113.196 88.3075 113.151 89.8188 113.106 91.325L112.845 100.348C112.818 101.25 112.795 102.169 113.07 103.034C113.623 104.769 115.327 105.941 117.101 106.358C118.875 106.775 120.73 106.563 122.537 106.325C123.423 106.207 124.347 106.07 125.08 105.559C126.089 104.855 126.53 103.602 126.91 102.433L127.985 99.1345C129.222 101.919 128.699 104.963 129.441 107.917C129.489 108.191 129.602 108.448 129.772 108.667C130.085 109.015 130.6 109.069 131.069 109.103C134.315 109.331 137.606 109.558 140.799 108.937C141.677 108.771 142.593 108.503 143.199 107.845C143.904 107.078 144.027 105.951 144.019 104.91C143.974 101.333 142.681 97.8815 142.392 94.3161C142.268 92.7883 142.329 91.2522 142.275 89.7195C142.232 88.5667 142.124 87.4172 141.952 86.2765C141.897 85.754 141.754 85.2446 141.528 84.7702C141.031 83.8433 139.999 83.3401 139.022 82.9495C131.43 79.8674 123.08 79.8972 114.892 80.2001Z" fill="#F86D70"/>
<path d="M128.948 35.785C132.881 35.785 136.069 32.5984 136.069 28.6674C136.069 24.7365 132.881 21.5498 128.948 21.5498C125.015 21.5498 121.826 24.7365 121.826 28.6674C121.826 32.5984 125.015 35.785 128.948 35.785Z" fill="#FBBEBE"/>
<path d="M135.155 41.2047C134.627 42.3634 133.795 43.522 132.558 43.8167C131.42 44.0898 130.215 43.5419 129.377 42.7259C128.538 41.9098 127.99 40.8504 127.409 39.8358C126.985 39.0942 126.513 38.346 125.796 37.8793C124.815 37.2436 123.55 37.2602 122.394 37.4472C121.238 37.6343 120.09 37.9686 118.916 37.8925C117.454 37.7948 115.963 37.0649 114.584 37.5515C115.031 39.5511 114.87 41.7493 114.819 43.7985C114.827 44.1149 114.783 44.4305 114.686 44.732C114.566 45.0132 114.403 45.2744 114.204 45.5067L112.879 47.2133C114.3 48.2759 115.529 49.663 116.026 51.3663C116.306 52.3363 116.22 53.3658 116.21 54.3756C116.178 57.3401 116.823 60.2931 116.619 63.251C116.381 66.7155 114.996 69.9896 114.282 73.3878C113.671 76.3051 113.555 79.3045 113.941 82.26C121.364 84.8273 129.012 86.1416 136.859 86.572C138.245 86.6481 139.742 86.6597 140.88 85.8635C141.826 85.2014 142.356 84.0675 142.536 82.9254C142.717 81.7833 142.593 80.6213 142.467 79.4726C142.126 76.3662 141.785 73.2598 141.445 70.1535C141.251 68.3856 141.057 66.6079 141.183 64.8351C141.278 63.5109 141.549 62.2115 141.819 60.9155L143.475 52.9603C143.712 51.8298 143.951 50.6909 144.42 49.6366C144.804 48.7758 145.335 47.9813 145.759 47.1437C146.265 46.1395 146.613 45.0638 146.793 43.9541C146.865 43.632 146.86 43.2975 146.78 42.9775C146.602 42.4345 146.061 42.1084 145.556 41.8419C142.475 40.2241 139.174 39.0668 135.758 38.4073C135.526 39.3822 135.571 40.2959 135.155 41.2047Z" fill="#FCB83B"/>
<path d="M134.468 36.437C135.296 34.8513 136.844 33.739 137.743 32.1896C138.24 31.3113 138.518 30.3261 138.554 29.3176C138.589 28.3091 138.38 27.307 137.946 26.3962C137.629 25.7507 137.2 25.1581 136.952 24.4828C136.675 23.7147 136.649 22.8689 136.329 22.1174C135.89 21.0878 134.94 20.3463 133.904 19.9192C132.869 19.4922 131.751 19.3382 130.637 19.1892L126.874 18.6827C126.329 18.6099 125.764 18.5371 125.234 18.6827C124.704 18.8284 124.211 19.2604 124.168 19.81C124.116 20.4605 124.688 21.0663 124.555 21.7052C124.507 21.9303 124.375 22.1588 124.451 22.3773C124.519 22.5232 124.636 22.6405 124.782 22.7083C125.675 23.2049 126.742 23.2496 127.709 23.574C128.676 23.8984 129.646 24.7128 129.549 25.7259C129.496 26.2704 129.145 26.8365 129.383 27.3248C129.612 27.7767 130.211 27.8595 130.69 28.0002C132.238 28.4488 133.325 30.1272 133.1 31.7245C133.03 32.2211 132.851 32.6961 132.815 33.1944C132.694 34.939 132.969 35.4373 134.395 36.4519L134.468 36.437Z" fill="#3F3D56"/>
<path d="M144.141 43.9812C144.149 44.3116 144.089 44.6401 143.964 44.9462C143.447 46.047 141.866 45.9775 140.817 46.6015C139.512 47.3795 139.224 49.1158 139.105 50.6287C138.969 52.3419 138.876 54.0799 139.227 55.76C139.579 57.4401 140.423 59.0788 141.834 60.0637C143.552 61.2571 145.887 61.2985 147.848 60.5719C149.809 59.8452 151.447 58.4399 152.868 56.9038C154.216 55.4472 155.423 53.8234 156.147 51.9745C156.274 51.6434 156.387 51.2925 156.284 50.9614C156.13 50.4649 155.589 50.2398 155.148 49.9683C154.12 49.3476 153.434 48.265 153.078 47.1212C152.722 45.9775 152.662 44.7609 152.651 43.5608C152.637 42.3144 152.634 40.9521 151.839 39.9904C151.044 39.0287 149.666 38.7589 148.411 38.7688C147.384 38.7688 144.542 38.8665 143.842 39.762C143.267 40.5068 144.183 42.9152 144.141 43.9812Z" fill="#BE6F72"/>
<path opacity="0.1" d="M144.141 43.9812C144.149 44.3116 144.089 44.6401 143.964 44.9462C143.447 46.047 141.866 45.9775 140.817 46.6015C139.512 47.3795 139.224 49.1158 139.105 50.6287C138.969 52.3419 138.876 54.0799 139.227 55.76C139.579 57.4401 140.423 59.0788 141.834 60.0637C143.552 61.2571 145.887 61.2985 147.848 60.5719C149.809 59.8452 151.447 58.4399 152.868 56.9038C154.216 55.4472 155.423 53.8234 156.147 51.9745C156.274 51.6434 156.387 51.2925 156.284 50.9614C156.13 50.4649 155.589 50.2398 155.148 49.9683C154.12 49.3476 153.434 48.265 153.078 47.1212C152.722 45.9775 152.662 44.7609 152.651 43.5608C152.637 42.3144 152.634 40.9521 151.839 39.9904C151.044 39.0287 149.666 38.7589 148.411 38.7688C147.384 38.7688 144.542 38.8665 143.842 39.762C143.267 40.5068 144.183 42.9152 144.141 43.9812Z" fill="black"/>
<path d="M135.311 88.3719C135.362 88.6241 135.481 88.8576 135.655 89.0472C135.819 89.1763 136.01 89.2663 136.214 89.3104C141.649 90.9044 147.456 90.2688 153.083 89.6183C152.313 87.2744 151.538 84.9041 151.325 82.446C151.147 80.4183 151.346 78.3079 150.627 76.406C150.415 75.8432 138.06 78.4337 136.841 78.6439C136.217 78.7515 135.498 78.7151 135.056 79.21C134.523 79.8092 134.478 81.236 134.422 81.9826C134.263 84.1394 134.708 86.3111 135.311 88.3719Z" fill="#BE6F72"/>
<path d="M147.687 114.649C146.693 115.109 145.668 115.538 144.606 115.922C144.032 116.13 143.446 116.326 142.848 116.508C141.867 116.806 140.86 117.065 139.808 117.279C139.209 115.759 138.609 114.239 138.008 112.719C137.566 111.6 137.124 110.476 136.754 109.332C136.498 108.551 136.286 107.756 136.122 106.95C135.58 104.212 135.721 101.383 136.533 98.7119C138.828 99.1439 141.072 99.4253 143.333 99.7531C144.54 99.9186 145.751 100.114 146.976 100.344C147.072 101.142 147.16 101.94 147.238 102.738C147.357 103.969 147.455 105.201 147.531 106.432C147.7 109.169 147.752 111.908 147.687 114.649Z" fill="#BE6F72"/>
<path opacity="0.1" d="M147.687 114.649C146.693 115.109 145.668 115.538 144.606 115.922C144.032 116.13 143.446 116.326 142.848 116.508C141.867 116.806 140.86 117.065 139.808 117.279C139.209 115.759 138.609 114.239 138.008 112.719C137.566 111.6 137.124 110.476 136.754 109.332C136.498 108.551 136.286 107.756 136.122 106.95C135.58 104.212 135.721 101.383 136.533 98.7119C138.828 99.1439 141.072 99.4253 143.333 99.7531C144.54 99.9186 145.751 100.114 146.976 100.344C147.072 101.142 147.16 101.94 147.238 102.738C147.357 103.969 147.455 105.201 147.531 106.432C147.7 109.169 147.752 111.908 147.687 114.649Z" fill="black"/>
<path d="M160.423 107.476C160.436 108.429 160.165 109.403 159.913 110.338C159.895 110.404 159.878 110.469 159.862 110.535C159.263 110.348 158.746 109.961 158.399 109.439C158.22 109.156 158.087 108.846 158.007 108.52C157.257 109.03 156.501 109.535 155.738 110.035C153.242 111.674 150.604 113.301 147.687 114.648C146.693 115.108 145.668 115.537 144.607 115.921C144.386 115.149 144.176 114.371 143.977 113.589C143.76 112.783 143.59 111.966 143.467 111.141C143.224 109.266 143.413 107.362 144.017 105.571L144.091 105.356C144.373 104.559 144.736 103.794 145.176 103.073C145.589 102.411 146.405 102.522 147.238 102.742C147.616 102.84 147.998 102.957 148.346 103.03C150.511 103.483 152.758 103.015 154.971 103.139C156.025 103.192 157.059 103.455 158.01 103.912C159.075 104.447 159.933 105.265 160.269 106.395C160.317 106.558 160.353 106.724 160.378 106.892C160.406 107.085 160.421 107.28 160.423 107.476Z" fill="#BE6F72"/>
<path d="M120.579 31.2436C117.159 27.9331 113.272 25.1274 109.296 22.5038C108.261 21.8553 107.266 21.1461 106.315 20.3801C105.321 19.5525 104.455 18.5809 103.4 17.836C102.345 17.0911 101.04 16.5797 99.7727 16.8246C98.5057 17.0696 97.3795 18.2813 97.565 19.5492C97.7306 20.6648 98.7343 21.4296 99.6617 22.0701C101.417 23.2834 103.181 24.5001 105.091 25.4518C105.754 25.7524 106.397 26.0952 107.017 26.4781C108.206 27.2792 109.072 28.4644 109.971 29.5784C113.366 33.7922 117.523 37.3298 122.227 40.0065C122.283 40.0396 124.243 35.8137 124.16 35.2659C123.978 34.0062 121.48 32.1176 120.579 31.2436Z" fill="#BE6F72"/>
<path d="M149.83 84.734C147.19 84.8995 144.658 85.7901 142.076 86.3578C139.494 86.9256 136.688 87.1457 134.292 86.0268L135.749 95.9732C135.831 96.5261 135.915 97.0922 135.794 97.6367C135.683 98.1565 135.395 98.6464 135.42 99.1778C135.458 100.019 136.248 100.61 136.992 100.999C139.152 102.138 141.572 102.696 144.014 102.616C143.833 103.344 143.608 104.064 143.426 104.792C144.643 106.098 146.634 106.186 148.371 106.6C149.696 106.913 150.938 107.456 152.237 107.838C153.807 108.301 155.437 108.528 157.074 108.512C158.179 108.5 159.35 108.346 160.208 107.658C161.263 106.809 161.591 105.365 161.819 104.031C161.947 103.286 162.064 102.531 161.985 101.78C161.899 100.916 161.564 100.098 161.233 99.297L158.964 93.7932C158.552 92.8001 158.136 91.792 157.639 90.8336C156.016 87.7333 153.323 84.5172 149.83 84.734Z" fill="#008F89"/>
<path d="M151.851 50.3679C152.047 49.8529 152.409 49.4178 152.879 49.131C153.35 48.8442 153.903 48.7221 154.451 48.7838C155.113 48.8765 155.705 49.239 156.273 49.5932L159.436 51.5663C159.96 51.878 160.463 52.2242 160.941 52.6025C163.122 54.41 163.964 57.3812 164.204 60.2034C164.444 63.0256 164.204 65.8959 164.765 68.6717C163.431 69.7774 161.95 70.7127 160.615 71.8167C159.916 72.3944 159.209 72.9754 158.679 73.7186C158.258 74.3029 157.959 74.9716 157.52 75.5394C156.801 76.4367 155.758 77.0157 154.616 77.1516C155.34 77.572 155.746 78.3881 155.941 79.2008C156.137 80.0135 156.19 80.8561 156.407 81.6688C156.705 82.7729 157.323 83.7809 157.526 84.9065C157.669 85.6828 157.606 86.479 157.657 87.2669C157.915 91.3438 161.117 94.9076 160.91 98.9861C159.399 98.4373 157.969 97.6861 156.66 96.7532C156.071 96.3311 155.501 95.8742 154.943 95.419L150.724 92.0009C148.672 90.3457 146.601 88.654 144.969 86.575C143.946 85.2707 143.111 83.8273 142.084 82.5262C141.057 81.2252 139.794 80.0434 138.225 79.4971C137.995 79.8431 137.586 80.0831 137.356 80.429C137.315 80.4836 137.283 80.5438 137.26 80.6078C137.232 80.7621 137.251 80.9213 137.314 81.0646C137.499 81.7341 137.61 82.4218 137.646 83.1155L137.75 84.3603C137.789 84.6902 137.789 85.0235 137.75 85.3534C137.593 86.4177 136.606 87.2437 135.541 87.4092C135.387 87.4425 135.227 87.4374 135.075 87.3943C134.779 87.295 134.615 86.9822 134.525 86.6842C134.106 85.2706 134.749 83.7793 134.8 82.3077C134.808 81.9343 134.795 81.5608 134.762 81.1888L134.663 79.7206C133.701 79.5203 133.147 78.4874 132.892 77.5389C132.203 74.9783 131.51 72.3282 131.909 69.7063C132.015 69.0044 132.2 68.2927 132.074 67.5908C131.909 66.6523 131.233 65.8909 130.877 65.007C129.718 62.1252 132.18 58.9968 131.952 55.9031C131.856 54.6037 131.031 53.4748 130.534 52.2698C130.277 51.5674 129.944 50.8953 129.54 50.2653C129.034 49.5419 128.35 48.9626 127.685 48.3799C125.634 46.5813 123.689 44.6657 121.859 42.6428C120.919 42.5454 120.038 42.1417 119.35 41.4941C118.913 41.0802 118.553 40.534 118.542 39.9331C118.53 39.3323 118.974 38.7016 119.575 38.6702C119.926 38.652 120.254 38.8258 120.597 38.9019C121.67 39.137 122.75 38.3474 123.229 37.3559C123.707 36.3644 123.707 35.2239 123.699 34.1249C124.224 34.0318 124.763 34.0754 125.266 34.2513C125.769 34.4273 126.217 34.7298 126.569 35.1296C127.309 35.934 127.791 36.9371 128.374 37.8608C128.612 38.2711 128.916 38.6387 129.275 38.9483C130.072 39.5806 131.22 39.6998 131.915 40.438C132.268 40.8154 132.463 41.3153 132.786 41.7192C133.694 42.8563 135.355 42.9954 136.596 43.7436C137.836 44.4917 138.699 45.859 140.074 46.3026C140.57 46.4681 141.112 46.4896 141.604 46.6734C142.74 47.0954 143.434 48.3021 143.591 49.5022C143.749 50.7023 143.48 51.9156 143.209 53.0974L142.571 55.8633C142.43 56.4758 142.323 57.2124 142.775 57.6494C142.988 57.826 143.239 57.9522 143.508 58.0185C144.668 58.3959 145.96 58.7667 147.049 58.232C147.564 57.9771 147.969 57.5467 148.338 57.1064C149.954 55.2029 151.029 52.7101 151.851 50.3679Z" fill="#19C3AB"/>
<path d="M164.923 106.654C164.694 108.169 163.859 109.658 162.493 110.352C161.674 110.756 160.729 110.821 159.861 110.534C159.262 110.348 158.746 109.961 158.399 109.438C158.22 109.155 158.087 108.845 158.007 108.52C158.007 108.503 157.998 108.485 157.995 108.468C157.871 107.883 157.819 107.284 157.841 106.686C157.841 105.757 157.896 104.829 158.007 103.906C158.099 103.13 158.252 102.362 158.464 101.609C158.772 100.535 159.216 99.5001 159.623 98.4639C159.835 97.9177 160.039 97.3698 160.206 96.8086C160.307 96.4776 160.393 96.1366 160.463 95.7923L160.487 95.6682C160.501 95.5987 160.512 95.5291 160.524 95.4596C160.69 94.5161 160.738 93.5395 161.163 92.687C162.157 90.6858 164.091 91.1973 164.386 93.0429C164.408 93.1859 164.421 93.3303 164.424 93.475C164.469 95.8105 163.541 98.0931 163.965 100.437C164.085 101.009 164.235 101.573 164.416 102.129C164.565 102.64 164.699 103.158 164.802 103.683C165.01 104.659 165.051 105.664 164.923 106.654Z" fill="#BE6F72"/>
<path d="M165.834 80.6842C165.878 81.641 165.834 82.6093 166.026 83.5478C166.475 85.7659 168.179 87.729 167.99 89.9835C167.944 90.533 167.74 91.1239 167.26 91.3954C166.779 91.6669 165.984 91.6453 165.827 92.1916C165.782 92.3439 165.806 92.5094 165.756 92.66C165.652 92.9811 165.259 93.1185 164.928 93.1102C164.597 93.102 164.265 92.9927 163.923 93.0209C162.722 93.1218 162.281 94.7274 161.211 95.2786C160.491 95.6494 159.555 95.4442 158.961 94.8963C158.366 94.3484 158.106 93.4943 158.152 92.6848C158.187 92.0741 158.381 91.4848 158.484 90.8823C158.671 89.808 158.573 88.7073 158.475 87.6214C158.331 86.0307 158.182 84.4201 157.659 82.9122C157.412 82.2004 157.084 81.5201 156.871 80.7984C156.566 79.7771 156.496 78.7029 156.465 77.6385C156.4 75.399 156.554 73.0038 157.892 71.2029C158.898 69.8522 160.339 68.7548 161.476 67.5051C162.189 66.7221 162.394 66.4771 163.181 67.1409C163.828 67.6855 164.505 68.437 164.578 69.1752C164.777 71.0672 164.578 72.9277 164.933 74.8544C165.287 76.7811 165.741 78.7062 165.834 80.6842Z" fill="#19C3AB"/>
<path d="M148.656 44.2264C153.321 44.2264 157.103 40.4469 157.103 35.7846C157.103 31.1223 153.321 27.3428 148.656 27.3428C143.992 27.3428 140.21 31.1223 140.21 35.7846C140.21 40.4469 143.992 44.2264 148.656 44.2264Z" fill="#BE6F72"/>
<path d="M156.39 51.9339C156.576 51.674 156.796 51.3943 157.111 51.3396C157.348 51.3217 157.586 51.3717 157.796 51.4836L160.021 52.4122C160.622 51.4202 160.976 50.2986 161.054 49.1415C161.1 48.4313 161.044 47.7113 161.18 47.0128C161.382 45.9766 161.996 45.048 162.139 44.0019C162.251 43.1577 162.048 42.3086 161.925 41.466C161.548 38.864 161.953 36.2089 161.736 33.5887C161.519 30.9684 160.468 28.1611 158.129 26.9577C157.467 26.6266 156.753 26.428 156.064 26.1665C154.529 25.5822 153.152 24.647 151.635 24.0147C150.118 23.3823 148.336 23.0927 146.866 23.8193C145.395 24.546 144.539 26.5902 145.494 27.9244C145.809 28.363 146.269 28.6742 146.71 28.9904C147.606 29.6309 148.52 30.4222 148.727 31.5047C149.098 33.4529 147.071 34.9807 146.5 36.8859C146.289 37.63 146.27 38.4153 146.445 39.1685C146.692 40.2974 147.295 41.3634 147.273 42.5188C147.256 43.785 146.498 44.9321 146.356 46.1918C146.304 46.6536 146.336 47.122 146.278 47.5822C146.176 48.1892 145.996 48.7806 145.743 49.3417C144.418 52.6523 143.075 55.9975 141.105 58.9737C143.214 59.0094 145.298 58.5226 147.172 57.5568C146.903 58.8327 146.387 60.0438 145.653 61.1222C147.338 60.9273 148.959 60.362 150.4 59.4669C150.05 60.718 149.544 61.9199 148.893 63.044C148.949 62.948 149.991 62.7129 150.183 62.6037C150.578 62.3792 150.895 62.0405 151.094 61.632C151.657 60.6256 152.008 59.4123 152.53 58.3662C153.645 56.1239 154.936 53.9731 156.39 51.9339Z" fill="#3F3D56"/>
<path d="M92.3333 1.27412C91.9322 1.31451 91.5285 1.32392 91.126 1.30226C91.0573 1.29477 90.9885 1.31451 90.9343 1.35723C90.8801 1.39995 90.8448 1.46224 90.8361 1.53069L90.066 7.30423C90.0068 7.72333 89.8351 8.11858 89.5692 8.44801C89.3499 8.71017 89.187 9.01457 89.0904 9.34231C88.9938 9.67006 88.9657 10.0141 89.0077 10.3532V20.1606C89.0077 20.1606 88.958 21.4683 89.9633 21.4683C91.1665 21.6194 92.3838 21.6194 93.587 21.4683C93.587 21.4683 94.3919 21.316 94.3919 20.1093V10.4525C94.4533 10.1156 94.4407 9.76938 94.3549 9.43783C94.2691 9.10629 94.1122 8.79735 93.8951 8.53243C93.6381 8.2018 93.4719 7.80981 93.4131 7.39527L92.6132 1.50089C92.6041 1.43462 92.5701 1.3743 92.5181 1.33218C92.4661 1.29005 92.4 1.2693 92.3333 1.27412Z" fill="#3F3D56"/>
<path d="M92.3378 10.5293H91.1172C90.1065 10.5293 89.2871 11.3482 89.2871 12.3584V16.9484C89.2871 17.9585 90.1065 18.7774 91.1172 18.7774H92.3378C93.3485 18.7774 94.1679 17.9585 94.1679 16.9484V12.3584C94.1679 11.3482 93.3485 10.5293 92.3378 10.5293Z" fill="#19C3AB"/>
<path d="M103.761 9.71651C103.359 9.7569 102.956 9.7663 102.553 9.74465C102.485 9.73715 102.416 9.75689 102.362 9.79962C102.307 9.84234 102.272 9.90463 102.263 9.97307L101.493 15.7466C101.434 16.1657 101.262 16.561 100.996 16.8904C100.777 17.1526 100.614 17.457 100.518 17.7847C100.421 18.1124 100.393 18.4565 100.435 18.7956V28.603C100.435 28.603 100.385 29.9107 101.391 29.9107C102.594 30.0618 103.811 30.0618 105.014 29.9107C105.014 29.9107 105.819 29.7584 105.819 28.5517V18.8949C105.881 18.558 105.868 18.2118 105.782 17.8802C105.696 17.5487 105.539 17.2397 105.322 16.9748C105.065 16.6442 104.899 16.2522 104.84 15.8377L104.04 9.94328C104.031 9.87701 103.997 9.81668 103.945 9.77456C103.893 9.73244 103.827 9.71168 103.761 9.71651Z" fill="#3F3D56"/>
<path d="M103.766 18.9707H102.545C101.534 18.9707 100.715 19.7896 100.715 20.7998V25.3898C100.715 26.4 101.534 27.2189 102.545 27.2189H103.766C104.776 27.2189 105.596 26.4 105.596 25.3898V20.7998C105.596 19.7896 104.776 18.9707 103.766 18.9707Z" fill="#19C3AB"/>
<g opacity="0.2">
<path opacity="0.2" d="M90.9152 108.623C90.9099 108.801 90.8894 108.979 90.8539 109.154C89.7012 108.971 88.5419 108.806 87.376 108.658C87.376 108.611 87.376 108.563 87.376 108.515C87.3868 108.019 87.5297 107.535 87.79 107.112C88.1312 106.572 88.6496 106.234 89.221 106.253C89.7923 106.271 90.2875 106.64 90.5939 107.198C90.8257 107.636 90.9366 108.128 90.9152 108.623Z" fill="#3F3D56"/>
<path opacity="0.2" d="M91.0083 105.796C91.0488 104.516 90.2886 103.453 89.3104 103.422C88.3322 103.391 87.5063 104.404 87.4659 105.684C87.4254 106.964 88.1856 108.027 89.1638 108.058C90.142 108.089 90.9678 107.076 91.0083 105.796Z" fill="#3F3D56"/>
<path opacity="0.2" d="M91.0986 102.963C91.1391 101.683 90.3789 100.62 89.4007 100.589C88.4225 100.558 87.5967 101.571 87.5562 102.851C87.5157 104.131 88.2759 105.194 89.2541 105.225C90.2324 105.256 91.0582 104.243 91.0986 102.963Z" fill="#3F3D56"/>
<path opacity="0.2" d="M91.1875 100.129C91.228 98.8489 90.4678 97.7861 89.4896 97.7552C88.5114 97.7243 87.6855 98.737 87.6451 100.017C87.6046 101.297 88.3648 102.36 89.343 102.391C90.3212 102.422 91.147 101.409 91.1875 100.129Z" fill="#3F3D56"/>
<path opacity="0.2" d="M91.2778 97.295C91.3183 96.0149 90.5581 94.9521 89.5799 94.9212C88.6017 94.8903 87.7759 95.903 87.7354 97.1831C87.6949 98.4632 88.4551 99.526 89.4333 99.5569C90.4116 99.5878 91.2374 98.5751 91.2778 97.295Z" fill="#3F3D56"/>
<path opacity="0.2" d="M83.4792 77.6303C83.246 77.3147 83.0357 76.9828 82.8499 76.6371L87.5302 76.0197L82.4922 75.8989C82.0426 74.8331 81.8153 73.6868 81.8241 72.5301C81.8329 71.3735 82.0777 70.2308 82.5435 69.1719L89.1881 72.888L83.1016 68.1142C83.7156 67.1217 84.5278 66.2664 85.4874 65.6017C86.447 64.9369 87.5334 64.4771 88.6788 64.2509C89.8242 64.0247 91.004 64.0369 92.1444 64.2869C93.2849 64.5368 94.3615 65.0191 95.3071 65.7036C96.2527 66.3881 97.0469 67.2601 97.6401 68.2651C98.2334 69.2702 98.6129 70.3867 98.755 71.5449C98.8971 72.7031 98.7987 73.8782 98.466 74.9967C98.1333 76.1153 97.5734 77.1532 96.8214 78.0458C97.1841 78.5367 97.4923 79.0656 97.7405 79.6232L91.5978 82.5696L98.1115 80.6114C98.5217 81.9642 98.5878 83.3978 98.3038 84.7826C98.0198 86.1673 97.3948 87.4594 96.4851 88.5417C97.4308 89.8241 97.9964 91.3466 98.1171 92.9351C98.2377 94.5236 97.9087 96.114 97.1676 97.5244C96.4265 98.9348 95.3032 100.108 93.9262 100.911C92.5492 101.713 90.9741 102.112 89.381 102.062C87.7878 102.012 86.2409 101.514 84.9173 100.627C83.5936 99.7393 82.5465 98.4974 81.8958 97.0431C81.245 95.5889 81.0169 93.981 81.2375 92.4032C81.458 90.8255 82.1184 89.3416 83.1431 88.1213C82.0132 86.5888 81.4316 84.7212 81.4917 82.8185C81.5518 80.9158 82.25 79.0886 83.4743 77.6303H83.4792Z" fill="#19C3AB"/>
<path opacity="0.1" d="M98.4726 83.3545C98.4146 85.2583 97.7142 87.0865 96.4852 88.5421C97.4309 89.8245 97.9964 91.347 98.1171 92.9355C98.2378 94.524 97.9087 96.1143 97.1676 97.5247C96.4265 98.9351 95.3033 100.109 93.9263 100.911C92.5493 101.713 90.9741 102.112 89.381 102.062C87.7878 102.012 86.241 101.515 84.9173 100.627C83.5936 99.7396 82.5465 98.4977 81.8958 97.0435C81.245 95.5892 81.0169 93.9813 81.2375 92.4036C81.458 90.8258 82.1184 89.342 83.1431 88.1217C82.0549 86.6435 98.5024 82.4027 98.4726 83.3545Z" fill="black"/>
</g>
</g>
<defs>
<clipPath id="clip0">
<rect width="188" height="118" fill="white"/>
</clipPath>
</defs>
</svg>
