<svg width="228" height="158" viewBox="0 0 228 158" fill="none" xmlns="http://www.w3.org/2000/svg">
<g clip-path="url(#clip0)">
<path opacity="0.1" d="M21.4724 38.3751C26.1582 48.9057 20.1809 61.0318 13.145 70.1628C10.7902 73.2248 8.1904 76.4348 7.86393 80.2755C7.47025 84.9735 10.6677 89.2918 14.4605 92.1149C21.3788 97.2596 30.8272 98.8503 39.0609 96.2541C46.176 94.0114 52.1581 88.9455 59.3356 86.9034C71.3381 83.4831 84.0608 89.1533 94.3397 96.2183C101.616 101.213 109.408 107.298 118.179 106.228C124.351 105.476 129.589 101.165 133.144 96.0893C134.86 93.6388 136.353 90.8921 138.852 89.2393C140.338 88.2552 142.083 87.7346 143.829 87.362C159.766 83.9728 176.679 92.2439 192.405 87.9901C203.027 85.124 211.496 76.7644 216.763 67.1462C222.03 57.528 224.488 46.6677 226.536 35.9078C227.99 28.2648 229.198 20.008 225.854 12.9788C222.315 5.53643 214.125 1.02467 205.894 0.179165C197.662 -0.666342 189.407 1.66716 181.824 4.95843C172.349 9.08088 163.061 14.8513 152.72 14.8705C145.677 14.8848 138.96 12.1954 132.227 10.1437C120.969 6.71632 109.261 5.01336 97.5948 3.44177C86.4253 1.93706 75.1453 0.537431 63.9085 1.42593C55.9581 2.05409 48.9366 5.07785 41.2214 6.47748C36.1923 7.38986 31.1392 6.71632 26.2038 8.24492C20.1257 10.1366 13.8748 14.5193 13.5387 21.4219C13.2219 27.9925 18.9879 32.7885 21.4724 38.3751Z" fill="#19C3AB"/>
<path d="M144.486 47.7531C143.461 45.0948 140.818 38.8466 139.078 40.0862C136.879 41.653 141.277 48.5747 141.277 48.5747C141.402 49.8454 138.929 52.4894 137.604 53.8078C137.604 53.7027 137.604 53.643 137.604 53.643C137.592 53.6931 137.572 53.7413 137.547 53.7863L137.436 53.7266C137.407 53.8319 137.353 53.9291 137.28 54.0108C137.28 53.8317 137.268 53.7266 137.268 53.7266C137.014 54.799 132.573 56.158 132.573 56.158C132.573 56.158 132.453 56.158 132.246 56.158C131.012 56.158 127.8 55.8809 126.312 53.5116C125.542 52.2281 124.558 51.085 123.4 50.132C123.004 49.823 122.523 49.6414 122.02 49.6113C117.908 49.3486 114.579 47.2778 113.914 46.8359L113.791 46.7523L113.765 46.8288C113.609 46.6066 113.457 46.3702 113.316 46.1266L113.244 45.9952C114.239 45.498 115.077 44.7363 115.664 43.7945C116.25 42.8527 116.564 41.7676 116.569 40.6594C116.569 40.6188 116.569 40.5758 116.569 40.5352C116.93 39.9131 117.121 39.2071 117.121 38.4883V37.7718L118.059 36.9406C118.489 36.5609 118.933 36.1596 119.151 35.6365C119.239 35.4249 119.279 35.1964 119.267 34.9678C119.288 34.7719 119.258 34.5739 119.181 34.3925C119.104 34.2111 118.981 34.0523 118.825 33.9312C118.105 33.4368 116.905 33.9312 116.384 33.2433C116.144 32.9328 116.187 32.5101 116.069 32.1446C115.829 31.4018 114.965 31.0006 114.166 30.9886C113.366 30.9767 112.6 31.2657 111.832 31.483C110.218 31.9389 108.534 32.096 106.863 31.9464C106.411 31.8664 105.947 31.8826 105.502 31.9942C105.23 32.106 104.989 32.28 104.797 32.5019C104.605 32.7239 104.468 32.9877 104.398 33.272C104.339 33.4856 104.303 33.7051 104.292 33.9264C103.623 34.678 103.252 35.6472 103.251 36.6516V38.4883C103.252 39.4689 103.605 40.4166 104.247 41.161C104.322 42.0252 104.587 42.8627 105.021 43.615C105.455 44.3674 106.048 45.0166 106.76 45.5175C106.76 45.5653 106.76 45.6138 106.76 45.6632L106.791 45.6823C106.752 46.2517 106.664 46.8167 106.527 47.3709V47.2491C106.527 47.2491 103.167 49.0285 99.5658 49.0715H99.1697C98.4594 49.0477 97.7687 49.3054 97.2493 49.788C96.1834 50.7864 94.3158 52.3652 93.1684 52.3652C92.9284 52.3652 86.8695 53.5427 85.8661 53.7385L83.9913 51.9114L83.9337 52.0188L83.8232 51.9114C83.6182 51.9271 83.4145 51.9566 83.2135 51.9997C82.2533 50.8676 80.3329 48.2356 79.8888 44.7031C79.8888 44.7031 84.0345 40.005 82.5102 35.627C81.2091 31.8962 77.6251 39.8927 76.6073 42.3027C76.4293 42.7232 76.4071 43.193 76.5449 43.6283L79.9128 54.4288C79.5921 55.2657 79.5002 56.1723 79.6464 57.0561H79.608L82.0613 60.1873C82.0613 60.1873 83.9073 60.9707 86.7951 60.9564C88.9116 60.9598 91.0091 60.5593 92.974 59.7765H93.5429L93.4349 59.8171H96.3563L98.2143 65.4084C98.1519 65.9172 97.2541 73.018 96.5339 74.6063C96.3202 75.137 96.2236 75.7072 96.2507 76.2782C96.2885 77.3754 96.4684 78.4632 96.786 79.5145L98.4135 79.4548L98.3511 79.5814C96.9732 82.3926 94.6711 87.4012 93.31 92.0825L90.9407 96.8594L92.7171 118.284H92.7891L92.926 118.305C93.118 118.334 93.4061 118.377 93.7853 118.425L93.6461 118.663L89.7309 125.112C89.7309 125.112 86.9391 130.799 93.1156 129.727C93.1156 129.727 95.3985 129.067 96.3299 125.189L100.392 121.398C100.392 121.398 100.581 118.881 99.4313 117.875C99.3593 116.712 99.1769 113.316 99.4577 112.499C99.7962 111.51 98.0174 100.139 98.0174 100.139C98.0174 100.139 104.446 86.8709 108.34 86.5413C108.625 86.5214 108.912 86.5588 109.182 86.6512C112.382 87.6878 116.259 95.3857 117.399 97.7813L117.452 97.8912V97.9127L117.495 98.0058V98.0321L117.534 98.1133V98.1348L117.567 98.2089V98.2256L117.596 98.2853V98.3092L117.618 98.3546V98.3737L117.632 98.4071V98.4262V98.4477L117.644 98.4764L118.15 113.392L118.201 113.418H118.225L118.182 113.727L117.961 115.267C117.961 115.267 120.753 121.119 120.582 121.859C120.412 122.6 122.443 125.568 125.318 124.744C128.194 123.92 126.483 119.275 126.483 119.275L123.712 113.595L123.59 113.342C123.866 113.174 124.126 112.981 124.368 112.766C124.368 112.766 123.523 106.669 124.368 105.35C125.213 104.032 125.467 98.0154 125.467 98.0154C125.467 98.0154 124.874 93.8953 123.859 92.0825L119.605 76.9756C120.88 78.1555 121.871 78.6165 122.699 78.5854H122.836C123.2 78.5923 123.56 78.5033 123.878 78.3275C124.049 78.2315 124.21 78.1187 124.358 77.9907C124.387 77.9664 124.413 77.9401 124.437 77.9119C125.621 76.9231 123.084 73.049 121.646 70.7466C120.261 68.5253 122.169 62.4898 122.313 62.0407C122.441 61.9472 122.579 61.8671 122.723 61.8019C123.021 61.675 123.341 61.6061 123.664 61.5989C125.042 61.6466 126.737 62.4348 128.835 62.8313C130.293 63.0781 131.771 63.1924 133.25 63.1729H133.336C133.924 63.1729 134.457 63.1609 134.889 63.1442C135.283 63.1288 135.669 63.0251 136.017 62.8409C136.316 62.6676 136.586 62.4502 136.819 62.196L140.502 58.0568L140.406 58.1022C140.584 57.6328 140.584 57.1147 140.406 56.6452L144.297 49.9576C144.493 49.6281 144.612 49.2587 144.645 48.8769C144.678 48.4952 144.624 48.111 144.486 47.7531Z" fill="url(#paint0_linear)"/>
<path d="M100.769 120.831L96.8485 124.569C95.9507 128.39 93.7447 129.038 93.7447 129.038C87.7842 130.093 90.4776 124.5 90.4776 124.5L94.2584 118.134L94.7241 117.349C94.7241 117.349 97.4198 116.537 99.2154 117.024C99.4421 117.086 99.6515 117.198 99.8275 117.353C100.953 118.326 100.769 120.831 100.769 120.831Z" fill="#444176"/>
<path d="M124.939 124.163C122.162 124.975 120.203 122.051 120.378 121.318C120.553 120.585 117.841 114.826 117.841 114.826L118.052 113.307L118.249 111.9L122.81 112.225L123.24 113.123L125.914 118.724C125.914 118.724 127.717 123.351 124.939 124.163Z" fill="#444176"/>
<path opacity="0.1" d="M99.8707 117.989C99.441 118.722 95.9579 118.352 94.2607 118.123L94.7264 117.337C94.7264 117.337 97.4222 116.525 99.2178 117.012C99.4445 117.074 99.6539 117.187 99.8299 117.342C99.8539 117.738 99.8707 117.989 99.8707 117.989Z" fill="black"/>
<path opacity="0.1" d="M123.244 113.118C120.909 114.666 118.422 113.496 118.047 113.302L118.244 111.896L122.805 112.22L123.244 113.118Z" fill="black"/>
<path d="M123.878 104.989C123.062 106.288 123.878 112.302 123.878 112.302C121.182 114.741 117.999 112.952 117.999 112.952L117.519 98.2462C117.519 98.2462 112.211 86.1392 108.455 86.464C104.698 86.7888 98.4925 99.8703 98.4925 99.8703C98.4925 99.8703 100.206 111.082 99.88 112.051C99.5536 113.021 99.88 117.738 99.88 117.738C99.3087 118.713 93.3482 117.738 93.3482 117.738L91.6343 96.6125L93.91 91.8977C95.2182 87.2832 97.4411 82.3439 98.771 79.5733C99.4311 78.1952 99.8728 77.3545 99.8728 77.3545L104.218 76.454L118.321 73.5449L123.388 91.8977C124.368 93.6842 124.939 97.747 124.939 97.747C124.939 97.747 124.694 103.689 123.878 104.989Z" fill="#04318C"/>
<g opacity="0.1">
<path opacity="0.1" d="M119.305 112.951L118.825 98.2457C118.825 98.2457 113.517 86.1386 109.761 86.4635C109.593 86.4797 109.427 86.5166 109.269 86.5733C112.932 87.7843 117.519 98.2457 117.519 98.2457L117.999 112.951C119.001 113.459 120.13 113.664 121.247 113.541C120.57 113.46 119.912 113.26 119.305 112.951Z" fill="black"/>
<path opacity="0.1" d="M94.6448 117.745L92.9309 96.6194L95.2162 91.8975C96.5244 87.283 98.7473 82.3437 100.077 79.5731C100.737 78.195 101.179 77.3543 101.179 77.3543L105.524 76.4538L118.398 73.7907L118.328 73.5352L104.218 76.4538L99.8731 77.3543C99.8731 77.3543 99.4314 78.195 98.7713 79.5731C97.4366 82.3437 95.2186 87.2926 93.9103 91.8975L91.625 96.6099L93.339 117.736C93.339 117.736 96.594 118.268 98.5241 118.151C97.2249 118.081 95.9302 117.946 94.6448 117.745Z" fill="black"/>
</g>
<path d="M84.7138 52.2998C84.7138 52.2998 80.0593 52.5387 80.7122 57.4182L82.0181 57.5806L83.9769 55.4693L84.9563 53.6827V53.2767L84.7138 52.2998Z" fill="#CED2DF"/>
<path opacity="0.1" d="M84.7138 52.2998C84.7138 52.2998 80.0593 52.5387 80.7122 57.4182L82.0181 57.5806L83.9769 55.4693L84.9563 53.6827V53.2767L84.7138 52.2998Z" fill="black"/>
<path d="M136.495 54.0859C136.495 54.0859 140.336 56.1161 139.354 58.4735L138.13 58.9512L136.497 58.0579L136.257 55.9465L136.421 54.4848L136.495 54.0859Z" fill="#CED2DF"/>
<path opacity="0.1" d="M136.495 54.0859C136.495 54.0859 140.336 56.1161 139.354 58.4735L138.13 58.9512L136.497 58.0579L136.257 55.9465L136.421 54.4848L136.495 54.0859Z" fill="black"/>
<path d="M111.835 33.123H108.568C105.772 33.123 103.505 35.3783 103.505 38.1603C103.505 40.9422 105.772 43.1975 108.568 43.1975H111.835C114.631 43.1975 116.897 40.9422 116.897 38.1603C116.897 35.3783 114.631 33.123 111.835 33.123Z" fill="#88455E"/>
<path d="M84.6825 52.9899L81.8235 57.5279L81.5835 56.7206L77.6995 44.1288C77.5666 43.6995 77.5879 43.2377 77.7595 42.8223C78.7413 40.4482 82.2028 32.552 83.4583 36.2421C84.9274 40.5413 80.9258 45.1797 80.9258 45.1797C81.3818 48.9438 83.5063 51.6714 84.3417 52.6173C84.5529 52.8633 84.6825 52.9899 84.6825 52.9899Z" fill="#EC8C9C"/>
<path d="M135.883 54.939C135.883 54.939 140.374 50.7138 140.204 49.0085C140.204 49.0085 135.957 42.1847 138.082 40.649C139.762 39.4261 142.314 45.5882 143.303 48.2084C143.434 48.5574 143.486 48.9306 143.457 49.3019C143.427 49.6732 143.316 50.0337 143.132 50.358L137.765 59.8138L135.883 54.939Z" fill="#EC8C9C"/>
<path d="M106.811 43.159C106.811 43.159 107.627 48.3586 105.26 50.31C102.893 52.2613 112.039 52.2494 112.039 52.2494L115.306 49.2423C115.306 49.2423 111.549 45.748 112.692 43.1494L106.811 43.159Z" fill="#EC8C9C"/>
<path opacity="0.1" d="M106.647 49.0895C106.647 49.0895 110.159 51.6905 113.669 48.7646L119.384 60.5468L119.058 74.9276C119.058 74.9276 107.216 81.0205 102.317 77.285C97.4172 73.5495 101.5 71.5981 101.5 71.5981L100.358 60.5492L101.582 53.3982C101.582 53.3982 103.786 49.9851 103.951 49.9851C104.117 49.9851 106.647 49.0895 106.647 49.0895Z" fill="black"/>
<path d="M106.648 48.9264C106.648 48.9264 110.16 51.5322 113.672 48.6016L119.387 60.3837L119.061 74.7645C119.061 74.7645 107.219 80.8574 102.32 77.1219C97.4201 73.3864 101.503 71.435 101.503 71.435L100.361 60.3861L101.585 53.2351C101.585 53.2351 103.789 49.8221 103.954 49.8221C104.12 49.8221 106.648 48.9264 106.648 48.9264Z" fill="#EBF1F6"/>
<path opacity="0.1" d="M106.647 47.7119C106.647 47.7119 103.318 49.5988 99.7026 49.5056C99.3634 49.4951 99.0256 49.5517 98.7087 49.6723C98.3918 49.7928 98.1021 49.9749 97.8566 50.2078C96.8268 51.1919 95.024 52.7491 93.9077 52.7491C93.6677 52.7491 86.7206 54.1297 86.7206 54.1297L84.8842 52.3025C84.8842 52.3025 82.1477 57.6239 80.8418 57.3803L83.2111 60.4686C83.2111 60.4686 87.7024 62.4175 93.5813 60.0625H97.0116L98.8072 65.587C98.8072 65.587 97.9094 73.0628 97.1748 74.687C96.4403 76.3111 97.4149 79.4806 97.4149 79.4806L103.865 79.2417C103.865 79.2417 104.192 76.0722 104.681 75.659C105.171 75.2458 102.967 61.2782 102.967 61.2782C102.967 61.2782 101.498 53.3964 106.887 50.5542L106.647 47.7119Z" fill="black"/>
<path opacity="0.1" d="M104.215 76.4639C103.978 77.4277 103.809 78.407 103.709 79.3945L98.771 79.5808C99.4311 78.2026 99.8728 77.3619 99.8728 77.3619L104.215 76.4639Z" fill="black"/>
<path opacity="0.1" d="M84.6826 52.9902L81.8235 57.5283L81.5835 56.721C82.6325 55.6844 83.8616 53.5181 84.3513 52.6152C84.5529 52.8636 84.6826 52.9902 84.6826 52.9902Z" fill="black"/>
<path d="M106.647 47.7119C106.647 47.7119 103.152 49.5988 99.5394 49.5056C99.2002 49.4951 98.8624 49.5517 98.5455 49.6723C98.2286 49.7928 97.9389 49.9749 97.6934 50.2078C96.6635 51.1919 94.8608 52.7491 93.7445 52.7491C93.5045 52.7491 86.5574 54.1296 86.5574 54.1296L84.7138 52.3001C84.7138 52.3001 81.9773 57.6215 80.6714 57.3779L83.0407 60.4662C83.0407 60.4662 87.532 62.4152 93.4109 60.0601H96.8412L98.6368 65.5822C98.6368 65.5822 97.739 73.058 97.0044 74.6822C96.2699 76.3063 97.2445 79.4758 97.2445 79.4758L103.695 79.2369C103.695 79.2369 104.021 76.0675 104.511 75.6543C105 75.2411 102.797 61.2735 102.797 61.2735C102.797 61.2735 101.328 53.3916 106.717 50.5494L106.647 47.7119Z" fill="#008F89"/>
<path opacity="0.1" d="M113.671 47.2197C113.671 47.2197 117.003 49.7467 121.451 50.0381C121.938 50.0685 122.403 50.2478 122.784 50.5516C123.905 51.4985 124.856 52.6294 125.595 53.8954C127.39 56.8212 131.8 56.4964 131.8 56.4964C131.8 56.4964 136.087 55.1565 136.332 54.108C136.332 54.108 136.454 59.8402 139.15 58.4549L135.605 62.5201C135.381 62.7769 135.107 62.9854 134.8 63.1329C134.492 63.2803 134.157 63.3636 133.816 63.3775C132.484 63.4301 130.17 63.4468 128.216 63.0694C125.275 62.5009 123.153 61.1204 121.603 62.3385C121.603 62.3385 119.562 68.6751 120.95 70.9512C122.337 73.2274 124.79 77.0441 123.645 78.021C122.5 78.9979 121.113 78.9143 118.828 76.5593C116.542 74.2043 116.295 70.2228 116.295 70.2228L116.866 59.9859C116.866 59.9859 114.663 52.2665 112.545 50.7236L113.671 47.2197Z" fill="black"/>
<path opacity="0.1" d="M139.474 58.3515L135.919 62.4334C135.682 62.7042 135.39 62.9209 135.062 63.0687C134.77 63.1998 134.455 63.2736 134.135 63.2861C132.803 63.341 130.489 63.3577 128.535 62.978C125.784 62.4453 123.748 61.2033 122.226 62.0417C122.118 62.1008 122.016 62.1687 121.919 62.2447C121.919 62.2447 119.878 68.5812 121.266 70.8574C122.653 73.1336 125.107 76.9503 123.962 77.9272C123.77 78.0949 123.555 78.2341 123.323 78.3404C122.296 78.8014 121.021 78.4025 119.144 76.4655C116.859 74.1081 116.611 70.1289 116.611 70.1289L117.183 59.8921C117.183 59.8921 114.979 52.1727 112.862 50.6297L113.796 47.2979C114.439 47.7325 117.651 49.7747 121.621 50.035C122.108 50.0654 122.573 50.2448 122.954 50.5485C124.075 51.4956 125.026 52.6265 125.765 53.8923C127.56 56.8182 131.97 56.4933 131.97 56.4933C133.027 56.1578 134.059 55.7492 135.059 55.2705C135.686 54.9647 136.238 54.6304 136.5 54.3151C136.573 54.2327 136.626 54.1347 136.656 54.0285C136.656 54.0285 136.78 59.7321 139.474 58.3515Z" fill="black"/>
<path d="M139.311 58.433L135.758 62.5196C135.563 62.7439 135.328 62.9316 135.067 63.0737C134.731 63.255 134.358 63.3572 133.977 63.3723C132.644 63.4272 130.33 63.444 128.376 63.0642C125.724 62.5507 123.734 61.3756 122.233 62.0467C122.062 62.121 121.901 62.2165 121.753 62.3309C121.753 62.3309 119.713 68.6675 121.1 70.9436C122.488 73.2198 124.941 77.0366 123.796 78.0134C123.648 78.1403 123.487 78.2515 123.316 78.3454C122.26 78.9258 120.954 78.5843 118.974 76.5517C116.688 74.1943 116.441 70.2152 116.441 70.2152L117.012 59.9783C117.012 59.9783 114.809 52.2589 112.691 50.716L113.671 47.2217L113.788 47.3029C114.432 47.7376 117.644 49.7797 121.614 50.04C122.101 50.0704 122.566 50.2498 122.946 50.5535C124.068 51.5006 125.019 52.6315 125.757 53.8974C127.553 56.8232 131.963 56.4984 131.963 56.4984C133.02 56.1628 134.052 55.7542 135.052 55.2755C135.794 54.8981 136.399 54.4849 136.492 54.1075C136.492 54.1075 136.492 54.1816 136.492 54.313C136.564 55.2994 136.925 59.6535 139.311 58.433Z" fill="#008F89"/>
<path opacity="0.1" d="M112.763 43.2812H106.762C106.894 44.2306 106.932 45.1906 106.875 46.1474C107.791 46.7888 108.866 47.1699 109.983 47.2498C111.1 47.3298 112.218 47.1055 113.217 46.6012C112.641 45.5407 112.291 44.3369 112.763 43.2812Z" fill="black"/>
<path d="M110.404 47.1383C113.696 47.1383 116.365 44.4832 116.365 41.2078C116.365 37.9325 113.696 35.2773 110.404 35.2773C107.112 35.2773 104.444 37.9325 104.444 41.2078C104.444 44.4832 107.112 47.1383 110.404 47.1383Z" fill="#EC8C9C"/>
<path opacity="0.1" d="M109.165 40.1523C109.83 40.0735 110.495 39.8394 111.15 39.9708C111.745 40.0902 112.252 40.4986 112.847 40.6228C113.995 40.8617 115.061 40.0209 115.927 39.2375L117.8 37.5417C118.215 37.1667 118.642 36.7726 118.856 36.2567C119.069 35.7408 118.995 35.0625 118.539 34.7377C117.855 34.26 116.676 34.7377 116.182 34.0594C115.958 33.7537 115.992 33.3428 115.877 32.9774C115.637 32.2466 114.811 31.8477 114.038 31.8381C113.265 31.8286 112.526 32.1104 111.786 32.3158C110.229 32.7654 108.6 32.9201 106.985 32.772C106.549 32.6926 106.101 32.7081 105.672 32.8174C105.408 32.9296 105.174 33.102 104.989 33.3206C104.804 33.5392 104.673 33.798 104.606 34.0761C104.237 35.3754 104.868 37.4701 105.502 38.6332C106.135 39.7964 107.9 40.3075 109.165 40.1523Z" fill="black"/>
<path d="M109.165 39.9902C109.83 39.9114 110.495 39.6773 111.15 39.8087C111.745 39.9281 112.252 40.3365 112.847 40.4607C113.995 40.6995 115.061 39.8588 115.927 39.0754L117.8 37.3796C118.215 37.0046 118.642 36.6105 118.856 36.0946C119.069 35.5787 118.995 34.9004 118.539 34.5756C117.855 34.0979 116.676 34.5756 116.182 33.8973C115.958 33.5915 115.992 33.1807 115.877 32.8153C115.637 32.0844 114.811 31.6856 114.038 31.676C113.265 31.6665 112.526 31.9483 111.786 32.1537C110.229 32.6032 108.6 32.758 106.985 32.6099C106.549 32.5305 106.101 32.546 105.672 32.6553C105.408 32.7675 105.174 32.9399 104.989 33.1585C104.804 33.3771 104.673 33.6359 104.606 33.914C104.237 35.2133 104.868 37.308 105.502 38.4711C106.135 39.6343 107.9 40.1335 109.165 39.9902Z" fill="#88455E"/>
<path opacity="0.1" d="M98.7686 65.625C98.7686 65.625 100.074 65.7874 100.727 66.5995C101.38 67.4116 102.523 67.6552 102.523 67.6552" fill="black"/>
<path opacity="0.1" d="M87.0089 54.8984C87.0089 54.8984 88.0747 57.2654 87.417 57.5042C86.7592 57.7431 87.0089 59.4532 87.0089 59.4532" fill="black"/>
<g opacity="0.1">
<path opacity="0.1" d="M87.3757 54.0866C87.3757 54.0866 94.3155 52.7061 94.5556 52.7061C95.6742 52.7061 97.4746 51.1488 98.5044 50.1648C98.8176 49.8662 99.2029 49.6532 99.623 49.5462H99.5342C99.1951 49.5356 98.8573 49.5922 98.5404 49.7128C98.2234 49.8334 97.9338 50.0154 97.6882 50.2484C96.6584 51.2324 94.8556 52.7897 93.7394 52.7897C93.545 52.7897 89.104 53.6662 87.3013 54.0221L87.3757 54.0866Z" fill="black"/>
<path opacity="0.1" d="M106.656 48.0533V47.75C104.987 48.597 103.19 49.1689 101.337 49.4434C103.176 49.2806 104.974 48.8106 106.656 48.0533Z" fill="black"/>
<path opacity="0.1" d="M98.0746 79.4346C98.0746 79.4346 97.0952 76.2651 97.8345 74.641C98.5739 73.0169 99.4669 65.5411 99.4669 65.5411L97.6761 60.0166H94.2362L94.0273 60.0978H96.8479L98.6363 65.6247C98.6363 65.6247 97.7385 73.1005 97.004 74.7246C96.2694 76.3487 97.244 79.5182 97.244 79.5182L103.694 79.2794V79.2292L98.0746 79.4346Z" fill="black"/>
</g>
<g opacity="0.1">
<path opacity="0.1" d="M123.878 76.7147C123.73 76.8415 123.569 76.9528 123.398 77.0467C122.342 77.6271 121.036 77.2855 119.055 75.253C117.241 73.3828 116.713 70.4761 116.571 69.375L116.523 70.2157C116.523 70.2157 116.763 74.1973 119.055 76.5523C121.036 78.592 122.342 78.9264 123.398 78.346C123.569 78.2521 123.73 78.1408 123.878 78.014C124.221 77.7202 124.241 77.1685 124.061 76.4806C124.016 76.5699 123.954 76.6495 123.878 76.7147Z" fill="black"/>
<path opacity="0.1" d="M138.157 58.5555L135.845 61.2138C135.65 61.4381 135.415 61.6258 135.154 61.768C134.818 61.9492 134.445 62.0514 134.064 62.0665C132.731 62.1215 130.417 62.1382 128.463 61.7584C125.811 61.2449 123.821 60.0698 122.32 60.7409C122.149 60.8152 121.988 60.9107 121.84 61.0252C121.84 61.0252 120.522 65.1189 120.724 67.9062C120.88 65.3005 121.84 62.3245 121.84 62.3245C121.988 62.21 122.149 62.1145 122.32 62.0402C123.823 61.3691 125.811 62.5442 128.463 63.0577C130.417 63.4351 132.729 63.4184 134.064 63.3658C134.445 63.3507 134.818 63.2485 135.154 63.0673C135.415 62.9272 135.649 62.742 135.845 62.5203L139.4 58.4385C139.216 58.5525 139.008 58.6224 138.792 58.6427C138.576 58.663 138.359 58.6331 138.157 58.5555Z" fill="black"/>
</g>
<path d="M33.7603 87.8105C33.7886 87.8378 33.8251 87.8553 33.8643 87.8605C33.9034 87.8656 33.9432 87.8581 33.9777 87.839C33.9042 87.8403 33.8309 87.8307 33.7603 87.8105Z" fill="url(#paint1_linear)"/>
<path d="M58.2243 48.2457C57.7922 48.1215 57.1753 47.9184 56.4335 47.6605C57.2043 46.6738 57.7684 45.5432 58.0923 44.3358L58.0299 44.3597C58.0515 44.2856 58.0731 44.214 58.0923 44.1375C56.6688 44.7132 55.094 43.7387 54.0906 42.4871C53.0872 41.2356 52.4103 39.6831 51.3108 38.5319C50.8527 38.0739 50.3599 37.6515 49.8369 37.2684C49.5129 37.0295 49.1648 36.7597 48.7687 36.7477C48.1278 36.7286 47.6261 37.3544 47.0091 37.5383C46.6032 37.6292 46.1805 37.6136 45.7825 37.4929C44.1909 37.1299 42.6618 36.4587 41.0367 36.282C40.1672 36.1751 39.2847 36.2741 38.4609 36.571C37.6448 36.8791 37.2727 37.4929 36.6125 37.9849C35.8924 38.5128 34.4857 38.5008 33.6479 38.594C32.6313 38.7095 31.6076 38.7518 30.5849 38.7206C29.9971 38.6699 29.4053 38.6915 28.8229 38.7851C27.6058 39.0502 26.6288 40.0127 25.7167 40.9346C25.4677 41.1432 25.2885 41.4223 25.2029 41.7348C25.1912 41.8228 25.1912 41.9119 25.2029 41.9999C25.1938 42.2407 25.2355 42.4807 25.3254 42.7045C25.6062 43.5335 26.0029 44.3191 26.504 45.038C26.8761 45.5682 27.3106 46.0674 27.5218 46.6956C27.622 47.0044 27.6746 47.3265 27.6779 47.6509C27.6675 47.9955 27.6314 48.3388 27.5698 48.678C27.4088 49.6157 27.1439 50.5329 26.7801 51.4127C26.5542 51.8644 26.3988 52.3476 26.3192 52.8458C26.3123 52.9476 26.3123 53.0497 26.3192 53.1515C26.2592 54.7279 27.8579 55.8624 28.1676 57.4292C28.193 57.5592 28.2083 57.691 28.2132 57.8233C28.1796 58.8002 27.6203 59.7555 26.7945 60.1353C26.8665 60.164 26.9409 60.1878 27.0153 60.2117C26.9443 60.2561 26.8705 60.296 26.7945 60.3312C26.9457 60.3885 27.0993 60.4386 27.2554 60.4792C26.3169 61.2926 25.5281 62.2625 24.9245 63.3454C22.1471 68.4901 3.33674 78.5669 3.33674 78.5669L3.6152 78.7245L3.38955 78.8702C1.76201 79.9474 -2.0572 83.0882 1.39473 87.0602C1.39473 87.0602 4.0905 82.8279 5.97969 81.0246C6.06371 80.9434 6.14773 80.8693 6.21974 80.8001C6.26125 80.8637 6.28908 80.9351 6.30147 81.0099C6.31386 81.0847 6.31056 81.1613 6.29176 81.2348L18.6592 74.3202C18.6592 74.3202 23.0545 71.2583 24.2811 70.568C25.1445 70.0328 26.0841 69.6302 27.0681 69.3738L26.9241 69.4335C27.3865 69.3069 27.8633 69.2395 28.3428 69.2329C30.5321 69.2663 32.9038 70.8618 33.6839 77.1792C34.7306 85.6391 34.2456 87.1653 33.9096 87.3731C33.8681 87.37 33.8271 87.3628 33.7872 87.3516C33.7975 87.3606 33.8088 87.3686 33.8208 87.3755C33.7752 87.3723 33.7302 87.3642 33.6863 87.3516C33.7105 87.3736 33.74 87.3892 33.7719 87.3967C33.8039 87.4042 33.8372 87.4035 33.8688 87.3946C33.8915 87.4014 33.9154 87.4035 33.939 87.4006C33.9625 87.3977 33.9852 87.3899 34.0056 87.3778C34.0608 87.381 34.1161 87.381 34.1712 87.3778C34.1712 87.4559 34.1656 87.5355 34.1544 87.6167C34.1376 87.6167 34.056 87.6621 34.1544 87.6668C34.128 88.1445 34.1304 88.6628 34.1544 89.205C33.067 89.2647 31.9796 89.3292 31.0338 89.3865L31.1178 88.9399L31.1562 88.7392C31.9916 88.6724 32.7837 88.4287 32.8774 87.7552C33.0814 86.2744 31.0386 85.4838 29.3006 85.3859C27.5626 85.2879 17.1396 85.9782 17.1396 85.9782C17.1396 85.9782 15.5769 87.9917 20.534 88.6055C20.6812 88.6819 20.834 88.7615 20.9925 88.8443C22.9345 89.9454 25.5678 91.9732 26.8305 92.9716L27.0057 93.1101L26.4392 93.5687C29.5047 94.2589 32.4693 105.915 34.104 111.243C35.7388 116.572 39.3155 116.378 42.2801 115.588C45.0575 114.847 45.4008 106.822 45.4464 105.814V105.712L50.3866 111.783L50.7611 112.244C50.9052 112.319 51.0476 112.389 51.1884 112.454C54.9284 114.224 59.0597 110.83 57.8858 106.961C56.6976 103.06 54.854 97.2922 53.6249 94.8536C52.5951 92.8115 51.2652 89.4199 50.4587 87.2966C50.5634 87.2548 50.6652 87.2061 50.7635 87.1509C50.7635 87.1509 50.7443 87.0554 50.7131 86.881L50.7635 86.8548C50.7635 86.8548 49.5633 80.7117 49.5105 76.3456C49.5105 76.2692 49.5105 76.1896 49.5105 76.1068C49.5105 76.059 49.5105 76.0113 49.5105 75.9659C50.4035 75.7629 50.97 75.684 50.97 75.684L50.9868 75.493L50.8836 75.5145L51.3805 69.8563C51.3805 69.8563 53.2048 65.9941 51.8078 64.3867C51.383 63.9166 51.0994 63.3374 50.9892 62.7148C50.7491 61.2364 50.9892 58.7691 54.2419 56.7198C59.2493 53.5599 61.2033 50.9876 61.2033 50.9876C61.2033 50.9876 61.2897 49.1437 58.2243 48.2457ZM48.279 52.1722V49.5569C49.208 49.5115 50.1562 49.619 51.09 49.5569C51.5484 49.525 52.0026 49.4491 52.4463 49.33L52.6719 49.4853C51.3057 50.5308 49.8334 51.4314 48.279 52.1722ZM34.08 93.1674C34.4473 93.4206 34.817 93.6833 35.1794 93.9484C35.4051 95.2382 35.6043 96.1482 35.6187 96.2127C35.2045 95.1511 34.6892 94.1314 34.08 93.1674Z" fill="url(#paint2_linear)"/>
<path d="M42.0161 91.0186L41.8 92.1865L41.6344 93.0798L41.3319 94.7135L38.3985 96.7556C38.3985 96.7556 38.1345 96.5311 37.6976 96.1752C36.4973 95.1912 33.9696 93.1944 32.114 92.1148C31.6372 91.8119 31.1211 91.5749 30.5801 91.4103L42.0161 91.0186Z" fill="#FFBDC6"/>
<path opacity="0.1" d="M42.0161 91.0186L41.8 92.1865C41.1534 92.2223 40.5048 92.1895 39.8652 92.0886L33.0214 92.1865C32.6973 92.1674 32.3948 92.1411 32.1116 92.1125C31.6347 91.8095 31.1187 91.5725 30.5776 91.4079L42.0161 91.0186Z" fill="black"/>
<path d="M39.8651 91.8975C39.8651 91.8975 43.2882 92.4803 43.4826 91.0209C43.6771 89.5616 41.7231 88.7925 40.0643 88.6826C38.4056 88.5728 28.4267 89.2702 28.4267 89.2702C28.4267 89.2702 26.6671 91.6037 33.0212 91.993L39.8651 91.8975Z" fill="#7679B4"/>
<path opacity="0.1" d="M42.0161 91.0186L41.8 92.1865L41.6344 93.0798L41.3319 94.7135L38.3985 96.7556C38.3985 96.7556 38.1345 96.5311 37.6976 96.1752C36.4973 95.1912 33.9696 93.1944 32.114 92.1148C31.6372 91.8119 31.1211 91.5749 30.5801 91.4103L42.0161 91.0186Z" fill="black"/>
<path opacity="0.1" d="M42.0161 91.0186L41.8 92.1865C41.1534 92.2223 40.5048 92.1895 39.8652 92.0886L33.0214 92.1865C32.6973 92.1674 32.3948 92.1411 32.1116 92.1125C31.6347 91.8095 31.1187 91.5725 30.5776 91.4079L42.0161 91.0186Z" fill="black"/>
<path opacity="0.1" d="M39.8651 91.8975C39.8651 91.8975 43.2882 92.4803 43.4826 91.0209C43.6771 89.5616 41.7231 88.7925 40.0643 88.6826C38.4056 88.5728 28.4267 89.2702 28.4267 89.2702C28.4267 89.2702 26.6671 91.6037 33.0212 91.993L39.8651 91.8975Z" fill="black"/>
<path d="M47.3431 43.9355H29.4521V65.0446H47.3431V43.9355Z" fill="#A66477"/>
<path opacity="0.1" d="M47.3431 43.9355H29.4521V65.0446H47.3431V43.9355Z" fill="black"/>
<path d="M8.48077 80.0754C8.18551 80.1494 7.81103 80.4313 7.39094 80.8421C5.58336 82.6191 3.00522 86.7869 3.00522 86.7869C-0.297877 82.8746 3.35809 79.7816 4.92562 78.7187C5.3049 78.4608 5.55935 78.3223 5.55935 78.3223L8.48077 80.0754Z" fill="#FFBDC6"/>
<path d="M41.8213 50.5996C41.8213 50.5996 42.7023 56.7283 45.7317 58.1877C48.7612 59.647 41.8213 62.3698 41.8213 62.3698L32.3369 58.8684C32.3369 58.8684 37.7141 57.1177 36.6386 51.961L41.8213 50.5996Z" fill="#FFBDC6"/>
<path d="M31.6631 87.4668L31.447 88.6347L31.2814 89.528L30.9789 91.1617L28.0455 93.2038C28.0455 93.2038 27.7814 92.9793 27.3445 92.6234C26.1443 91.6394 23.6166 89.6427 21.761 88.5631C21.2841 88.2601 20.7681 88.0231 20.2271 87.8585L31.6631 87.4668Z" fill="#FFBDC6"/>
<path opacity="0.1" d="M31.6625 87.4668L31.4465 88.6348C30.7999 88.6705 30.1513 88.6377 29.5117 88.5368L22.6678 88.6348C22.3438 88.6156 22.0413 88.5894 21.758 88.5607C21.2812 88.2578 20.7652 88.0207 20.2241 87.8561L31.6625 87.4668Z" fill="black"/>
<path d="M29.5022 88.3433C29.5022 88.3433 32.9254 88.9261 33.1198 87.4668C33.3142 86.0074 31.3602 85.2288 29.6967 85.1332C28.0331 85.0377 18.0614 85.716 18.0614 85.716C18.0614 85.716 16.3019 88.0495 22.656 88.4388L29.5022 88.3433Z" fill="#7679B4"/>
<path opacity="0.1" d="M31.2713 89.5312L30.9688 91.1649L28.0354 93.207C28.0354 93.207 27.7714 92.9825 27.3345 92.6266L31.2137 89.4619L31.2713 89.5312Z" fill="black"/>
<path d="M50.6265 111.801C50.492 111.735 50.356 111.666 50.2184 111.593L49.8607 111.139L45.1365 105.168V105.273C45.1053 106.264 44.7644 114.17 42.1095 114.898C39.2745 115.677 35.8514 115.871 34.2886 110.618C32.7259 105.366 29.8885 93.8874 26.9551 93.2067L31.3048 89.6551C31.3048 89.6551 34.1854 92.9989 35.3617 96.2185C35.3184 96.0131 33.3284 86.7675 34.9704 85.1338H49.2438C49.2438 85.1338 51.4426 91.3772 52.9598 94.4726C54.136 96.8754 55.9004 102.555 57.0406 106.398C58.1689 110.2 54.2272 113.544 50.6265 111.801Z" fill="#04318C"/>
<path opacity="0.1" d="M50.2283 86.8827C48.0271 88.1796 38.3482 87.6518 35.194 87.4416L34.337 87.3795C34.2434 87.3795 34.3514 87.3269 34.3514 87.3269L34.4402 86.4432L36.7855 80.5103L49.3498 73.2686C49.0953 74.0305 49.0089 75.1984 49.0305 76.5383C49.0929 80.8328 50.2283 86.8827 50.2283 86.8827Z" fill="black"/>
<path d="M50.2278 86.5918C48.0265 87.8887 38.3477 87.3608 35.1934 87.1506L34.3365 87.0885H34.1948L34.3509 87.0479L35.1238 86.8449L36.785 80.2289L49.3492 72.9824C49.0948 73.7443 49.0084 74.9123 49.03 76.2522C49.0924 80.5394 50.2278 86.5918 50.2278 86.5918Z" fill="#F2F1F2"/>
<path opacity="0.1" d="M49.0305 76.2436C46.4763 76.8288 40.8543 78.5509 38.6939 82.6924C37.2536 85.4582 36.0533 86.6453 35.1963 87.1421L34.3394 87.08L34.3538 87.0274L35.1267 86.8244L36.7879 80.2084L49.3521 72.9619C49.0929 73.7453 49.0088 74.9037 49.0305 76.2436Z" fill="black"/>
<path opacity="0.1" d="M5.54731 78.3242L8.48072 80.0749C8.18546 80.149 7.81098 80.4308 7.39089 80.8416C7.15084 80.1251 5.60972 79.1411 4.91357 78.7207C5.29285 78.4627 5.54731 78.3242 5.54731 78.3242Z" fill="black"/>
<path opacity="0.1" d="M33.8222 87.2009C33.7897 87.2189 33.7521 87.2261 33.7151 87.2214C33.6782 87.2167 33.6437 87.2004 33.6167 87.1748C33.6835 87.1935 33.7528 87.2023 33.8222 87.2009Z" fill="black"/>
<path d="M40.4507 57.7972C40.4507 57.7972 37.8102 58.0886 35.9522 56.1444C35.9522 56.1444 28.1313 58.3823 25.4908 63.441C22.8502 68.4998 4.86084 78.4213 4.86084 78.4213C4.86084 78.4213 7.9815 80.172 7.69584 81.0486L19.5255 74.2392C19.5255 74.2392 23.7288 71.2226 24.9027 70.5419C26.0765 69.8612 32.5291 65.679 33.8974 77.0599C35.2656 88.4408 33.8974 87.0914 33.8974 87.0914C33.8974 87.0914 35.8538 87.7721 38.6984 82.3145C41.543 76.8569 50.3336 75.603 50.3336 75.603L50.8137 69.8707C50.8137 69.8707 52.5589 66.0683 51.2218 64.4824C50.8141 64.0157 50.5433 63.4464 50.4392 62.8368C50.216 61.3798 50.4392 58.9508 53.5599 56.9326C58.3609 53.8276 60.2093 51.2911 60.2093 51.2911C60.2093 51.2911 60.3077 49.4424 57.3743 48.5682C54.4409 47.6941 42.5128 42.9268 42.5128 42.9268L42.1215 44.5796L51.5075 51.1955C51.5075 51.1955 46.8145 54.9884 43.1057 54.8928C43.0913 54.8761 43.7754 57.6992 40.4507 57.7972Z" fill="#FCB83B"/>
<path opacity="0.1" d="M42.2633 53.2673C42.0321 52.4835 41.8517 51.6857 41.7232 50.8789L36.5405 52.2499C36.7674 53.2339 36.7268 54.2603 36.4229 55.2235C37.482 55.5046 38.601 55.4688 39.6399 55.1204C40.6787 54.7721 41.5912 54.1267 42.2633 53.265V53.2673Z" fill="black"/>
<path d="M37.9592 55.1232C41.0377 55.1232 43.5332 52.6402 43.5332 49.5772C43.5332 46.5143 41.0377 44.0312 37.9592 44.0312C34.8808 44.0312 32.3853 46.5143 32.3853 49.5772C32.3853 52.6402 34.8808 55.1232 37.9592 55.1232Z" fill="#FFBDC6"/>
<path opacity="0.1" d="M40.9216 36.963C42.4675 37.1373 43.939 37.7989 45.4609 38.1572C45.8412 38.2758 46.2464 38.2915 46.6348 38.2026C47.2253 38.021 47.7054 37.4048 48.3151 37.4239C48.692 37.4239 49.0353 37.6914 49.3378 37.9374C49.8388 38.3157 50.3099 38.7317 50.7469 39.1818C51.7959 40.3163 52.4488 41.8449 53.4066 43.0774C54.3644 44.3098 55.8743 45.27 57.2354 44.7039C56.3112 48.2866 53.277 51.0261 49.9979 51.2482C48.6896 51.3366 47.3573 51.0667 46.0827 51.4488C45.7668 51.577 45.4334 51.6575 45.0937 51.6877C44.3735 51.6877 43.7782 51.0213 43.3221 50.3741C42.2563 48.8502 41.4017 47.121 40.2014 45.7333C39.8053 45.2747 39.3373 44.8376 38.7779 44.754C38.2186 44.6705 37.7025 44.9356 37.2032 45.1935C36.3798 45.6187 35.5372 46.0581 34.8987 46.7842C34.2602 47.5103 33.8569 48.597 34.1209 49.5811C34.2626 50.1113 34.589 50.589 34.601 51.1455C34.601 52.0292 33.8281 52.6765 33.6721 53.534C33.6377 53.8959 33.6249 54.2596 33.6336 54.6231C33.564 55.803 32.7911 56.7727 31.9797 57.5107C31.6652 57.7997 31.3148 58.1078 31.2235 58.5545C31.1611 58.8578 31.2235 59.1802 31.1827 59.4883C31.0651 60.255 30.2969 60.642 29.6176 60.7423C28.8242 60.858 28.0141 60.7624 27.2699 60.4652C28.2301 60.0186 28.8038 58.7455 28.583 57.5991C28.2805 56.0203 26.6866 54.8882 26.821 53.2784C26.8962 52.7854 27.0451 52.3064 27.2627 51.8573C27.6106 50.9888 27.8633 50.0855 28.0165 49.1631C28.1735 48.4532 28.1579 47.7162 27.9709 47.0135C27.7668 46.3949 27.3515 45.9029 26.9962 45.3798C26.5151 44.6687 26.1354 43.8946 25.868 43.0797C25.7711 42.8389 25.7341 42.5784 25.76 42.3202C25.8374 42.0157 26.0046 41.7412 26.2401 41.532C27.1139 40.622 28.0501 39.6738 29.2119 39.4111C29.767 39.3191 30.3317 39.2974 30.8923 39.3466C31.871 39.3776 32.8507 39.3361 33.8233 39.2224C34.6251 39.1293 35.9837 39.1412 36.6607 38.6205C37.292 38.1428 37.6497 37.5338 38.4299 37.2281C39.2261 36.938 40.0817 36.847 40.9216 36.963Z" fill="black"/>
<path opacity="0.1" d="M44.0205 94.2295C44.0205 94.2295 47.2468 100.552 46.2698 102.498L44.0205 94.2295Z" fill="black"/>
<path opacity="0.1" d="M49.8703 111.138L45.1461 105.167V105.272C45.1461 105.272 44.8724 103.342 45.7726 103.992C47.7434 105.411 50.8977 107.737 50.9649 108.138C51.0321 108.54 50.3263 110.149 49.8703 111.138Z" fill="black"/>
<g opacity="0.1">
<path opacity="0.1" d="M43.185 54.8767C43.185 54.8767 43.5835 56.5199 42.2944 57.3415C44.2797 57.0024 44.3661 55.4666 44.3061 54.7979C43.9355 54.8575 43.5603 54.8839 43.185 54.8767Z" fill="black"/>
<path opacity="0.1" d="M6.03681 78.0323C6.03681 78.0323 24.0262 68.1107 26.6668 63.052C28.5608 59.4216 33.1241 57.2457 35.5486 56.3047C33.7795 56.8946 27.8262 59.1565 25.5889 63.4413C22.9484 68.5001 4.95898 78.4216 4.95898 78.4216L6.03681 78.0323Z" fill="black"/>
<path opacity="0.1" d="M46.6845 54.1048C49.7452 53.1494 52.6714 50.792 52.6714 50.792L43.2854 44.176L43.499 43.2684L42.6012 42.9102L42.21 44.563L51.5959 51.1789C50.0898 52.357 48.4394 53.3401 46.6845 54.1048Z" fill="black"/>
<path opacity="0.1" d="M46.7451 76.5222C47.9444 76.1148 49.1752 75.8057 50.4251 75.5979L50.4419 75.4092C49.1825 75.6844 47.9466 76.0565 46.7451 76.5222Z" fill="black"/>
<path opacity="0.1" d="M35.3687 86.7137H35.2823C35.2496 86.7319 35.2119 86.7391 35.1747 86.7344C35.1376 86.7296 35.1029 86.7132 35.0759 86.6874C35.143 86.7061 35.2126 86.7149 35.2823 86.7137C35.604 86.5274 36.0865 85.0752 35.0759 76.6679C33.9956 67.6922 29.7563 68.3968 27.4351 69.4286C29.8068 68.7789 33.0714 69.3402 34.0004 77.0572C35.011 85.4646 34.5286 86.9191 34.2069 87.103C34.6238 87.0876 35.0274 86.9524 35.3687 86.7137Z" fill="black"/>
<path opacity="0.1" d="M34.206 87.1062C34.1366 87.1074 34.0674 87.0986 34.0005 87.0801C34.0274 87.1057 34.0619 87.122 34.0989 87.1267C34.1359 87.1314 34.1735 87.1242 34.206 87.1062Z" fill="black"/>
</g>
<path d="M40.9216 36.7745C42.4675 36.9488 43.939 37.6104 45.4609 37.9687C45.8412 38.0874 46.2464 38.103 46.6348 38.0141C47.2253 37.8326 47.7054 37.2163 48.3151 37.2355C48.692 37.2355 49.0353 37.503 49.3378 37.749C49.8388 38.1272 50.3099 38.5432 50.7469 38.9933C51.7959 40.1278 52.4488 41.6564 53.4066 42.8889C54.3644 44.1213 55.8743 45.0815 57.2354 44.5154C56.3112 48.0981 53.277 50.8376 49.9979 51.0597C48.6896 51.1481 47.3573 50.8782 46.0827 51.2604C45.7668 51.3885 45.4334 51.469 45.0937 51.4992C44.3735 51.4992 43.7782 50.8328 43.3221 50.1856C42.2563 48.6617 41.4017 46.9325 40.2014 45.5448C39.8053 45.0862 39.3373 44.6492 38.7779 44.5656C38.2186 44.482 37.7025 44.7471 37.2032 45.005C36.3798 45.4302 35.5372 45.8697 34.8987 46.5957C34.2602 47.3218 33.8569 48.4086 34.1209 49.3926C34.2626 49.9228 34.589 50.4005 34.601 50.957C34.601 51.8407 33.8281 52.488 33.6721 53.3455C33.6377 53.7074 33.6249 54.0711 33.6336 54.4346C33.564 55.6145 32.7911 56.5842 31.9797 57.3222C31.6652 57.6112 31.3148 57.9193 31.2235 58.366C31.1611 58.6693 31.2235 58.9917 31.1827 59.2998C31.0651 60.0665 30.2969 60.4535 29.6176 60.5538C28.8242 60.6695 28.0141 60.5739 27.2699 60.2767C28.2301 59.8301 28.8038 58.557 28.583 57.4106C28.2805 55.8318 26.6866 54.6997 26.821 53.0899C26.8962 52.5969 27.0451 52.1179 27.2627 51.6688C27.6106 50.8003 27.8633 49.897 28.0165 48.9746C28.1735 48.2647 28.1579 47.5277 27.9709 46.825C27.7668 46.2064 27.3515 45.7144 26.9962 45.1913C26.5151 44.4802 26.1354 43.7062 25.868 42.8913C25.7711 42.6504 25.7341 42.3899 25.76 42.1318C25.8374 41.8272 26.0046 41.5527 26.2401 41.3436C27.1139 40.4336 28.0501 39.4854 29.2119 39.2226C29.767 39.1306 30.3317 39.109 30.8923 39.1581C31.871 39.1891 32.8507 39.1476 33.8233 39.0339C34.6251 38.9408 35.9837 38.9527 36.6607 38.4321C37.292 37.9544 37.6497 37.3453 38.4299 37.0396C39.2261 36.7496 40.0817 36.6585 40.9216 36.7745Z" fill="#A66477"/>
<path d="M200.083 24.3271C200.083 24.2961 200.083 24.2674 200.083 24.2387C200.083 24.2101 200.083 24.1766 200.068 24.148H200.03C200.03 24.0835 200.03 24.019 200.03 23.9497C199.934 21.7357 196.856 17.0233 195.622 18.399C194.542 19.6076 196.172 22.6648 197.003 24.0405L197.077 24.1647L197.036 24.1384C197.036 24.1384 193.601 34.3323 193.196 34.7288C192.79 35.1252 189.962 43.1408 186.234 44.0437C185.497 44.218 184.885 44.3757 184.371 44.5214L184.412 44.3852C184.652 43.6042 184.947 42.8662 185.067 41.9968C185.187 41.1274 185.067 40.0741 184.626 39.6513C184.41 39.4412 184.146 39.4125 183.968 39.0781C183.853 38.7848 183.791 38.4734 183.786 38.1586L183.469 34.2941L183.69 34.2272C185.024 33.802 186.318 32.7941 186.469 31.4375C186.423 31.455 186.376 31.4702 186.328 31.4829C186.345 31.404 186.359 31.3243 186.369 31.244C185.247 31.6835 184.208 30.5275 183.128 30.0092C181.349 29.1422 179.316 29.9591 177.479 30.1573C175.398 30.3842 173.423 29.5244 171.296 29.6796C170.139 29.768 168.852 30.549 168.914 31.6835C168.95 32.3069 169.395 32.8347 169.577 33.4318C170.038 34.8768 169.013 36.3266 168.115 37.5591C167.525 38.3687 166.958 39.3552 166.857 40.3058C164.79 38.1562 162.556 35.6722 162.296 34.7383L156.317 24.5445C156.317 24.5445 156.175 24.6949 155.947 24.9171C155.911 24.8072 155.868 24.6782 155.82 24.5492C155.056 22.4211 152.896 17.2645 150.157 18.2103C147.418 19.1561 151.292 24.4418 152.977 26.5484L153.218 26.8397C153.076 26.8743 152.928 26.8677 152.79 26.8206L159.459 38.2015C159.459 38.2015 160.671 40.3798 161.783 40.9721C161.783 40.9721 170.067 51.3642 170.168 53.4422C170.268 55.5201 173.893 61.0637 173.893 61.0637C173.893 61.0637 175.105 70.0705 172.983 71.654H173.01H173.027H173.053H173.077H173.125H173.156H173.187H173.228H173.262H173.31H173.334C173.233 71.752 173.13 71.8594 173.024 71.9765C171.452 73.7105 169.443 77.4269 172.189 83.7467C176.229 93.0616 176.836 96.7112 176.836 96.7112C176.836 96.7112 169.155 97.1076 167.642 97.4038C166.303 97.6665 161.096 97.8504 159.905 97.8815C159.48 97.3895 158.225 96.3003 156.53 97.8815C154.408 99.8615 152.893 106.48 152.893 106.48C152.893 106.48 152.085 111.825 154.814 110.438C154.814 110.438 158.047 105.983 158.955 105.785C159.406 105.687 159.884 105.025 160.249 104.388L160.268 104.4C160.289 104.4 160.378 104.352 160.522 104.294C161.194 104.029 163.045 103.392 164.505 103.709C165.304 103.884 168.732 103.924 172.326 103.915C171.514 105.849 170.059 110.841 170.059 110.841C170.059 110.841 169.452 115.496 171.469 115.305C172.909 115.164 175.117 111.503 176.27 109.413C177.105 108.804 179.498 106.621 181.267 106.786L193.188 102.233C193.188 102.233 196.016 100.65 194.501 95.4047C193.301 91.2345 189.885 82.6982 188.536 79.3711L188.495 79.2851C188.169 78.4802 187.972 78.0025 187.972 78.0025C187.418 76.4836 187.054 74.9024 186.889 73.2949C186.877 73.1683 186.868 73.0393 186.858 72.9127C187.025 72.843 187.183 72.7523 187.326 72.6428C187.326 72.6428 186.215 61.4602 187.326 60.2707L187.346 60.2492V60.2349L187.365 60.211L187.408 60.1561L187.461 60.0892C187.521 60.0104 187.593 59.9125 187.674 59.793C188.311 58.8663 189.496 56.7502 189.156 54.2519C189.141 54.1436 189.124 54.0345 189.103 53.9246C188.972 53.2471 188.739 52.5932 188.411 51.9852C188.363 51.7321 188.334 51.4759 188.323 51.2185C188.323 51.0728 188.323 50.9128 188.323 50.7409V50.7122C188.323 50.666 188.323 50.6198 188.323 50.5737V50.5402C188.323 50.428 188.342 50.3014 188.359 50.1963V50.1533C188.359 50.1103 188.366 50.0665 188.38 50.0219V49.967C188.38 49.924 188.399 49.881 188.409 49.838V49.7926C188.423 49.7353 188.438 49.678 188.457 49.6207V49.592C188.471 49.5442 188.487 49.4973 188.505 49.4511L188.527 49.3962L188.575 49.2815L188.599 49.2242C188.618 49.1812 188.639 49.1382 188.661 49.0952L188.678 49.0594C188.707 49.0069 188.737 48.9551 188.769 48.9041L188.795 48.8635L188.875 48.7513L188.913 48.7011L188.997 48.6008L189.035 48.5578C189.079 48.5124 189.122 48.4671 189.17 48.4241C190.483 47.2299 196.343 38.4285 196.343 38.4285C196.343 38.4285 197.757 36.4484 197.757 35.1635C197.836 35.1348 200.335 26.8469 200.083 24.3271ZM184.352 98.309C184.208 96.9524 184.064 95.2709 183.932 93.5321L186.217 97.0766C186.217 97.0766 186.001 98.1562 184.352 98.309Z" fill="url(#paint3_linear)"/>
<path d="M160.524 97.5574C160.524 97.5574 159.156 95.4078 157.101 97.3639C155.046 99.3201 153.582 105.826 153.582 105.826C153.582 105.826 152.799 111.081 155.44 109.717C155.44 109.717 158.561 105.339 159.449 105.145C160.337 104.952 161.307 102.518 161.307 102.518L160.524 97.5574Z" fill="#493545"/>
<path d="M175.189 102.81C175.189 102.81 173.331 101.934 172.745 102.617C172.159 103.3 170.203 110.107 170.203 110.107C170.203 110.107 169.617 114.583 171.571 114.387C173.525 114.191 176.948 107.184 176.948 107.184L175.189 102.81Z" fill="#493545"/>
<path opacity="0.05" d="M175.189 102.81C175.189 102.81 173.331 101.934 172.745 102.617C172.159 103.3 170.203 110.107 170.203 110.107C170.203 110.107 169.617 114.583 171.571 114.387C173.525 114.191 176.948 107.184 176.948 107.184L175.189 102.81Z" fill="black"/>
<path d="M181.641 89.5809L185.845 96.099C185.845 96.099 185.552 97.5583 183.01 97.2669L174.308 102.715C174.308 102.715 173.552 109.348 175.969 108.746C176.36 108.648 179.09 105.827 181.053 106.023L192.592 101.547C192.592 101.547 195.329 99.9897 193.862 94.8355C192.396 89.6812 187.547 77.7295 187.547 77.7295L179.882 81.9952L181.641 89.5809Z" fill="#3E3D77"/>
<path opacity="0.05" d="M181.641 89.5809L185.845 96.099C185.845 96.099 185.552 97.5583 183.01 97.2669L174.308 102.715C174.308 102.715 173.552 109.348 175.969 108.746C176.36 108.648 179.09 105.827 181.053 106.023L192.592 101.547C192.592 101.547 195.329 99.9897 193.862 94.8355C192.396 89.6812 187.547 77.7295 187.547 77.7295L179.882 81.9952L181.641 89.5809Z" fill="#04318C"/>
<path d="M184.282 99.2107C184.868 102.908 181.546 103.199 181.546 103.199C181.546 103.199 166.586 103.491 164.826 103.101C163.066 102.712 160.719 103.782 160.719 103.782C157.687 101.934 160.133 97.3621 160.133 97.3621C160.133 97.3621 166.391 97.1686 167.858 96.8844C169.325 96.6002 176.754 96.1965 176.754 96.1965C176.754 96.1965 176.168 92.5972 172.256 83.4542C169.598 77.2443 171.535 73.59 173.065 71.887C173.455 71.4351 173.906 71.0396 174.406 70.7119L186.433 71.2947C186.42 71.8982 186.442 72.5019 186.5 73.1027C186.706 75.1656 187.245 77.1819 188.097 79.0738C187.412 79.0738 183.012 83.1605 183.012 83.1605C183.012 83.1605 183.694 95.5158 184.282 99.2107Z" fill="#04318C"/>
<path opacity="0.1" d="M161.012 97.7521C161.012 97.7521 167.27 97.5586 168.736 97.2744C170.203 96.9902 177.633 96.5937 177.633 96.5937C177.633 96.5937 177.047 92.9943 173.134 83.8514C170.477 77.6414 172.414 73.9871 173.943 72.2842C174.333 71.8323 174.785 71.4368 175.285 71.109L186.428 71.6488C186.428 71.5342 186.428 71.41 186.428 71.3025L174.402 70.7197C173.902 71.0474 173.45 71.443 173.06 71.8948C171.538 73.6002 169.593 77.2521 172.251 83.4621C176.173 92.5978 176.754 96.1972 176.754 96.1972C176.754 96.1972 169.313 96.5865 167.858 96.8779C166.403 97.1693 160.133 97.3556 160.133 97.3556C160.133 97.3556 157.689 101.929 160.719 103.785C160.719 103.785 160.81 103.742 160.959 103.68C158.945 101.619 161.012 97.7521 161.012 97.7521Z" fill="black"/>
<path d="M178.902 35.0078H172.841V50.2795H178.902V35.0078Z" fill="#493545"/>
<path opacity="0.1" d="M178.902 35.0078H172.841V50.2795H178.902V35.0078Z" fill="black"/>
<path d="M182.369 32.7675C182.578 32.8248 182.813 32.8319 182.954 33.1186C183.042 33.3476 183.09 33.5899 183.096 33.8351L183.478 38.5546C183.483 38.8636 183.543 39.1693 183.655 39.4575C183.816 39.7775 184.083 39.8157 184.291 40.0211C184.712 40.4367 184.834 41.4781 184.719 42.326C184.604 43.1739 184.313 43.9 184.085 44.6667C183.759 45.7653 183.543 47.0002 183.084 47.9269C182.626 48.8536 181.793 49.3599 181.255 48.5813C180.717 47.8027 180.789 46.2311 180.688 44.9437C180.52 42.7941 179.678 40.9407 179.62 38.7768C179.572 37.026 180.045 35.3923 180.34 33.7324C180.551 32.5931 180.563 31.2102 180.871 30.1855C181.128 31.4037 181.617 32.562 182.369 32.7675Z" fill="#493545"/>
<path opacity="0.1" d="M182.369 32.7675C182.578 32.8248 182.813 32.8319 182.954 33.1186C183.042 33.3476 183.09 33.5899 183.096 33.8351L183.478 38.5546C183.483 38.8636 183.543 39.1693 183.655 39.4575C183.816 39.7775 184.083 39.8157 184.291 40.0211C184.712 40.4367 184.834 41.4781 184.719 42.326C184.604 43.1739 184.313 43.9 184.085 44.6667C183.759 45.7653 183.543 47.0002 183.084 47.9269C182.626 48.8536 181.793 49.3599 181.255 48.5813C180.717 47.8027 180.789 46.2311 180.688 44.9437C180.52 42.7941 179.678 40.9407 179.62 38.7768C179.572 37.026 180.045 35.3923 180.34 33.7324C180.551 32.5931 180.563 31.2102 180.871 30.1855C181.128 31.4037 181.617 32.562 182.369 32.7675Z" fill="black"/>
<path d="M156.71 26.0577L154.365 28.0043C154.365 28.0043 154.086 27.6794 153.671 27.154C152.041 25.0832 148.294 19.8884 150.942 18.9593C153.59 18.0302 155.683 23.096 156.422 25.1883C156.609 25.7185 156.71 26.0577 156.71 26.0577Z" fill="#C77485"/>
<path d="M199.046 25.377C198.069 26.8363 196.7 25.377 196.7 25.377C196.7 25.377 196.525 25.1166 196.278 24.6963C195.474 23.342 193.896 20.3398 194.941 19.1503C196.141 17.7913 199.115 22.4296 199.206 24.6055C199.235 24.873 199.178 25.1427 199.046 25.377Z" fill="#C77485"/>
<path d="M174.992 41.1363C174.992 41.1363 176.949 47.363 176.36 49.2092C175.772 51.0555 180.566 53.2051 180.566 53.2051H186.042C186.042 53.2051 187.998 49.2164 187.508 48.0484C187.019 46.8805 182.815 46.0063 182.815 46.0063C182.815 46.0063 180.372 46.0063 180.47 39.4883L174.992 41.1363Z" fill="#C77485"/>
<path opacity="0.1" d="M156.71 26.0579L154.365 28.0044C154.365 28.0044 154.086 27.6796 153.671 27.1542C154.523 27.0037 155.846 25.7665 156.424 25.1885C156.609 25.7187 156.71 26.0579 156.71 26.0579Z" fill="black"/>
<path opacity="0.1" d="M199.045 25.3773C198.068 26.8366 196.7 25.3773 196.7 25.3773C196.7 25.3773 196.525 25.1169 196.277 24.6966L196.309 24.5986C196.942 25.05 198.913 24.6655 199.206 24.5986C199.236 24.8685 199.18 25.1409 199.045 25.3773Z" fill="black"/>
<path opacity="0.1" d="M186.495 73.1003C183.47 74.4736 173.643 72.0279 173.052 71.8822C173.442 71.4303 173.894 71.0347 174.394 70.707L186.421 71.2898C186.41 71.8942 186.435 72.4987 186.495 73.1003Z" fill="black"/>
<path d="M176.264 46.4864C176.264 46.4864 173.919 47.265 170.594 44.2484C170.594 44.2484 163.153 36.9517 162.673 35.201L156.911 25.1696C156.911 25.1696 154.468 27.7969 153.488 27.4075L159.941 38.595C159.941 38.595 161.115 40.7446 162.19 41.3178C162.19 41.3178 170.208 51.5332 170.304 53.5753C170.4 55.6174 173.917 61.0869 173.917 61.0869C173.917 61.0869 175.09 69.9385 173.036 71.4957C173.036 71.4957 184.474 74.4144 186.918 72.4678C186.918 72.4678 185.842 61.481 186.918 60.3083C186.918 60.3083 190.242 56.4175 187.993 52.1374C187.993 52.1374 187.513 49.8039 188.776 48.636C190.038 47.468 195.718 38.81 195.718 38.81C195.718 38.81 197.086 36.8634 197.086 35.5999C197.086 35.5999 199.628 27.0397 199.247 24.8018C199.247 24.8018 196.997 25.2794 196.313 24.8018C196.313 24.8018 192.989 34.8332 192.597 35.2106C192.206 35.5879 189.477 43.4794 185.852 44.3559C182.227 45.2325 181.649 45.6194 181.649 45.6194C181.649 45.6194 188.687 49.9974 185.266 51.9416C181.845 53.8858 176.264 46.4864 176.264 46.4864Z" fill="#F86D70"/>
<path opacity="0.1" d="M180.708 42.6335C180.591 41.7172 180.544 40.7935 180.566 39.8701L175.09 41.5229C175.234 41.8858 175.349 42.2596 175.434 42.6407C176.06 42.9154 176.905 43.565 177.632 43.565C178.733 43.6008 179.814 43.2733 180.708 42.6335Z" fill="black"/>
<path d="M177.534 43.2756C180.342 43.2756 182.618 41.0108 182.618 38.2169C182.618 35.4231 180.342 33.1582 177.534 33.1582C174.726 33.1582 172.45 35.4231 172.45 38.2169C172.45 41.0108 174.726 43.2756 177.534 43.2756Z" fill="#C77485"/>
<path opacity="0.1" d="M171.485 30.4238C170.366 30.5098 169.118 31.2789 169.181 32.3943C169.214 33.0081 169.637 33.5264 169.821 34.114C170.266 35.5351 169.277 36.961 168.408 38.1743C167.539 39.3877 166.727 40.9951 167.471 42.2801C167.683 42.5894 167.913 42.8868 168.158 43.1709C169.077 44.4058 169.065 46.0729 169.473 47.5561C169.995 49.4537 171.226 51.0805 172.916 52.1022C174.605 53.1239 176.624 53.4629 178.557 53.0495C177.829 52.1254 177.466 50.9684 177.537 49.7965C177.592 48.9462 177.868 48.0577 177.537 47.2719C177.109 46.2616 175.856 45.8627 175.211 44.979C174.565 44.0953 174.608 42.87 174.92 41.8167C175.232 40.7634 175.772 39.7865 176.032 38.7117C176.096 38.3982 176.176 38.088 176.272 37.7826C176.723 36.5072 178.072 35.7668 179.392 35.4491C180.713 35.1315 182.1 35.1124 183.389 34.6944C184.678 34.2764 185.931 33.2971 186.08 31.9525C184.995 32.3848 183.989 31.2574 182.943 30.7391C181.219 29.8888 179.253 30.689 177.477 30.8848C175.453 31.1093 173.533 30.2758 171.485 30.4238Z" fill="black"/>
<path d="M171.386 30.2295C170.268 30.3155 169.019 31.0846 169.082 32.2C169.116 32.8138 169.538 33.3321 169.723 33.9197C170.167 35.3408 169.178 36.7667 168.309 37.98C167.44 39.1933 166.629 40.8007 167.373 42.0857C167.585 42.3951 167.814 42.6925 168.059 42.9766C168.979 44.2114 168.967 45.8786 169.375 47.3618C169.896 49.2593 171.128 50.8861 172.817 51.9079C174.507 52.9296 176.525 53.2686 178.458 52.8552C177.731 51.931 177.368 50.774 177.438 49.6021C177.493 48.7519 177.769 47.8634 177.438 47.0776C177.011 46.0672 175.758 45.6684 175.112 44.7847C174.466 43.9009 174.509 42.6757 174.821 41.6224C175.134 40.5691 175.674 39.5922 175.933 38.5174C175.997 38.2038 176.077 37.8937 176.173 37.5883C176.624 36.3129 177.973 35.5725 179.294 35.2548C180.614 34.9371 182.001 34.918 183.29 34.5C184.58 34.0821 185.833 33.1028 185.981 31.7581C184.896 32.1904 183.891 31.0631 182.844 30.5448C181.12 29.6945 179.154 30.4946 177.378 30.6905C175.359 30.9126 173.446 30.0695 171.386 30.2295Z" fill="#493545"/>
<path opacity="0.1" d="M182.571 49.4551C182.571 49.4551 184.606 51.2631 185.007 52.0609L182.571 49.4551Z" fill="black"/>
<path opacity="0.1" d="M186.975 60.2539C186.975 60.2539 184.433 60.2539 183.259 60.5453C182.085 60.8367 179.25 60.5453 179.25 60.5453" fill="black"/>
<g opacity="0.1">
<path opacity="0.1" d="M185.259 51.9345C185.04 52.0593 184.803 52.1495 184.556 52.202C185.193 52.3427 185.861 52.2476 186.433 51.9345C189.856 49.9879 182.815 45.6123 182.815 45.6123H181.642C181.642 45.6123 188.682 49.9903 185.259 51.9345Z" fill="black"/>
<path opacity="0.1" d="M199.264 24.9717C199.264 24.9096 199.249 24.8499 199.24 24.7949C198.837 24.8778 198.431 24.9392 198.022 24.9788C198.435 25.024 198.852 25.0216 199.264 24.9717Z" fill="black"/>
<path opacity="0.1" d="M174.212 71.4895C176.264 69.9323 175.093 61.0807 175.093 61.0807C175.093 61.0807 171.574 55.6327 171.475 53.5906C171.377 51.5485 163.362 41.3331 163.362 41.3331C162.286 40.7503 161.112 38.6103 161.112 38.6103C161.112 38.6103 154.463 27.8122 153.486 27.4229L159.938 38.6103C159.938 38.6103 161.112 40.7599 162.188 41.3331C162.188 41.3331 170.205 51.5485 170.301 53.5906C170.397 55.6327 173.917 61.0879 173.917 61.0879C173.917 61.0879 175.09 69.9394 173.036 71.4967C173.036 71.4967 180.067 73.2904 184.282 73.128C180.057 72.9799 174.212 71.4895 174.212 71.4895Z" fill="black"/>
<path opacity="0.1" d="M176.322 46.5633L176.264 46.4893C176.197 46.5089 176.129 46.5241 176.06 46.5346C176.151 46.5466 176.238 46.5561 176.322 46.5633Z" fill="black"/>
</g>
<g opacity="0.1">
<path opacity="0.1" d="M199.24 24.7832L199.18 24.7951C199.077 27.7831 196.993 34.8027 196.993 34.8027C196.993 36.0662 195.625 38.0128 195.625 38.0128C195.625 38.0128 189.955 46.6709 188.682 47.8388C187.41 49.0067 187.9 51.3403 187.9 51.3403L187.912 51.3641C187.873 50.5783 187.969 49.3602 188.778 48.615C190.048 47.4471 195.721 38.789 195.721 38.789C195.721 38.789 197.089 36.8424 197.089 35.5789C197.089 35.5933 199.631 27.0331 199.24 24.7832Z" fill="black"/>
<path opacity="0.1" d="M186.824 59.5224C186.971 60.3488 186.872 59.4746 186.923 60.301C186.923 60.301 189.323 57.4994 188.668 54.0361C188.865 57.1315 186.824 59.5224 186.824 59.5224Z" fill="black"/>
</g>
<path opacity="0.1" d="M112.773 157.999C169.472 157.999 215.436 153.607 215.436 148.188C215.436 142.769 169.472 138.376 112.773 138.376C56.0744 138.376 10.1108 142.769 10.1108 148.188C10.1108 153.607 56.0744 157.999 112.773 157.999Z" fill="#19C3AB"/>
<path d="M143.706 138.403C143.706 138.403 140.211 126.592 144.361 117.901C146.127 114.266 146.659 110.159 145.879 106.198C145.493 104.32 144.935 102.481 144.213 100.704" stroke="#535461" stroke-width="2" stroke-miterlimit="10"/>
<path d="M146.796 95.2117C146.796 96.6591 144.155 100.856 144.155 100.856C144.155 100.856 141.515 96.6591 141.515 95.2117C141.564 94.5503 141.863 93.9318 142.351 93.4805C142.84 93.0292 143.481 92.7783 144.148 92.7783C144.815 92.7783 145.457 93.0292 145.945 93.4805C146.433 93.9318 146.732 94.5503 146.781 95.2117H146.796Z" fill="#19C3AB"/>
<path d="M151.151 103.228C150.361 104.444 145.857 106.541 145.857 106.541C145.857 106.541 145.939 101.594 146.729 100.379C146.904 100.063 147.143 99.7867 147.43 99.5668C147.717 99.3469 148.046 99.1881 148.398 99.1004C148.749 99.0127 149.115 98.9979 149.473 99.0569C149.83 99.116 150.172 99.2476 150.476 99.4436C150.78 99.6396 151.04 99.8958 151.241 100.196C151.441 100.497 151.577 100.835 151.64 101.19C151.704 101.545 151.693 101.909 151.608 102.26C151.524 102.61 151.368 102.94 151.151 103.228Z" fill="#19C3AB"/>
<path d="M150.968 116.931C149.669 117.583 144.727 117.132 144.727 117.132C144.727 117.132 147.307 112.902 148.606 112.25C148.917 112.062 149.265 111.941 149.626 111.893C149.987 111.845 150.354 111.872 150.704 111.973C151.054 112.073 151.38 112.245 151.66 112.476C151.94 112.708 152.169 112.995 152.333 113.319C152.496 113.643 152.591 113.997 152.61 114.359C152.629 114.721 152.573 115.083 152.445 115.422C152.316 115.761 152.119 116.071 151.865 116.33C151.611 116.59 151.305 116.795 150.968 116.931Z" fill="#19C3AB"/>
<path d="M148.469 127.264C147.3 128.123 142.34 128.513 142.34 128.513C142.34 128.513 144.165 123.91 145.336 123.048C145.9 122.707 146.571 122.589 147.219 122.716C147.866 122.843 148.442 123.206 148.833 123.735C149.224 124.263 149.403 124.918 149.333 125.571C149.264 126.223 148.951 126.826 148.457 127.261L148.469 127.264Z" fill="#19C3AB"/>
<path d="M140.324 106.822C141.368 107.83 146.229 108.876 146.229 108.876C146.229 108.876 145.029 104.073 143.994 103.063C143.753 102.794 143.458 102.577 143.129 102.426C142.8 102.275 142.442 102.193 142.08 102.185C141.717 102.178 141.357 102.244 141.022 102.381C140.686 102.518 140.382 102.722 140.13 102.981C139.877 103.24 139.681 103.548 139.553 103.886C139.425 104.223 139.368 104.583 139.387 104.944C139.405 105.304 139.497 105.657 139.659 105.98C139.82 106.303 140.046 106.59 140.324 106.822Z" fill="#19C3AB"/>
<path d="M137.565 118.947C138.864 119.599 143.807 119.147 143.807 119.147C143.807 119.147 141.226 114.917 139.927 114.265C139.312 114.011 138.622 113.998 137.997 114.228C137.372 114.459 136.858 114.916 136.557 115.509C136.257 116.101 136.193 116.784 136.378 117.422C136.564 118.059 136.984 118.603 137.556 118.944L137.565 118.947Z" fill="#19C3AB"/>
<path d="M136.512 131.095C137.681 131.955 142.64 132.344 142.64 132.344C142.64 132.344 140.816 127.741 139.645 126.879C139.081 126.538 138.409 126.42 137.762 126.547C137.115 126.674 136.539 127.037 136.148 127.566C135.756 128.094 135.578 128.749 135.648 129.402C135.717 130.054 136.03 130.657 136.524 131.092L136.512 131.095Z" fill="#19C3AB"/>
<path opacity="0.1" d="M146.796 95.2117C146.796 96.6591 144.155 100.856 144.155 100.856C144.155 100.856 141.515 96.6591 141.515 95.2117C141.564 94.5503 141.863 93.9318 142.351 93.4805C142.84 93.0292 143.481 92.7783 144.148 92.7783C144.815 92.7783 145.457 93.0292 145.945 93.4805C146.433 93.9318 146.732 94.5503 146.781 95.2117H146.796Z" fill="#19C3AB"/>
<path opacity="0.1" d="M151.151 103.228C150.361 104.444 145.857 106.541 145.857 106.541C145.857 106.541 145.939 101.594 146.729 100.379C146.904 100.063 147.143 99.7867 147.43 99.5668C147.717 99.3469 148.046 99.1881 148.398 99.1004C148.749 99.0127 149.115 98.9979 149.473 99.0569C149.83 99.116 150.172 99.2476 150.476 99.4436C150.78 99.6396 151.04 99.8958 151.241 100.196C151.441 100.497 151.577 100.835 151.64 101.19C151.704 101.545 151.693 101.909 151.608 102.26C151.524 102.61 151.368 102.94 151.151 103.228Z" fill="#19C3AB"/>
<path opacity="0.1" d="M150.968 116.931C149.669 117.583 144.727 117.132 144.727 117.132C144.727 117.132 147.307 112.902 148.606 112.25C148.917 112.062 149.265 111.941 149.626 111.893C149.987 111.845 150.354 111.872 150.704 111.973C151.054 112.073 151.38 112.245 151.66 112.476C151.94 112.708 152.169 112.995 152.333 113.319C152.496 113.643 152.591 113.997 152.61 114.359C152.629 114.721 152.573 115.083 152.445 115.422C152.316 115.761 152.119 116.071 151.865 116.33C151.611 116.59 151.305 116.795 150.968 116.931Z" fill="#19C3AB"/>
<path opacity="0.1" d="M148.469 127.264C147.3 128.123 142.34 128.513 142.34 128.513C142.34 128.513 144.165 123.91 145.336 123.048C145.9 122.707 146.571 122.589 147.219 122.716C147.866 122.843 148.442 123.206 148.833 123.735C149.224 124.263 149.403 124.918 149.333 125.571C149.264 126.223 148.951 126.826 148.457 127.261L148.469 127.264Z" fill="#19C3AB"/>
<path opacity="0.1" d="M140.324 106.822C141.368 107.83 146.229 108.876 146.229 108.876C146.229 108.876 145.029 104.073 143.994 103.063C143.753 102.794 143.458 102.577 143.129 102.426C142.8 102.275 142.442 102.193 142.08 102.185C141.717 102.178 141.357 102.244 141.022 102.381C140.686 102.518 140.382 102.722 140.13 102.981C139.877 103.24 139.681 103.548 139.553 103.886C139.425 104.223 139.368 104.583 139.387 104.944C139.405 105.304 139.497 105.657 139.659 105.98C139.82 106.303 140.046 106.59 140.324 106.822Z" fill="#19C3AB"/>
<path opacity="0.1" d="M137.565 118.947C138.864 119.599 143.807 119.147 143.807 119.147C143.807 119.147 141.226 114.917 139.927 114.265C139.312 114.011 138.622 113.998 137.997 114.228C137.372 114.459 136.858 114.916 136.557 115.509C136.257 116.101 136.193 116.784 136.378 117.422C136.564 118.059 136.984 118.603 137.556 118.944L137.565 118.947Z" fill="#19C3AB"/>
<path opacity="0.1" d="M136.512 131.095C137.681 131.955 142.64 132.344 142.64 132.344C142.64 132.344 140.816 127.741 139.645 126.879C139.081 126.538 138.409 126.42 137.762 126.547C137.115 126.674 136.539 127.037 136.148 127.566C135.756 128.094 135.578 128.749 135.648 129.402C135.717 130.054 136.03 130.657 136.524 131.092L136.512 131.095Z" fill="#19C3AB"/>
<path d="M12.1662 122.947C12.1662 122.947 16.3671 131.152 12.944 135.639C9.52089 140.127 13.2561 152.359 13.2561 152.359" stroke="#19C3AB" stroke-miterlimit="10"/>
<path d="M13.4183 120.383C13.4183 121.964 12.2516 123.249 12.2516 123.249C12.2516 123.249 11.085 121.966 11.085 120.383C11.085 118.799 12.2516 117.517 12.2516 117.517C12.2516 117.517 13.4183 118.802 13.4183 120.383Z" fill="#19C3AB"/>
<path d="M14.3429 122.947C14.3429 122.947 10.142 131.152 13.5651 135.639C16.9883 140.127 13.2531 152.359 13.2531 152.359" stroke="#19C3AB" stroke-miterlimit="10"/>
<path d="M13.0996 120.383C13.0996 121.964 14.2663 123.249 14.2663 123.249C14.2663 123.249 15.4329 121.966 15.4329 120.383C15.4329 118.799 14.2663 117.517 14.2663 117.517C14.2663 117.517 13.0996 118.802 13.0996 120.383Z" fill="#19C3AB"/>
<path opacity="0.1" d="M13.0996 120.383C13.0996 121.964 14.2663 123.249 14.2663 123.249C14.2663 123.249 15.4329 121.966 15.4329 120.383C15.4329 118.799 14.2663 117.517 14.2663 117.517C14.2663 117.517 13.0996 118.802 13.0996 120.383Z" fill="black"/>
<path d="M16.0593 122.947C16.0593 122.947 20.2602 131.152 16.8371 135.639C13.4139 140.127 17.1491 152.359 17.1491 152.359" stroke="#19C3AB" stroke-miterlimit="10"/>
<path d="M17.3006 120.383C17.3006 121.964 16.1339 123.249 16.1339 123.249C16.1339 123.249 14.9673 121.966 14.9673 120.383C14.9673 118.799 16.1339 117.517 16.1339 117.517C16.1339 117.517 17.3006 118.802 17.3006 120.383Z" fill="#19C3AB"/>
<path d="M16.645 126.955C15.5432 128.094 13.8076 128.214 13.8076 128.214C13.8076 128.214 13.8604 126.484 14.9623 125.348C16.0641 124.211 17.7997 124.089 17.7997 124.089C17.7997 124.089 17.7396 125.813 16.645 126.955Z" fill="#19C3AB"/>
<path d="M16.7559 132.615C15.654 133.754 13.9185 133.874 13.9185 133.874C13.9185 133.874 13.9713 132.145 15.0731 131.008C16.1749 129.871 17.9105 129.749 17.9105 129.749C17.9105 129.749 17.8577 131.473 16.7559 132.615Z" fill="#19C3AB"/>
<path d="M10.7787 135.728C11.8205 136.922 11.7845 138.652 11.7845 138.652C11.7845 138.652 10.0585 138.444 9.0167 137.25C7.97489 136.055 8.01089 134.326 8.01089 134.326C8.01089 134.326 9.73686 134.534 10.7787 135.728Z" fill="#19C3AB"/>
<path d="M11.7387 123.663C13.0637 124.537 13.4934 126.214 13.4934 126.214C13.4934 126.214 11.7747 126.474 10.4496 125.6C9.12451 124.726 8.69482 123.049 8.69482 123.049C8.69482 123.049 10.4208 122.784 11.7387 123.663Z" fill="#19C3AB"/>
<path opacity="0.1" d="M11.7387 123.663C13.0637 124.537 13.4934 126.214 13.4934 126.214C13.4934 126.214 11.7747 126.474 10.4496 125.6C9.12451 124.726 8.69482 123.049 8.69482 123.049C8.69482 123.049 10.4208 122.784 11.7387 123.663Z" fill="black"/>
<path d="M18.2321 122.947C18.2321 122.947 14.0312 131.152 17.4543 135.639C20.8774 140.127 17.1422 152.359 17.1422 152.359" stroke="#19C3AB" stroke-miterlimit="10"/>
<path d="M16.9883 120.383C16.9883 121.964 18.1549 123.249 18.1549 123.249C18.1549 123.249 19.3216 121.966 19.3216 120.383C19.3216 118.799 18.1549 117.517 18.1549 117.517C18.1549 117.517 16.9883 118.802 16.9883 120.383Z" fill="#19C3AB"/>
<path opacity="0.1" d="M16.9883 120.383C16.9883 121.964 18.1549 123.249 18.1549 123.249C18.1549 123.249 19.3216 121.966 19.3216 120.383C19.3216 118.799 18.1549 117.517 18.1549 117.517C18.1549 117.517 16.9883 118.802 16.9883 120.383Z" fill="black"/>
<path d="M17.3248 127.077C16.2085 128.204 16.1245 129.943 16.1245 129.943C16.1245 129.943 17.8601 129.845 18.9763 128.718C20.0925 127.59 20.1766 125.852 20.1766 125.852C20.1766 125.852 18.441 125.949 17.3248 127.077Z" fill="#19C3AB"/>
<path opacity="0.1" d="M17.3248 127.077C16.2085 128.204 16.1245 129.943 16.1245 129.943C16.1245 129.943 17.8601 129.845 18.9763 128.718C20.0925 127.59 20.1766 125.852 20.1766 125.852C20.1766 125.852 18.441 125.949 17.3248 127.077Z" fill="black"/>
<path d="M19.5113 134.913C18.3951 136.04 18.311 137.779 18.311 137.779C18.311 137.779 20.0466 137.681 21.1628 136.554C22.2791 135.426 22.3631 133.688 22.3631 133.688C22.3631 133.688 20.6203 133.785 19.5113 134.913Z" fill="#19C3AB"/>
<path d="M16.2993 133.191C16.2993 133.191 18.827 129.226 22.3774 129.131" stroke="#19C3AB" stroke-miterlimit="10"/>
<path d="M14.3237 130.796C14.3237 130.796 11.796 126.831 8.24561 126.735" stroke="#19C3AB" stroke-miterlimit="10"/>
<path d="M13.9951 136.456C13.9951 136.456 16.5229 132.491 20.0732 132.396" stroke="#19C3AB" stroke-miterlimit="10"/>
<path d="M22.2554 129.761C22.6174 129.761 22.9108 129.469 22.9108 129.109C22.9108 128.749 22.6174 128.457 22.2554 128.457C21.8935 128.457 21.6001 128.749 21.6001 129.109C21.6001 129.469 21.8935 129.761 22.2554 129.761Z" fill="#19C3AB"/>
<path d="M8.30817 127.42C8.67011 127.42 8.96351 127.128 8.96351 126.768C8.96351 126.408 8.67011 126.116 8.30817 126.116C7.94624 126.116 7.65283 126.408 7.65283 126.768C7.65283 127.128 7.94624 127.42 8.30817 127.42Z" fill="#19C3AB"/>
<path d="M15.8554 137.756C15.8554 137.756 13.3277 133.791 9.77734 133.695" stroke="#19C3AB" stroke-miterlimit="10"/>
<path d="M9.83991 134.385C10.2018 134.385 10.4952 134.093 10.4952 133.733C10.4952 133.373 10.2018 133.081 9.83991 133.081C9.47798 133.081 9.18457 133.373 9.18457 133.733C9.18457 134.093 9.47798 134.385 9.83991 134.385Z" fill="#19C3AB"/>
<path d="M20.1212 133.081C20.4831 133.081 20.7765 132.789 20.7765 132.429C20.7765 132.069 20.4831 131.777 20.1212 131.777C19.7592 131.777 19.4658 132.069 19.4658 132.429C19.4658 132.789 19.7592 133.081 20.1212 133.081Z" fill="#19C3AB"/>
<path d="M29.8332 147.584C29.8332 147.584 23.7407 146.37 22.1132 144.753C20.4857 143.136 13.1785 140.309 12.3647 142.329C11.551 144.35 1.39684 151.221 8.3031 152.435C15.2093 153.648 24.5521 154.052 26.5829 153.242C28.6138 152.432 29.8332 147.584 29.8332 147.584Z" fill="#A8A8A8"/>
<path opacity="0.2" d="M8.30373 151.683C15.21 152.896 24.5527 153.3 26.5836 152.49C28.1295 151.874 29.2049 148.907 29.6298 147.541L29.8339 147.584C29.8339 147.584 28.6144 152.435 26.5836 153.242C24.5527 154.049 15.21 153.646 8.30373 152.435C6.31131 152.084 5.73999 151.262 5.95603 150.223C6.12407 150.892 6.82021 151.422 8.30373 151.683Z" fill="black"/>
<path d="M214.805 124.806C214.805 124.806 216.816 127.433 213.876 131.374C210.935 135.315 208.51 138.661 209.492 141.126C209.492 141.126 213.928 133.786 217.539 133.683C221.149 133.581 218.777 129.217 214.805 124.806Z" fill="#19C3AB"/>
<path opacity="0.1" d="M214.805 124.806C214.98 125.059 215.118 125.335 215.215 125.627C218.739 129.745 220.614 133.588 217.229 133.686C214.075 133.777 210.292 139.387 209.384 140.806C209.414 140.915 209.45 141.023 209.492 141.128C209.492 141.128 213.928 133.789 217.539 133.686C221.149 133.583 218.777 129.217 214.805 124.806Z" fill="black"/>
<path d="M218.544 128.139C218.544 129.061 218.441 129.811 218.304 129.811C218.167 129.811 218.064 129.064 218.064 128.139C218.064 127.215 218.194 127.662 218.321 127.662C218.448 127.662 218.544 127.22 218.544 128.139Z" fill="#FFD037"/>
<path d="M219.829 129.241C219.015 129.683 218.307 129.958 218.247 129.836C218.187 129.714 218.794 129.274 219.608 128.835C220.422 128.396 220.1 128.716 220.162 128.835C220.225 128.954 220.64 128.799 219.829 129.241Z" fill="#FFD037"/>
<path d="M204.18 124.806C204.18 124.806 202.168 127.433 205.109 131.374C208.049 135.315 210.474 138.661 209.492 141.126C209.492 141.126 205.056 133.786 201.446 133.683C197.835 133.581 200.207 129.217 204.18 124.806Z" fill="#19C3AB"/>
<path opacity="0.1" d="M204.18 124.806C204.004 125.059 203.866 125.335 203.769 125.627C200.245 129.745 198.371 133.588 201.755 133.686C204.91 133.777 208.693 139.387 209.6 140.806C209.57 140.915 209.534 141.023 209.492 141.128C209.492 141.128 205.056 133.789 201.446 133.686C197.835 133.583 200.207 129.217 204.18 124.806Z" fill="black"/>
<path d="M200.439 128.139C200.439 129.061 200.543 129.811 200.68 129.811C200.816 129.811 200.92 129.064 200.92 128.139C200.92 127.215 200.79 127.662 200.663 127.662C200.535 127.662 200.439 127.22 200.439 128.139Z" fill="#FFD037"/>
<path d="M199.156 129.241C199.97 129.683 200.678 129.958 200.738 129.836C200.798 129.714 200.19 129.274 199.377 128.835C198.563 128.396 198.885 128.716 198.822 128.835C198.76 128.954 198.342 128.799 199.156 129.241Z" fill="#FFD037"/>
<path d="M201.081 140.781C201.081 140.781 206.705 140.609 208.4 139.408C210.094 138.207 217.042 136.781 217.471 138.692C217.901 140.602 225.923 148.272 219.574 148.322C213.225 148.372 204.821 147.338 203.128 146.313C201.436 145.288 201.081 140.781 201.081 140.781Z" fill="#A8A8A8"/>
<path opacity="0.2" d="M219.687 147.66C213.338 147.71 204.933 146.676 203.241 145.651C201.952 144.87 201.438 142.069 201.268 140.776H201.081C201.081 140.776 201.436 145.291 203.128 146.315C204.821 147.34 213.225 148.376 219.574 148.324C221.408 148.31 222.039 147.66 222.006 146.7C221.751 147.285 221.062 147.648 219.687 147.66Z" fill="black"/>
</g>
<defs>
<linearGradient id="paint0_linear" x1="110.543" y1="129.875" x2="110.543" y2="30.9934" gradientUnits="userSpaceOnUse">
<stop stop-color="#808080" stop-opacity="0.25"/>
<stop offset="0.54" stop-color="#808080" stop-opacity="0.12"/>
<stop offset="1" stop-color="#808080" stop-opacity="0.1"/>
</linearGradient>
<linearGradient id="paint1_linear" x1="91.6542" y1="112.896" x2="91.6542" y2="112.885" gradientUnits="userSpaceOnUse">
<stop stop-color="#808080" stop-opacity="0.25"/>
<stop offset="0.54" stop-color="#808080" stop-opacity="0.12"/>
<stop offset="1" stop-color="#808080" stop-opacity="0.1"/>
</linearGradient>
<linearGradient id="paint2_linear" x1="15458.2" y1="48294" x2="15458.2" y2="21652.5" gradientUnits="userSpaceOnUse">
<stop stop-color="#808080" stop-opacity="0.25"/>
<stop offset="0.54" stop-color="#808080" stop-opacity="0.12"/>
<stop offset="1" stop-color="#808080" stop-opacity="0.1"/>
</linearGradient>
<linearGradient id="paint3_linear" x1="43545.7" y1="58541.6" x2="43545.7" y2="18975.1" gradientUnits="userSpaceOnUse">
<stop stop-color="#808080" stop-opacity="0.25"/>
<stop offset="0.54" stop-color="#808080" stop-opacity="0.12"/>
<stop offset="1" stop-color="#808080" stop-opacity="0.1"/>
</linearGradient>
<clipPath id="clip0">
<rect width="228" height="158" fill="white"/>
</clipPath>
</defs>
</svg>
