<svg width="80" height="38" viewBox="0 0 80 38" fill="none" xmlns="http://www.w3.org/2000/svg">
<rect width="79.8284" height="37.6589" fill="#19C3AB"/>
<path d="M32.729 25.528H32.197V29H29.313V19.256H32.883C34.2923 19.256 35.3423 19.508 36.033 20.012C36.7236 20.5067 37.069 21.286 37.069 22.35C37.069 22.9567 36.9337 23.4607 36.663 23.862C36.3923 24.2633 35.9537 24.6413 35.347 24.996L37.727 29H34.535L32.729 25.528ZM32.197 23.596H32.953C33.345 23.596 33.639 23.4933 33.835 23.288C34.031 23.0827 34.129 22.77 34.129 22.35C34.129 21.6033 33.6903 21.23 32.813 21.23H32.197V23.596ZM44.4473 19.256L44.1533 21.258H40.9333V23.078H43.7613V25.024H40.9333V26.984H44.3773V29H38.0493V19.256H44.4473ZM53.2747 25.696C53.2747 26.3773 53.1254 26.9887 52.8267 27.53C52.5281 28.0713 52.0754 28.5007 51.4687 28.818C50.8621 29.126 50.1154 29.28 49.2287 29.28C47.8941 29.28 46.8861 28.958 46.2047 28.314C45.5234 27.67 45.1827 26.7973 45.1827 25.696V19.256H48.0667V25.612C48.0667 26.1627 48.1554 26.5687 48.3327 26.83C48.5194 27.082 48.8181 27.208 49.2287 27.208C49.6394 27.208 49.9334 27.082 50.1107 26.83C50.2974 26.5687 50.3907 26.1627 50.3907 25.612V19.256H53.2747V25.696ZM57.8482 18.976C59.3322 18.976 60.5315 19.4193 61.4462 20.306L60.1722 21.804C59.5188 21.2813 58.8235 21.02 58.0862 21.02C57.7408 21.02 57.4795 21.0807 57.3022 21.202C57.1248 21.3233 57.0362 21.496 57.0362 21.72C57.0362 21.888 57.0828 22.028 57.1762 22.14C57.2788 22.2427 57.4422 22.3407 57.6662 22.434C57.8995 22.5273 58.2728 22.658 58.7862 22.826C59.8128 23.1527 60.5502 23.5633 60.9982 24.058C61.4555 24.5527 61.6842 25.2293 61.6842 26.088C61.6842 26.7133 61.5162 27.2687 61.1802 27.754C60.8535 28.23 60.3822 28.6033 59.7662 28.874C59.1502 29.1447 58.4222 29.28 57.5822 29.28C56.7235 29.28 55.9675 29.1447 55.3142 28.874C54.6608 28.6033 54.1102 28.2487 53.6622 27.81L55.0762 26.256C55.8135 26.8907 56.6115 27.208 57.4702 27.208C57.8715 27.208 58.1748 27.1287 58.3802 26.97C58.5855 26.802 58.6882 26.5873 58.6882 26.326C58.6882 26.13 58.6415 25.9667 58.5482 25.836C58.4642 25.7053 58.3102 25.584 58.0862 25.472C57.8622 25.36 57.5355 25.2387 57.1062 25.108C55.9768 24.7533 55.1882 24.3287 54.7402 23.834C54.2922 23.33 54.0682 22.7047 54.0682 21.958C54.0682 21.3513 54.2315 20.824 54.5582 20.376C54.8848 19.928 55.3328 19.5827 55.9022 19.34C56.4808 19.0973 57.1295 18.976 57.8482 18.976ZM68.8926 19.256L68.5986 21.258H65.3786V23.078H68.2066V25.024H65.3786V26.984H68.8226V29H62.4946V19.256H68.8926Z" fill="#04318C"/>
<path d="M15.6226 37.6585L0.000219345 22.3223L0.000219345 37.6585H15.6226Z" fill="white"/>
<path d="M64.3774 0.000238419L79.9998 15.5068V0.000238419L64.3774 0.000238419Z" fill="white"/>
</svg>
