<svg width="35" height="41" viewBox="0 0 35 41" fill="none" xmlns="http://www.w3.org/2000/svg">
<path fill-rule="evenodd" clip-rule="evenodd" d="M0 6C0 2.68629 2.68629 0 6 0H23C26.3137 0 29 2.68629 29 6V19.7462C29 23.0599 26.3137 25.7462 23 25.7462H6C2.68629 25.7462 0 23.0599 0 19.7462V6Z" fill="#19C3AB"/>
<path d="M24.8851 10.9742C24.7873 10.8687 24.6413 10.8071 24.4882 10.8071H22.5418C22.0614 9.68689 21.4356 8.58932 20.7243 8.17502C18.2637 6.74374 11.7372 6.74374 9.27656 8.17502C8.56475 8.58978 7.94154 9.6887 7.45864 10.8071H5.51218C5.35753 10.8071 5.21209 10.8687 5.11531 10.9742C5.01801 11.0792 4.97909 11.2182 5.01084 11.3518L5.29915 12.587C5.34831 12.7976 5.55827 12.9479 5.80049 12.9479H6.3771C5.82046 13.5157 5.55059 14.2307 5.547 14.9461C5.54342 15.8299 5.92288 16.6286 6.61676 17.1937C6.62444 17.1996 6.63212 17.2037 6.63929 17.2096V18.9379C6.63929 19.3123 6.98342 19.6171 7.40743 19.6171H9.20282C9.62683 19.6171 9.97095 19.3123 9.97095 18.9379V18.2433H20.0289V18.9379C20.0289 19.3123 20.373 19.6171 20.7971 19.6171H22.5925C23.0154 19.6171 23.3606 19.3123 23.3606 18.9379V17.2435C24.097 16.6472 24.4488 15.8267 24.4534 15.0076C24.4565 14.2678 24.1743 13.5266 23.5849 12.947H24.1999C24.4431 12.947 24.6531 12.7967 24.7012 12.5857L24.9901 11.3509C25.0198 11.2182 24.9824 11.0801 24.8851 10.9742ZM10.12 9.30926C12.0813 8.16777 17.9186 8.16777 19.8789 9.30926C20.2599 9.53022 20.7499 10.4236 21.1991 11.5175H8.80082C9.2489 10.424 9.73898 9.53113 10.12 9.30926ZM7.82273 15.1163C7.82273 14.3783 8.49972 13.7806 9.33391 13.7806C10.1691 13.7806 10.8451 14.3783 10.8451 15.1163C10.8451 15.8544 10.1691 16.4525 9.33391 16.4525C8.49972 16.4525 7.82273 15.8544 7.82273 15.1163ZM20.6859 16.4525C19.8517 16.4525 19.1748 15.8544 19.1748 15.1163C19.1748 14.3783 19.8517 13.7806 20.6859 13.7806C21.5212 13.7806 22.1971 14.3783 22.1971 15.1163C22.1971 15.8544 21.5201 16.4525 20.6859 16.4525Z" fill="white"/>
<g clip-path="url(#clip0)">
<path d="M33.9146 28.6759H26.3953V21.1566C26.3953 20.814 25.9302 20.0713 25 20.0713C24.0697 20.0713 23.6046 20.8141 23.6046 21.1566V28.6759H16.0853C15.7428 28.6759 15 29.141 15 30.0712C15 31.0014 15.7428 31.4666 16.0853 31.4666H23.6046V38.9859C23.6046 39.3284 24.0697 40.0712 25 40.0712C25.9303 40.0712 26.3954 39.3284 26.3954 38.9859V31.4666H33.9147C34.2572 31.4666 35 31.0015 35 30.0712C35 29.1409 34.2571 28.6759 33.9146 28.6759Z" fill="#04348C"/>
</g>
<defs>
<clipPath id="clip0">
<rect width="20" height="20" fill="white" transform="translate(15 20.0693)"/>
</clipPath>
</defs>
</svg>
