<svg width="30" height="30" viewBox="0 0 30 30" fill="none" xmlns="http://www.w3.org/2000/svg">
<mask id="path-1-outside-1" maskUnits="userSpaceOnUse" x="0" y="0" width="30" height="30" fill="black">
<rect fill="white" width="30" height="30"/>
<path fill-rule="evenodd" clip-rule="evenodd" d="M26.9998 14.2306C26.9998 20.4331 21.6273 25.4612 14.9999 25.4612C14.2002 25.4612 13.4187 25.388 12.6627 25.2483C11.9925 25.1745 11.596 25.244 10.9104 25.4833C10.6575 25.5715 10.362 25.7498 10.0234 25.9541C9.26481 26.4117 8.28959 27 7.09095 27C7.06837 27 7.1443 26.9152 7.27425 26.77C7.70458 26.2892 8.7273 25.1467 8.7273 24.2308V23.8066C5.29141 21.8311 3 18.2813 3 14.2306C3 8.02811 8.37255 3 14.9999 3C21.6273 3 26.9998 8.02811 26.9998 14.2306Z"/>
</mask>
<path d="M12.6627 25.2483L13.2077 22.2982L13.0999 22.2783L12.9909 22.2663L12.6627 25.2483ZM10.9104 25.4833L11.8989 28.3158H11.8989L10.9104 25.4833ZM10.0234 25.9541L8.47378 23.3853L8.47378 23.3853L10.0234 25.9541ZM7.27425 26.77L5.03894 24.7691L5.03894 24.7691L7.27425 26.77ZM8.7273 24.2308L11.7273 24.2308V24.2308H8.7273ZM8.7273 23.8066H11.7273V22.0709L10.2226 21.2058L8.7273 23.8066ZM14.9999 28.4612C23.0938 28.4612 29.9998 22.2741 29.9998 14.2306H23.9998C23.9998 18.5921 20.1608 22.4612 14.9999 22.4612V28.4612ZM12.1177 28.1984C13.0529 28.3712 14.0168 28.4612 14.9999 28.4612V22.4612C14.3835 22.4612 13.7845 22.4048 13.2077 22.2982L12.1177 28.1984ZM12.9909 22.2663C11.7702 22.132 10.9161 22.3039 9.92199 22.6508L11.8989 28.3158C12.17 28.2211 12.2281 28.2166 12.2132 28.2187C12.2021 28.2203 12.1943 28.2202 12.2 28.2203C12.2101 28.2203 12.2491 28.2209 12.3345 28.2303L12.9909 22.2663ZM9.922 22.6508C9.30731 22.8653 8.70903 23.2434 8.47378 23.3853L11.573 28.5228C11.6602 28.4703 11.7298 28.4283 11.7949 28.3899C11.859 28.352 11.9062 28.325 11.9425 28.3051C11.9791 28.285 11.9938 28.2781 11.9918 28.279C11.9906 28.2796 11.9575 28.2953 11.8989 28.3158L9.922 22.6508ZM8.47378 23.3853C8.07505 23.6258 7.82055 23.7739 7.5647 23.8809C7.33336 23.9777 7.18925 24 7.09095 24V30C9.23632 30 10.8882 28.936 11.5731 28.5228L8.47378 23.3853ZM7.09095 24C7.48761 24 8.42295 24.0862 9.21614 24.8847C10.045 25.719 10.1118 26.7114 10.0807 27.1906C10.0503 27.6576 9.91642 28.0028 9.86067 28.1376C9.79185 28.304 9.72198 28.4296 9.68185 28.4983C9.60208 28.6347 9.53005 28.7317 9.50643 28.7633C9.47485 28.8055 9.45051 28.8352 9.44135 28.8464C9.42426 28.8671 9.42349 28.867 9.50957 28.7708L5.03894 24.7691C4.99506 24.8182 4.89134 24.933 4.80945 25.0325C4.79552 25.0494 4.6423 25.2302 4.50172 25.4707C4.45861 25.5445 4.38644 25.6745 4.31601 25.8448C4.25866 25.9835 4.12384 26.3319 4.09332 26.8015C4.06201 27.2834 4.12939 28.2777 4.95957 29.1133C5.75407 29.9131 6.69146 30 7.09095 30V24ZM9.50957 28.7708C9.71871 28.5372 10.2123 27.9909 10.6516 27.3376C11.0137 26.7992 11.7273 25.6421 11.7273 24.2308L5.7273 24.2308C5.7273 24.0686 5.74955 23.9487 5.7656 23.882C5.77395 23.8473 5.78185 23.8218 5.78715 23.806C5.79247 23.7903 5.796 23.7818 5.79632 23.7811C5.79637 23.781 5.78796 23.8006 5.76557 23.8404C5.74356 23.8796 5.71306 23.9294 5.67266 23.9895C5.49303 24.2566 5.26012 24.522 5.03894 24.7691L9.50957 28.7708ZM11.7273 24.2308V23.8066H5.7273V24.2308H11.7273ZM0 14.2306C0 19.4632 2.963 23.9529 7.23196 26.4073L10.2226 21.2058C7.61982 19.7093 6 17.0994 6 14.2306H0ZM14.9999 0C6.90602 0 0 6.18712 0 14.2306H6C6 9.8691 9.83907 6 14.9999 6V0ZM29.9998 14.2306C29.9998 6.18712 23.0938 0 14.9999 0V6C20.1608 6 23.9998 9.8691 23.9998 14.2306H29.9998Z" fill="#C8C8C8" mask="url(#path-1-outside-1)"/>
</svg>
