<svg width="27" height="27" viewBox="0 0 27 27" fill="none" xmlns="http://www.w3.org/2000/svg">
<mask id="path-1-inside-1" fill="white">
<path fill-rule="evenodd" clip-rule="evenodd" d="M12.6178 0.182536C12.9633 -0.0608447 13.4244 -0.0608458 13.7698 0.182535L22.443 6.29364V5.79318C22.443 4.92514 23.1467 4.22146 24.0148 4.22146C24.8828 4.22146 25.5865 4.92514 25.5865 5.79318V8.58242C26.7229 9.77684 26.5841 11.5787 25.5865 12.6741V25.9281C25.5865 26.4804 25.1388 26.9281 24.5865 26.9281H2.22488C1.6726 26.9281 1.22488 26.4804 1.22488 25.9281V13.0568C-0.288684 11.9398 -0.542502 9.45522 1.27774 8.17269L12.6178 0.182536Z"/>
</mask>
<path d="M13.7698 0.182535L12.0419 2.63493L13.7698 0.182535ZM12.6178 0.182536L14.3458 2.63493L12.6178 0.182536ZM22.443 6.29364L20.7151 8.74603L25.443 12.0773V6.29364H22.443ZM25.5865 8.58242H22.5865V9.78158L23.4131 10.6503L25.5865 8.58242ZM25.5865 12.6741L23.3685 10.6541L22.5865 11.5128V12.6741H25.5865ZM1.22488 13.0568H4.22488V11.5424L3.00635 10.643L1.22488 13.0568ZM1.27774 8.17269L3.00568 10.6251H3.00568L1.27774 8.17269ZM15.4977 -2.26986C14.116 -3.24339 12.2716 -3.24338 10.8899 -2.26986L14.3458 2.63493C13.6549 3.12169 12.7327 3.12169 12.0419 2.63493L15.4977 -2.26986ZM24.171 3.84125L15.4977 -2.26986L12.0419 2.63493L20.7151 8.74603L24.171 3.84125ZM25.443 6.29364V5.79318H19.443V6.29364H25.443ZM25.443 5.79318C25.443 6.582 24.8036 7.22146 24.0148 7.22146V1.22146C21.4899 1.22146 19.443 3.26829 19.443 5.79318H25.443ZM24.0148 7.22146C23.2259 7.22146 22.5865 6.582 22.5865 5.79318H28.5865C28.5865 3.26829 26.5397 1.22146 24.0148 1.22146V7.22146ZM22.5865 5.79318V8.58242H28.5865V5.79318H22.5865ZM27.8046 14.6941C29.7327 12.577 30.1084 8.98278 27.7599 6.5145L23.4131 10.6503C23.4142 10.6515 23.4109 10.6481 23.4059 10.6401C23.4009 10.6322 23.3966 10.6232 23.3932 10.6143C23.3865 10.5961 23.3878 10.5883 23.3876 10.5948C23.3875 10.5981 23.3871 10.6038 23.3855 10.6113C23.384 10.6189 23.3817 10.6267 23.3787 10.6343C23.3722 10.6506 23.3662 10.6567 23.3685 10.6541L27.8046 14.6941ZM28.5865 25.9281V12.6741H22.5865V25.9281H28.5865ZM24.5865 29.9281C26.7957 29.9281 28.5865 28.1372 28.5865 25.9281H22.5865C22.5865 24.8235 23.482 23.9281 24.5865 23.9281V29.9281ZM2.22488 29.9281H24.5865V23.9281H2.22488V29.9281ZM-1.77512 25.9281C-1.77512 28.1372 0.0157387 29.9281 2.22488 29.9281V23.9281C3.32946 23.9281 4.22488 24.8235 4.22488 25.9281H-1.77512ZM-1.77512 13.0568V25.9281H4.22488V13.0568H-1.77512ZM-0.4502 5.7203C-4.15467 8.33044 -3.50374 13.2955 -0.556581 15.4706L3.00635 10.643C3.01507 10.6495 3.01917 10.6542 3.01974 10.6549C3.0201 10.6553 3.01739 10.6521 3.01358 10.6446C3.00973 10.637 3.00609 10.6276 3.00349 10.6174C3.00091 10.6073 3.00014 10.5994 3.00002 10.595C2.9999 10.5908 3.00042 10.592 2.99913 10.5982C2.99774 10.6049 2.99469 10.6151 2.98894 10.627C2.98616 10.6328 2.9832 10.6379 2.98034 10.6423C2.97746 10.6467 2.97527 10.6495 2.97441 10.6505C2.97353 10.6515 2.97479 10.6499 2.97917 10.6459C2.98356 10.6419 2.99198 10.6347 3.00568 10.6251L-0.4502 5.7203ZM10.8899 -2.26986L-0.450201 5.7203L3.00568 10.6251L14.3458 2.63493L10.8899 -2.26986Z" fill="#C8C8C8" mask="url(#path-1-inside-1)"/>
</svg>
