<svg width="22" height="22" viewBox="0 0 22 22" fill="none" xmlns="http://www.w3.org/2000/svg">
<path fill-rule="evenodd" clip-rule="evenodd" d="M10.875 7.25C11.6344 7.25 12.25 6.63439 12.25 5.875C12.25 5.11561 11.6344 4.5 10.875 4.5C10.1156 4.5 9.5 5.11561 9.5 5.875C9.5 6.63439 10.1156 7.25 10.875 7.25ZM10 8.5H12V16.5H13V17H12H10H9V16.5H10V9H9V8.5H10ZM11 21C16.5228 21 21 16.5228 21 11C21 5.47715 16.5228 1 11 1C5.47715 1 1 5.47715 1 11C1 16.5228 5.47715 21 11 21ZM11 22C4.92487 22 0 17.0751 0 11C0 4.92487 4.92487 0 11 0C17.0751 0 22 4.92487 22 11C22 17.0751 17.0751 22 11 22Z" fill="#B2B2B2"/>
</svg>
