<svg width="24" height="24" viewBox="0 0 24 24" fill="none" xmlns="http://www.w3.org/2000/svg">
<path fill-rule="evenodd" clip-rule="evenodd" d="M11.875 8.25C12.6344 8.25 13.25 7.63439 13.25 6.875C13.25 6.11561 12.6344 5.5 11.875 5.5C11.1156 5.5 10.5 6.11561 10.5 6.875C10.5 7.63439 11.1156 8.25 11.875 8.25ZM11 9.5H13V17.5H14V18H13H11H10V17.5H11V10H10V9.5H11ZM12 22C17.5228 22 22 17.5228 22 12C22 6.47715 17.5228 2 12 2C6.47715 2 2 6.47715 2 12C2 17.5228 6.47715 22 12 22ZM12 23C5.92487 23 1 18.0751 1 12C1 5.92487 5.92487 1 12 1C18.0751 1 23 5.92487 23 12C23 18.0751 18.0751 23 12 23Z" fill="#008F89"/>
<path d="M13 9.5H13.5V9H13V9.5ZM13 17.5H12.5V18H13V17.5ZM14 17.5H14.5V17H14V17.5ZM14 18V18.5H14.5V18H14ZM10 18H9.5V18.5H10V18ZM10 17.5V17H9.5V17.5H10ZM11 17.5V18H11.5V17.5H11ZM11 10H11.5V9.5H11V10ZM10 10H9.5V10.5H10V10ZM10 9.5V9H9.5V9.5H10ZM11.875 8.75C12.9105 8.75 13.75 7.91053 13.75 6.875H12.75C12.75 7.35825 12.3582 7.75 11.875 7.75V8.75ZM13.75 6.875C13.75 5.83947 12.9105 5 11.875 5V6C12.3582 6 12.75 6.39175 12.75 6.875H13.75ZM11.875 5C10.8395 5 10 5.83947 10 6.875H11C11 6.39175 11.3918 6 11.875 6V5ZM10 6.875C10 7.91053 10.8395 8.75 11.875 8.75V7.75C11.3918 7.75 11 7.35825 11 6.875H10ZM11 10H13V9H11V10ZM12.5 9.5V17.5H13.5V9.5H12.5ZM13 18H14V17H13V18ZM13.5 17.5V18H14.5V17.5H13.5ZM14 17.5H13V18.5H14V17.5ZM13 17.5H11V18.5H13V17.5ZM11 17.5H10V18.5H11V17.5ZM10.5 18V17.5H9.5V18H10.5ZM10 18H11V17H10V18ZM11.5 17.5V10H10.5V17.5H11.5ZM11 9.5H10V10.5H11V9.5ZM10.5 10V9.5H9.5V10H10.5ZM10 10H11V9H10V10ZM12 22.5C17.799 22.5 22.5 17.799 22.5 12H21.5C21.5 17.2467 17.2467 21.5 12 21.5V22.5ZM22.5 12C22.5 6.20101 17.799 1.5 12 1.5V2.5C17.2467 2.5 21.5 6.75329 21.5 12H22.5ZM12 1.5C6.20101 1.5 1.5 6.20101 1.5 12H2.5C2.5 6.75329 6.75329 2.5 12 2.5V1.5ZM1.5 12C1.5 17.799 6.20101 22.5 12 22.5V21.5C6.75329 21.5 2.5 17.2467 2.5 12H1.5ZM12 22.5C6.20101 22.5 1.5 17.799 1.5 12H0.5C0.5 18.3513 5.64873 23.5 12 23.5V22.5ZM1.5 12C1.5 6.20101 6.20101 1.5 12 1.5V0.5C5.64873 0.5 0.5 5.64873 0.5 12H1.5ZM12 1.5C17.799 1.5 22.5 6.20101 22.5 12H23.5C23.5 5.64873 18.3513 0.5 12 0.5V1.5ZM22.5 12C22.5 17.799 17.799 22.5 12 22.5V23.5C18.3513 23.5 23.5 18.3513 23.5 12H22.5Z" fill="#008F89"/>
</svg>
