<svg width="29" height="26" viewBox="0 0 29 26" fill="none" xmlns="http://www.w3.org/2000/svg">
<mask id="path-1-outside-1" maskUnits="userSpaceOnUse" x="0" y="0" width="29" height="26" fill="black">
<rect fill="white" width="29" height="26"/>
<path fill-rule="evenodd" clip-rule="evenodd" d="M11.6603 20.147C5.77279 20.147 1 15.8608 1 10.5735C1 5.28621 5.77279 1 11.6603 1C17.5479 1 22.3207 5.28621 22.3207 10.5735C22.3207 12.7377 21.521 14.7342 20.1726 16.3376C20.189 16.3511 20.2052 16.365 20.221 16.3793L27.2206 22.6652C27.8153 23.1993 27.8153 24.0653 27.2206 24.5994C26.6259 25.1335 25.6616 25.1335 25.0669 24.5994L18.0673 18.3134C18.0487 18.2967 18.0306 18.2796 18.0131 18.2622C16.2389 19.4464 14.0407 20.147 11.6603 20.147ZM17.8774 16.5867C16.2466 17.9471 14.0617 18.7789 11.6604 18.7789C6.61391 18.7789 2.52295 15.105 2.52295 10.5731C2.52295 6.04108 6.61391 2.36719 11.6604 2.36719C16.7068 2.36719 20.7978 6.04108 20.7978 10.5731C20.7978 12.7525 19.8517 14.7335 18.3082 16.2029C18.223 16.2532 18.1422 16.312 18.0673 16.3793C17.9953 16.444 17.932 16.5135 17.8774 16.5867Z"/>
</mask>
<path fill-rule="evenodd" clip-rule="evenodd" d="M11.6603 20.147C5.77279 20.147 1 15.8608 1 10.5735C1 5.28621 5.77279 1 11.6603 1C17.5479 1 22.3207 5.28621 22.3207 10.5735C22.3207 12.7377 21.521 14.7342 20.1726 16.3376C20.189 16.3511 20.2052 16.365 20.221 16.3793L27.2206 22.6652C27.8153 23.1993 27.8153 24.0653 27.2206 24.5994C26.6259 25.1335 25.6616 25.1335 25.0669 24.5994L18.0673 18.3134C18.0487 18.2967 18.0306 18.2796 18.0131 18.2622C16.2389 19.4464 14.0407 20.147 11.6603 20.147ZM17.8774 16.5867C16.2466 17.9471 14.0617 18.7789 11.6604 18.7789C6.61391 18.7789 2.52295 15.105 2.52295 10.5731C2.52295 6.04108 6.61391 2.36719 11.6604 2.36719C16.7068 2.36719 20.7978 6.04108 20.7978 10.5731C20.7978 12.7525 19.8517 14.7335 18.3082 16.2029C18.223 16.2532 18.1422 16.312 18.0673 16.3793C17.9953 16.444 17.932 16.5135 17.8774 16.5867Z" fill="#C8C8C8"/>
<path d="M20.1726 16.3376L19.4073 15.694L18.7569 16.4673L19.5369 17.1096L20.1726 16.3376ZM20.221 16.3793L19.5529 17.1233L19.5529 17.1233L20.221 16.3793ZM27.2206 22.6652L26.5524 23.4093L27.2206 22.6652ZM27.2206 24.5994L26.5524 23.8554L27.2206 24.5994ZM25.0669 24.5994L25.7351 23.8554L25.0669 24.5994ZM18.0673 18.3134L18.7355 17.5694L18.7355 17.5694L18.0673 18.3134ZM18.0131 18.2622L18.7182 17.5531L18.1382 16.9763L17.4579 17.4304L18.0131 18.2622ZM17.8774 16.5867L18.518 17.3546L18.6087 17.279L18.6793 17.1843L17.8774 16.5867ZM18.3082 16.2029L18.8169 17.0638L18.9151 17.0058L18.9977 16.9272L18.3082 16.2029ZM18.0673 16.3793L17.3992 15.6353L17.3992 15.6353L18.0673 16.3793ZM0 10.5735C0 16.5115 5.32436 21.147 11.6603 21.147V19.147C6.22123 19.147 2 15.2101 2 10.5735H0ZM11.6603 0C5.32436 0 0 4.6355 0 10.5735H2C2 5.93692 6.22123 2 11.6603 2V0ZM23.3207 10.5735C23.3207 4.6355 17.9963 0 11.6603 0V2C17.0994 2 21.3207 5.93692 21.3207 10.5735H23.3207ZM20.9379 16.9812C22.4255 15.2124 23.3207 12.9918 23.3207 10.5735H21.3207C21.3207 12.4836 20.6166 14.256 19.4073 15.694L20.9379 16.9812ZM19.5369 17.1096C19.5424 17.1141 19.5477 17.1187 19.5529 17.1233L20.8892 15.6353C20.8626 15.6113 20.8356 15.5881 20.8083 15.5657L19.5369 17.1096ZM19.5529 17.1233L26.5524 23.4093L27.8888 21.9212L20.8892 15.6353L19.5529 17.1233ZM26.5524 23.4093C26.6437 23.4912 26.6667 23.5729 26.6667 23.6323C26.6667 23.6918 26.6437 23.7735 26.5524 23.8554L27.8888 25.3434C28.926 24.412 28.926 22.8527 27.8888 21.9212L26.5524 23.4093ZM26.5524 23.8554C26.3378 24.0482 25.9497 24.0482 25.7351 23.8554L24.3987 25.3434C25.3735 26.2188 26.914 26.2188 27.8888 25.3434L26.5524 23.8554ZM25.7351 23.8554L18.7355 17.5694L17.3992 19.0574L24.3987 25.3434L25.7351 23.8554ZM18.7355 17.5694C18.7294 17.5639 18.7236 17.5585 18.7182 17.5531L17.308 18.9712C17.3375 19.0007 17.368 19.0294 17.3992 19.0574L18.7355 17.5694ZM11.6603 21.147C14.2374 21.147 16.629 20.3883 18.5683 19.0939L17.4579 17.4304C15.8489 18.5044 13.844 19.147 11.6603 19.147V21.147ZM17.2369 15.8188C15.7882 17.0273 13.8306 17.7789 11.6604 17.7789V19.7789C14.2928 19.7789 16.7051 18.8669 18.518 17.3546L17.2369 15.8188ZM11.6604 17.7789C7.06235 17.7789 3.52295 14.4543 3.52295 10.5731H1.52295C1.52295 15.7557 6.16548 19.7789 11.6604 19.7789V17.7789ZM3.52295 10.5731C3.52295 6.69179 7.06235 3.36719 11.6604 3.36719V1.36719C6.16548 1.36719 1.52295 5.39037 1.52295 10.5731H3.52295ZM11.6604 3.36719C16.2584 3.36719 19.7978 6.69179 19.7978 10.5731H21.7978C21.7978 5.39037 17.1553 1.36719 11.6604 1.36719V3.36719ZM19.7978 10.5731C19.7978 12.4517 18.9844 14.1785 17.6187 15.4786L18.9977 16.9272C20.719 15.2885 21.7978 13.0533 21.7978 10.5731H19.7978ZM18.7355 17.1233C18.7599 17.1013 18.7871 17.0814 18.8169 17.0638L17.7994 15.342C17.6589 15.425 17.5245 15.5227 17.3992 15.6353L18.7355 17.1233ZM18.6793 17.1843C18.6936 17.165 18.712 17.1444 18.7355 17.1233L17.3992 15.6353C17.2786 15.7435 17.1704 15.862 17.0756 15.9892L18.6793 17.1843Z" fill="#C8C8C8" mask="url(#path-1-outside-1)"/>
</svg>
