<svg width="154" height="51" viewBox="0 0 154 51" fill="none" xmlns="http://www.w3.org/2000/svg">
<rect width="154" height="51" rx="15" fill="#008F89"/>
<path d="M60.8501 30.1211C60.7231 30.043 60.6597 29.9404 60.6597 29.8135C60.6597 29.7354 60.6865 29.6475 60.7402 29.5498L61.6045 27.9971C61.6826 27.8604 61.7925 27.792 61.9341 27.792C62.0024 27.792 62.083 27.8115 62.1758 27.8506C62.6592 28.0703 63.1255 28.2437 63.5747 28.3706C64.0239 28.4927 64.4976 28.5537 64.9956 28.5537C65.3667 28.5537 65.6792 28.4829 65.9331 28.3413C66.1919 28.1948 66.3213 27.9995 66.3213 27.7554C66.3213 27.5747 66.248 27.4209 66.1016 27.2939C65.96 27.167 65.7549 27.0522 65.4863 26.9497C65.2227 26.8472 64.8491 26.7251 64.3657 26.5835C63.6089 26.3589 62.9937 26.1196 62.52 25.8657C62.0464 25.6069 61.6826 25.2798 61.4287 24.8843C61.1797 24.4888 61.0552 23.9907 61.0552 23.3901C61.0552 22.7065 61.2358 22.1182 61.5972 21.625C61.9585 21.1318 62.4395 20.7607 63.04 20.5117C63.6406 20.2578 64.2925 20.1309 64.9956 20.1309C65.4399 20.1309 65.8867 20.1821 66.3359 20.2847C66.79 20.3872 67.2026 20.5166 67.5737 20.6729C67.9448 20.8291 68.2476 20.9854 68.4819 21.1416C68.6284 21.2393 68.7017 21.3491 68.7017 21.4712C68.7017 21.5444 68.6699 21.6372 68.6064 21.7495L67.7349 23.3315C67.6665 23.4585 67.5664 23.522 67.4346 23.522C67.3467 23.522 67.2393 23.4902 67.1123 23.4268C66.7021 23.2168 66.3237 23.0581 65.9771 22.9507C65.6353 22.8384 65.2471 22.7822 64.8125 22.7822C64.5049 22.7822 64.2388 22.8481 64.0142 22.98C63.7896 23.1118 63.6772 23.2778 63.6772 23.478C63.6772 23.6929 63.8213 23.8784 64.1094 24.0347C64.3975 24.186 64.8613 24.3545 65.501 24.54C66.292 24.7744 66.9316 25.0112 67.4199 25.2505C67.9082 25.4849 68.3013 25.8071 68.5991 26.2173C68.897 26.6226 69.0459 27.1499 69.0459 27.7993C69.0459 28.4878 68.8628 29.0908 68.4966 29.6084C68.1304 30.1211 67.6323 30.5142 67.0024 30.7876C66.3726 31.061 65.6768 31.1978 64.915 31.1978C64.2021 31.1978 63.4893 31.105 62.7764 30.9194C62.0635 30.7339 61.4214 30.4678 60.8501 30.1211ZM80.2593 30.5386C80.3179 30.6265 80.3472 30.7095 80.3472 30.7876C80.3472 30.856 80.3228 30.9097 80.2739 30.9487C80.23 30.9878 80.1665 31.0073 80.0835 31.0073H77.6152C77.459 31.0073 77.332 30.9512 77.2344 30.8389L74.5537 26.8252L72.9937 28.6855V30.7144C72.9937 30.8071 72.9692 30.8779 72.9204 30.9268C72.8716 30.9756 72.8032 31 72.7153 31H70.6206C70.5327 31 70.4619 30.9756 70.4082 30.9268C70.3594 30.8779 70.335 30.8071 70.335 30.7144V20.585C70.335 20.4971 70.3594 20.4287 70.4082 20.3799C70.4619 20.3311 70.5327 20.3066 70.6206 20.3066H72.7153C72.8032 20.3066 72.8716 20.3311 72.9204 20.3799C72.9692 20.4238 72.9937 20.4922 72.9937 20.585V25.1772L76.4727 20.563C76.5508 20.4556 76.6313 20.3848 76.7144 20.3506C76.8022 20.3164 76.9097 20.2993 77.0366 20.2993H79.439C79.522 20.2993 79.5854 20.3213 79.6294 20.3652C79.6782 20.4092 79.7026 20.4653 79.7026 20.5337C79.7026 20.6216 79.6685 20.707 79.6001 20.79L76.2822 24.7524L80.2593 30.5386ZM84.0312 30.7144C84.0312 30.9048 83.9385 31 83.7529 31H81.6655C81.5728 31 81.502 30.9756 81.4531 30.9268C81.4043 30.8779 81.3799 30.8071 81.3799 30.7144V20.585C81.3799 20.3994 81.4751 20.3066 81.6655 20.3066H83.7529C83.9385 20.3066 84.0312 20.3994 84.0312 20.585V30.7144ZM89.7734 20.2993C90.5254 20.2993 91.1919 20.4531 91.7729 20.7607C92.354 21.0635 92.8057 21.4956 93.1279 22.0571C93.4551 22.6187 93.6187 23.2729 93.6187 24.02C93.6187 24.7573 93.4551 25.4043 93.1279 25.9609C92.8057 26.5176 92.354 26.9473 91.7729 27.25C91.1919 27.5527 90.5254 27.7041 89.7734 27.7041H88.4917V30.6191C88.4917 30.7412 88.4551 30.8364 88.3818 30.9048C88.3135 30.9731 88.2158 31.0073 88.0889 31.0073H86.2139C86.0918 31.0073 85.9966 30.9731 85.9282 30.9048C85.8647 30.8364 85.833 30.7412 85.833 30.6191V20.6948C85.833 20.5825 85.8672 20.4897 85.9355 20.4165C86.0088 20.3384 86.1016 20.2993 86.2139 20.2993H87.1587H88.1108H89.7734ZM89.6636 25.2944C89.9077 25.2944 90.1299 25.2383 90.3301 25.126C90.5303 25.0137 90.6865 24.8599 90.7988 24.6646C90.9111 24.4692 90.9673 24.2495 90.9673 24.0054C90.9673 23.7612 90.9111 23.5415 90.7988 23.3462C90.6865 23.146 90.5303 22.9897 90.3301 22.8774C90.1299 22.7651 89.9077 22.709 89.6636 22.709H88.4917V25.2944H89.6636Z" fill="white"/>
</svg>
