<svg width="375" height="812" viewBox="0 0 375 812" fill="none" xmlns="http://www.w3.org/2000/svg">
<g clip-path="url(#clip0)">
<rect width="375" height="812" fill="white"/>
<ellipse cx="413.5" cy="807" rx="226.5" ry="204" fill="#F4F4F4"/>
<ellipse cx="4.5" cy="33" rx="226.5" ry="204" fill="#F4F4F4"/>
<path d="M157.43 550.5C157.43 550.305 157.484 550.152 157.594 550.043C157.703 549.934 157.855 549.879 158.051 549.879H169.078C169.273 549.879 169.426 549.934 169.535 550.043C169.645 550.152 169.699 550.305 169.699 550.5V553.195C169.699 553.391 169.645 553.543 169.535 553.652C169.434 553.762 169.281 553.816 169.078 553.816H161.637V556.652H167.285C167.496 556.652 167.66 556.711 167.777 556.828C167.902 556.938 167.965 557.094 167.965 557.297V559.523C167.965 559.719 167.902 559.871 167.777 559.98C167.66 560.09 167.496 560.145 167.285 560.145H161.637V563.062H169.078C169.344 563.062 169.551 563.137 169.699 563.285C169.855 563.426 169.934 563.617 169.934 563.859V566.391C169.934 566.578 169.875 566.727 169.758 566.836C169.648 566.945 169.496 567 169.301 567H158.051C157.855 567 157.703 566.949 157.594 566.848C157.484 566.738 157.43 566.586 157.43 566.391V550.5ZM187.207 549.879C187.355 549.879 187.469 549.918 187.547 549.996C187.625 550.074 187.664 550.188 187.664 550.336V566.555C187.664 566.703 187.621 566.816 187.535 566.895C187.457 566.973 187.348 567.012 187.207 567.012H184.02C183.652 567.012 183.355 566.836 183.129 566.484L176.543 556.465V566.555C176.543 566.703 176.5 566.816 176.414 566.895C176.336 566.973 176.227 567.012 176.086 567.012H172.746C172.605 567.012 172.492 566.973 172.406 566.895C172.328 566.816 172.289 566.703 172.289 566.555V550.336C172.289 550.188 172.328 550.074 172.406 549.996C172.492 549.918 172.605 549.879 172.746 549.879H176.203C176.539 549.879 176.832 550.062 177.082 550.43L183.422 559.852V550.336C183.422 550.188 183.461 550.074 183.539 549.996C183.617 549.918 183.727 549.879 183.867 549.879H187.207ZM189.656 550.5C189.656 550.305 189.711 550.152 189.82 550.043C189.93 549.934 190.082 549.879 190.277 549.879H201.715C201.91 549.879 202.062 549.934 202.172 550.043C202.281 550.152 202.336 550.305 202.336 550.5V553.324C202.336 553.52 202.281 553.676 202.172 553.793C202.062 553.902 201.91 553.957 201.715 553.957H198.117V566.531C198.117 566.734 198.062 566.891 197.953 567C197.844 567.102 197.688 567.152 197.484 567.152H194.484C194.289 567.152 194.137 567.098 194.027 566.988C193.918 566.879 193.863 566.727 193.863 566.531V553.957H190.277C190.082 553.957 189.93 553.902 189.82 553.793C189.711 553.676 189.656 553.52 189.656 553.324V550.5ZM204.305 550.5C204.305 550.305 204.359 550.152 204.469 550.043C204.578 549.934 204.73 549.879 204.926 549.879H215.953C216.148 549.879 216.301 549.934 216.41 550.043C216.52 550.152 216.574 550.305 216.574 550.5V553.195C216.574 553.391 216.52 553.543 216.41 553.652C216.309 553.762 216.156 553.816 215.953 553.816H208.512V556.652H214.16C214.371 556.652 214.535 556.711 214.652 556.828C214.777 556.938 214.84 557.094 214.84 557.297V559.523C214.84 559.719 214.777 559.871 214.652 559.98C214.535 560.09 214.371 560.145 214.16 560.145H208.512V563.062H215.953C216.219 563.062 216.426 563.137 216.574 563.285C216.73 563.426 216.809 563.617 216.809 563.859V566.391C216.809 566.578 216.75 566.727 216.633 566.836C216.523 566.945 216.371 567 216.176 567H204.926C204.73 567 204.578 566.949 204.469 566.848C204.359 566.738 204.305 566.586 204.305 566.391V550.5ZM232.289 566.297C232.336 566.375 232.359 566.461 232.359 566.555C232.359 566.68 232.316 566.789 232.23 566.883C232.145 566.969 232.031 567.012 231.891 567.012H228.387C228.215 567.012 228.078 566.977 227.977 566.906C227.883 566.828 227.781 566.688 227.672 566.484L225.164 561.656H223.418V566.391C223.418 566.586 223.359 566.738 223.242 566.848C223.133 566.957 222.977 567.012 222.773 567.012H219.773C219.578 567.012 219.426 566.957 219.316 566.848C219.215 566.738 219.164 566.586 219.164 566.391V550.5C219.164 550.32 219.219 550.172 219.328 550.055C219.445 549.938 219.594 549.879 219.773 549.879H220.547H222.809H225.785C226.988 549.879 228.055 550.125 228.984 550.617C229.914 551.102 230.637 551.793 231.152 552.691C231.676 553.59 231.938 554.633 231.938 555.82C231.938 556.891 231.703 557.852 231.234 558.703C230.773 559.555 230.125 560.23 229.289 560.73L232.289 566.297ZM223.418 557.988H225.609C226.008 557.988 226.363 557.891 226.676 557.695C226.996 557.5 227.246 557.234 227.426 556.898C227.605 556.562 227.695 556.195 227.695 555.797C227.695 555.398 227.605 555.043 227.426 554.73C227.246 554.41 226.996 554.164 226.676 553.992C226.363 553.812 226.008 553.723 225.609 553.723H223.418V557.988Z" fill="white"/>
<g clip-path="url(#clip1)">
<path d="M64.7742 427.744L64.1821 427.611C70.7835 398.29 87.3733 371.664 110.896 352.637C128.679 338.275 149.83 328.669 172.357 324.725C194.883 320.781 218.044 322.627 239.659 330.091C261.274 337.554 280.631 350.389 295.908 367.387C311.186 384.386 321.88 404.987 326.985 427.253L326.393 427.387C312.419 366.107 258.645 323.308 195.624 323.308C133.429 323.308 78.3986 367.229 64.7742 427.744Z" fill="#3F3D56"/>
<path d="M293.976 356.103C303.078 356.103 310.457 348.733 310.457 339.642C310.457 330.551 303.078 323.182 293.976 323.182C284.874 323.182 277.495 330.551 277.495 339.642C277.495 348.733 284.874 356.103 293.976 356.103Z" fill="#FF6584"/>
<path d="M287.715 405.453H287.108V429.394H287.715V405.453Z" fill="#3F3D56"/>
<path d="M293.316 408.504C293.354 416.876 287.457 423.69 287.457 423.69C287.457 423.69 281.497 416.93 281.459 408.559C281.42 400.187 287.317 393.373 287.317 393.373C287.317 393.373 293.277 400.132 293.316 408.504Z" fill="#04318C"/>
<path opacity="0.1" d="M293.316 408.504C293.354 416.876 287.457 423.69 287.457 423.69C287.457 423.69 281.497 416.93 281.459 408.559C281.42 400.187 287.317 393.373 287.317 393.373C287.317 393.373 293.277 400.132 293.316 408.504Z" fill="black"/>
<path opacity="0.4" d="M173.025 357.853C178.262 357.853 182.507 353.613 182.507 348.383C182.507 343.153 178.262 338.913 173.025 338.913C167.788 338.913 163.543 343.153 163.543 348.383C163.543 353.613 167.788 357.853 173.025 357.853Z" fill="#04318C"/>
<path opacity="0.4" d="M155.477 359.549C159.151 359.549 162.128 356.575 162.128 352.906C162.128 349.237 159.151 346.263 155.477 346.263C151.804 346.263 148.826 349.237 148.826 352.906C148.826 356.575 151.804 359.549 155.477 359.549Z" fill="#04318C"/>
<path opacity="0.4" d="M84.171 378.642C87.8444 378.642 90.8223 375.667 90.8223 371.999C90.8223 368.33 87.8444 365.355 84.171 365.355C80.4976 365.355 77.5198 368.33 77.5198 371.999C77.5198 375.667 80.4976 378.642 84.171 378.642Z" fill="#04318C"/>
<path opacity="0.4" d="M280.831 357.073C286.067 357.073 290.312 352.834 290.312 347.604C290.312 342.374 286.067 338.134 280.831 338.134C275.594 338.134 271.349 342.374 271.349 347.604C271.349 352.834 275.594 357.073 280.831 357.073Z" fill="#04318C"/>
<path d="M38.1833 426.732C38.6973 428.629 40.4578 429.805 40.4578 429.805C40.4578 429.805 41.385 427.903 40.871 426.006C40.357 424.108 38.5965 422.933 38.5965 422.933C38.5965 422.933 37.6693 424.834 38.1833 426.732Z" fill="#3F3D56"/>
<path d="M38.9387 426.324C40.3491 427.695 40.5214 429.803 40.5214 429.803C40.5214 429.803 38.4069 429.687 36.9965 428.316C35.5861 426.945 35.4138 424.837 35.4138 424.837C35.4138 424.837 37.5283 424.952 38.9387 426.324Z" fill="#04318C"/>
<path d="M223.883 426.732C224.397 428.629 226.157 429.805 226.157 429.805C226.157 429.805 227.084 427.903 226.57 426.006C226.056 424.108 224.296 422.933 224.296 422.933C224.296 422.933 223.369 424.834 223.883 426.732Z" fill="#3F3D56"/>
<path d="M224.638 426.324C226.048 427.695 226.221 429.803 226.221 429.803C226.221 429.803 224.106 429.687 222.696 428.316C221.285 426.945 221.113 424.837 221.113 424.837C221.113 424.837 223.227 424.952 224.638 426.324Z" fill="#04318C"/>
<path d="M41.675 412.467L40.4197 410.377L52.1363 400.347H82.2651V403.272L71.3853 414.975L58.8315 417.482L41.675 412.467Z" fill="#3F3D56"/>
<path d="M87.4511 406.233V399.694H83.5065V401.756L82.2649 400.347L72.222 410.378L70.548 412.049L68.4558 420.408L72.222 429.603H91.4707V410.796L87.4511 406.233Z" fill="#CCCCCC"/>
<path d="M72.2221 410.378H40.4197V429.603H72.2221V410.378Z" fill="#F2F2F2"/>
<path d="M67.8283 416.438H61.1331V422.289H67.8283V416.438Z" fill="#3F3D56"/>
<path d="M58.413 416.229H52.5547V429.602H58.413V416.229Z" fill="#CCCCCC"/>
<path d="M45.8595 418.318V416.229H43.3489V418.318H45.6501H45.8595Z" fill="#3F3D56"/>
<path d="M45.6501 419.99H43.3489V422.08H45.8595V419.99H45.6501Z" fill="#3F3D56"/>
<path d="M50.0439 416.229H47.5332V418.318H50.0439V416.229Z" fill="#3F3D56"/>
<path d="M50.0439 419.99H47.5332V422.08H50.0439V419.99Z" fill="#3F3D56"/>
<path d="M81.2186 418.527V416.438H78.7078V418.527H81.0093H81.2186Z" fill="#3F3D56"/>
<path d="M81.0093 420.199H78.7078V422.289H81.2186V420.199H81.0093Z" fill="#3F3D56"/>
<path d="M85.4033 416.438H82.8926V418.527H85.4033V416.438Z" fill="#3F3D56"/>
<path d="M85.4033 420.199H82.8926V422.289H85.4033V420.199Z" fill="#3F3D56"/>
<path d="M162.743 412.467L161.488 410.377L173.205 400.347H203.334V403.272L192.454 414.975L179.9 417.482L162.743 412.467Z" fill="#3F3D56"/>
<path d="M208.52 406.233V399.694H204.575V401.756L203.334 400.347L193.291 410.378L191.617 412.049L189.524 420.408L193.291 429.603H212.539V410.796L208.52 406.233Z" fill="#CCCCCC"/>
<path d="M193.29 410.378H161.488V429.603H193.29V410.378Z" fill="#F2F2F2"/>
<path d="M188.897 416.438H182.201V422.289H188.897V416.438Z" fill="#3F3D56"/>
<path d="M179.482 416.229H173.623V429.602H179.482V416.229Z" fill="#CCCCCC"/>
<path d="M166.928 418.318V416.229H164.417V418.318H166.719H166.928Z" fill="#3F3D56"/>
<path d="M166.719 419.99H164.417V422.08H166.928V419.99H166.719Z" fill="#3F3D56"/>
<path d="M171.113 416.229H168.602V418.318H171.113V416.229Z" fill="#3F3D56"/>
<path d="M171.113 419.99H168.602V422.08H171.113V419.99Z" fill="#3F3D56"/>
<path d="M202.287 418.527V416.438H199.776V418.527H202.078H202.287Z" fill="#3F3D56"/>
<path d="M202.078 420.199H199.776V422.289H202.287V420.199H202.078Z" fill="#3F3D56"/>
<path d="M206.472 416.438H203.961V418.527H206.472V416.438Z" fill="#3F3D56"/>
<path d="M206.472 420.199H203.961V422.289H206.472V420.199Z" fill="#3F3D56"/>
<path d="M106.117 377.361L104.025 375.689L115.741 365.24H145.451V374.435L126.203 387.391L106.117 377.361Z" fill="#3F3D56"/>
<path d="M150.868 371.101V365.449H146.924V366.833L145.451 365.24L135.827 375.689L132.061 378.196L126.221 420.807L135.028 429.603H155.494V376.107L150.868 371.101Z" fill="#CCCCCC"/>
<path d="M135.827 375.688H104.024V429.602H135.827V375.688Z" fill="#F2F2F2"/>
<path d="M122.227 416.438H116.369V429.602H122.227V416.438Z" fill="#CCCCCC"/>
<path d="M110.092 420.199V418.109H107.581V420.199H109.883H110.092Z" fill="#3F3D56"/>
<path d="M109.883 421.871H107.581V423.961H110.092V421.871H109.883Z" fill="#3F3D56"/>
<path d="M114.277 418.109H111.766V420.199H114.277V418.109Z" fill="#3F3D56"/>
<path d="M114.277 421.871H111.766V423.961H114.277V421.871Z" fill="#3F3D56"/>
<path d="M127.248 420.199V418.109H124.738V420.199H127.039H127.248Z" fill="#3F3D56"/>
<path d="M127.039 421.871H124.738V423.961H127.248V421.871H127.039Z" fill="#3F3D56"/>
<path d="M131.433 418.109H128.922V420.199H131.433V418.109Z" fill="#3F3D56"/>
<path d="M131.433 421.871H128.922V423.961H131.433V421.871Z" fill="#3F3D56"/>
<path d="M144.824 378.405V376.315H142.313V378.405H144.614H144.824Z" fill="#3F3D56"/>
<path d="M144.614 380.077H142.313V382.167H144.824V380.077H144.614Z" fill="#3F3D56"/>
<path d="M149.008 376.315H146.497V378.405H149.008V376.315Z" fill="#3F3D56"/>
<path d="M149.008 380.077H146.497V382.167H149.008V380.077Z" fill="#3F3D56"/>
<path d="M144.824 390.107V388.018H142.313V390.107H144.614H144.824Z" fill="#3F3D56"/>
<path d="M144.614 391.779H142.313V393.869H144.824V391.779H144.614Z" fill="#3F3D56"/>
<path d="M149.008 388.019H146.497V390.108H149.008V388.019Z" fill="#3F3D56"/>
<path d="M149.008 391.779H146.497V393.869H149.008V391.779Z" fill="#3F3D56"/>
<path d="M144.824 401.81V399.72H142.313V401.81H144.614H144.824Z" fill="#3F3D56"/>
<path d="M144.614 403.481H142.313V405.571H144.824V403.481H144.614Z" fill="#3F3D56"/>
<path d="M149.008 399.72H146.497V401.809H149.008V399.72Z" fill="#3F3D56"/>
<path d="M149.008 403.481H146.497V405.571H149.008V403.481Z" fill="#3F3D56"/>
<path d="M144.824 413.512V411.422H142.313V413.512H144.614H144.824Z" fill="#3F3D56"/>
<path d="M144.614 415.184H142.313V417.273H144.824V415.184H144.614Z" fill="#3F3D56"/>
<path d="M149.008 411.423H146.497V413.513H149.008V411.423Z" fill="#3F3D56"/>
<path d="M149.008 415.184H146.497V417.273H149.008V415.184Z" fill="#3F3D56"/>
<path d="M131.852 378.405H107.581V383.421H131.852V378.405Z" fill="#3F3D56"/>
<path d="M131.852 388.436H107.581V393.451H131.852V388.436Z" fill="#3F3D56"/>
<path d="M131.852 398.466H107.581V403.481H131.852V398.466Z" fill="#3F3D56"/>
<path d="M131.852 408.497H107.581V413.512H131.852V408.497Z" fill="#3F3D56"/>
<path d="M228.399 377.361L226.307 375.689L238.024 365.24H267.734V374.435L248.485 387.391L228.399 377.361Z" fill="#3F3D56"/>
<path d="M273.15 371.101V365.449H269.206V366.833L267.734 365.24L258.109 375.689L254.343 378.196L248.504 420.807L257.31 429.603H277.776V376.107L273.15 371.101Z" fill="#CCCCCC"/>
<path d="M258.109 375.688H226.307V429.602H258.109V375.688Z" fill="#F2F2F2"/>
<path d="M244.509 416.438H238.651V429.602H244.509V416.438Z" fill="#CCCCCC"/>
<path d="M232.374 420.199V418.109H229.864V420.199H232.165H232.374Z" fill="#3F3D56"/>
<path d="M232.165 421.871H229.864V423.961H232.374V421.871H232.165Z" fill="#3F3D56"/>
<path d="M236.559 418.109H234.048V420.199H236.559V418.109Z" fill="#3F3D56"/>
<path d="M236.559 421.871H234.048V423.961H236.559V421.871Z" fill="#3F3D56"/>
<path d="M249.531 420.199V418.109H247.02V420.199H249.322H249.531Z" fill="#3F3D56"/>
<path d="M249.322 421.871H247.02V423.961H249.531V421.871H249.322Z" fill="#3F3D56"/>
<path d="M253.715 418.109H251.205V420.199H253.715V418.109Z" fill="#3F3D56"/>
<path d="M253.715 421.871H251.205V423.961H253.715V421.871Z" fill="#3F3D56"/>
<path d="M267.106 378.405V376.315H264.595V378.405H266.897H267.106Z" fill="#3F3D56"/>
<path d="M266.897 380.077H264.595V382.167H267.106V380.077H266.897Z" fill="#3F3D56"/>
<path d="M271.29 376.315H268.78V378.405H271.29V376.315Z" fill="#3F3D56"/>
<path d="M271.29 380.077H268.78V382.167H271.29V380.077Z" fill="#3F3D56"/>
<path d="M267.106 390.107V388.018H264.595V390.107H266.897H267.106Z" fill="#3F3D56"/>
<path d="M266.897 391.779H264.595V393.869H267.106V391.779H266.897Z" fill="#3F3D56"/>
<path d="M271.29 388.019H268.78V390.108H271.29V388.019Z" fill="#3F3D56"/>
<path d="M271.29 391.779H268.78V393.869H271.29V391.779Z" fill="#3F3D56"/>
<path d="M267.106 401.81V399.72H264.595V401.81H266.897H267.106Z" fill="#3F3D56"/>
<path d="M266.897 403.481H264.595V405.571H267.106V403.481H266.897Z" fill="#3F3D56"/>
<path d="M271.29 399.72H268.78V401.809H271.29V399.72Z" fill="#3F3D56"/>
<path d="M271.29 403.481H268.78V405.571H271.29V403.481Z" fill="#3F3D56"/>
<path d="M267.106 413.512V411.422H264.595V413.512H266.897H267.106Z" fill="#3F3D56"/>
<path d="M266.897 415.184H264.595V417.273H267.106V415.184H266.897Z" fill="#3F3D56"/>
<path d="M271.29 411.423H268.78V413.513H271.29V411.423Z" fill="#3F3D56"/>
<path d="M271.29 415.184H268.78V417.273H271.29V415.184Z" fill="#3F3D56"/>
<path d="M254.134 378.405H229.864V383.421H254.134V378.405Z" fill="#3F3D56"/>
<path d="M254.134 388.436H229.864V393.451H254.134V388.436Z" fill="#3F3D56"/>
<path d="M254.134 398.466H229.864V403.481H254.134V398.466Z" fill="#3F3D56"/>
<path d="M254.134 408.497H229.864V413.512H254.134V408.497Z" fill="#3F3D56"/>
<path d="M295.457 377.361L293.365 375.689L305.082 365.24H334.792V374.435L315.543 387.391L295.457 377.361Z" fill="#3F3D56"/>
<path d="M340.208 371.101V365.449H336.264V366.833L334.792 365.24L325.167 375.689L321.401 378.196L315.562 420.807L324.368 429.603H344.835V376.107L340.208 371.101Z" fill="#CCCCCC"/>
<path d="M325.167 375.688H293.365V429.602H325.167V375.688Z" fill="#F2F2F2"/>
<path d="M311.568 416.438H305.709V429.602H311.568V416.438Z" fill="#CCCCCC"/>
<path d="M299.432 420.199V418.109H296.922V420.199H299.223H299.432Z" fill="#3F3D56"/>
<path d="M299.223 421.871H296.922V423.961H299.432V421.871H299.223Z" fill="#3F3D56"/>
<path d="M303.617 418.109H301.106V420.199H303.617V418.109Z" fill="#3F3D56"/>
<path d="M303.617 421.871H301.106V423.961H303.617V421.871Z" fill="#3F3D56"/>
<path d="M316.589 420.199V418.109H314.078V420.199H316.38H316.589Z" fill="#3F3D56"/>
<path d="M316.38 421.871H314.078V423.961H316.589V421.871H316.38Z" fill="#3F3D56"/>
<path d="M320.773 418.109H318.263V420.199H320.773V418.109Z" fill="#3F3D56"/>
<path d="M320.773 421.871H318.263V423.961H320.773V421.871Z" fill="#3F3D56"/>
<path d="M334.164 378.405V376.315H331.653V378.405H333.955H334.164Z" fill="#3F3D56"/>
<path d="M333.955 380.077H331.653V382.167H334.164V380.077H333.955Z" fill="#3F3D56"/>
<path d="M338.349 376.315H335.838V378.405H338.349V376.315Z" fill="#3F3D56"/>
<path d="M338.349 380.077H335.838V382.167H338.349V380.077Z" fill="#3F3D56"/>
<path d="M334.164 390.107V388.018H331.653V390.107H333.955H334.164Z" fill="#3F3D56"/>
<path d="M333.955 391.779H331.653V393.869H334.164V391.779H333.955Z" fill="#3F3D56"/>
<path d="M338.349 388.019H335.838V390.108H338.349V388.019Z" fill="#3F3D56"/>
<path d="M338.349 391.779H335.838V393.869H338.349V391.779Z" fill="#3F3D56"/>
<path d="M334.164 401.81V399.72H331.653V401.81H333.955H334.164Z" fill="#3F3D56"/>
<path d="M333.955 403.481H331.653V405.571H334.164V403.481H333.955Z" fill="#3F3D56"/>
<path d="M338.349 399.72H335.838V401.809H338.349V399.72Z" fill="#3F3D56"/>
<path d="M338.349 403.481H335.838V405.571H338.349V403.481Z" fill="#3F3D56"/>
<path d="M334.164 413.512V411.422H331.653V413.512H333.955H334.164Z" fill="#3F3D56"/>
<path d="M333.955 415.184H331.653V417.273H334.164V415.184H333.955Z" fill="#3F3D56"/>
<path d="M338.349 411.423H335.838V413.513H338.349V411.423Z" fill="#3F3D56"/>
<path d="M338.349 415.184H335.838V417.273H338.349V415.184Z" fill="#3F3D56"/>
<path d="M321.192 378.405H296.922V383.421H321.192V378.405Z" fill="#3F3D56"/>
<path d="M321.192 388.436H296.922V393.451H321.192V388.436Z" fill="#3F3D56"/>
<path d="M321.192 398.466H296.922V403.481H321.192V398.466Z" fill="#3F3D56"/>
<path d="M321.192 408.497H296.922V413.512H321.192V408.497Z" fill="#3F3D56"/>
<path d="M366 429.394H21V430H366V429.394Z" fill="#3F3D56"/>
<path d="M98.0712 405.453H97.4644V429.394H98.0712V405.453Z" fill="#3F3D56"/>
<path d="M103.672 408.504C103.711 416.876 97.8134 423.69 97.8134 423.69C97.8134 423.69 91.8535 416.93 91.8149 408.559C91.7763 400.187 97.6735 393.373 97.6735 393.373C97.6735 393.373 103.633 400.132 103.672 408.504Z" fill="#04318C"/>
<path d="M158.757 405.453H158.15V429.394H158.757V405.453Z" fill="#3F3D56"/>
<path d="M164.358 408.504C164.396 416.876 158.499 423.69 158.499 423.69C158.499 423.69 152.539 416.93 152.501 408.559C152.462 400.187 158.359 393.373 158.359 393.373C158.359 393.373 164.319 400.132 164.358 408.504Z" fill="#04318C"/>
<path d="M279.826 405.453H279.219V429.394H279.826V405.453Z" fill="#3F3D56"/>
<path d="M285.427 408.504C285.465 416.876 279.568 423.69 279.568 423.69C279.568 423.69 273.608 416.93 273.57 408.559C273.531 400.187 279.428 393.373 279.428 393.373C279.428 393.373 285.388 400.132 285.427 408.504Z" fill="#04318C"/>
<path d="M199.265 325.14C205.633 325.14 210.796 323.98 210.796 322.549C210.796 321.118 205.633 319.958 199.265 319.958C192.897 319.958 187.735 321.118 187.735 322.549C187.735 323.98 192.897 325.14 199.265 325.14Z" fill="#04318C"/>
<path d="M212.313 286.334C212.313 293.699 198.962 314.519 198.962 314.519C198.962 314.519 185.611 293.699 185.611 286.334C185.611 282.798 187.017 279.406 189.521 276.906C192.025 274.405 195.421 273 198.962 273C202.503 273 205.899 274.405 208.402 276.906C210.906 279.406 212.313 282.798 212.313 286.334Z" fill="#04318C"/>
<path d="M198.962 293.911C203.151 293.911 206.547 290.519 206.547 286.334C206.547 282.15 203.151 278.758 198.962 278.758C194.772 278.758 191.376 282.15 191.376 286.334C191.376 290.519 194.772 293.911 198.962 293.911Z" fill="#F2F2F2"/>
</g>
<path d="M102.195 298.072H100.827V307H93.4113V281.944H102.591C106.215 281.944 108.915 282.592 110.691 283.888C112.467 285.16 113.355 287.164 113.355 289.9C113.355 291.46 113.007 292.756 112.311 293.788C111.615 294.82 110.487 295.792 108.927 296.704L115.047 307H106.839L102.195 298.072ZM100.827 293.104H102.771C103.779 293.104 104.535 292.84 105.039 292.312C105.543 291.784 105.795 290.98 105.795 289.9C105.795 287.98 104.667 287.02 102.411 287.02H100.827V293.104ZM132.328 281.944L131.572 287.092H123.292V291.772H130.564V296.776H123.292V301.816H132.148V307H115.876V281.944H132.328ZM133.588 298.432V293.032H145.828V298.432H133.588ZM175.03 307H167.722L167.542 298.108C167.518 297.412 167.506 296.368 167.506 294.976C167.506 292.528 167.602 290.164 167.794 287.884L164.842 304.48H157.822L154.654 287.884C154.966 291.22 155.122 294.076 155.122 296.452V298.072L154.942 307H147.634L149.434 281.944H158.578L161.458 298.18L164.05 281.944H173.23L175.03 307ZM236.865 281.944L230.529 307H220.953L214.221 281.944H222.033L225.849 301.852L229.269 281.944H236.865ZM253.969 281.944L253.213 287.092H244.933V291.772H252.205V296.776H244.933V301.816H253.789V307H237.517V281.944H253.969ZM265.004 298.072H263.636V307H256.22V281.944H265.4C269.024 281.944 271.724 282.592 273.5 283.888C275.276 285.16 276.164 287.164 276.164 289.9C276.164 291.46 275.816 292.756 275.12 293.788C274.424 294.82 273.296 295.792 271.736 296.704L277.856 307H269.648L265.004 298.072ZM263.636 293.104H265.58C266.588 293.104 267.344 292.84 267.848 292.312C268.352 291.784 268.604 290.98 268.604 289.9C268.604 287.98 267.476 287.02 265.22 287.02H263.636V293.104Z" fill="#04318C"/>
<path d="M198.499 290.768C201.008 290.768 203.049 288.622 203.049 285.985C203.049 283.348 201.008 281.201 198.499 281.201C195.99 281.201 193.949 283.348 193.949 285.985C193.949 288.622 195.99 290.768 198.499 290.768ZM198.499 282.568C200.291 282.568 201.749 284.101 201.749 285.985C201.749 287.868 200.291 289.401 198.499 289.401C196.707 289.401 195.249 287.868 195.249 285.985C195.249 284.101 196.707 282.568 198.499 282.568Z" fill="#04318C"/>
<path d="M198.386 310.417L208.357 295.277C212.098 290.035 211.557 281.419 207.2 276.839C204.845 274.363 201.715 273 198.386 273C195.056 273 191.926 274.363 189.572 276.838C185.215 281.418 184.674 290.034 188.399 295.255L198.386 310.417ZM190.491 277.805C192.6 275.588 195.404 274.367 198.386 274.367C201.368 274.367 204.171 275.588 206.281 277.805C210.213 281.938 210.697 289.72 207.303 294.477L198.386 308.016L189.454 294.457C186.074 289.72 186.559 281.938 190.491 277.805Z" fill="#04318C"/>
<path d="M206.376 302.389C206.019 302.343 205.696 302.613 205.655 302.988C205.613 303.363 205.868 303.702 206.224 303.746C213.059 304.592 216.7 306.872 216.7 308.193C216.7 310.047 209.776 312.634 198.5 312.634C187.224 312.634 180.3 310.047 180.3 308.193C180.3 306.872 183.941 304.592 190.776 303.746C191.132 303.702 191.387 303.362 191.345 302.988C191.303 302.613 190.981 302.342 190.624 302.389C183.78 303.236 179 305.623 179 308.193C179 311.079 185.698 314.001 198.5 314.001C211.302 314.001 218 311.079 218 308.193C218 305.623 213.22 303.236 206.376 302.389Z" fill="#04318C"/>
</g>
<defs>
<clipPath id="clip0">
<rect width="375" height="812" fill="white"/>
</clipPath>
<clipPath id="clip1">
<rect width="345" height="157" fill="white" transform="translate(21 273)"/>
</clipPath>
</defs>
</svg>
