<svg width="154" height="51" viewBox="0 0 154 51" fill="none" xmlns="http://www.w3.org/2000/svg">
<rect width="154" height="51" rx="15" fill="#008F89"/>
<path d="M36.3872 20.6875C36.3872 20.5654 36.4214 20.4702 36.4897 20.4019C36.5581 20.3335 36.6533 20.2993 36.7754 20.2993H43.9238C44.0459 20.2993 44.1411 20.3335 44.2095 20.4019C44.2778 20.4702 44.312 20.5654 44.312 20.6875V22.4526C44.312 22.5747 44.2778 22.6724 44.2095 22.7456C44.1411 22.814 44.0459 22.8481 43.9238 22.8481H41.6753V30.707C41.6753 30.834 41.6411 30.9316 41.5728 31C41.5044 31.0635 41.4067 31.0952 41.2798 31.0952H39.4048C39.2827 31.0952 39.1875 31.061 39.1191 30.9927C39.0508 30.9243 39.0166 30.8291 39.0166 30.707V22.8481H36.7754C36.6533 22.8481 36.5581 22.814 36.4897 22.7456C36.4214 22.6724 36.3872 22.5747 36.3872 22.4526V20.6875ZM53.7822 30.5825C53.8066 30.646 53.8188 30.7021 53.8188 30.751C53.8188 30.8291 53.7896 30.8926 53.731 30.9414C53.6772 30.9902 53.5991 31.0146 53.4966 31.0146H51.4165C51.314 31.0146 51.2188 30.9829 51.1309 30.9194C51.0479 30.8511 50.9868 30.7656 50.9478 30.6631L50.4644 29.2568H46.751L46.2749 30.6558C46.2456 30.7583 46.187 30.8438 46.0991 30.9121C46.0112 30.9756 45.9111 31.0073 45.7988 31.0073H43.7261C43.6235 31.0073 43.543 30.9854 43.4844 30.9414C43.4307 30.8926 43.4038 30.8267 43.4038 30.7437C43.4038 30.6948 43.416 30.6387 43.4404 30.5752L47.3516 20.6509C47.4004 20.5386 47.4688 20.4507 47.5566 20.3872C47.6494 20.3237 47.7471 20.292 47.8496 20.292H49.395C49.4976 20.292 49.5928 20.3262 49.6807 20.3945C49.7734 20.458 49.8394 20.5435 49.8784 20.6509L53.7822 30.5825ZM49.71 27.0449L48.604 23.8003L47.498 27.0449H49.71ZM64.7539 30.5386C64.8125 30.6265 64.8418 30.7095 64.8418 30.7876C64.8418 30.856 64.8174 30.9097 64.7686 30.9487C64.7246 30.9878 64.6611 31.0073 64.5781 31.0073H62.1099C61.9536 31.0073 61.8267 30.9512 61.729 30.8389L59.0483 26.8252L57.4883 28.6855V30.7144C57.4883 30.8071 57.4639 30.8779 57.415 30.9268C57.3662 30.9756 57.2979 31 57.21 31H55.1152C55.0273 31 54.9565 30.9756 54.9028 30.9268C54.854 30.8779 54.8296 30.8071 54.8296 30.7144V20.585C54.8296 20.4971 54.854 20.4287 54.9028 20.3799C54.9565 20.3311 55.0273 20.3066 55.1152 20.3066H57.21C57.2979 20.3066 57.3662 20.3311 57.415 20.3799C57.4639 20.4238 57.4883 20.4922 57.4883 20.585V25.1772L60.9673 20.563C61.0454 20.4556 61.126 20.3848 61.209 20.3506C61.2969 20.3164 61.4043 20.2993 61.5312 20.2993H63.9336C64.0166 20.2993 64.0801 20.3213 64.124 20.3652C64.1729 20.4092 64.1973 20.4653 64.1973 20.5337C64.1973 20.6216 64.1631 20.707 64.0947 20.79L60.7769 24.7524L64.7539 30.5386ZM65.8745 20.6875C65.8745 20.5654 65.9087 20.4702 65.9771 20.4019C66.0454 20.3335 66.1406 20.2993 66.2627 20.2993H73.1548C73.2769 20.2993 73.3721 20.3335 73.4404 20.4019C73.5088 20.4702 73.543 20.5654 73.543 20.6875V22.3721C73.543 22.4941 73.5088 22.5894 73.4404 22.6577C73.377 22.7261 73.2817 22.7603 73.1548 22.7603H68.5039V24.5327H72.0342C72.166 24.5327 72.2686 24.5693 72.3418 24.6426C72.4199 24.7109 72.459 24.8086 72.459 24.9355V26.3271C72.459 26.4492 72.4199 26.5444 72.3418 26.6128C72.2686 26.6812 72.166 26.7153 72.0342 26.7153H68.5039V28.5391H73.1548C73.3208 28.5391 73.4502 28.5854 73.543 28.6782C73.6406 28.7661 73.6895 28.8857 73.6895 29.0371V30.6191C73.6895 30.7363 73.6528 30.8291 73.5796 30.8975C73.5112 30.9658 73.416 31 73.2939 31H66.2627C66.1406 31 66.0454 30.9683 65.9771 30.9048C65.9087 30.8364 65.8745 30.7412 65.8745 30.6191V20.6875ZM78.3696 20.6875C78.3696 20.5654 78.4038 20.4702 78.4722 20.4019C78.5405 20.3335 78.6357 20.2993 78.7578 20.2993H85.9062C86.0283 20.2993 86.1235 20.3335 86.1919 20.4019C86.2603 20.4702 86.2944 20.5654 86.2944 20.6875V22.4526C86.2944 22.5747 86.2603 22.6724 86.1919 22.7456C86.1235 22.814 86.0283 22.8481 85.9062 22.8481H83.6577V30.707C83.6577 30.834 83.6235 30.9316 83.5552 31C83.4868 31.0635 83.3892 31.0952 83.2622 31.0952H81.3872C81.2651 31.0952 81.1699 31.061 81.1016 30.9927C81.0332 30.9243 80.999 30.8291 80.999 30.707V22.8481H78.7578C78.6357 22.8481 78.5405 22.814 78.4722 22.7456C78.4038 22.6724 78.3696 22.5747 78.3696 22.4526V20.6875ZM86.624 25.6753C86.624 24.6499 86.8706 23.7124 87.3638 22.8628C87.8569 22.0083 88.5283 21.3345 89.3779 20.8413C90.2324 20.3481 91.1724 20.1016 92.1978 20.1016C93.2183 20.1016 94.1533 20.3481 95.0029 20.8413C95.8574 21.3345 96.5312 22.0083 97.0244 22.8628C97.5176 23.7124 97.7642 24.6499 97.7642 25.6753C97.7642 26.6958 97.5176 27.6309 97.0244 28.4805C96.5312 29.3252 95.8599 29.9941 95.0103 30.4873C94.1606 30.9805 93.2231 31.2271 92.1978 31.2271C91.1724 31.2271 90.2324 30.9805 89.3779 30.4873C88.5283 29.9941 87.8569 29.3252 87.3638 28.4805C86.8706 27.6309 86.624 26.6958 86.624 25.6753ZM89.2754 25.6753C89.2754 26.2075 89.4048 26.6958 89.6636 27.1401C89.9224 27.5796 90.2739 27.9287 90.7183 28.1875C91.1675 28.4463 91.6606 28.5757 92.1978 28.5757C92.7349 28.5757 93.2256 28.4463 93.6699 28.1875C94.1143 27.9287 94.4658 27.5796 94.7246 27.1401C94.9834 26.6958 95.1128 26.2075 95.1128 25.6753C95.1128 25.1382 94.9834 24.6475 94.7246 24.2031C94.4658 23.7539 94.1118 23.3999 93.6626 23.1411C93.2183 22.8823 92.73 22.7529 92.1978 22.7529C91.6606 22.7529 91.1675 22.8823 90.7183 23.1411C90.2739 23.3999 89.9224 23.7539 89.6636 24.2031C89.4048 24.6475 89.2754 25.1382 89.2754 25.6753ZM101.448 26.5835C101.448 27.2036 101.6 27.7017 101.902 28.0776C102.21 28.4536 102.669 28.6416 103.279 28.6416C103.885 28.6416 104.339 28.4536 104.642 28.0776C104.944 27.7017 105.096 27.2036 105.096 26.5835V20.5996C105.096 20.5068 105.123 20.4336 105.176 20.3799C105.23 20.3262 105.303 20.2993 105.396 20.2993H107.425C107.522 20.2993 107.601 20.3262 107.659 20.3799C107.718 20.4336 107.747 20.5068 107.747 20.5996V26.5688C107.747 27.5503 107.571 28.3901 107.22 29.0884C106.868 29.7866 106.358 30.3188 105.689 30.6851C105.02 31.0513 104.217 31.2344 103.279 31.2344C101.81 31.2344 100.694 30.8315 99.9321 30.0259C99.1753 29.2153 98.7969 28.0605 98.7969 26.5615V20.5996C98.7969 20.5068 98.8213 20.4336 98.8701 20.3799C98.9189 20.3262 98.9849 20.2993 99.0679 20.2993H101.17C101.258 20.2993 101.326 20.3262 101.375 20.3799C101.424 20.4336 101.448 20.5068 101.448 20.5996V26.5835ZM117.481 30.5605C117.51 30.6094 117.525 30.6631 117.525 30.7217C117.525 30.7998 117.498 30.8682 117.444 30.9268C117.391 30.9805 117.32 31.0073 117.232 31.0073H115.042C114.935 31.0073 114.849 30.9854 114.786 30.9414C114.727 30.8926 114.664 30.8047 114.595 30.6777L113.028 27.6602H111.937V30.6191C111.937 30.7412 111.9 30.8364 111.827 30.9048C111.758 30.9731 111.661 31.0073 111.534 31.0073H109.659C109.537 31.0073 109.441 30.9731 109.373 30.9048C109.31 30.8364 109.278 30.7412 109.278 30.6191V20.6875C109.278 20.5752 109.312 20.4824 109.38 20.4092C109.454 20.3359 109.546 20.2993 109.659 20.2993H110.142H111.556H113.416C114.168 20.2993 114.834 20.4531 115.416 20.7607C115.997 21.0635 116.448 21.4956 116.771 22.0571C117.098 22.6187 117.261 23.2705 117.261 24.0127C117.261 24.6816 117.115 25.2822 116.822 25.8145C116.534 26.3467 116.128 26.769 115.606 27.0815L117.481 30.5605ZM111.937 25.3677H113.306C113.555 25.3677 113.777 25.3066 113.973 25.1846C114.173 25.0625 114.329 24.8965 114.441 24.6865C114.554 24.4766 114.61 24.2471 114.61 23.998C114.61 23.749 114.554 23.5269 114.441 23.3315C114.329 23.1313 114.173 22.9775 113.973 22.8701C113.777 22.7578 113.555 22.7017 113.306 22.7017H111.937V25.3677Z" fill="white"/>
</svg>
