<svg width="33" height="36" viewBox="0 0 33 36" fill="none" xmlns="http://www.w3.org/2000/svg">
<path fill-rule="evenodd" clip-rule="evenodd" d="M0 6C0 2.68629 2.68629 0 6 0H23C26.3137 0 29 2.68629 29 6V19.7462C29 23.0599 26.3137 25.7462 23 25.7462H6C2.68629 25.7462 0 23.0599 0 19.7462V6Z" fill="#F86D70"/>
<path d="M24.8851 10.9752C24.7873 10.8697 24.6413 10.8081 24.4882 10.8081H22.5418C22.0614 9.68787 21.4356 8.5903 20.7243 8.176C18.2637 6.74472 11.7372 6.74472 9.27656 8.176C8.56475 8.59075 7.94154 9.68968 7.45864 10.8081H5.51218C5.35753 10.8081 5.21209 10.8697 5.11531 10.9752C5.01801 11.0802 4.97909 11.2192 5.01084 11.3528L5.29915 12.588C5.34831 12.7985 5.55827 12.9489 5.80049 12.9489H6.3771C5.82046 13.5167 5.55059 14.2316 5.547 14.947C5.54342 15.8309 5.92288 16.6296 6.61676 17.1947C6.62444 17.2006 6.63212 17.2047 6.63929 17.2105V18.9389C6.63929 19.3133 6.98342 19.618 7.40743 19.618H9.20282C9.62683 19.618 9.97095 19.3133 9.97095 18.9389V18.2443H20.0289V18.9389C20.0289 19.3133 20.373 19.618 20.7971 19.618H22.5925C23.0154 19.618 23.3606 19.3133 23.3606 18.9389V17.2445C24.097 16.6482 24.4488 15.8277 24.4534 15.0086C24.4565 14.2688 24.1743 13.5275 23.5849 12.948H24.1999C24.4431 12.948 24.6531 12.7976 24.7012 12.5866L24.9901 11.3519C25.0198 11.2192 24.9824 11.0811 24.8851 10.9752ZM10.12 9.31024C12.0813 8.16875 17.9186 8.16875 19.8789 9.31024C20.2599 9.5312 20.7499 10.4246 21.1991 11.5185H8.80082C9.2489 10.425 9.73898 9.53211 10.12 9.31024ZM7.82273 15.1173C7.82273 14.3792 8.49972 13.7816 9.33391 13.7816C10.1691 13.7816 10.8451 14.3792 10.8451 15.1173C10.8451 15.8553 10.1691 16.4535 9.33391 16.4535C8.49972 16.4535 7.82273 15.8553 7.82273 15.1173ZM20.6859 16.4535C19.8517 16.4535 19.1748 15.8553 19.1748 15.1173C19.1748 14.3792 19.8517 13.7816 20.6859 13.7816C21.5212 13.7816 22.1971 14.3792 22.1971 15.1173C22.1971 15.8553 21.5201 16.4535 20.6859 16.4535Z" fill="white"/>
<path fill-rule="evenodd" clip-rule="evenodd" d="M32.6366 21.9308L17.2193 28.0008H25.9181V35.204L32.6366 21.9308Z" fill="#04348C"/>
</svg>
